<svg width="126" height="83" viewBox="0 0 126 83" fill="none" xmlns="http://www.w3.org/2000/svg">
<mask id="mask0_10_395" style="mask-type:alpha" maskUnits="userSpaceOnUse" x="0" y="0" width="126" height="83">
<rect width="126" height="83" fill="#D9D9D9"/>
</mask>
<g mask="url(#mask0_10_395)">
<g filter="url(#filter0_d_10_395)">
<path d="M322.257 -106.5H148.743C147.947 -106.5 147.184 -106.816 146.621 -107.379L145.879 -108.121C145.316 -108.684 144.553 -109 143.757 -109H136.446C135.83 -109 135.23 -108.811 134.725 -108.458L132.238 -106.717C131.196 -105.987 130.728 -104.681 131.068 -103.456L132.741 -97.4341C132.909 -96.8268 133.265 -96.2881 133.757 -95.8944L134.374 -95.4007C135.086 -94.8314 135.5 -93.9695 135.5 -93.0581V-84.8604C135.5 -84.2981 135.342 -83.7472 135.044 -83.2704L133.456 -80.7296C133.158 -80.2528 133 -79.7019 133 -79.1396V-64.5196C133 -64.1758 133.059 -63.8345 133.175 -63.5106L134.857 -58.8012C135.242 -57.7234 134.9 -56.5201 134.006 -55.8052C133.37 -55.2963 133 -54.5258 133 -53.7111V-49V-36.2426C133 -35.447 133.316 -34.6839 133.879 -34.1213L137.379 -30.6213C138.55 -29.4497 138.55 -27.5503 137.379 -26.3787L131.379 -20.3787C130.816 -19.8161 130.5 -19.053 130.5 -18.2574V-6.24264C130.5 -5.44699 130.816 -4.68393 131.379 -4.12132L135.121 -0.378677C135.684 0.183929 136 0.946991 136 1.74264V5.5C136 7.15685 134.657 8.5 133 8.5H8C6.34315 8.5 5 9.84315 5 11.5V51V66C5 67.6569 6.34315 69 8 69H51.279C51.4261 69 51.5731 69.0108 51.7186 69.0324L64.7814 70.9676C64.9269 70.9892 65.0739 71 65.221 71H80.2646C80.4213 71 80.5777 70.9877 80.7325 70.9633L117.536 65.1521C118.163 65.0533 118.741 64.7585 119.19 64.3102L120.879 62.6213C122.05 61.4498 123.95 61.4498 125.121 62.6213L128.621 66.1213C129.184 66.6839 129.947 67 130.743 67H259.5C261.157 67 262.5 65.6569 262.5 64V7.02512C262.5 6.45896 262.041 6 261.475 6C260.562 6 260.104 4.89579 260.75 4.25L261.987 3.01257C262.316 2.68437 262.5 2.23926 262.5 1.77512V-45C262.5 -46.6569 263.843 -48 265.5 -48H292.858C293.281 -48 293.7 -47.9106 294.086 -47.7375L306.37 -42.2308C307.374 -41.7805 308.545 -41.9166 309.419 -42.5853L315.693 -47.3831C316.216 -47.7832 316.857 -48 317.516 -48H352.257C353.053 -48 353.816 -48.3161 354.379 -48.8787L356.879 -51.3787C358.05 -52.5503 359.95 -52.5503 361.121 -51.3787C361.684 -50.8161 362.447 -50.5 363.243 -50.5H413.757C414.553 -50.5 415.316 -50.1839 415.879 -49.6213L419.121 -46.3787C419.684 -45.8161 420.447 -45.5 421.243 -45.5H445.5C447.157 -45.5 448.5 -46.8431 448.5 -48.5V-103.5C448.5 -105.157 447.157 -106.5 445.5 -106.5H439H389.797C389.275 -106.5 388.762 -106.364 388.308 -106.105L386.547 -105.098C385.875 -104.714 385.081 -104.605 384.331 -104.792L378.374 -106.282C377.807 -106.423 377.21 -106.371 376.677 -106.134L374.108 -104.992C373.587 -104.761 373 -105.142 373 -105.712C373 -106.147 372.647 -106.5 372.212 -106.5H331.377C330.503 -106.5 329.673 -106.118 329.104 -105.455C327.969 -104.131 325.947 -104.053 324.714 -105.286L324.379 -105.621C323.816 -106.184 323.053 -106.5 322.257 -106.5Z" fill="#844653"/>
<path d="M322.257 -106.5H148.743C147.947 -106.5 147.184 -106.816 146.621 -107.379L145.879 -108.121C145.316 -108.684 144.553 -109 143.757 -109H136.446C135.83 -109 135.23 -108.811 134.725 -108.458L132.238 -106.717C131.196 -105.987 130.728 -104.681 131.068 -103.456L132.741 -97.4341C132.909 -96.8268 133.265 -96.2881 133.757 -95.8944L134.374 -95.4007C135.086 -94.8314 135.5 -93.9695 135.5 -93.0581V-84.8604C135.5 -84.2981 135.342 -83.7472 135.044 -83.2704L133.456 -80.7296C133.158 -80.2528 133 -79.7019 133 -79.1396V-64.5196C133 -64.1758 133.059 -63.8345 133.175 -63.5106L134.857 -58.8012C135.242 -57.7234 134.9 -56.5201 134.006 -55.8052C133.37 -55.2963 133 -54.5258 133 -53.7111V-49V-36.2426C133 -35.447 133.316 -34.6839 133.879 -34.1213L137.379 -30.6213C138.55 -29.4497 138.55 -27.5503 137.379 -26.3787L131.379 -20.3787C130.816 -19.8161 130.5 -19.053 130.5 -18.2574V-6.24264C130.5 -5.44699 130.816 -4.68393 131.379 -4.12132L135.121 -0.378677C135.684 0.183929 136 0.946991 136 1.74264V5.5C136 7.15685 134.657 8.5 133 8.5H8C6.34315 8.5 5 9.84315 5 11.5V51V66C5 67.6569 6.34315 69 8 69H51.279C51.4261 69 51.5731 69.0108 51.7186 69.0324L64.7814 70.9676C64.9269 70.9892 65.0739 71 65.221 71H80.2646C80.4213 71 80.5777 70.9877 80.7325 70.9633L117.536 65.1521C118.163 65.0533 118.741 64.7585 119.19 64.3102L120.879 62.6213C122.05 61.4498 123.95 61.4498 125.121 62.6213L128.621 66.1213C129.184 66.6839 129.947 67 130.743 67H259.5C261.157 67 262.5 65.6569 262.5 64V7.02512C262.5 6.45896 262.041 6 261.475 6C260.562 6 260.104 4.89579 260.75 4.25L261.987 3.01257C262.316 2.68437 262.5 2.23926 262.5 1.77512V-45C262.5 -46.6569 263.843 -48 265.5 -48H292.858C293.281 -48 293.7 -47.9106 294.086 -47.7375L306.37 -42.2308C307.374 -41.7805 308.545 -41.9166 309.419 -42.5853L315.693 -47.3831C316.216 -47.7832 316.857 -48 317.516 -48H352.257C353.053 -48 353.816 -48.3161 354.379 -48.8787L356.879 -51.3787C358.05 -52.5503 359.95 -52.5503 361.121 -51.3787C361.684 -50.8161 362.447 -50.5 363.243 -50.5H413.757C414.553 -50.5 415.316 -50.1839 415.879 -49.6213L419.121 -46.3787C419.684 -45.8161 420.447 -45.5 421.243 -45.5H445.5C447.157 -45.5 448.5 -46.8431 448.5 -48.5V-103.5C448.5 -105.157 447.157 -106.5 445.5 -106.5H439H389.797C389.275 -106.5 388.762 -106.364 388.308 -106.105L386.547 -105.098C385.875 -104.714 385.081 -104.605 384.331 -104.792L378.374 -106.282C377.807 -106.423 377.21 -106.371 376.677 -106.134L374.108 -104.992C373.587 -104.761 373 -105.142 373 -105.712C373 -106.147 372.647 -106.5 372.212 -106.5H331.377C330.503 -106.5 329.673 -106.118 329.104 -105.455C327.969 -104.131 325.947 -104.053 324.714 -105.286L324.379 -105.621C323.816 -106.184 323.053 -106.5 322.257 -106.5Z" stroke="black" stroke-width="2"/>
</g>
<path d="M50.8076 33.7242L0 35.6772L50.706 37.0627C53.9389 37.151 57.1342 37.7795 60.1598 38.9221L78.7205 45.9318C86.8764 49.012 95.9853 48.2596 103.525 43.8828L139.194 23.1778L101.39 41.093C94.1813 44.5093 85.8834 44.8051 78.4495 41.9108L62.4433 35.6788C58.7396 34.2368 54.7791 33.5715 50.8076 33.7242Z" fill="#62323E" fill-opacity="0.5"/>
<path d="M59.5543 53.914L12.0067 49.5915C8.5126 49.2739 5.5 52.025 5.5 55.5335C5.5 58.8287 8.17129 61.5 11.4665 61.5H52L63 63H78.7542C79.2507 63 79.7465 62.963 80.2376 62.8894L118.174 57.1988C119.035 57.0697 119.832 56.6678 120.448 56.0522C121.904 54.596 124.219 54.4576 125.838 55.73L128.037 57.4573C129.309 58.4567 130.879 59 132.497 59H256.925C260.068 59 262.68 56.5749 262.912 53.4398C263.207 49.4613 259.611 46.3072 255.705 47.1179L238.125 50.7666C237.377 50.9217 236.615 50.9907 235.852 50.9723L156.447 49.059C154.839 49.0202 153.265 48.5944 151.857 47.8176L143.088 42.9796C140.789 41.711 138.083 41.3978 135.555 42.1075L111.844 48.763C111.283 48.9207 110.708 49.0289 110.127 49.0864L61.445 53.9064C60.8164 53.9687 60.1834 53.9712 59.5543 53.914Z" fill="#62323E" fill-opacity="0.5"/>
<path d="M10.54 14C8.82529 14.8573 8.19956 16.7867 8.04281 18.3656C7.93691 19.4324 8.30673 20.6547 9.33642 20.953C9.87447 21.1088 10.4069 21.0315 10.8416 20.8724C11.3257 20.6952 11.6167 20.2317 11.7583 19.7361C12.1645 18.3143 13.8483 17.569 15.317 17.3969C15.8247 17.3374 16.3977 17.2141 17.04 17C19.0988 16.3137 18.3613 15.0878 17.4788 14.3323C17.2004 14.094 16.8723 13.9217 16.5242 13.8072C15.1483 13.3547 12.64 12.95 10.54 14Z" fill="#B34840"/>
<path d="M67.5471 13H24.5471C17.3471 15.8 22.8804 18.5 26.5471 19.5H69.5471C75.1471 17.9 70.5471 14.5 67.5471 13Z" fill="#B34840"/>
<path d="M129.74 13H80.977C72.8121 15.5846 79.087 18.0769 83.2451 19H132.008C138.358 17.5231 133.142 14.3846 129.74 13Z" fill="#B34840"/>
<path d="M67.5471 12H24.5471C17.3471 14.8 22.8804 17.5 26.5471 18.5H69.5471C75.1471 16.9 70.5471 13.5 67.5471 12Z" fill="#FF8676"/>
<path d="M129.74 12H80.977C72.8121 14.5846 79.087 17.0769 83.2451 18H132.008C138.358 16.5231 133.142 13.3846 129.74 12Z" fill="#FF8676"/>
<path d="M10.54 13C8.80258 13.8687 8.18318 15.838 8.03683 17.4282C7.94235 18.4548 8.29507 19.6185 9.27635 19.9346C9.8276 20.1121 10.3765 20.0394 10.8243 19.8787C11.3142 19.7028 11.5814 19.2105 11.655 18.6953C11.8444 17.3693 13.3646 16.489 14.703 16.4354C15.3999 16.4075 16.1908 16.2831 17.04 16C19.0988 15.3137 18.3613 14.0878 17.4788 13.3323C17.2004 13.094 16.8723 12.9217 16.5242 12.8072C15.1483 12.3547 12.64 11.95 10.54 13Z" fill="#FF8676"/>
<path d="M59.5543 61.914L12.0067 57.5915C8.5126 57.2739 5.5 60.025 5.5 63.5335C5.5 66.8287 8.17129 69.5 11.4665 69.5H52L63 71H78.7542C79.2507 71 79.7465 70.963 80.2376 70.8894L118.174 65.1988C119.035 65.0697 119.832 64.6678 120.448 64.0522C121.904 62.596 124.219 62.4576 125.838 63.73L128.037 65.4573C129.309 66.4567 130.879 67 132.497 67H256.925C260.068 67 262.68 64.5749 262.912 61.4398C263.207 57.4613 259.611 54.3072 255.705 55.1179L238.125 58.7666C237.377 58.9217 236.615 58.9907 235.852 58.9723L156.447 57.059C154.839 57.0202 153.265 56.5944 151.857 55.8176L143.088 50.9796C140.789 49.711 138.083 49.3978 135.555 50.1075L111.844 56.763C111.283 56.9207 110.708 57.0289 110.127 57.0864L61.445 61.9064C60.8164 61.9687 60.1834 61.9712 59.5543 61.914Z" fill="#683F4F"/>
<g filter="url(#filter1_d_10_395)">
<path d="M322.257 -106.5H148.743C147.947 -106.5 147.184 -106.816 146.621 -107.379L145.879 -108.121C145.316 -108.684 144.553 -109 143.757 -109H136.446C135.83 -109 135.23 -108.811 134.725 -108.458L132.238 -106.717C131.196 -105.987 130.728 -104.681 131.068 -103.456L132.741 -97.4341C132.909 -96.8268 133.265 -96.2881 133.757 -95.8944L134.374 -95.4007C135.086 -94.8314 135.5 -93.9695 135.5 -93.0581V-84.8604C135.5 -84.2981 135.342 -83.7472 135.044 -83.2704L133.456 -80.7296C133.158 -80.2528 133 -79.7019 133 -79.1396V-64.5196C133 -64.1758 133.059 -63.8345 133.175 -63.5106L134.857 -58.8012C135.242 -57.7234 134.9 -56.5201 134.006 -55.8052C133.37 -55.2963 133 -54.5258 133 -53.7111V-49V-36.2426C133 -35.447 133.316 -34.6839 133.879 -34.1213L137.379 -30.6213C138.55 -29.4497 138.55 -27.5503 137.379 -26.3787L131.379 -20.3787C130.816 -19.8161 130.5 -19.053 130.5 -18.2574V-6.24264C130.5 -5.44699 130.816 -4.68393 131.379 -4.12132L135.121 -0.378677C135.684 0.183929 136 0.946991 136 1.74264V5.5C136 7.15685 134.657 8.5 133 8.5H8C6.34315 8.5 5 9.84315 5 11.5V51V66C5 67.6569 6.34315 69 8 69H51.279C51.4261 69 51.5731 69.0108 51.7186 69.0324L64.7814 70.9676C64.9269 70.9892 65.0739 71 65.221 71H80.2646C80.4213 71 80.5777 70.9877 80.7325 70.9633L117.536 65.1521C118.163 65.0533 118.741 64.7585 119.19 64.3102L120.879 62.6213C122.05 61.4498 123.95 61.4498 125.121 62.6213L128.621 66.1213C129.184 66.6839 129.947 67 130.743 67H259.5C261.157 67 262.5 65.6569 262.5 64V7.02512C262.5 6.45896 262.041 6 261.475 6C260.562 6 260.104 4.89579 260.75 4.25L261.987 3.01257C262.316 2.68437 262.5 2.23926 262.5 1.77512V-45C262.5 -46.6569 263.843 -48 265.5 -48H292.858C293.281 -48 293.7 -47.9106 294.086 -47.7375L306.37 -42.2308C307.374 -41.7805 308.545 -41.9166 309.419 -42.5853L315.693 -47.3831C316.216 -47.7832 316.857 -48 317.516 -48H352.257C353.053 -48 353.816 -48.3161 354.379 -48.8787L356.879 -51.3787C358.05 -52.5503 359.95 -52.5503 361.121 -51.3787C361.684 -50.8161 362.447 -50.5 363.243 -50.5H413.757C414.553 -50.5 415.316 -50.1839 415.879 -49.6213L419.121 -46.3787C419.684 -45.8161 420.447 -45.5 421.243 -45.5H445.5C447.157 -45.5 448.5 -46.8431 448.5 -48.5V-103.5C448.5 -105.157 447.157 -106.5 445.5 -106.5H439H389.797C389.275 -106.5 388.762 -106.364 388.308 -106.105L386.547 -105.098C385.875 -104.714 385.081 -104.605 384.331 -104.792L378.374 -106.282C377.807 -106.423 377.21 -106.371 376.677 -106.134L374.108 -104.992C373.587 -104.761 373 -105.142 373 -105.712C373 -106.147 372.647 -106.5 372.212 -106.5H331.377C330.503 -106.5 329.673 -106.118 329.104 -105.455C327.969 -104.131 325.947 -104.053 324.714 -105.286L324.379 -105.621C323.816 -106.184 323.053 -106.5 322.257 -106.5Z" stroke="black" stroke-width="2" shape-rendering="crispEdges"/>
</g>
</g>
<defs>
<filter id="filter0_d_10_395" x="-4" y="-118" width="461.5" height="198" filterUnits="userSpaceOnUse" color-interpolation-filters="sRGB">
<feFlood flood-opacity="0" result="BackgroundImageFix"/>
<feColorMatrix in="SourceAlpha" type="matrix" values="0 0 0 0 0 0 0 0 0 0 0 0 0 0 0 0 0 0 127 0" result="hardAlpha"/>
<feOffset/>
<feGaussianBlur stdDeviation="4"/>
<feComposite in2="hardAlpha" operator="out"/>
<feColorMatrix type="matrix" values="0 0 0 0 0 0 0 0 0 0 0 0 0 0 0 0 0 0 1 0"/>
<feBlend mode="normal" in2="BackgroundImageFix" result="effect1_dropShadow_10_395"/>
<feBlend mode="normal" in="SourceGraphic" in2="effect1_dropShadow_10_395" result="shape"/>
</filter>
<filter id="filter1_d_10_395" x="-4" y="-118" width="461.5" height="198" filterUnits="userSpaceOnUse" color-interpolation-filters="sRGB">
<feFlood flood-opacity="0" result="BackgroundImageFix"/>
<feColorMatrix in="SourceAlpha" type="matrix" values="0 0 0 0 0 0 0 0 0 0 0 0 0 0 0 0 0 0 127 0" result="hardAlpha"/>
<feOffset/>
<feGaussianBlur stdDeviation="4"/>
<feComposite in2="hardAlpha" operator="out"/>
<feColorMatrix type="matrix" values="0 0 0 0 0 0 0 0 0 0 0 0 0 0 0 0 0 0 1 0"/>
<feBlend mode="normal" in2="BackgroundImageFix" result="effect1_dropShadow_10_395"/>
<feBlend mode="normal" in="SourceGraphic" in2="effect1_dropShadow_10_395" result="shape"/>
</filter>
</defs>
</svg>
