<svg width="329" height="188" viewBox="0 0 329 188" fill="none" xmlns="http://www.w3.org/2000/svg">
<mask id="mask0_10_397" style="mask-type:alpha" maskUnits="userSpaceOnUse" x="0" y="0" width="329" height="188">
<rect width="329" height="188" fill="#D9D9D9"/>
</mask>
<g mask="url(#mask0_10_397)">
<g filter="url(#filter0_d_10_397)">
<path d="M196.257 7.5H22.7426C21.947 7.5 21.1839 7.18393 20.6213 6.62132L19.8787 5.87868C19.3161 5.31607 18.553 5 17.7574 5H10.4457C9.83015 5 9.22952 5.18933 8.72528 5.5423L6.23796 7.28343C5.19638 8.01254 4.72751 9.31903 5.06779 10.5441L6.74053 16.5659C6.90922 17.1732 7.26486 17.7119 7.757 18.1056L8.37408 18.5993C9.08572 19.1686 9.5 20.0305 9.5 20.9419V29.1396C9.5 29.7019 9.342 30.2528 9.04399 30.7296L7.45601 33.2704C7.158 33.7472 7 34.2981 7 34.8604V49.4804C7 49.8242 7.05911 50.1655 7.17477 50.4894L8.8567 55.1988C9.24164 56.2766 8.90015 57.4799 8.00647 58.1948C7.37032 58.7037 7 59.4742 7 60.2889V65V77.7574C7 78.553 7.31607 79.3161 7.87868 79.8787L11.3787 83.3787C12.5502 84.5503 12.5503 86.4497 11.3787 87.6213L5.37868 93.6213C4.81607 94.1839 4.5 94.947 4.5 95.7426V107.757C4.5 108.553 4.81607 109.316 5.37868 109.879L9.12132 113.621C9.68393 114.184 10 114.947 10 115.743V119.5C10 121.157 8.65686 122.5 7 122.5H-118C-119.657 122.5 -121 123.843 -121 125.5V165V180C-121 181.657 -119.657 183 -118 183H-74.721C-74.5739 183 -74.4269 183.011 -74.2814 183.032L-61.2186 184.968C-61.0731 184.989 -60.9261 185 -60.779 185H-45.7354C-45.5787 185 -45.4223 184.988 -45.2675 184.963L-8.46362 179.152C-7.83734 179.053 -7.25851 178.759 -6.81018 178.31L-5.12132 176.621C-3.94975 175.45 -2.05025 175.45 -0.878677 176.621L2.62132 180.121C3.18393 180.684 3.947 181 4.74265 181H133.5C135.157 181 136.5 179.657 136.5 178V121.025C136.5 120.459 136.041 120 135.475 120C134.562 120 134.104 118.896 134.75 118.25L135.987 117.013C136.316 116.684 136.5 116.239 136.5 115.775V69C136.5 67.3431 137.843 66 139.5 66H166.858C167.281 66 167.7 66.0894 168.086 66.2625L180.37 71.7692C181.374 72.2195 182.545 72.0834 183.419 71.4147L189.693 66.6169C190.216 66.2168 190.857 66 191.516 66H226.257C227.053 66 227.816 65.6839 228.379 65.1213L230.879 62.6213C232.05 61.4497 233.95 61.4497 235.121 62.6213C235.684 63.1839 236.447 63.5 237.243 63.5H287.757C288.553 63.5 289.316 63.8161 289.879 64.3787L293.121 67.6213C293.684 68.1839 294.447 68.5 295.243 68.5H319.5C321.157 68.5 322.5 67.1569 322.5 65.5V10.5C322.5 8.84315 321.157 7.5 319.5 7.5H313H263.797C263.275 7.5 262.762 7.63625 262.308 7.89527L260.547 8.90195C259.875 9.28574 259.081 9.39526 258.331 9.20764L252.374 7.71838C251.807 7.57687 251.21 7.62873 250.677 7.86569L248.108 9.00767C247.587 9.23921 247 8.85787 247 8.28779C247 7.8527 246.647 7.5 246.212 7.5H205.377C204.503 7.5 203.673 7.88189 203.104 8.54543C201.969 9.86948 199.947 9.94713 198.714 8.71403L198.379 8.37868C197.816 7.81607 197.053 7.5 196.257 7.5Z" fill="#844653"/>
<path d="M196.257 7.5H22.7426C21.947 7.5 21.1839 7.18393 20.6213 6.62132L19.8787 5.87868C19.3161 5.31607 18.553 5 17.7574 5H10.4457C9.83015 5 9.22952 5.18933 8.72528 5.5423L6.23796 7.28343C5.19638 8.01254 4.72751 9.31903 5.06779 10.5441L6.74053 16.5659C6.90922 17.1732 7.26486 17.7119 7.757 18.1056L8.37408 18.5993C9.08572 19.1686 9.5 20.0305 9.5 20.9419V29.1396C9.5 29.7019 9.342 30.2528 9.04399 30.7296L7.45601 33.2704C7.158 33.7472 7 34.2981 7 34.8604V49.4804C7 49.8242 7.05911 50.1655 7.17477 50.4894L8.8567 55.1988C9.24164 56.2766 8.90015 57.4799 8.00647 58.1948C7.37032 58.7037 7 59.4742 7 60.2889V65V77.7574C7 78.553 7.31607 79.3161 7.87868 79.8787L11.3787 83.3787C12.5502 84.5503 12.5503 86.4497 11.3787 87.6213L5.37868 93.6213C4.81607 94.1839 4.5 94.947 4.5 95.7426V107.757C4.5 108.553 4.81607 109.316 5.37868 109.879L9.12132 113.621C9.68393 114.184 10 114.947 10 115.743V119.5C10 121.157 8.65686 122.5 7 122.5H-118C-119.657 122.5 -121 123.843 -121 125.5V165V180C-121 181.657 -119.657 183 -118 183H-74.721C-74.5739 183 -74.4269 183.011 -74.2814 183.032L-61.2186 184.968C-61.0731 184.989 -60.9261 185 -60.779 185H-45.7354C-45.5787 185 -45.4223 184.988 -45.2675 184.963L-8.46362 179.152C-7.83734 179.053 -7.25851 178.759 -6.81018 178.31L-5.12132 176.621C-3.94975 175.45 -2.05025 175.45 -0.878677 176.621L2.62132 180.121C3.18393 180.684 3.947 181 4.74265 181H133.5C135.157 181 136.5 179.657 136.5 178V121.025C136.5 120.459 136.041 120 135.475 120C134.562 120 134.104 118.896 134.75 118.25L135.987 117.013C136.316 116.684 136.5 116.239 136.5 115.775V69C136.5 67.3431 137.843 66 139.5 66H166.858C167.281 66 167.7 66.0894 168.086 66.2625L180.37 71.7692C181.374 72.2195 182.545 72.0834 183.419 71.4147L189.693 66.6169C190.216 66.2168 190.857 66 191.516 66H226.257C227.053 66 227.816 65.6839 228.379 65.1213L230.879 62.6213C232.05 61.4497 233.95 61.4497 235.121 62.6213C235.684 63.1839 236.447 63.5 237.243 63.5H287.757C288.553 63.5 289.316 63.8161 289.879 64.3787L293.121 67.6213C293.684 68.1839 294.447 68.5 295.243 68.5H319.5C321.157 68.5 322.5 67.1569 322.5 65.5V10.5C322.5 8.84315 321.157 7.5 319.5 7.5H313H263.797C263.275 7.5 262.762 7.63625 262.308 7.89527L260.547 8.90195C259.875 9.28574 259.081 9.39526 258.331 9.20764L252.374 7.71838C251.807 7.57687 251.21 7.62873 250.677 7.86569L248.108 9.00767C247.587 9.23921 247 8.85787 247 8.28779C247 7.8527 246.647 7.5 246.212 7.5H205.377C204.503 7.5 203.673 7.88189 203.104 8.54543C201.969 9.86948 199.947 9.94713 198.714 8.71403L198.379 8.37868C197.816 7.81607 197.053 7.5 196.257 7.5Z" stroke="black" stroke-width="2"/>
</g>
<path d="M82.541 136.952L34.8289 134.566C34.0715 134.529 33.4059 135.064 33.2813 135.812C33.1325 136.705 33.8055 137.524 34.71 137.551L82.4606 138.969C83.0296 138.986 83.5 138.529 83.5 137.96C83.5 137.422 83.0782 136.979 82.541 136.952Z" fill="#62323E"/>
<path d="M75 89.0001L87.5633 67.2604C87.8439 66.7748 87.5479 66.1591 86.9935 66.075C86.6917 66.0292 86.3903 66.1599 86.2176 66.4116L69 91.5001L59.9531 106.162C59.5503 106.815 59.6914 107.665 60.2837 108.152C60.9865 108.731 62.0355 108.574 62.5382 107.815L75 89.0001Z" fill="#62323E"/>
<path d="M219.7 30.5568L228.108 39.6938C232.83 44.8244 238.703 48.7595 245.244 51.1746L270.363 60.4495C270.454 60.4831 270.548 60.5101 270.643 60.5303C272.971 61.0241 274.077 57.7802 271.933 56.748L236.254 39.575C235.617 39.2682 235.031 38.8636 234.519 38.3757L221.537 26.0114C213.575 18.4291 203.064 14.102 192.072 13.882L148 13L190.899 16.4977C201.925 17.3968 212.208 22.4164 219.7 30.5568Z" fill="#62323E" fill-opacity="0.5"/>
<path d="M-75.1924 147.724L-126 149.677L-75.294 151.063C-72.0611 151.151 -68.8658 151.779 -65.8402 152.922L-47.2795 159.932C-39.1236 163.012 -30.0147 162.26 -22.4748 157.883L13.1942 137.178L-24.6098 155.093C-31.8187 158.509 -40.1166 158.805 -47.5505 155.911L-63.5567 149.679C-67.2604 148.237 -71.2209 147.572 -75.1924 147.724Z" fill="#62323E" fill-opacity="0.5"/>
<path d="M128.724 31.5644L84 13L127.886 34.1233C133.051 36.6091 137.68 40.0801 141.514 44.3411L147.318 50.7921C155.993 60.4351 168.482 65.7587 181.446 65.3404L223 64L181.569 63.3318C168.534 63.1215 156.262 57.1413 148.065 47.0038L146.07 44.5363C141.459 38.8346 135.497 34.3755 128.724 31.5644Z" fill="#62323E" fill-opacity="0.5"/>
<path d="M51.8842 65.2947L9.37295 51.1243C9.13415 51.0447 8.87352 51.0632 8.64838 51.1758C8.26557 51.3672 8.05823 51.7912 8.14217 52.2108L8.73084 55.1542C8.90529 56.0265 8.78403 56.9319 8.38623 57.7275L7.42229 59.6554C7.14458 60.2108 7 60.8233 7 61.4443V75.9256C7 76.6294 7.18568 77.3207 7.53829 77.9298L11.0923 84.0685C11.937 85.5275 11.7762 87.3596 10.6902 88.6491L5.44036 94.8833C4.83304 95.6045 4.5 96.517 4.5 97.4599V105.556C4.5 106.177 4.64458 106.789 4.92229 107.345L6.24127 109.983C6.41286 110.326 6.63295 110.642 6.89475 110.923L12.4242 116.847C13.1155 117.588 13.5 118.563 13.5 119.577V122.562C13.5 123.491 13.8239 124.392 14.4162 125.109L22.2091 134.543C22.7242 135.166 23.4163 135.619 24.1941 135.841L32.1569 138.116C34.3877 138.754 36.005 136.005 34.3644 134.364C34.1246 134.125 33.8336 133.942 33.5132 133.831L24.6732 130.756C23.3278 130.288 22.3327 129.14 22.0608 127.741L19.3085 113.587C19.1106 112.569 18.5253 111.668 17.6759 111.073L10.7062 106.194C9.63684 105.446 9 104.223 9 102.917V98.6707C9 97.3168 9.68488 96.0548 10.82 95.317L18.3948 90.3934C18.7939 90.134 19.2426 89.9605 19.7124 89.884L20.6176 89.7367C24.2874 89.1393 24.2874 83.8607 20.6176 83.2633C19.5992 83.0975 18.7183 82.4622 18.2396 81.5483L13.9567 73.3718C13.6567 72.7992 13.5 72.1623 13.5 71.5158V65.0913C13.5 62.499 15.928 60.5914 18.4467 61.205L51.8405 69.3394C52.277 69.4457 52.7284 69.4777 53.1756 69.4341L93.5 65.5H53.1491C52.7192 65.5 52.2921 65.4307 51.8842 65.2947Z" fill="#62323E"/>
<path d="M135.5 73.5V71L101.5 65.5L72.5 66L104 71L135.5 73.5Z" fill="#62323E"/>
<path d="M55.7556 104.533L11.5 79.5L53.915 107.321C56.6193 109.094 59.0078 111.308 60.9817 113.87L73.091 129.586C78.412 136.492 86.5576 140.638 95.2725 140.876L136.5 142L94.9218 137.38C86.9931 136.499 79.7775 132.391 74.9731 126.022L64.6287 112.31C62.2351 109.137 59.2149 106.49 55.7556 104.533Z" fill="#62323E"/>
<path d="M132.434 91.7498L127.529 73.1108C127.51 73.0372 127.5 72.9615 127.5 72.8854C127.5 72.3964 127.896 72 128.385 72H134.977C136.091 72 136.99 72.9093 136.977 74.0227L136.506 115.481C136.502 115.821 136.411 116.155 136.243 116.451L135.258 118.174C134.81 118.957 134.942 119.942 135.58 120.58L135.914 120.914C136.289 121.289 136.5 121.798 136.5 122.328V140.865C136.5 141.768 135.768 142.5 134.865 142.5C134.074 142.5 133.397 141.935 133.256 141.157L132.58 137.44C132.527 137.15 132.411 136.876 132.24 136.636L127.849 130.489C127.621 130.17 127.305 129.925 126.94 129.784L117.106 126.002C115.827 125.51 115.41 123.908 116.287 122.855L116.4 122.72C116.78 122.264 117.343 122 117.937 122H127.851C128.563 122 129.22 121.622 129.579 121.008L132.228 116.467C132.406 116.161 132.5 115.813 132.5 115.459V92.2588C132.5 92.087 132.478 91.9159 132.434 91.7498Z" fill="#62323E"/>
<path d="M-66.4457 167.914L-113.993 163.592C-117.487 163.274 -120.5 166.025 -120.5 169.534C-120.5 172.829 -117.829 175.5 -114.534 175.5H-74L-63 177H-47.2458C-46.7493 177 -46.2535 176.963 -45.7624 176.889L-7.82552 171.199C-6.9646 171.07 -6.1678 170.668 -5.55223 170.052C-4.09599 168.596 -1.78124 168.458 -0.161865 169.73L2.03652 171.457C3.30854 172.457 4.87936 173 6.49706 173H130.925C134.068 173 136.68 170.575 136.912 167.44C137.207 163.461 133.611 160.307 129.705 161.118L112.125 164.767C111.377 164.922 110.615 164.991 109.852 164.972L30.4469 163.059C28.8393 163.02 27.2649 162.594 25.857 161.818L17.088 156.98C14.7888 155.711 12.0829 155.398 9.55464 156.107L-14.1555 162.763C-14.7174 162.921 -15.2921 163.029 -15.8728 163.086L-64.555 167.906C-65.1836 167.969 -65.8166 167.971 -66.4457 167.914Z" fill="#62323E" fill-opacity="0.5"/>
<path d="M124.507 13H81.507C74.307 15.8 79.8404 18.5 83.507 19.5H126.507C132.107 17.9 127.507 14.5 124.507 13Z" fill="#B34840"/>
<path d="M312.507 13H269.507C262.307 15.8 267.84 18.5 271.507 19.5H314.507C320.107 17.9 315.507 14.5 312.507 13Z" fill="#B34840"/>
<path d="M3.73983 127H-45.023C-53.1879 129.585 -46.913 132.077 -42.7549 133H6.00787C12.3584 131.523 7.14189 128.385 3.73983 127Z" fill="#B34840"/>
<path d="M124.507 12H81.507C74.307 14.8 79.8404 17.5 83.507 18.5H126.507C132.107 16.9 127.507 13.5 124.507 12Z" fill="#FF8676"/>
<path d="M312.507 12H269.507C262.307 14.8 267.84 17.5 271.507 18.5H314.507C320.107 16.9 315.507 13.5 312.507 12Z" fill="#FF8676"/>
<path d="M3.73983 126H-45.023C-53.1879 128.585 -46.913 131.077 -42.7549 132H6.00787C12.3584 130.523 7.14189 127.385 3.73983 126Z" fill="#FF8676"/>
<path d="M-66.4457 175.914L-113.993 171.592C-117.487 171.274 -120.5 174.025 -120.5 177.534C-120.5 180.829 -117.829 183.5 -114.534 183.5H-74L-63 185H-47.2458C-46.7493 185 -46.2535 184.963 -45.7624 184.889L-7.82552 179.199C-6.9646 179.07 -6.1678 178.668 -5.55223 178.052C-4.09599 176.596 -1.78124 176.458 -0.161865 177.73L2.03652 179.457C3.30854 180.457 4.87936 181 6.49706 181H130.925C134.068 181 136.68 178.575 136.912 175.44C137.207 171.461 133.611 168.307 129.705 169.118L112.125 172.767C111.377 172.922 110.615 172.991 109.852 172.972L30.4469 171.059C28.8393 171.02 27.2649 170.594 25.857 169.818L17.088 164.98C14.7888 163.711 12.0829 163.398 9.55464 164.107L-14.1555 170.763C-14.7174 170.921 -15.2921 171.029 -15.8728 171.086L-64.555 175.906C-65.1836 175.969 -65.8166 175.971 -66.4457 175.914Z" fill="#683F4F"/>
<path d="M136.851 59.2115L136.182 66.9055C136.144 67.3461 136.742 67.5151 136.94 67.1195C136.979 67.0419 137.042 66.979 137.12 66.9402L137.617 66.6915C137.87 66.5652 138.146 66.4919 138.428 66.4762L147 66H166.013C167.325 66 168.624 66.2582 169.836 66.7598L177.41 69.8938C180.579 71.205 184.199 70.801 187 68.8233L188.407 67.8303C190.094 66.6394 192.109 66 194.174 66H215L226.077 65.1479C227.34 65.0508 228.559 64.6445 229.627 63.9648L230.474 63.4255C232.339 62.239 234.703 62.1685 236.635 63.2418C237.53 63.739 238.537 64 239.561 64H285.599C287.804 64 289.948 64.7291 291.696 66.0738L292.804 66.9262C294.552 68.2709 296.696 69 298.901 69H312.688C313.228 69 313.768 68.9553 314.301 68.8665L317.976 68.254C320.587 67.8189 322.5 65.5603 322.5 62.9138C322.5 59.9238 320.076 57.5 317.086 57.5H293H241.99C241.332 57.5 240.675 57.435 240.029 57.3058L236.299 56.5599C234.47 56.1939 232.574 56.3472 230.827 57.0024L227.827 58.1275C226.299 58.7005 224.654 58.8908 223.036 58.682L197.189 55.347C195.428 55.1198 193.638 55.3655 192.004 56.0589L182.686 60.0121C179.742 61.2611 176.378 61.0266 173.635 59.3812L172.875 58.9251C171.321 57.9926 169.543 57.5 167.73 57.5H138.718C137.746 57.5 136.935 58.2432 136.851 59.2115Z" fill="#62323E"/>
<g filter="url(#filter1_d_10_397)">
<path d="M196.257 7.5H22.7426C21.947 7.5 21.1839 7.18393 20.6213 6.62132L19.8787 5.87868C19.3161 5.31607 18.553 5 17.7574 5H10.4457C9.83015 5 9.22952 5.18933 8.72528 5.5423L6.23796 7.28343C5.19638 8.01254 4.72751 9.31903 5.06779 10.5441L6.74053 16.5659C6.90922 17.1732 7.26486 17.7119 7.757 18.1056L8.37408 18.5993C9.08572 19.1686 9.5 20.0305 9.5 20.9419V29.1396C9.5 29.7019 9.342 30.2528 9.04399 30.7296L7.45601 33.2704C7.158 33.7472 7 34.2981 7 34.8604V49.4804C7 49.8242 7.05911 50.1655 7.17477 50.4894L8.8567 55.1988C9.24164 56.2766 8.90015 57.4799 8.00647 58.1948C7.37032 58.7037 7 59.4742 7 60.2889V65V77.7574C7 78.553 7.31607 79.3161 7.87868 79.8787L11.3787 83.3787C12.5502 84.5503 12.5503 86.4497 11.3787 87.6213L5.37868 93.6213C4.81607 94.1839 4.5 94.947 4.5 95.7426V107.757C4.5 108.553 4.81607 109.316 5.37868 109.879L9.12132 113.621C9.68393 114.184 10 114.947 10 115.743V119.5C10 121.157 8.65686 122.5 7 122.5H-118C-119.657 122.5 -121 123.843 -121 125.5V165V180C-121 181.657 -119.657 183 -118 183H-74.721C-74.5739 183 -74.4269 183.011 -74.2814 183.032L-61.2186 184.968C-61.0731 184.989 -60.9261 185 -60.779 185H-45.7354C-45.5787 185 -45.4223 184.988 -45.2675 184.963L-8.46362 179.152C-7.83734 179.053 -7.25851 178.759 -6.81018 178.31L-5.12132 176.621C-3.94975 175.45 -2.05025 175.45 -0.878677 176.621L2.62132 180.121C3.18393 180.684 3.947 181 4.74265 181H133.5C135.157 181 136.5 179.657 136.5 178V121.025C136.5 120.459 136.041 120 135.475 120C134.562 120 134.104 118.896 134.75 118.25L135.987 117.013C136.316 116.684 136.5 116.239 136.5 115.775V69C136.5 67.3431 137.843 66 139.5 66H166.858C167.281 66 167.7 66.0894 168.086 66.2625L180.37 71.7692C181.374 72.2195 182.545 72.0834 183.419 71.4147L189.693 66.6169C190.216 66.2168 190.857 66 191.516 66H226.257C227.053 66 227.816 65.6839 228.379 65.1213L230.879 62.6213C232.05 61.4497 233.95 61.4497 235.121 62.6213C235.684 63.1839 236.447 63.5 237.243 63.5H287.757C288.553 63.5 289.316 63.8161 289.879 64.3787L293.121 67.6213C293.684 68.1839 294.447 68.5 295.243 68.5H319.5C321.157 68.5 322.5 67.1569 322.5 65.5V10.5C322.5 8.84315 321.157 7.5 319.5 7.5H313H263.797C263.275 7.5 262.762 7.63625 262.308 7.89527L260.547 8.90195C259.875 9.28574 259.081 9.39526 258.331 9.20764L252.374 7.71838C251.807 7.57687 251.21 7.62873 250.677 7.86569L248.108 9.00767C247.587 9.23921 247 8.85787 247 8.28779C247 7.8527 246.647 7.5 246.212 7.5H205.377C204.503 7.5 203.673 7.88189 203.104 8.54543C201.969 9.86948 199.947 9.94713 198.714 8.71403L198.379 8.37868C197.816 7.81607 197.053 7.5 196.257 7.5Z" stroke="black" stroke-width="2" shape-rendering="crispEdges"/>
</g>
<path d="M14.2456 22.047L15.248 30.3996C15.3918 31.598 16.4084 32.5 17.6155 32.5C18.9324 32.5 20 31.4324 20 30.1155V27.538C20 26.8534 20.1416 26.1762 20.416 25.5491L20.8786 24.4918C22.471 20.8519 26.0672 18.5 30.0402 18.5H61.5C62.8807 18.5 64 17.3807 64 16C64 14.6193 62.8807 13.5 61.5 13.5H26.0212C24.3663 13.5 22.7373 13.0893 21.2802 12.3047L18.3333 10.7179C17.4581 10.2467 16.4797 10 15.4857 10H13.9935C12.7608 10 11.6226 10.6605 11.011 11.7308C10.3877 12.8215 10.4095 14.1655 11.0679 15.2354L12.9195 18.2442C13.6314 19.401 14.0838 20.6984 14.2456 22.047Z" fill="#B34840"/>
<path d="M13.2456 20.547L14.248 28.8996C14.3918 30.098 15.4084 31 16.6155 31C17.9324 31 19 29.9324 19 28.6155V26.038C19 25.3534 19.1416 24.6762 19.416 24.0491L19.8786 22.9918C21.471 19.3519 25.0672 17 29.0402 17H60.5C61.8807 17 63 15.8807 63 14.5C63 13.1193 61.8807 12 60.5 12H25.0212C23.3663 12 21.7373 11.5893 20.2802 10.8047L17.3333 9.21794C16.4581 8.74669 15.4797 8.5 14.4857 8.5H12.9935C11.7608 8.5 10.6226 9.16052 10.011 10.2308C9.38769 11.3215 9.40954 12.6655 10.0679 13.7354L11.9195 16.7442C12.6314 17.901 13.0838 19.1984 13.2456 20.547Z" fill="#FF8676"/>
<path d="M190.393 12H151.5C150.119 12 149 13.1193 149 14.5C149 15.8807 150.119 17 151.5 17H182.834C184.261 17 185.672 17.3056 186.972 17.8963L189.634 19.1064C190.21 19.3682 190.76 19.6841 191.276 20.0498L196.945 24.0652C200.297 26.4394 204.76 26.5225 208.198 24.2746L212.053 21.754C214.261 20.3102 216.95 19.7975 219.535 20.3276L235 23.5L255.557 26.789C257.888 27.1621 260 25.3611 260 23V22.2912C260 18.8539 257.745 15.8236 254.453 14.8359L251.773 14.0319C250.681 13.7043 249.497 14.0027 248.691 14.8088C247.481 16.019 245.519 16.019 244.309 14.8088L244.025 14.5251C243.369 13.8687 242.479 13.5 241.55 13.5H209.485C207.894 13.5 206.368 14.1321 205.243 15.2574C202.899 17.6005 199.101 17.6005 196.757 15.2574L195.697 14.1967C194.29 12.7902 192.383 12 190.393 12Z" fill="#B34840"/>
<path d="M190.393 10.5H151.5C150.119 10.5 149 11.6193 149 13C149 14.3807 150.119 15.5 151.5 15.5H182.834C184.261 15.5 185.672 15.8056 186.972 16.3963L189.634 17.6064C190.21 17.8682 190.76 18.1841 191.276 18.5498L196.945 22.5652C200.297 24.9394 204.76 25.0225 208.198 22.7746L212.053 20.254C214.261 18.8102 216.95 18.2975 219.535 18.8276L235 22L255.557 25.289C257.888 25.6621 260 23.8611 260 21.5V20.7912C260 17.3539 257.745 14.3236 254.453 13.3359L251.773 12.5319C250.681 12.2043 249.497 12.5027 248.691 13.3088C247.481 14.519 245.519 14.519 244.309 13.3088L244.025 13.0251C243.369 12.3687 242.479 12 241.55 12H209.485C207.894 12 206.368 12.6321 205.243 13.7574C202.899 16.1005 199.101 16.1005 196.757 13.7574L195.697 12.6967C194.29 11.2902 192.383 10.5 190.393 10.5Z" fill="#FF8676"/>
</g>
<defs>
<filter id="filter0_d_10_397" x="-130" y="-4" width="461.5" height="198" filterUnits="userSpaceOnUse" color-interpolation-filters="sRGB">
<feFlood flood-opacity="0" result="BackgroundImageFix"/>
<feColorMatrix in="SourceAlpha" type="matrix" values="0 0 0 0 0 0 0 0 0 0 0 0 0 0 0 0 0 0 127 0" result="hardAlpha"/>
<feOffset/>
<feGaussianBlur stdDeviation="4"/>
<feComposite in2="hardAlpha" operator="out"/>
<feColorMatrix type="matrix" values="0 0 0 0 0 0 0 0 0 0 0 0 0 0 0 0 0 0 1 0"/>
<feBlend mode="normal" in2="BackgroundImageFix" result="effect1_dropShadow_10_397"/>
<feBlend mode="normal" in="SourceGraphic" in2="effect1_dropShadow_10_397" result="shape"/>
</filter>
<filter id="filter1_d_10_397" x="-130" y="-4" width="461.5" height="198" filterUnits="userSpaceOnUse" color-interpolation-filters="sRGB">
<feFlood flood-opacity="0" result="BackgroundImageFix"/>
<feColorMatrix in="SourceAlpha" type="matrix" values="0 0 0 0 0 0 0 0 0 0 0 0 0 0 0 0 0 0 127 0" result="hardAlpha"/>
<feOffset/>
<feGaussianBlur stdDeviation="4"/>
<feComposite in2="hardAlpha" operator="out"/>
<feColorMatrix type="matrix" values="0 0 0 0 0 0 0 0 0 0 0 0 0 0 0 0 0 0 1 0"/>
<feBlend mode="normal" in2="BackgroundImageFix" result="effect1_dropShadow_10_397"/>
<feBlend mode="normal" in="SourceGraphic" in2="effect1_dropShadow_10_397" result="shape"/>
</filter>
</defs>
</svg>
