<svg width="179" height="55" viewBox="0 0 179 55" fill="none" xmlns="http://www.w3.org/2000/svg">
<path d="M55 1H1V54H58.5V21L60.5 54H116.5L118.5 23.5L121 54H178V1H121L118.5 7.5L116.5 1H58.5V7.5C58.5 3.9 56.1667 1.66667 55 1Z" fill="#C7824B" stroke="#4E1900"/>
<path d="M169.841 38.5986L176 11.5C176.421 10.7977 177.5 11.0964 177.5 11.9155V54H120.5L121 52L120.5 47L162.456 44.8148C166.032 44.6286 169.048 42.0897 169.841 38.5986Z" fill="#B06C3D"/>
<path d="M8.65877 38.5986L2.5 11.5C2.07861 10.7977 1 11.0964 1 11.9155V54H58L57.5 52L58 47L16.0437 44.8148C12.4685 44.6286 9.45219 42.0897 8.65877 38.5986Z" fill="#B06C3D"/>
<path d="M83 49L60.5 47V54H117V47L83 49Z" fill="#B06C3D"/>
<circle cx="18" cy="35" r="3" fill="#B06C3D"/>
<ellipse cx="91.5" cy="38" rx="3.5" ry="3" fill="#B06C3D"/>
<ellipse cx="158.5" cy="37" rx="3.5" ry="3" fill="#B06C3D"/>
<ellipse cx="98.5" cy="28" rx="3.5" ry="3" transform="rotate(90 98.5 28)" fill="#B06C3D"/>
<ellipse cx="106.5" cy="39" rx="2" ry="4.5" transform="rotate(90 106.5 39)" fill="#B06C3D"/>
<path d="M6 7H24" stroke="#E9A657" stroke-width="4" stroke-linecap="round"/>
<path d="M38 7H47" stroke="#E9A657" stroke-width="4" stroke-linecap="round"/>
<path d="M64.5 7H71.5" stroke="#E9A657" stroke-width="4" stroke-linecap="round"/>
<path d="M126 7H136" stroke="#E9A657" stroke-width="4" stroke-linecap="round"/>
<path d="M144 7H158" stroke="#E9A657" stroke-width="4" stroke-linecap="round"/>
<path d="M58.5 7.5V22" stroke="#4E1900" stroke-opacity="0.5" stroke-linecap="round"/>
<path d="M55 1H1V54H58.5V21L60.5 54H116.5L118.5 23.5L121 54H178V1H121L118.5 7.5L116.5 1H58.5V7.5C58.5 3.9 56.1667 1.66667 55 1Z" stroke="#4E1900"/>
</svg>
