<svg width="121" height="60" viewBox="0 0 121 60" fill="none" xmlns="http://www.w3.org/2000/svg">
<mask id="mask0_39_228" style="mask-type:alpha" maskUnits="userSpaceOnUse" x="0" y="0" width="121" height="60">
<rect width="121" height="60" fill="#D9D9D9"/>
</mask>
<g mask="url(#mask0_39_228)">
<path d="M123.566 -82.047L125.828 -80.6699C128.003 -79.3461 127.064 -76 124.519 -76C123.128 -76 122 -74.8724 122 -73.4815V-54.1569C122 -53.096 122.432 -52.0679 123.182 -51.3177C124.281 -50.2188 124.661 -48.5665 124.129 -47.1059L123.241 -44.6623C123.082 -44.2241 123 -43.7615 123 -43.2953V1.77512C123 3.33421 121.115 4.115 120.013 3.01257C119.684 2.68437 119.239 2.5 118.775 2.5H66.6561C65.9306 2.5 65.2497 2.85037 64.828 3.44074C63.9321 4.69507 62.0679 4.69507 61.172 3.44074C60.7503 2.85037 60.0694 2.5 59.3439 2.5H34.3761C31.6967 2.5 29.7749 5.08295 30.5448 7.64939L34.8513 22.0043C34.9487 22.3289 35.1309 22.6216 35.3793 22.8522C37.0583 24.4113 35.0586 27.0618 33.0984 25.8754L30.6735 24.4076C30.2381 24.1441 29.7246 24.0402 29.221 24.1136L6 27.5L27.6971 22.3948C29.8118 21.8972 31.1427 19.8029 30.6952 17.6771L28.1686 5.67596C27.7789 3.82498 26.146 2.5 24.2544 2.5H17.4539C17.1786 2.5 16.9297 2.66412 16.8212 2.91724L16.6439 3.33086C16.3886 3.92663 15.5 3.74424 15.5 3.09605C15.5 2.76686 15.2331 2.5 14.9039 2.5H8C5.79086 2.5 4 4.29086 4 6.5V55C4 57.2091 5.79086 59 8 59H63H117.406C119.45 59 121.165 57.4587 121.383 55.4261L122.5 45V55C122.5 57.2091 124.291 59 126.5 59H176.458C178.48 59 180.184 57.4912 180.429 55.4842L182.5 38.5V55C182.5 57.2091 184.291 59 186.5 59H231.709C232.848 59 233.933 58.5128 234.69 57.6614L236.21 55.9518C236.91 55.1641 238.128 55.1283 238.873 55.8735C240.027 57.0272 242 56.2101 242 54.5784V30L244.629 55.4116C244.84 57.4505 246.558 59 248.608 59H358C360.209 59 362 57.2091 362 55V8C362 5.79086 360.209 4 358 4H245L213 3H241C243.209 3 245 1.20914 245 -1V-42.6726C245 -44.8132 243.315 -46.5743 241.176 -46.6687L213.096 -47.9075C212.535 -47.9323 212.375 -48.6873 212.877 -48.9385C212.958 -48.9789 213.047 -48.9985 213.137 -48.9957L240.875 -48.1289C243.132 -48.0584 245 -49.8689 245 -52.127V-100C245 -102.209 243.209 -104 241 -104H186.224C184.126 -104 182.384 -102.378 182.235 -100.285L180.5 -76V-100C180.5 -102.209 178.709 -104 176.5 -104H126C123.791 -104 122 -102.209 122 -100V-84.8328C122 -83.6946 122.593 -82.6388 123.566 -82.047Z" fill="#C6804F" stroke="#4E1900" stroke-linecap="square"/>
<path d="M31.5 21.5L27.5 2.5H29L35 22.5L48.5 35L30 24L13.5 26L31.5 21.5Z" fill="#4E1900" stroke="#4E1900" stroke-linecap="square"/>
<path d="M61.5 59.5L64 26" stroke="#4E1900"/>
<path d="M36 21.5L30 5V18.5L12 26.5L30 27.5L46 32L36 21.5Z" fill="#AD6B39"/>
<path d="M11 49.5C6.6 47.9 4.83333 45.1667 4.5 44V56H62V47C61.6 49.4 48.5 50.6667 42 51L11 49.5Z" fill="#A7673B"/>
<path d="M11 52.5C6.6 50.9 4.83333 48.1667 4.5 47V59H62V50C61.6 52.4 48.5 53.6667 42 54L11 52.5Z" fill="#824D2D"/>
<path d="M69.5 49.5C65.1 47.9 63.3333 39.1667 63 38L61 56H120.5L122 46.5C121.6 48.9 107.5 52.1667 101 52.5L69.5 49.5Z" fill="#A7673B"/>
<path d="M69.5 52.5C65.1 50.9 63.3333 42.1667 63 41L61 59H120.5L122 49.5C121.6 51.9 107.5 55.1667 101 55.5L69.5 52.5Z" fill="#824D2D"/>
<circle cx="74" cy="32" r="3" fill="#B8733C"/>
<circle cx="24.5" cy="35.5" r="2.5" fill="#B8733C"/>
<circle cx="46.5" cy="21.5" r="2.5" fill="#B8733C"/>
<path d="M123.566 -82.047L125.828 -80.6699C128.003 -79.3461 127.064 -76 124.519 -76C123.128 -76 122 -74.8724 122 -73.4815V-54.1569C122 -53.096 122.432 -52.0679 123.182 -51.3177C124.281 -50.2188 124.661 -48.5665 124.129 -47.1059L123.241 -44.6623C123.082 -44.2241 123 -43.7615 123 -43.2953V1.77512C123 3.33421 121.115 4.115 120.013 3.01257C119.684 2.68437 119.239 2.5 118.775 2.5H66.6561C65.9306 2.5 65.2497 2.85037 64.828 3.44074C63.9321 4.69507 62.0679 4.69507 61.172 3.44074C60.7503 2.85037 60.0694 2.5 59.3439 2.5H34.3761C31.6967 2.5 29.7749 5.08295 30.5448 7.64939L34.8513 22.0043C34.9487 22.3289 35.1309 22.6216 35.3793 22.8522C37.0583 24.4113 35.0586 27.0618 33.0984 25.8754L30.6735 24.4076C30.2381 24.1441 29.7246 24.0402 29.221 24.1136L6 27.5L27.6971 22.3948C29.8118 21.8972 31.1427 19.8029 30.6952 17.6771L28.1686 5.67596C27.7789 3.82498 26.146 2.5 24.2544 2.5H17.4539C17.1786 2.5 16.9297 2.66412 16.8212 2.91724L16.6439 3.33086C16.3886 3.92663 15.5 3.74424 15.5 3.09605C15.5 2.76686 15.2331 2.5 14.9039 2.5H8C5.79086 2.5 4 4.29086 4 6.5V55C4 57.2091 5.79086 59 8 59H63H117.406C119.45 59 121.165 57.4587 121.383 55.4261L122.5 45V55C122.5 57.2091 124.291 59 126.5 59H176.458C178.48 59 180.184 57.4912 180.429 55.4842L182.5 38.5V55C182.5 57.2091 184.291 59 186.5 59H231.709C232.848 59 233.933 58.5128 234.69 57.6614L236.21 55.9518C236.91 55.1641 238.128 55.1283 238.873 55.8735C240.027 57.0272 242 56.2101 242 54.5784V30L244.629 55.4116C244.84 57.4505 246.558 59 248.608 59H358C360.209 59 362 57.2091 362 55V8C362 5.79086 360.209 4 358 4H245L213 3H241C243.209 3 245 1.20914 245 -1V-42.6726C245 -44.8132 243.315 -46.5743 241.176 -46.6687L213.096 -47.9075C212.535 -47.9323 212.375 -48.6873 212.877 -48.9385C212.958 -48.9789 213.047 -48.9985 213.137 -48.9957L240.875 -48.1289C243.132 -48.0584 245 -49.8689 245 -52.127V-100C245 -102.209 243.209 -104 241 -104H186.224C184.126 -104 182.384 -102.378 182.235 -100.285L180.5 -76V-100C180.5 -102.209 178.709 -104 176.5 -104H126C123.791 -104 122 -102.209 122 -100V-84.8328C122 -83.6946 122.593 -82.6388 123.566 -82.047Z" stroke="#4E1900" stroke-linecap="square"/>
<path d="M31.5 21.5L27 2.5H29L35 22.5L48.5 35L30 24L13.5 26L31.5 21.5Z" fill="#4E1900" stroke="#4E1900" stroke-linecap="square"/>
<path d="M61.5 59.5L64 26" stroke="#4E1900"/>
<path d="M123.566 -82.047L125.828 -80.6699C128.003 -79.3461 127.064 -76 124.519 -76C123.128 -76 122 -74.8724 122 -73.4815V-54.1569C122 -53.096 122.432 -52.0679 123.182 -51.3177C124.281 -50.2188 124.661 -48.5665 124.129 -47.1059L123.241 -44.6623C123.082 -44.2241 123 -43.7615 123 -43.2953V1.77512C123 3.33421 121.115 4.115 120.013 3.01257C119.684 2.68437 119.239 2.5 118.775 2.5H66.6561C65.9306 2.5 65.2497 2.85037 64.828 3.44074C63.9321 4.69507 62.0679 4.69507 61.172 3.44074C60.7503 2.85037 60.0694 2.5 59.3439 2.5H34.3761C31.6967 2.5 29.7749 5.08295 30.5448 7.64939L34.8513 22.0043C34.9487 22.3289 35.1309 22.6216 35.3793 22.8522C37.0583 24.4113 35.0586 27.0618 33.0984 25.8754L30.6735 24.4076C30.2381 24.1441 29.7246 24.0402 29.221 24.1136L6 27.5L27.6971 22.3948C29.8118 21.8972 31.1427 19.8029 30.6952 17.6771L28.1686 5.67596C27.7789 3.82498 26.146 2.5 24.2544 2.5H17.4539C17.1786 2.5 16.9297 2.66412 16.8212 2.91724L16.6439 3.33086C16.3886 3.92663 15.5 3.74424 15.5 3.09605C15.5 2.76686 15.2331 2.5 14.9039 2.5H8C5.79086 2.5 4 4.29086 4 6.5V55C4 57.2091 5.79086 59 8 59H63H117.406C119.45 59 121.165 57.4587 121.383 55.4261L122.5 45V55C122.5 57.2091 124.291 59 126.5 59H176.458C178.48 59 180.184 57.4912 180.429 55.4842L182.5 38.5V55C182.5 57.2091 184.291 59 186.5 59H231.709C232.848 59 233.933 58.5128 234.69 57.6614L236.21 55.9518C236.91 55.1641 238.128 55.1283 238.873 55.8735C240.027 57.0272 242 56.2101 242 54.5784V30L244.629 55.4116C244.84 57.4505 246.558 59 248.608 59H358C360.209 59 362 57.2091 362 55V8C362 5.79086 360.209 4 358 4H245L213 3H241C243.209 3 245 1.20914 245 -1V-42.6726C245 -44.8132 243.315 -46.5743 241.176 -46.6687L213.096 -47.9075C212.535 -47.9323 212.375 -48.6873 212.877 -48.9385C212.958 -48.9789 213.047 -48.9985 213.137 -48.9957L240.875 -48.1289C243.132 -48.0584 245 -49.8689 245 -52.127V-100C245 -102.209 243.209 -104 241 -104H186.224C184.126 -104 182.384 -102.378 182.235 -100.285L180.5 -76V-100C180.5 -102.209 178.709 -104 176.5 -104H126C123.791 -104 122 -102.209 122 -100V-84.8328C122 -83.6946 122.593 -82.6388 123.566 -82.047Z" stroke="#4E1900" stroke-linecap="square"/>
<path d="M7 6H13" stroke="#E9A657" stroke-width="4" stroke-linecap="round"/>
<path d="M19 6H23" stroke="#E9A657" stroke-width="4" stroke-linecap="round"/>
<path d="M36 6H56" stroke="#E9A657" stroke-width="4" stroke-linecap="round"/>
<path d="M94 6H114" stroke="#E9A657" stroke-width="4" stroke-linecap="round"/>
</g>
</svg>
