<svg width="125" height="165" viewBox="0 0 125 165" fill="none" xmlns="http://www.w3.org/2000/svg">
<mask id="mask0_39_292" style="mask-type:alpha" maskUnits="userSpaceOnUse" x="0" y="0" width="125" height="165">
<rect width="125" height="165" fill="#D9D9D9"/>
</mask>
<g mask="url(#mask0_39_292)">
<path d="M2.56558 22.953L4.82806 24.3301C7.00278 25.6539 6.06448 29 3.51855 29C2.12759 29 1 30.1276 1 31.5185V50.8431C1 51.904 1.43211 52.9321 2.18226 53.6823C3.28117 54.7812 3.66053 56.4335 3.12943 57.8941L2.24083 60.3377C2.0815 60.7759 2 61.2385 2 61.7047V106.775C2 108.334 0.114998 109.115 -0.987434 108.013C-1.31563 107.684 -1.76074 107.5 -2.22487 107.5H-54.3439C-55.0694 107.5 -55.7503 107.85 -56.172 108.441C-57.0679 109.695 -58.9321 109.695 -59.828 108.441C-60.2497 107.85 -60.9306 107.5 -61.6561 107.5H-86.6239C-89.3033 107.5 -91.2251 110.083 -90.4552 112.649L-86.1487 127.004C-86.0513 127.329 -85.8691 127.622 -85.6207 127.852C-83.9417 129.411 -85.9414 132.062 -87.9016 130.875L-90.3265 129.408C-90.7619 129.144 -91.2754 129.04 -91.779 129.114L-115 132.5L-93.3029 127.395C-91.1882 126.897 -89.8573 124.803 -90.3048 122.677L-92.8314 110.676C-93.2211 108.825 -94.854 107.5 -96.7456 107.5H-103.546C-103.821 107.5 -104.07 107.664 -104.179 107.917L-104.356 108.331C-104.611 108.927 -105.5 108.744 -105.5 108.096C-105.5 107.767 -105.767 107.5 -106.096 107.5H-113C-115.209 107.5 -117 109.291 -117 111.5V160C-117 162.209 -115.209 164 -113 164H-58H-3.59432C-1.55013 164 0.165138 162.459 0.382912 160.426L1.5 150V160C1.5 162.209 3.29086 164 5.5 164H55.4582C57.48 164 59.184 162.491 59.4288 160.484L61.5 143.5V160C61.5 162.209 63.2909 164 65.5 164H110.709C111.848 164 112.933 163.513 113.69 162.661L115.21 160.952C115.91 160.164 117.128 160.128 117.873 160.873C119.027 162.027 121 161.21 121 159.578V135L123.629 160.412C123.84 162.451 125.558 164 127.608 164H237C239.209 164 241 162.209 241 160V113C241 110.791 239.209 109 237 109H124L92 108H120C122.209 108 124 106.209 124 104V62.3274C124 60.1868 122.315 58.4257 120.176 58.3313L92.0965 57.0925C91.5354 57.0677 91.3746 56.3127 91.877 56.0615C91.9577 56.0211 92.0472 56.0015 92.1375 56.0043L119.875 56.8711C122.132 56.9416 124 55.1311 124 52.873V5C124 2.79086 122.209 1 120 1H65.2245C63.1259 1 61.3842 2.62179 61.2346 4.71501L59.5 29V5C59.5 2.79086 57.7091 1 55.5 1H5C2.79086 1 1 2.79086 1 5V20.1672C1 21.3054 1.59337 22.3612 2.56558 22.953Z" fill="#C6804F" stroke="#4E1900" stroke-linecap="square"/>
<path d="M4 56H35.5" stroke="#4E1900" stroke-linecap="square"/>
<path d="M13 29L1 22V29H13Z" fill="#4E1900" stroke="#4E1900" stroke-linecap="square"/>
<path d="M59.983 50.902C59.9784 50.7587 59.9849 50.6236 60.0004 50.5C60.0004 50.6379 59.9945 50.7719 59.983 50.902C60.0282 52.3049 61.1454 54.5 65.5004 54.5C63.7472 54.8188 60.3175 56.2654 60.021 59.5394C60.022 59.703 60.0146 59.8576 60.0004 60C60.0004 59.8426 60.0074 59.6891 60.021 59.5394C60.0094 57.7879 59.0242 54.9997 55.0001 54.9997H54.3304C53.1114 55.1318 51.916 55.1015 51.0001 54.9997H54.3304C56.9793 54.7126 59.7394 53.6581 59.983 50.902Z" fill="#4E1900"/>
<path d="M60.0004 50.5C59.8337 51.8333 60.7004 54.5 65.5004 54.5C63.6671 54.8333 60.0004 56.4 60.0004 60C60.167 58.3332 59.4001 54.9997 55.0001 54.9997C50.6001 54.9997 50.5001 54.9997 51.0001 54.9997C54.0002 55.3331 60.0004 54.9 60.0004 50.5Z" stroke="#4E1900" stroke-linecap="square"/>
<path d="M62 105L60 80.5C60 107 60.5 99 52.5 107H76.5L62 105Z" fill="#4E1900"/>
<path d="M2 107H40" stroke="#4E1900" stroke-width="0.5"/>
<path d="M124 162H121V143L124 162Z" fill="#4E1900" stroke="#4E1900" stroke-width="0.5"/>
<path d="M69.4232 46.3463L62.2436 31.9872C62.089 31.678 61.807 31.4517 61.4716 31.3679C60.7241 31.181 60 31.7464 60 32.5168V50.6716C60 51.202 60.2107 51.7107 60.5858 52.0858L62.9298 54.4298C63.2956 54.7956 63.789 55.0055 64.3063 55.0152L116.5 56L121.582 56.363C122.653 56.4395 123.594 55.6563 123.712 54.589L124 52L123.614 36.1653C123.571 34.4074 121.444 33.5565 120.2 34.7998L109.554 45.4458C109.198 45.8021 108.72 46.0108 108.217 46.0301L71.2889 47.4504C70.5041 47.4806 69.7744 47.0487 69.4232 46.3463Z" fill="#AA6A37"/>
<path d="M55.6016 46.4472L58.956 40.577C58.9851 40.5261 59.0049 40.4704 59.0146 40.4125C59.1147 39.8118 60 39.8851 60 40.494V51.216C60 51.4034 60.0381 51.5888 60.1119 51.761L60.3294 52.2686C60.8886 53.5734 59.9482 55.0293 58.5288 55.0561L8.5 56H5.60555C5.2107 56 4.82469 55.8831 4.49615 55.6641L2.44193 54.2946C2.15233 54.1016 1.91813 53.8363 1.76247 53.5249L1.2193 52.4386C1.07523 52.1505 1.0029 51.8318 1.00845 51.5097L1.38441 29.7043C1.41867 27.7173 4.01609 26.991 5.07596 28.6722L15.438 45.1086C15.7898 45.6665 16.3939 46.0152 17.053 46.0405L53.7883 47.4534C54.533 47.482 55.2319 47.0942 55.6016 46.4472Z" fill="#AA6A37"/>
<path d="M63.2148 90.3048L60 82L60.5 102.5L61.5 105L64 106.5L124 108.5V95.5L111.439 101.388C109.193 102.441 106.693 102.829 104.234 102.507L73.6502 98.5018C68.9341 97.8842 64.9318 94.7404 63.2148 90.3048Z" fill="#AA6A37"/>
<path d="M57.2806 92.7053L60.5 88L59.5 102.5L58.5 105L56 106.5L2.5 107L2 96.5L7.98055 100.387C10.5748 102.074 13.6854 102.779 16.7534 102.378L48.2396 98.2543C51.9052 97.7743 55.193 95.7564 57.2806 92.7053Z" fill="#AA6A37"/>
<path d="M-51.5 154.5C-55.9 152.9 -57.6667 144.167 -58 143L-60 161H-0.5L1 151.5C0.599998 153.9 -13.5 157.167 -20 157.5L-51.5 154.5Z" fill="#A7673B"/>
<path d="M10.5 154.5C6.1 152.9 2.33333 142.667 2 141.5L1.5 163.5H59L62 138C61.6 140.4 48.5 157.167 42 157.5L10.5 154.5Z" fill="#A7673B"/>
<path d="M68.5 160.5C65.7 159.3 62.6667 151 61.5 147V164.5L113 163.5L116.5 159.5L121 161V145.5C120.6 148.7 117.833 153.167 116.5 155L104 160.5L83.5 162.5C79.6667 162.333 71.3 161.7 68.5 160.5Z" fill="#A7673B"/>
<path d="M127 160L122.5 146L124.5 162.5L127 164H148.5L150.5 155.5L175.5 137L165 109.5H161L169.5 137L147.5 152.5L136 137L139.5 129.5L135 123L130.5 133L132 141L143.5 155.5L141 160H127Z" fill="#A7673B"/>
<path d="M-51.5 157.5C-55.9 155.9 -57.6667 147.167 -58 146L-60 164H-0.5L1 154.5C0.599998 156.9 -13.5 160.167 -20 160.5L-51.5 157.5Z" fill="#824D2D"/>
<ellipse cx="70" cy="67.031" rx="4" ry="3.5" fill="#B36D39"/>
<ellipse cx="91.0002" cy="67.0311" rx="4" ry="3.5" transform="rotate(-30 91.0002 67.0311)" fill="#B36D39"/>
<ellipse cx="80.214" cy="77.5621" rx="4" ry="3.5" transform="rotate(-5.8344 80.214 77.5621)" fill="#B36D39"/>
<ellipse cx="13.6904" cy="126.5" rx="3" ry="2.5" fill="#B36D39"/>
<ellipse cx="34.0883" cy="131.19" rx="2.32228" ry="2.5" transform="rotate(27.2422 34.0883 131.19)" fill="#B36D39"/>
<ellipse cx="14.1775" cy="138.277" rx="3.02292" ry="3.25426" transform="rotate(27.2422 14.1775 138.277)" fill="#B36D39"/>
<path d="M2.56558 22.953L4.82806 24.3301C7.00278 25.6539 6.06448 29 3.51855 29C2.12759 29 1 30.1276 1 31.5185V50.8431C1 51.904 1.43211 52.9321 2.18226 53.6823C3.28117 54.7812 3.66053 56.4335 3.12943 57.8941L2.24083 60.3377C2.0815 60.7759 2 61.2385 2 61.7047V106.775C2 108.334 0.114998 109.115 -0.987434 108.013C-1.31563 107.684 -1.76074 107.5 -2.22487 107.5H-54.3439C-55.0694 107.5 -55.7503 107.85 -56.172 108.441C-57.0679 109.695 -58.9321 109.695 -59.828 108.441C-60.2497 107.85 -60.9306 107.5 -61.6561 107.5H-86.6239C-89.3033 107.5 -91.2251 110.083 -90.4552 112.649L-86.1487 127.004C-86.0513 127.329 -85.8691 127.622 -85.6207 127.852C-83.9417 129.411 -85.9414 132.062 -87.9016 130.875L-90.3265 129.408C-90.7619 129.144 -91.2754 129.04 -91.779 129.114L-115 132.5L-93.3029 127.395C-91.1882 126.897 -89.8573 124.803 -90.3048 122.677L-92.8314 110.676C-93.2211 108.825 -94.854 107.5 -96.7456 107.5H-103.546C-103.821 107.5 -104.07 107.664 -104.179 107.917L-104.356 108.331C-104.611 108.927 -105.5 108.744 -105.5 108.096C-105.5 107.767 -105.767 107.5 -106.096 107.5H-113C-115.209 107.5 -117 109.291 -117 111.5V160C-117 162.209 -115.209 164 -113 164H-58H-3.59432C-1.55013 164 0.165138 162.459 0.382912 160.426L1.5 150V160C1.5 162.209 3.29086 164 5.5 164H55.4582C57.48 164 59.184 162.491 59.4288 160.484L61.5 143.5V160C61.5 162.209 63.2909 164 65.5 164H110.709C111.848 164 112.933 163.513 113.69 162.661L115.21 160.952C115.91 160.164 117.128 160.128 117.873 160.873C119.027 162.027 121 161.21 121 159.578V135L123.629 160.412C123.84 162.451 125.558 164 127.608 164H237C239.209 164 241 162.209 241 160V113C241 110.791 239.209 109 237 109H124L92 108H120C122.209 108 124 106.209 124 104V62.3274C124 60.1868 122.315 58.4257 120.176 58.3313L92.0965 57.0925C91.5354 57.0677 91.3746 56.3127 91.877 56.0615C91.9577 56.0211 92.0472 56.0015 92.1375 56.0043L119.875 56.8711C122.132 56.9416 124 55.1311 124 52.873V5C124 2.79086 122.209 1 120 1H65.2245C63.1259 1 61.3842 2.62179 61.2346 4.71501L59.5 29V5C59.5 2.79086 57.7091 1 55.5 1H5C2.79086 1 1 2.79086 1 5V20.1672C1 21.3054 1.59337 22.3612 2.56558 22.953Z" stroke="#4E1900" stroke-linecap="square"/>
<path d="M4 56H35.5" stroke="#4E1900" stroke-linecap="square"/>
<path d="M13 29L1 22V29H13Z" fill="#4E1900" stroke="#4E1900" stroke-linecap="square"/>
<path d="M59.983 50.902C59.9784 50.7587 59.9849 50.6236 60.0004 50.5C60.0004 50.6379 59.9945 50.7719 59.983 50.902C60.0282 52.3049 61.1454 54.5 65.5004 54.5C63.7472 54.8188 60.3175 56.2654 60.021 59.5394C60.022 59.703 60.0146 59.8576 60.0004 60C60.0004 59.8426 60.0074 59.6891 60.021 59.5394C60.0094 57.7879 59.0242 54.9997 55.0001 54.9997H54.3304C53.1114 55.1318 51.916 55.1015 51.0001 54.9997H54.3304C56.9793 54.7126 59.7394 53.6581 59.983 50.902Z" fill="#4E1900"/>
<path d="M60.0004 50.5C59.8337 51.8333 60.7004 54.5 65.5004 54.5C63.6671 54.8333 60.0004 56.4 60.0004 60C60.167 58.3332 59.4001 54.9997 55.0001 54.9997C50.6001 54.9997 50.5001 54.9997 51.0001 54.9997C54.0002 55.3331 60.0004 54.9 60.0004 50.5Z" stroke="#4E1900" stroke-linecap="square"/>
<path d="M62 105L60 80.5C60 107 60.5 99 52.5 107H76.5L62 105Z" fill="#4E1900"/>
<path d="M2.56558 22.953L4.82806 24.3301C7.00278 25.6539 6.06448 29 3.51855 29C2.12759 29 1 30.1276 1 31.5185V50.8431C1 51.904 1.43211 52.9321 2.18226 53.6823C3.28117 54.7812 3.66053 56.4335 3.12943 57.8941L2.24083 60.3377C2.0815 60.7759 2 61.2385 2 61.7047V106.775C2 108.334 0.114998 109.115 -0.987434 108.013C-1.31563 107.684 -1.76074 107.5 -2.22487 107.5H-54.3439C-55.0694 107.5 -55.7503 107.85 -56.172 108.441C-57.0679 109.695 -58.9321 109.695 -59.828 108.441C-60.2497 107.85 -60.9306 107.5 -61.6561 107.5H-86.6239C-89.3033 107.5 -91.2251 110.083 -90.4552 112.649L-86.1487 127.004C-86.0513 127.329 -85.8691 127.622 -85.6207 127.852C-83.9417 129.411 -85.9414 132.062 -87.9016 130.875L-90.3265 129.408C-90.7619 129.144 -91.2754 129.04 -91.779 129.114L-115 132.5L-93.3029 127.395C-91.1882 126.897 -89.8573 124.803 -90.3048 122.677L-92.8314 110.676C-93.2211 108.825 -94.854 107.5 -96.7456 107.5H-103.546C-103.821 107.5 -104.07 107.664 -104.179 107.917L-104.356 108.331C-104.611 108.927 -105.5 108.744 -105.5 108.096C-105.5 107.767 -105.767 107.5 -106.096 107.5H-113C-115.209 107.5 -117 109.291 -117 111.5V160C-117 162.209 -115.209 164 -113 164H-58H-3.59432C-1.55013 164 0.165138 162.459 0.382912 160.426L1.5 150V160C1.5 162.209 3.29086 164 5.5 164H55.4582C57.48 164 59.184 162.491 59.4288 160.484L61.5 143.5V160C61.5 162.209 63.2909 164 65.5 164H110.709C111.848 164 112.933 163.513 113.69 162.661L115.21 160.952C115.91 160.164 117.128 160.128 117.873 160.873C119.027 162.027 121 161.21 121 159.578V135L123.629 160.412C123.84 162.451 125.558 164 127.608 164H237C239.209 164 241 162.209 241 160V113C241 110.791 239.209 109 237 109H124L92 108H120C122.209 108 124 106.209 124 104V62.3274C124 60.1868 122.315 58.4257 120.176 58.3313L92.0965 57.0925C91.5354 57.0677 91.3746 56.3127 91.877 56.0615C91.9577 56.0211 92.0472 56.0015 92.1375 56.0043L119.875 56.8711C122.132 56.9416 124 55.1311 124 52.873V5C124 2.79086 122.209 1 120 1H65.2245C63.1259 1 61.3842 2.62179 61.2346 4.71501L59.5 29V5C59.5 2.79086 57.7091 1 55.5 1H5C2.79086 1 1 2.79086 1 5V20.1672C1 21.3054 1.59337 22.3612 2.56558 22.953Z" stroke="#4E1900" stroke-linecap="square"/>
<path d="M6 5H28" stroke="#E9A657" stroke-width="4" stroke-linecap="round"/>
<path d="M91 5H113" stroke="#E9A657" stroke-width="4" stroke-linecap="round"/>
<path d="M65 58L86.9905 58.6454" stroke="#E9A657" stroke-width="4" stroke-linecap="round"/>
<path d="M30 111H50" stroke="#E9A657" stroke-width="4" stroke-linecap="round"/>
<path d="M66 112H102" stroke="#E9A657" stroke-width="4" stroke-linecap="round"/>
<path d="M50 5H54" stroke="#E9A657" stroke-width="4" stroke-linecap="round"/>
</g>
</svg>
