<svg width="121" height="60" viewBox="0 0 121 60" fill="none" xmlns="http://www.w3.org/2000/svg">
<mask id="mask0_39_356" style="mask-type:alpha" maskUnits="userSpaceOnUse" x="0" y="0" width="121" height="60">
<rect width="121" height="60" fill="#D9D9D9"/>
</mask>
<g mask="url(#mask0_39_356)">
<path d="M-122.434 -82.047L-120.172 -80.6699C-117.997 -79.3461 -118.936 -76 -121.481 -76C-122.872 -76 -124 -74.8724 -124 -73.4815V-54.1569C-124 -53.096 -123.568 -52.0679 -122.818 -51.3177C-121.719 -50.2188 -121.339 -48.5665 -121.871 -47.1059L-122.759 -44.6623C-122.918 -44.2241 -123 -43.7615 -123 -43.2953V1.77512C-123 3.33421 -124.885 4.115 -125.987 3.01257C-126.316 2.68437 -126.761 2.5 -127.225 2.5H-179.344C-180.069 2.5 -180.75 2.85037 -181.172 3.44074C-182.068 4.69507 -183.932 4.69507 -184.828 3.44074C-185.25 2.85037 -185.931 2.5 -186.656 2.5H-211.624C-214.303 2.5 -216.225 5.08295 -215.455 7.64939L-211.149 22.0043C-211.051 22.3289 -210.869 22.6216 -210.621 22.8522C-208.942 24.4113 -210.941 27.0618 -212.902 25.8754L-215.327 24.4076C-215.762 24.1441 -216.275 24.0402 -216.779 24.1136L-240 27.5L-218.303 22.3948C-216.188 21.8972 -214.857 19.8029 -215.305 17.6771L-217.831 5.67596C-218.221 3.82498 -219.854 2.5 -221.746 2.5H-228.546C-228.821 2.5 -229.07 2.66412 -229.179 2.91724L-229.356 3.33086C-229.611 3.92663 -230.5 3.74424 -230.5 3.09605C-230.5 2.76686 -230.767 2.5 -231.096 2.5H-238C-240.209 2.5 -242 4.29086 -242 6.5V55C-242 57.2091 -240.209 59 -238 59H-183H-128.594C-126.55 59 -124.835 57.4587 -124.617 55.4261L-123.5 45V55C-123.5 57.2091 -121.709 59 -119.5 59H-69.5418C-67.52 59 -65.816 57.4912 -65.5712 55.4842L-63.5 38.5V55C-63.5 57.2091 -61.7091 59 -59.5 59H-14.291C-13.1518 59 -12.067 58.5128 -11.3101 57.6614L-9.79045 55.9518C-9.09035 55.1641 -7.87167 55.1283 -7.12653 55.8735C-5.97276 57.0272 -4 56.2101 -4 54.5784V30L-1.37122 55.4116C-1.16029 57.4505 0.55777 59 2.60756 59H112C114.209 59 116 57.2091 116 55V8C116 5.79086 114.209 4 112 4H-1L-33 3H-5C-2.79086 3 -1 1.20914 -1 -1V-42.6726C-1 -44.8132 -2.6852 -46.5743 -4.8237 -46.6687L-32.9035 -47.9075C-33.4646 -47.9323 -33.6254 -48.6873 -33.123 -48.9385C-33.0423 -48.9789 -32.9528 -48.9985 -32.8625 -48.9957L-5.12494 -48.1289C-2.86794 -48.0584 -1 -49.8689 -1 -52.127V-100C-1 -102.209 -2.79086 -104 -5 -104H-59.7755C-61.8741 -104 -63.6158 -102.378 -63.7654 -100.285L-65.5 -76V-100C-65.5 -102.209 -67.2909 -104 -69.5 -104H-120C-122.209 -104 -124 -102.209 -124 -100V-84.8328C-124 -83.6946 -123.407 -82.6388 -122.434 -82.047Z" fill="#C6804F" stroke="#4E1900" stroke-linecap="square"/>
<path d="M63 59L61 20V59H63Z" fill="#6C3314"/>
<path d="M61 20L61 46" stroke="#4E1900" stroke-width="0.5"/>
<path d="M61 54L61 59" stroke="#4E1900" stroke-width="0.5"/>
<path d="M43.5 23L37.5 5V4L39 4.5L43.5 23Z" fill="#4E1900"/>
<path d="M21 50.5L19.5 59.5L21.5 59L22.5 51L48 33.5L43 20L46 32L22 49.5L9.5 31.5L10.5 20L7.5 32L21 50.5Z" fill="#4E1900"/>
<path d="M2 55L-2.5 41L-0.5 57.5L2 59H23.5L25.5 50.5L50.5 32L40 4.5H36L44.5 32L22.5 47.5L11 32L14.5 24.5L10 18L5.5 28L7 36L18.5 50.5L16 55H2Z" fill="#A7673B"/>
<path d="M61 54.5H22.5L23.5 56L20.5 59H61V54.5Z" fill="#A7673B"/>
<path d="M68.5 44.5C65.3 44.1 62.5 30.3333 61.5 23.5L62.5 52.5H116V18C115.6 30 108.167 39.6667 104.5 43C93.8333 43.6667 71.7 44.9 68.5 44.5Z" fill="#A7673B"/>
<path d="M68.5 51C65.3 50.6 62.5 36.8333 61.5 30L62.5 59H116V24.5C115.6 36.5 108.167 46.1667 104.5 49.5C93.8333 50.1667 71.7 51.4 68.5 51Z" fill="#925830"/>
<path d="M-122.434 -82.047L-120.172 -80.6699C-117.997 -79.3461 -118.936 -76 -121.481 -76C-122.872 -76 -124 -74.8724 -124 -73.4815V-54.1569C-124 -53.096 -123.568 -52.0679 -122.818 -51.3177C-121.719 -50.2188 -121.339 -48.5665 -121.871 -47.1059L-122.759 -44.6623C-122.918 -44.2241 -123 -43.7615 -123 -43.2953V1.77512C-123 3.33421 -124.885 4.115 -125.987 3.01257C-126.316 2.68437 -126.761 2.5 -127.225 2.5H-179.344C-180.069 2.5 -180.75 2.85037 -181.172 3.44074C-182.068 4.69507 -183.932 4.69507 -184.828 3.44074C-185.25 2.85037 -185.931 2.5 -186.656 2.5H-211.624C-214.303 2.5 -216.225 5.08295 -215.455 7.64939L-211.149 22.0043C-211.051 22.3289 -210.869 22.6216 -210.621 22.8522C-208.942 24.4113 -210.941 27.0618 -212.902 25.8754L-215.327 24.4076C-215.762 24.1441 -216.275 24.0402 -216.779 24.1136L-240 27.5L-218.303 22.3948C-216.188 21.8972 -214.857 19.8029 -215.305 17.6771L-217.831 5.67596C-218.221 3.82498 -219.854 2.5 -221.746 2.5H-228.546C-228.821 2.5 -229.07 2.66412 -229.179 2.91724L-229.356 3.33086C-229.611 3.92663 -230.5 3.74424 -230.5 3.09605C-230.5 2.76686 -230.767 2.5 -231.096 2.5H-238C-240.209 2.5 -242 4.29086 -242 6.5V55C-242 57.2091 -240.209 59 -238 59H-183H-128.594C-126.55 59 -124.835 57.4587 -124.617 55.4261L-123.5 45V55C-123.5 57.2091 -121.709 59 -119.5 59H-69.5418C-67.52 59 -65.816 57.4912 -65.5712 55.4842L-63.5 38.5V55C-63.5 57.2091 -61.7091 59 -59.5 59H-14.291C-13.1518 59 -12.067 58.5128 -11.3101 57.6614L-9.79045 55.9518C-9.09035 55.1641 -7.87167 55.1283 -7.12653 55.8735C-5.97276 57.0272 -4 56.2101 -4 54.5784V30L-1.37122 55.4116C-1.16029 57.4505 0.55777 59 2.60756 59H112C114.209 59 116 57.2091 116 55V8C116 5.79086 114.209 4 112 4H-1L-33 3H-5C-2.79086 3 -1 1.20914 -1 -1V-42.6726C-1 -44.8132 -2.6852 -46.5743 -4.8237 -46.6687L-32.9035 -47.9075C-33.4646 -47.9323 -33.6254 -48.6873 -33.123 -48.9385C-33.0423 -48.9789 -32.9528 -48.9985 -32.8625 -48.9957L-5.12494 -48.1289C-2.86794 -48.0584 -1 -49.8689 -1 -52.127V-100C-1 -102.209 -2.79086 -104 -5 -104H-59.7755C-61.8741 -104 -63.6158 -102.378 -63.7654 -100.285L-65.5 -76V-100C-65.5 -102.209 -67.2909 -104 -69.5 -104H-120C-122.209 -104 -124 -102.209 -124 -100V-84.8328C-124 -83.6946 -123.407 -82.6388 -122.434 -82.047Z" stroke="#4E1900" stroke-linecap="square"/>
<path d="M61 20L61 46" stroke="#4E1900" stroke-width="2"/>
<path d="M-122.434 -82.047L-120.172 -80.6699C-117.997 -79.3461 -118.936 -76 -121.481 -76C-122.872 -76 -124 -74.8724 -124 -73.4815V-54.1569C-124 -53.096 -123.568 -52.0679 -122.818 -51.3177C-121.719 -50.2188 -121.339 -48.5665 -121.871 -47.1059L-122.759 -44.6623C-122.918 -44.2241 -123 -43.7615 -123 -43.2953V1.77512C-123 3.33421 -124.885 4.115 -125.987 3.01257C-126.316 2.68437 -126.761 2.5 -127.225 2.5H-179.344C-180.069 2.5 -180.75 2.85037 -181.172 3.44074C-182.068 4.69507 -183.932 4.69507 -184.828 3.44074C-185.25 2.85037 -185.931 2.5 -186.656 2.5H-211.624C-214.303 2.5 -216.225 5.08295 -215.455 7.64939L-211.149 22.0043C-211.051 22.3289 -210.869 22.6216 -210.621 22.8522C-208.942 24.4113 -210.941 27.0618 -212.902 25.8754L-215.327 24.4076C-215.762 24.1441 -216.275 24.0402 -216.779 24.1136L-240 27.5L-218.303 22.3948C-216.188 21.8972 -214.857 19.8029 -215.305 17.6771L-217.831 5.67596C-218.221 3.82498 -219.854 2.5 -221.746 2.5H-228.546C-228.821 2.5 -229.07 2.66412 -229.179 2.91724L-229.356 3.33086C-229.611 3.92663 -230.5 3.74424 -230.5 3.09605C-230.5 2.76686 -230.767 2.5 -231.096 2.5H-238C-240.209 2.5 -242 4.29086 -242 6.5V55C-242 57.2091 -240.209 59 -238 59H-183H-128.594C-126.55 59 -124.835 57.4587 -124.617 55.4261L-123.5 45V55C-123.5 57.2091 -121.709 59 -119.5 59H-69.5418C-67.52 59 -65.816 57.4912 -65.5712 55.4842L-63.5 38.5V55C-63.5 57.2091 -61.7091 59 -59.5 59H-14.291C-13.1518 59 -12.067 58.5128 -11.3101 57.6614L-9.79045 55.9518C-9.09035 55.1641 -7.87167 55.1283 -7.12653 55.8735C-5.97276 57.0272 -4 56.2101 -4 54.5784V30L-1.37122 55.4116C-1.16029 57.4505 0.55777 59 2.60756 59H112C114.209 59 116 57.2091 116 55V8C116 5.79086 114.209 4 112 4H-1L-33 3H-5C-2.79086 3 -1 1.20914 -1 -1V-42.6726C-1 -44.8132 -2.6852 -46.5743 -4.8237 -46.6687L-32.9035 -47.9075C-33.4646 -47.9323 -33.6254 -48.6873 -33.123 -48.9385C-33.0423 -48.9789 -32.9528 -48.9985 -32.8625 -48.9957L-5.12494 -48.1289C-2.86794 -48.0584 -1 -49.8689 -1 -52.127V-100C-1 -102.209 -2.79086 -104 -5 -104H-59.7755C-61.8741 -104 -63.6158 -102.378 -63.7654 -100.285L-65.5 -76V-100C-65.5 -102.209 -67.2909 -104 -69.5 -104H-120C-122.209 -104 -124 -102.209 -124 -100V-84.8328C-124 -83.6946 -123.407 -82.6388 -122.434 -82.047Z" stroke="#4E1900" stroke-linecap="square"/>
<path d="M81 8L112 8" stroke="#E9A657" stroke-width="4" stroke-linecap="round"/>
<path d="M3 8H11" stroke="#E9A657" stroke-width="4" stroke-linecap="round"/>
<path d="M60.5 4V8" stroke="#4E1900"/>
<path d="M61 54L61 59" stroke="#4E1900" stroke-width="2"/>
</g>
</svg>
