<svg width="60" height="52" viewBox="0 0 60 52" fill="none" xmlns="http://www.w3.org/2000/svg">
<path d="M14.5 46.5V40.5L15.872 47.36C16.2391 49.1955 17.83 50.5309 19.7013 50.5744L55.0573 51.3967C57.4318 51.4519 59.331 49.4381 59.137 47.071L57 21L59 37.5L58.1066 4.89045C58.0473 2.72479 56.2746 1 54.1081 1H5C2.79086 1 1 2.79086 1 5V46.5C1 48.7091 2.79086 50.5 5 50.5H10.5C12.7091 50.5 14.5 48.7091 14.5 46.5Z" fill="#C2814B" stroke="#4E1900"/>
<path d="M15 38L14.1713 35.5138C14.0576 35.1728 13.9904 34.8181 13.9715 34.4591L13.1035 17.966C13.0382 16.7263 13.5522 15.5266 14.4948 14.7188L15.3156 14.0152C16.0773 13.3624 17.0564 13.0195 18.059 13.0547L41.2233 13.8675C43.3429 13.9419 45.036 15.6577 45.0821 17.7781L45.4407 34.2707C45.4765 35.9168 44.4999 37.4167 42.9801 38.05L40.4911 39.087C39.8419 39.3576 39.1328 39.4521 38.4353 39.3611L31.0511 38.398C29.2523 38.1633 27.8367 36.7477 27.602 34.9489L26.8573 29.2397C26.646 27.6191 27.5373 26.0554 29.0395 25.4116V25.4116C29.6672 25.1426 30.3578 25.0551 31.0329 25.1589L34.6547 25.7161C35.7163 25.8794 36.5 26.7929 36.5 27.867V27.867C36.5 28.5771 36.1535 29.2425 35.5718 29.6498L31.5 32.5" stroke="#4E1900"/>
<path d="M6 5H20" stroke="#E9A657" stroke-width="4" stroke-linecap="round"/>
<path d="M44 5L48 5" stroke="#E9A657" stroke-width="4" stroke-linecap="round"/>
</svg>
