<svg width="159" height="135" viewBox="0 0 159 135" fill="none" xmlns="http://www.w3.org/2000/svg">
<g filter="url(#filter0_d_149_1107)">
<path d="M12 19V29.5V116C12 121.523 16.4772 126 22 126H137C142.523 126 147 121.523 147 116V19C147 13.4772 142.523 9 137 9H22C16.4772 9 12 13.4772 12 19Z" fill="#B2526D"/>
<path d="M12 19V29.5V116C12 121.523 16.4772 126 22 126H137C142.523 126 147 121.523 147 116V19C147 13.4772 142.523 9 137 9H22C16.4772 9 12 13.4772 12 19Z" stroke="black" stroke-width="2"/>
</g>
<path d="M12 57.5H146V115.5C146 121.023 141.523 125.5 136 125.5H22C16.4772 125.5 12 121.023 12 115.5V57.5Z" fill="#654264"/>
<path d="M25.349 116.431L19.2218 110.742C16.6624 108.365 12.5 110.18 12.5 113.673V121.5C12.5 123.709 14.2909 125.5 16.5 125.5H142.5C144.709 125.5 146.5 123.709 146.5 121.5V111.773C146.5 108.62 143.021 106.706 140.358 108.395L126.981 116.878C126.34 117.284 125.597 117.5 124.839 117.5H107.56C107.189 117.5 106.819 117.448 106.461 117.346L90.9961 112.927C90.0338 112.653 89.0034 112.748 88.1083 113.196L80.3446 117.078C79.7892 117.355 79.1767 117.5 78.5557 117.5H28.0708C27.0611 117.5 26.0888 117.118 25.349 116.431Z" fill="#583E61"/>
<path d="M12 19V29.5V116C12 121.523 16.4772 126 22 126H137C142.523 126 147 121.523 147 116V19C147 13.4772 142.523 9 137 9H22C16.4772 9 12 13.4772 12 19Z" stroke="black" stroke-width="2"/>
<g filter="url(#filter1_d_149_1107)">
<path d="M146 29.5H13C10.7909 29.5 9 31.2909 9 33.5V55.4416C9 56.5784 9.92157 57.5 11.0584 57.5H146C148.209 57.5 150 55.7091 150 53.5V33.5C150 31.2909 148.209 29.5 146 29.5Z" fill="#AA5866"/>
<path d="M146 29.5H13C10.7909 29.5 9 31.2909 9 33.5V55.4416C9 56.5784 9.92157 57.5 11.0584 57.5H146C148.209 57.5 150 55.7091 150 53.5V33.5C150 31.2909 148.209 29.5 146 29.5Z" stroke="black"/>
</g>
<path d="M77.3333 38.5H82.3333C83.8061 38.5 85 39.6939 85 41.1667V45.8333C85 47.3061 83.8061 48.5 82.3333 48.5H72.6667C71.1939 48.5 70 47.3061 70 45.8333V44.1667C70 42.6939 71.1939 41.5 72.6667 41.5H80.3333C81.4379 41.5 82.3333 42.3954 82.3333 43.5V43.5C82.3333 44.6046 81.4379 45.5 80.3333 45.5H73.3333" stroke="black" stroke-opacity="0.2" stroke-width="2"/>
<rect x="9.5" y="78" width="142" height="13" rx="6.5" fill="#935874" stroke="black"/>
<path d="M52.1046 127C48.9046 124.6 50.7713 83 52.1046 62.5V53.1667C52.1046 51.6939 50.9107 50.5 49.4379 50.5H44.3635C43.0599 50.5 41.9474 51.4424 41.7331 52.7282L40.1043 62.5C39.271 82.1667 38.1043 122.6 40.1043 127C42.6043 132.5 56.1046 130 52.1046 127Z" fill="#835064" stroke="black" stroke-width="0.666667"/>
<path d="M115.105 127C111.905 124.6 115.667 107.5 117 87L115.236 53.0284C115.162 51.6113 113.992 50.5 112.573 50.5H107.57C106.178 50.5 105.021 51.5705 104.912 52.9581L103.104 76L103.076 76.6707C102.245 96.2736 101.127 122.65 103.104 127C105.604 132.5 119.105 130 115.105 127Z" fill="#835064" stroke="black" stroke-width="0.666667"/>
<path d="M58.5 24.0527C52.4806 28.5672 37.4384 47.2942 29.4307 57.6869C28.5437 58.8379 28.3029 60.4197 29.1259 61.6173C31.8611 65.598 35.3979 64.3636 37 63.0527L65.441 32.2015C66.1219 31.4628 66.5175 30.4944 66.4347 29.4932C66.0792 25.1946 64.18 19.7927 58.5 24.0527Z" fill="#884F60" stroke="black"/>
<path d="M66.4473 55C61.9328 48.9806 43.2058 33.9384 32.8131 25.9306C31.6621 25.0437 30.0803 24.8029 28.8827 25.6259C24.902 28.3611 26.1364 31.8979 27.4473 33.5L58.2985 61.941C59.0372 62.6219 60.0056 63.0175 61.0068 62.9347C65.3054 62.5792 70.7073 60.68 66.4473 55Z" fill="#884F60" stroke="black"/>
<path d="M121.32 24.0527C115.301 28.5672 100.259 47.2942 92.251 57.6869C91.3641 58.8379 91.1232 60.4197 91.9462 61.6173C94.6814 65.598 98.2182 64.3636 99.8203 63.0527L128.261 32.2015C128.942 31.4628 129.338 30.4944 129.255 29.4932C128.9 25.1946 127 19.7927 121.32 24.0527Z" fill="#884F60" stroke="black"/>
<path d="M129.268 55C124.753 48.9806 106.026 33.9384 95.6334 25.9306C94.4824 25.0437 92.9006 24.8029 91.703 25.6259C87.7223 28.3611 88.9568 31.8979 90.2676 33.5L121.119 61.941C121.857 62.6219 122.826 63.0175 123.827 62.9347C128.126 62.5792 133.528 60.68 129.268 55Z" fill="#884F60" stroke="black"/>
<defs>
<filter id="filter0_d_149_1107" x="3" y="0" width="153" height="135" filterUnits="userSpaceOnUse" color-interpolation-filters="sRGB">
<feFlood flood-opacity="0" result="BackgroundImageFix"/>
<feColorMatrix in="SourceAlpha" type="matrix" values="0 0 0 0 0 0 0 0 0 0 0 0 0 0 0 0 0 0 127 0" result="hardAlpha"/>
<feOffset/>
<feGaussianBlur stdDeviation="4"/>
<feComposite in2="hardAlpha" operator="out"/>
<feColorMatrix type="matrix" values="0 0 0 0 0 0 0 0 0 0 0 0 0 0 0 0 0 0 1 0"/>
<feBlend mode="normal" in2="BackgroundImageFix" result="effect1_dropShadow_149_1107"/>
<feBlend mode="normal" in="SourceGraphic" in2="effect1_dropShadow_149_1107" result="shape"/>
</filter>
<filter id="filter1_d_149_1107" x="0.5" y="21" width="158" height="45" filterUnits="userSpaceOnUse" color-interpolation-filters="sRGB">
<feFlood flood-opacity="0" result="BackgroundImageFix"/>
<feColorMatrix in="SourceAlpha" type="matrix" values="0 0 0 0 0 0 0 0 0 0 0 0 0 0 0 0 0 0 127 0" result="hardAlpha"/>
<feOffset/>
<feGaussianBlur stdDeviation="4"/>
<feComposite in2="hardAlpha" operator="out"/>
<feColorMatrix type="matrix" values="0 0 0 0 0 0 0 0 0 0 0 0 0 0 0 0 0 0 1 0"/>
<feBlend mode="normal" in2="BackgroundImageFix" result="effect1_dropShadow_149_1107"/>
<feBlend mode="normal" in="SourceGraphic" in2="effect1_dropShadow_149_1107" result="shape"/>
</filter>
</defs>
</svg>
