<svg width="169" height="53" viewBox="0 0 169 53" fill="none" xmlns="http://www.w3.org/2000/svg">
<rect x="1" y="1" width="166.273" height="51" rx="6.56818" fill="#1F2B17"/>
<rect x="1" y="1" width="166.273" height="51" rx="6.56818" stroke="#F0CE7B" stroke-width="2"/>
<path d="M25.2509 23.3778V31H23.0731V29.9111H21.9842V28.8222H20.8953V27.7333H19.8064V31H17.6286V23.3778H19.8064V24.4667H20.8953V25.5556H21.9842V26.6444H23.0731V23.3778H25.2509ZM34.2682 29.9111V31H26.646V23.3778H34.2682V24.4667H28.8238V26.6444H33.1793V27.7333H28.8238V29.9111H34.2682ZM43.2856 28.8222V31H41.1078V29.9111H40.0189V28.8222H38.93V29.9111H37.8411V31H35.6634V28.8222H36.7522V27.7333H37.8411V26.6444H36.7522V25.5556H35.6634V23.3778H37.8411V24.4667H38.93V25.5556H40.0189V24.4667H41.1078V23.3778H43.2856V25.5556H42.1967V26.6444H41.1078V27.7333H42.1967V28.8222H43.2856ZM51.7585 23.3778V24.4667H49.5807V31H47.4029V24.4667H45.2252V23.3778H51.7585ZM70.3377 29.9111V31H62.7154V23.3778H64.8932V29.9111H70.3377ZM79.355 29.9111V31H71.7328V23.3778H79.355V24.4667H73.9106V26.6444H78.2661V27.7333H73.9106V29.9111H79.355ZM88.3724 23.3778V27.7333H87.2835V28.8222H86.1946V29.9111H85.1057V31H84.0168V29.9111H82.9279V28.8222H81.8391V27.7333H80.7502V23.3778H82.9279V26.6444H84.0168V27.7333H85.1057V26.6444H86.1946V23.3778H88.3724ZM97.3898 29.9111V31H89.7675V23.3778H97.3898V24.4667H91.9453V26.6444H96.3009V27.7333H91.9453V29.9111H97.3898ZM106.407 29.9111V31H98.7849V23.3778H100.963V29.9111H106.407Z" fill="#F0CE7B"/>
<path d="M123.02 25.0628L123.02 27.9362L140.261 27.9362L140.261 30.8097L143.134 30.8097L143.134 27.9362L146.008 27.9362L146.008 25.0628L143.134 25.0628L143.134 22.1893L140.261 22.1893L140.261 25.0628L123.02 25.0628ZM137.387 19.3158L140.261 19.3158L140.261 22.1893L137.387 22.1893L137.387 19.3158ZM137.387 19.3158L134.514 19.3158L134.514 16.4424L137.387 16.4424L137.387 19.3158ZM137.387 33.6831L140.261 33.6831L140.261 30.8097L137.387 30.8097L137.387 33.6831ZM137.387 33.6831L134.514 33.6831L134.514 36.5566L137.387 36.5566L137.387 33.6831Z" fill="#F0CE7B"/>
</svg>
