<svg width="110" height="62" viewBox="0 0 110 62" fill="none" xmlns="http://www.w3.org/2000/svg">
<path d="M0.987685 26.7439L0.987685 35.3704L92.7469 35.3704L92.7469 43.997L101.373 43.997L101.373 35.3704L110 35.3704L110 26.7439L101.373 26.7439L101.373 18.1173L92.7469 18.1173L92.7469 26.7439L0.987685 26.7439ZM84.1204 9.4908L92.7469 9.4908L92.7469 18.1173L84.1204 18.1173L84.1204 9.4908ZM84.1204 9.4908L75.4938 9.4908L75.4938 0.864256L84.1204 0.864257L84.1204 9.4908ZM84.1204 52.6235L92.7469 52.6235L92.7469 43.997L84.1204 43.997L84.1204 52.6235ZM84.1204 52.6235L75.4938 52.6235L75.4938 61.25L84.1204 61.25L84.1204 52.6235Z" fill="#EBB940"/>
</svg>
