<svg width="87" height="80" viewBox="0 0 87 80" fill="none" xmlns="http://www.w3.org/2000/svg">
<path d="M18.68 6H6.75386C5.94649 6 5.29199 6.6545 5.29199 7.46187V29.905C5.29199 30.4867 5.6158 31.0201 6.13192 31.2885L9.44022 33.0088C10.6465 33.636 10.5282 35.3989 9.249 35.8594L6.32314 36.9127C5.70447 37.1354 5.29199 37.7223 5.29199 38.3798V68.799C5.29199 69.2126 5.45628 69.6092 5.74871 69.9016L9.80562 73.9585C10.098 74.251 10.4947 74.4153 10.9082 74.4153H75.6927C76.1063 74.4153 76.5029 74.251 76.7953 73.9585L80.8522 69.9016C81.1446 69.6092 81.3089 69.2126 81.3089 68.799V7.55932C81.3089 6.69813 80.6108 6 79.7496 6H28.1582C27.7447 6 27.348 6.16429 27.0556 6.45672L24.5217 8.99061C23.9128 9.59957 22.9255 9.59957 22.3165 8.99061L19.7826 6.45671C19.4902 6.16429 19.0936 6 18.68 6Z" fill="#924A56" stroke="black" stroke-width="1.16949"/>
<path d="M22.0007 69.7374L6.16949 66.8137L5 68.2756L9.09322 73.2459L19.554 74.123L22.7203 75.0002H27.4697L38.9832 71.4917L39.9907 69.4451L42.0056 72.6612L78.9703 72.3688L81.3093 67.9832L80.4322 64.7671L72.8044 67.9832L48.9137 66.8137L44.74 62.1357L36.5366 66.8137L22.0007 69.7374Z" fill="#62323E" fill-opacity="0.5"/>
<path d="M22.0006 71.4916L6.16943 68.5679L9.38554 73.8306L20.2532 74.1229L23.4194 75.0001H28.1688L38.9152 74.1229L39.9906 71.1992L42.0055 74.4153L76.6313 74.1229L81.0169 69.7374L80.4321 66.5212L72.8044 69.7374L48.9137 68.5679L44.74 63.8899L36.5366 68.5679L22.0006 71.4916Z" fill="#683F4F"/>
<path d="M79.3618 55.3916C77.689 57.1852 61.2626 56.8096 53.8446 57.0621C50.0419 52.9848 53.7039 51.6274 55.4909 51.1024C62.4644 50.3702 76.9934 49.6723 78.7861 50.2713C81.027 51.02 81.4528 53.1497 79.3618 55.3916Z" fill="#9D5C64" stroke="black"/>
<path d="M18.7411 7.16946H6.58259C6.50505 7.16946 6.43068 7.13866 6.37585 7.08383C6.26167 6.96965 6.07655 6.96965 5.96237 7.08383L5.54889 7.49731C5.3844 7.6618 5.29199 7.8849 5.29199 8.11752V8.26801C5.29199 8.95308 5.84735 9.50845 6.53243 9.50845H17.3443C17.6816 9.50845 18.0099 9.61788 18.2798 9.82031L19.0335 10.3856L23.5423 13.1409C24.01 13.4267 24.5934 13.446 25.0789 13.1917L30.0962 10.5636C30.3194 10.4467 30.5677 10.3856 30.8197 10.3856H79.7496C80.6108 10.3856 81.3089 9.68743 81.3089 8.82624V8.59356C81.3089 8.23948 81.1884 7.89595 80.9672 7.61946L80.6076 7.16994C80.3117 6.80004 79.8637 6.58472 79.39 6.58472H31.7164C31.6426 6.58472 31.5689 6.58995 31.4958 6.60039L28.0269 7.09596C27.6929 7.14367 27.3834 7.29843 27.1448 7.537L25.692 8.98975C25.5427 9.13908 25.3646 9.25651 25.1685 9.33494L23.4967 10.0037C22.9175 10.2354 22.256 10.0996 21.8149 9.65851L19.7394 7.58294C19.4746 7.31819 19.1156 7.16946 18.7411 7.16946Z" fill="#A65041"/>
<path d="M18.7411 7.16946H6.58259C6.50505 7.16946 6.43068 7.13866 6.37585 7.08383C6.26167 6.96965 6.07655 6.96965 5.96237 7.08383L5.54889 7.49731C5.3844 7.6618 5.29199 7.8849 5.29199 8.11752V8.26801C5.29199 8.95308 5.84735 9.50845 6.53243 9.50845H17.3443C17.6816 9.50845 18.0099 9.61788 18.2798 9.82031L19.0335 10.3856L23.5423 13.1409C24.01 13.4267 24.5934 13.446 25.0789 13.1917L30.0962 10.5636C30.3194 10.4467 30.5677 10.3856 30.8197 10.3856H79.7496C80.6108 10.3856 81.3089 9.68743 81.3089 8.82624V8.59356C81.3089 8.23948 81.1884 7.89595 80.9672 7.61946L80.6076 7.16994C80.3117 6.80004 79.8637 6.58472 79.39 6.58472H31.7164C31.6426 6.58472 31.5689 6.58995 31.4958 6.60039L28.0269 7.09596C27.6929 7.14367 27.3834 7.29843 27.1448 7.537L25.692 8.98975C25.5427 9.13908 25.3646 9.25651 25.1685 9.33494L23.4967 10.0037C22.9175 10.2354 22.256 10.0996 21.8149 9.65851L19.7394 7.58294C19.4746 7.31819 19.1156 7.16946 18.7411 7.16946Z" fill="#B24C47"/>
<path d="M47.8243 16.2582L38.9648 17.9985C35.7345 18.633 33.6644 21.8081 34.3871 25.0199L35.6992 30.8517L37.7458 46.0551V72.0952C37.7458 72.6643 37.7853 73.2849 38.2149 73.6582C39.8897 75.1135 45.074 74.4667 47.3941 74.1229C49.7041 73.9304 53.5587 75.0449 55.6658 73.9787C56.5525 73.53 56.7501 72.432 56.7501 71.4382V27.424C56.7501 25.7039 57.5074 24.0711 58.8204 22.9601L59.0458 22.7693C60.0176 21.9471 60.6658 20.8066 60.875 19.5511C61.3478 16.7145 59.5033 14.0086 56.6902 13.4118L54.7508 13.0005C53.1172 12.6539 51.4311 13.287 50.4291 14.6229C49.7929 15.4712 48.8649 16.0538 47.8243 16.2582Z" fill="#AC5963" stroke="black"/>
<path d="M47.3939 23.5425L81.0168 22.6653L80.7244 39.9153L68.8488 38.9047C67.6352 38.8014 66.4197 39.0796 65.3719 39.7005L60.4674 42.6069C59.565 43.1416 58.5353 43.4238 57.4863 43.4238H44.3727C43.1075 43.4238 41.8764 43.8342 40.8642 44.5933L37.8335 46.8664C36.3118 48.0076 34.3303 48.3374 32.521 47.7507L30.1965 46.9967C27.1068 45.9947 25.4259 42.6668 26.453 39.5854L27.7123 35.8076C28.1497 34.4955 28.1078 33.0709 27.5942 31.7867L24.8004 24.8023C23.8345 22.3875 24.7542 19.6282 26.9758 18.276C28.7322 17.2069 30.9471 17.2445 32.6661 18.3726L38.0266 21.8904C38.8027 22.3997 39.6889 22.7169 40.6119 22.8158L47.3939 23.5425Z" fill="#AC5963" stroke="black"/>
<path d="M53.8266 48.4144C50.552 47.7127 38.4283 27.8305 32.4834 19.1568C34.1207 11.6721 38.4283 15.0636 40.3775 16.8178C46.5173 24.6144 58.3876 41.4559 59.0893 44.0288C59.9664 47.2449 57.9198 49.2915 53.8266 48.4144Z" fill="#834656" stroke="black"/>
<path d="M68.1761 72.7443C66.4876 70.5567 67.9024 49.5244 68.1191 40.0159C72.4387 35.2467 73.5651 39.9715 73.9773 42.2737C74.2687 51.2249 74.0478 69.8533 73.3351 72.1348C72.4443 74.9866 70.2867 75.4789 68.1761 72.7443Z" fill="#7E424D" stroke="black"/>
<path d="M18.7411 6.58475H6.58259C6.50505 6.58475 6.43068 6.55394 6.37585 6.49911C6.26167 6.38493 6.07655 6.38493 5.96237 6.49911L5.54889 6.91259C5.3844 7.07708 5.29199 7.30018 5.29199 7.53281V7.6833C5.29199 8.36837 5.84735 8.92373 6.53243 8.92373H17.3443C17.6816 8.92373 18.0099 9.03316 18.2798 9.23559L19.0335 9.80085L23.5423 12.5562C24.01 12.842 24.5934 12.8613 25.0789 12.607L30.0962 9.97887C30.3194 9.86193 30.5677 9.80085 30.8197 9.80085H79.7496C80.6108 9.80085 81.3089 9.10271 81.3089 8.24152V8.00884C81.3089 7.65477 81.1884 7.31123 80.9672 7.03474L80.6076 6.58522C80.3117 6.21533 79.8637 6 79.39 6H31.7164C31.6426 6 31.5689 6.00524 31.4958 6.01567L28.0269 6.51124C27.6929 6.55895 27.3834 6.71371 27.1448 6.95228L25.692 8.40504C25.5427 8.55436 25.3646 8.6718 25.1685 8.75022L23.4967 9.41898C22.9175 9.65064 22.256 9.51487 21.8149 9.07379L19.7394 6.99822C19.4746 6.73348 19.1156 6.58475 18.7411 6.58475Z" fill="#F8927C"/>
<path d="M25.1739 39.6229L9.38581 32.606L8.50869 32.8983L9.38581 33.7754L10.5553 34.9449L9.67818 36.1144L7.63157 37.5763L5.58496 38.161L5.87733 39.6229L9.97055 38.7458L12.6019 38.161L17.5722 37.2839L25.1739 39.6229Z" fill="#F8927C"/>
<path d="M25.1739 39.0381L9.38581 32.0211L7.63157 31.7288L8.80106 33.1906L9.97055 34.3601L9.67818 35.5296L7.63157 36.9915L5.58496 37.5762L5.87733 39.0381L9.97055 38.161L12.6019 37.5762L17.5722 36.6991L25.1739 39.0381Z" fill="#744056"/>
<g filter="url(#filter0_d_149_1121)">
<path d="M18.437 6H6.75386C5.94649 6 5.29199 6.6545 5.29199 7.46187V29.5488C5.29199 30.3494 5.73764 31.0834 6.44794 31.4528L8.25086 32.3903C9.91094 33.2536 9.74819 35.6797 7.98769 36.3135L6.71111 36.773C5.85966 37.0795 5.29199 37.8872 5.29199 38.7922V68.556C5.29199 69.1252 5.51809 69.671 5.92055 70.0735L9.63378 73.7867C10.0362 74.1892 10.5821 74.4153 11.1512 74.4153H75.4497C76.0188 74.4153 76.5647 74.1892 76.9671 73.7867L80.6804 70.0735C81.0828 69.671 81.3089 69.1252 81.3089 68.556V8.14602C81.3089 6.9608 80.3481 6 79.1629 6H28.4012C27.8321 6 27.2862 6.2261 26.8838 6.62855L24.9366 8.57576C24.0985 9.41383 22.7397 9.41383 21.9016 8.57576L19.9544 6.62855C19.552 6.2261 19.0061 6 18.437 6Z" stroke="black" stroke-width="1.16949" shape-rendering="crispEdges"/>
</g>
<path d="M18.68 6H6.75386C5.94649 6 5.29199 6.6545 5.29199 7.46187V29.905C5.29199 30.4867 5.6158 31.0201 6.13192 31.2885L9.44022 33.0088C10.6465 33.636 10.5282 35.3989 9.249 35.8594L6.32314 36.9127C5.70447 37.1354 5.29199 37.7223 5.29199 38.3798V68.799C5.29199 69.2126 5.45628 69.6092 5.74871 69.9016L9.80562 73.9585C10.098 74.251 10.4947 74.4153 10.9082 74.4153H75.6927C76.1063 74.4153 76.5029 74.251 76.7953 73.9585L80.8522 69.9016C81.1446 69.6092 81.3089 69.2126 81.3089 68.799V7.55932C81.3089 6.69813 80.6108 6 79.7496 6H28.1582C27.7447 6 27.348 6.16429 27.0556 6.45672L24.5217 8.99061C23.9128 9.59957 22.9255 9.59957 22.3165 8.99061L19.7826 6.45671C19.4902 6.16429 19.0936 6 18.68 6Z" stroke="black" stroke-width="1.16949"/>
<g filter="url(#filter1_d_149_1121)">
<path d="M18.68 6H6.75386C5.94649 6 5.29199 6.6545 5.29199 7.46187V29.905C5.29199 30.4867 5.6158 31.0201 6.13192 31.2885L9.44022 33.0088C10.6465 33.636 10.5282 35.3989 9.249 35.8594L6.32314 36.9127C5.70447 37.1354 5.29199 37.7223 5.29199 38.3798V68.799C5.29199 69.2126 5.45628 69.6092 5.74871 69.9016L9.80562 73.9585C10.098 74.251 10.4947 74.4153 10.9082 74.4153H75.6927C76.1063 74.4153 76.5029 74.251 76.7953 73.9585L80.8522 69.9016C81.1446 69.6092 81.3089 69.2126 81.3089 68.799V7.55932C81.3089 6.69813 80.6108 6 79.7496 6H28.1582C27.7447 6 27.348 6.16429 27.0556 6.45672L24.5217 8.99061C23.9128 9.59957 22.9255 9.59957 22.3165 8.99061L19.7826 6.45671C19.4902 6.16429 19.0936 6 18.68 6Z" fill="#D9D9D9" fill-opacity="0.01" shape-rendering="crispEdges"/>
<path d="M18.68 6H6.75386C5.94649 6 5.29199 6.6545 5.29199 7.46187V29.905C5.29199 30.4867 5.6158 31.0201 6.13192 31.2885L9.44022 33.0088C10.6465 33.636 10.5282 35.3989 9.249 35.8594L6.32314 36.9127C5.70447 37.1354 5.29199 37.7223 5.29199 38.3798V68.799C5.29199 69.2126 5.45628 69.6092 5.74871 69.9016L9.80562 73.9585C10.098 74.251 10.4947 74.4153 10.9082 74.4153H75.6927C76.1063 74.4153 76.5029 74.251 76.7953 73.9585L80.8522 69.9016C81.1446 69.6092 81.3089 69.2126 81.3089 68.799V7.55932C81.3089 6.69813 80.6108 6 79.7496 6H28.1582C27.7447 6 27.348 6.16429 27.0556 6.45672L24.5217 8.99061C23.9128 9.59957 22.9255 9.59957 22.3165 8.99061L19.7826 6.45671C19.4902 6.16429 19.0936 6 18.68 6Z" stroke="black" stroke-width="1.16949" shape-rendering="crispEdges"/>
</g>
<defs>
<filter id="filter0_d_149_1121" x="0.0290651" y="0.737317" width="86.5425" height="78.9406" filterUnits="userSpaceOnUse" color-interpolation-filters="sRGB">
<feFlood flood-opacity="0" result="BackgroundImageFix"/>
<feColorMatrix in="SourceAlpha" type="matrix" values="0 0 0 0 0 0 0 0 0 0 0 0 0 0 0 0 0 0 127 0" result="hardAlpha"/>
<feOffset/>
<feGaussianBlur stdDeviation="2.33898"/>
<feComposite in2="hardAlpha" operator="out"/>
<feColorMatrix type="matrix" values="0 0 0 0 0 0 0 0 0 0 0 0 0 0 0 0 0 0 1 0"/>
<feBlend mode="normal" in2="BackgroundImageFix" result="effect1_dropShadow_149_1121"/>
<feBlend mode="normal" in="SourceGraphic" in2="effect1_dropShadow_149_1121" result="shape"/>
</filter>
<filter id="filter1_d_149_1121" x="0.0290651" y="0.737317" width="86.5425" height="78.9406" filterUnits="userSpaceOnUse" color-interpolation-filters="sRGB">
<feFlood flood-opacity="0" result="BackgroundImageFix"/>
<feColorMatrix in="SourceAlpha" type="matrix" values="0 0 0 0 0 0 0 0 0 0 0 0 0 0 0 0 0 0 127 0" result="hardAlpha"/>
<feOffset/>
<feGaussianBlur stdDeviation="2.33898"/>
<feComposite in2="hardAlpha" operator="out"/>
<feColorMatrix type="matrix" values="0 0 0 0 0 0 0 0 0 0 0 0 0 0 0 0 0 0 1 0"/>
<feBlend mode="normal" in2="BackgroundImageFix" result="effect1_dropShadow_149_1121"/>
<feBlend mode="normal" in="SourceGraphic" in2="effect1_dropShadow_149_1121" result="shape"/>
</filter>
</defs>
</svg>
