<svg width="80" height="80" viewBox="0 0 80 80" fill="none" xmlns="http://www.w3.org/2000/svg">
<g clip-path="url(#clip0_146_1044)">
<path d="M15.68 2H3.75386C2.94649 2 2.29199 2.6545 2.29199 3.46187V25.905C2.29199 26.4867 2.6158 27.0201 3.13192 27.2885L6.44022 29.0088C7.64646 29.636 7.5282 31.3989 6.249 31.8594L3.32314 32.9127C2.70447 33.1354 2.29199 33.7223 2.29199 34.3798V64.799C2.29199 65.2126 2.45628 65.6092 2.74871 65.9016L6.80562 69.9585C7.09805 70.251 7.49466 70.4153 7.90822 70.4153H72.6927C73.1063 70.4153 73.5029 70.251 73.7953 69.9585L77.8522 65.9016C78.1446 65.6092 78.3089 65.2126 78.3089 64.799V3.55932C78.3089 2.69813 77.6108 2 76.7496 2H25.1582C24.7447 2 24.348 2.16429 24.0556 2.45672L21.5217 4.99061C20.9128 5.59957 19.9255 5.59957 19.3165 4.99061L16.7826 2.45671C16.4902 2.16429 16.0936 2 15.68 2Z" fill="#924A56" stroke="black" stroke-width="1.16949"/>
<path d="M19.0007 65.7373L3.16949 62.8136L2 64.2755L6.09322 69.2458L16.554 70.1229L19.7203 71H24.4697L35.9832 67.4916L36.9907 65.4449L39.0056 68.661L75.9703 68.3687L78.3093 63.9831L77.4322 60.767L69.8044 63.9831L45.9137 62.8136L41.74 58.1356L33.5366 62.8136L19.0007 65.7373Z" fill="#62323E" fill-opacity="0.5"/>
<path d="M19.0006 67.4915L3.16943 64.5677L6.38554 69.8304L17.2532 70.1228L20.4194 70.9999H25.1688L35.9152 70.1228L36.9906 67.1991L39.0055 70.4152L73.6313 70.1228L78.0169 65.7372L77.4321 62.5211L69.8044 65.7372L45.9137 64.5677L41.74 59.8898L33.5366 64.5677L19.0006 67.4915Z" fill="#683F4F"/>
<path d="M76.3618 51.3918C74.689 53.1853 58.2626 52.8098 50.8446 53.0622C47.0419 48.9849 50.7039 47.6275 52.4909 47.1025C59.4644 46.3703 73.9934 45.6724 75.7861 46.2714C78.027 47.0202 78.4528 49.1499 76.3618 51.3918Z" fill="#9D5C64" stroke="black" stroke-width="0.440603"/>
<path d="M15.7411 3.16946H3.58259C3.50505 3.16946 3.43068 3.13866 3.37585 3.08383C3.26167 2.96965 3.07655 2.96965 2.96237 3.08383L2.54889 3.49731C2.3844 3.6618 2.29199 3.8849 2.29199 4.11752V4.26801C2.29199 4.95308 2.84735 5.50845 3.53243 5.50845H14.3443C14.6816 5.50845 15.0099 5.61788 15.2798 5.82031L16.0335 6.38556L20.5423 9.14092C21.01 9.42674 21.5934 9.44601 22.0789 9.19168L27.0962 6.56359C27.3194 6.44665 27.5677 6.38556 27.8197 6.38556H76.7496C77.6108 6.38556 78.3089 5.68743 78.3089 4.82624V4.59356C78.3089 4.23948 78.1884 3.89595 77.9672 3.61946L77.6076 3.16994C77.3117 2.80004 76.8637 2.58472 76.39 2.58472H28.7164C28.6426 2.58472 28.5689 2.58995 28.4958 2.60039L25.0269 3.09596C24.6929 3.14367 24.3834 3.29843 24.1448 3.537L22.692 4.98975C22.5427 5.13908 22.3646 5.25651 22.1685 5.33494L20.4967 6.0037C19.9175 6.23536 19.256 6.09958 18.8149 5.65851L16.7394 3.58294C16.4746 3.31819 16.1156 3.16946 15.7411 3.16946Z" fill="#A65041"/>
<path d="M15.7411 3.16946H3.58259C3.50505 3.16946 3.43068 3.13866 3.37585 3.08383C3.26167 2.96965 3.07655 2.96965 2.96237 3.08383L2.54889 3.49731C2.3844 3.6618 2.29199 3.8849 2.29199 4.11752V4.26801C2.29199 4.95308 2.84735 5.50845 3.53243 5.50845H14.3443C14.6816 5.50845 15.0099 5.61788 15.2798 5.82031L16.0335 6.38556L20.5423 9.14092C21.01 9.42674 21.5934 9.44601 22.0789 9.19168L27.0962 6.56359C27.3194 6.44665 27.5677 6.38556 27.8197 6.38556H76.7496C77.6108 6.38556 78.3089 5.68743 78.3089 4.82624V4.59356C78.3089 4.23948 78.1884 3.89595 77.9672 3.61946L77.6076 3.16994C77.3117 2.80004 76.8637 2.58472 76.39 2.58472H28.7164C28.6426 2.58472 28.5689 2.58995 28.4958 2.60039L25.0269 3.09596C24.6929 3.14367 24.3834 3.29843 24.1448 3.537L22.692 4.98975C22.5427 5.13908 22.3646 5.25651 22.1685 5.33494L20.4967 6.0037C19.9175 6.23536 19.256 6.09958 18.8149 5.65851L16.7394 3.58294C16.4746 3.31819 16.1156 3.16946 15.7411 3.16946Z" fill="#B24C47"/>
<g filter="url(#filter0_d_146_1044)">
<path d="M44.8243 12.2582L35.9648 13.9985C32.7345 14.633 30.6644 17.8081 31.3871 21.0199L32.6992 26.8517L34.7458 42.0551V68.0952C34.7458 68.6643 34.7853 69.2849 35.2149 69.6582C36.8897 71.1135 42.074 70.4667 44.3941 70.1229C46.7041 69.9304 50.5587 71.0449 52.6658 69.9787C53.5525 69.53 53.7501 68.432 53.7501 67.4382V23.424C53.7501 21.7039 54.5074 20.0711 55.8204 18.9601L56.0458 18.7693C57.0176 17.9471 57.6658 16.8066 57.875 15.5511C58.3478 12.7145 56.5033 10.0086 53.6902 9.41184L51.7508 9.00046C50.1172 8.65395 48.4311 9.28696 47.4291 10.6229C46.7929 11.4712 45.8649 12.0538 44.8243 12.2582Z" fill="#AC5963"/>
<path d="M44.8243 12.2582L35.9648 13.9985C32.7345 14.633 30.6644 17.8081 31.3871 21.0199L32.6992 26.8517L34.7458 42.0551V68.0952C34.7458 68.6643 34.7853 69.2849 35.2149 69.6582C36.8897 71.1135 42.074 70.4667 44.3941 70.1229C46.7041 69.9304 50.5587 71.0449 52.6658 69.9787C53.5525 69.53 53.7501 68.432 53.7501 67.4382V23.424C53.7501 21.7039 54.5074 20.0711 55.8204 18.9601L56.0458 18.7693C57.0176 17.9471 57.6658 16.8066 57.875 15.5511C58.3478 12.7145 56.5033 10.0086 53.6902 9.41184L51.7508 9.00046C50.1172 8.65395 48.4311 9.28696 47.4291 10.6229C46.7929 11.4712 45.8649 12.0538 44.8243 12.2582Z" stroke="black" stroke-width="0.584746"/>
</g>
<path d="M44.3939 19.5425L78.0168 18.6653L77.7244 35.9153L65.8488 34.9047C64.6352 34.8014 63.4197 35.0796 62.3719 35.7005L57.4674 38.6069C56.565 39.1416 55.5353 39.4238 54.4863 39.4238H41.3727C40.1075 39.4238 38.8764 39.8342 37.8642 40.5933L34.8335 42.8664C33.3118 44.0076 31.3303 44.3374 29.521 43.7507L27.1965 42.9967C24.1068 41.9947 22.4259 38.6668 23.453 35.5854L24.7123 31.8076C25.1497 30.4955 25.1078 29.0709 24.5942 27.7867L21.8004 20.8023C20.8345 18.3875 21.7542 15.6282 23.9758 14.276C25.7322 13.2069 27.9471 13.2445 29.6661 14.3726L35.0266 17.8904C35.8027 18.3997 36.6889 18.7169 37.6119 18.8158L44.3939 19.5425Z" fill="#AC5963" stroke="black" stroke-width="0.584746"/>
<path d="M50.8266 44.4144C47.552 43.7127 35.4283 23.8305 29.4834 15.1568C31.1207 7.67205 35.4283 11.0636 37.3775 12.8178C43.5173 20.6144 55.3876 37.4559 56.0893 40.0288C56.9664 43.2449 54.9198 45.2915 50.8266 44.4144Z" fill="#834656" stroke="black" stroke-width="0.584746"/>
<path d="M65.1761 68.7445C63.4876 66.5569 64.9024 45.5245 65.1191 36.0161C69.4387 31.2468 70.5651 35.9716 70.9773 38.2738C71.2687 47.225 71.0478 65.8535 70.3351 68.1349C69.4443 70.9867 67.2867 71.479 65.1761 68.7445Z" fill="#7E424D" stroke="black" stroke-width="0.440603"/>
<path d="M15.7411 2.58475H3.58259C3.50505 2.58475 3.43068 2.55394 3.37585 2.49911C3.26167 2.38493 3.07655 2.38493 2.96237 2.49911L2.54889 2.91259C2.3844 3.07708 2.29199 3.30018 2.29199 3.53281V3.6833C2.29199 4.36837 2.84735 4.92373 3.53243 4.92373H14.3443C14.6816 4.92373 15.0099 5.03316 15.2798 5.23559L16.0335 5.80085L20.5423 8.55621C21.01 8.84202 21.5934 8.86129 22.0789 8.60696L27.0962 5.97887C27.3194 5.86193 27.5677 5.80085 27.8197 5.80085H76.7496C77.6108 5.80085 78.3089 5.10271 78.3089 4.24152V4.00884C78.3089 3.65477 78.1884 3.31123 77.9672 3.03474L77.6076 2.58522C77.3117 2.21533 76.8637 2 76.39 2H28.7164C28.6426 2 28.5689 2.00524 28.4958 2.01567L25.0269 2.51124C24.6929 2.55895 24.3834 2.71371 24.1448 2.95228L22.692 4.40504C22.5427 4.55436 22.3646 4.6718 22.1685 4.75022L20.4967 5.41898C19.9175 5.65064 19.256 5.51487 18.8149 5.07379L16.7394 2.99822C16.4746 2.73348 16.1156 2.58475 15.7411 2.58475Z" fill="#F8927C"/>
<path d="M22.1739 35.6228L6.38581 28.6058L5.50869 28.8982L6.38581 29.7753L7.5553 30.9448L6.67818 32.1143L4.63157 33.5762L2.58496 34.1609L2.87733 35.6228L6.97055 34.7457L9.60191 34.1609L14.5722 33.2838L22.1739 35.6228Z" fill="#F8927C"/>
<path d="M22.1739 35.0381L6.38581 28.0211L4.63157 27.7288L5.80106 29.1906L6.97055 30.3601L6.67818 31.5296L4.63157 32.9915L2.58496 33.5762L2.87733 35.0381L6.97055 34.161L9.60191 33.5762L14.5722 32.6991L22.1739 35.0381Z" fill="#744056"/>
<g filter="url(#filter1_d_146_1044)">
<path d="M15.437 2H3.75386C2.94649 2 2.29199 2.6545 2.29199 3.46187V25.5488C2.29199 26.3494 2.73764 27.0834 3.44794 27.4528L5.25086 28.3903C6.91094 29.2536 6.74819 31.6797 4.98769 32.3135L3.71111 32.773C2.85966 33.0795 2.29199 33.8872 2.29199 34.7922V64.556C2.29199 65.1252 2.51809 65.671 2.92055 66.0735L6.63378 69.7867C7.03623 70.1892 7.58208 70.4153 8.15124 70.4153H72.4497C73.0188 70.4153 73.5647 70.1892 73.9671 69.7867L77.6804 66.0735C78.0828 65.671 78.3089 65.1252 78.3089 64.556V4.14602C78.3089 2.9608 77.3481 2 76.1629 2H25.4012C24.8321 2 24.2862 2.2261 23.8838 2.62855L21.9366 4.57576C21.0985 5.41383 19.7397 5.41383 18.9016 4.57576L16.9544 2.62855C16.552 2.2261 16.0061 2 15.437 2Z" stroke="black" stroke-width="1.16949" shape-rendering="crispEdges"/>
</g>
<path d="M15.68 2H3.75386C2.94649 2 2.29199 2.6545 2.29199 3.46187V25.905C2.29199 26.4867 2.6158 27.0201 3.13192 27.2885L6.44022 29.0088C7.64646 29.636 7.5282 31.3989 6.249 31.8594L3.32314 32.9127C2.70447 33.1354 2.29199 33.7223 2.29199 34.3798V64.799C2.29199 65.2126 2.45628 65.6092 2.74871 65.9016L6.80562 69.9585C7.09805 70.251 7.49466 70.4153 7.90822 70.4153H72.6927C73.1063 70.4153 73.5029 70.251 73.7953 69.9585L77.8522 65.9016C78.1446 65.6092 78.3089 65.2126 78.3089 64.799V3.55932C78.3089 2.69813 77.6108 2 76.7496 2H25.1582C24.7447 2 24.348 2.16429 24.0556 2.45672L21.5217 4.99061C20.9128 5.59957 19.9255 5.59957 19.3165 4.99061L16.7826 2.45671C16.4902 2.16429 16.0936 2 15.68 2Z" stroke="black" stroke-width="1.16949"/>
<g filter="url(#filter2_d_146_1044)">
<path d="M15.68 2H3.75386C2.94649 2 2.29199 2.6545 2.29199 3.46187V25.905C2.29199 26.4867 2.6158 27.0201 3.13192 27.2885L6.44022 29.0088C7.64646 29.636 7.5282 31.3989 6.249 31.8594L3.32314 32.9127C2.70447 33.1354 2.29199 33.7223 2.29199 34.3798V64.799C2.29199 65.2126 2.45628 65.6092 2.74871 65.9016L6.80562 69.9585C7.09805 70.251 7.49466 70.4153 7.90822 70.4153H72.6927C73.1063 70.4153 73.5029 70.251 73.7953 69.9585L77.8522 65.9016C78.1446 65.6092 78.3089 65.2126 78.3089 64.799V3.55932C78.3089 2.69813 77.6108 2 76.7496 2H25.1582C24.7447 2 24.348 2.16429 24.0556 2.45672L21.5217 4.99061C20.9128 5.59957 19.9255 5.59957 19.3165 4.99061L16.7826 2.45671C16.4902 2.16429 16.0936 2 15.68 2Z" fill="#D9D9D9" fill-opacity="0.01" shape-rendering="crispEdges"/>
<path d="M15.68 2H3.75386C2.94649 2 2.29199 2.6545 2.29199 3.46187V25.905C2.29199 26.4867 2.6158 27.0201 3.13192 27.2885L6.44022 29.0088C7.64646 29.636 7.5282 31.3989 6.249 31.8594L3.32314 32.9127C2.70447 33.1354 2.29199 33.7223 2.29199 34.3798V64.799C2.29199 65.2126 2.45628 65.6092 2.74871 65.9016L6.80562 69.9585C7.09805 70.251 7.49466 70.4153 7.90822 70.4153H72.6927C73.1063 70.4153 73.5029 70.251 73.7953 69.9585L77.8522 65.9016C78.1446 65.6092 78.3089 65.2126 78.3089 64.799V3.55932C78.3089 2.69813 77.6108 2 76.7496 2H25.1582C24.7447 2 24.348 2.16429 24.0556 2.45672L21.5217 4.99061C20.9128 5.59957 19.9255 5.59957 19.3165 4.99061L16.7826 2.45671C16.4902 2.16429 16.0936 2 15.68 2Z" stroke="black" stroke-width="1.16949" shape-rendering="crispEdges"/>
</g>
</g>
<defs>
<filter id="filter0_d_146_1044" x="26.2727" y="3.93654" width="36.6465" height="71.6007" filterUnits="userSpaceOnUse" color-interpolation-filters="sRGB">
<feFlood flood-opacity="0" result="BackgroundImageFix"/>
<feColorMatrix in="SourceAlpha" type="matrix" values="0 0 0 0 0 0 0 0 0 0 0 0 0 0 0 0 0 0 127 0" result="hardAlpha"/>
<feOffset/>
<feGaussianBlur stdDeviation="2.33898"/>
<feComposite in2="hardAlpha" operator="out"/>
<feColorMatrix type="matrix" values="0 0 0 0 0 0 0 0 0 0 0 0 0 0 0 0 0 0 1 0"/>
<feBlend mode="normal" in2="BackgroundImageFix" result="effect1_dropShadow_146_1044"/>
<feBlend mode="normal" in="SourceGraphic" in2="effect1_dropShadow_146_1044" result="shape"/>
</filter>
<filter id="filter1_d_146_1044" x="-2.97093" y="-3.26268" width="86.5425" height="78.9406" filterUnits="userSpaceOnUse" color-interpolation-filters="sRGB">
<feFlood flood-opacity="0" result="BackgroundImageFix"/>
<feColorMatrix in="SourceAlpha" type="matrix" values="0 0 0 0 0 0 0 0 0 0 0 0 0 0 0 0 0 0 127 0" result="hardAlpha"/>
<feOffset/>
<feGaussianBlur stdDeviation="2.33898"/>
<feComposite in2="hardAlpha" operator="out"/>
<feColorMatrix type="matrix" values="0 0 0 0 0 0 0 0 0 0 0 0 0 0 0 0 0 0 1 0"/>
<feBlend mode="normal" in2="BackgroundImageFix" result="effect1_dropShadow_146_1044"/>
<feBlend mode="normal" in="SourceGraphic" in2="effect1_dropShadow_146_1044" result="shape"/>
</filter>
<filter id="filter2_d_146_1044" x="-2.97093" y="-3.26268" width="86.5425" height="78.9406" filterUnits="userSpaceOnUse" color-interpolation-filters="sRGB">
<feFlood flood-opacity="0" result="BackgroundImageFix"/>
<feColorMatrix in="SourceAlpha" type="matrix" values="0 0 0 0 0 0 0 0 0 0 0 0 0 0 0 0 0 0 127 0" result="hardAlpha"/>
<feOffset/>
<feGaussianBlur stdDeviation="2.33898"/>
<feComposite in2="hardAlpha" operator="out"/>
<feColorMatrix type="matrix" values="0 0 0 0 0 0 0 0 0 0 0 0 0 0 0 0 0 0 1 0"/>
<feBlend mode="normal" in2="BackgroundImageFix" result="effect1_dropShadow_146_1044"/>
<feBlend mode="normal" in="SourceGraphic" in2="effect1_dropShadow_146_1044" result="shape"/>
</filter>
<clipPath id="clip0_146_1044">
<rect width="80" height="80" fill="white"/>
</clipPath>
</defs>
</svg>
