<svg width="140" height="127" viewBox="0 0 140 127" fill="none" xmlns="http://www.w3.org/2000/svg">
<g filter="url(#filter0_d_149_1045)">
<path d="M124.5 9H16H15C11.6863 9 9 11.6863 9 15V44.2574C9 45.053 9.31607 45.8161 9.87868 46.3787C11.0503 47.5503 11.0503 49.4497 9.87868 50.6213C9.31607 51.1839 9 51.947 9 52.7426V110.489C9 113.605 11.3859 116.203 14.4912 116.467L31.8401 117.944C32.2787 117.981 32.7201 117.97 33.1563 117.911L67.8074 113.205C70.7818 112.801 73 110.261 73 107.26V68C73 64.6863 75.6863 62 79 62H124.5C127.814 62 130.5 59.3137 130.5 56V15C130.5 11.6863 127.814 9 124.5 9Z" fill="#7D3E47"/>
<path d="M124.5 9H16H15C11.6863 9 9 11.6863 9 15V44.2574C9 45.053 9.31607 45.8161 9.87868 46.3787C11.0503 47.5503 11.0503 49.4497 9.87868 50.6213C9.31607 51.1839 9 51.947 9 52.7426V110.489C9 113.605 11.3859 116.203 14.4912 116.467L31.8401 117.944C32.2787 117.981 32.7201 117.97 33.1563 117.911L67.8074 113.205C70.7818 112.801 73 110.261 73 107.26V68C73 64.6863 75.6863 62 79 62H124.5C127.814 62 130.5 59.3137 130.5 56V15C130.5 11.6863 127.814 9 124.5 9Z" stroke="black" stroke-width="2"/>
</g>
<path d="M40.1039 103.088L12.265 109.98C10.2146 110.487 9.31693 112.899 10.5362 114.624L11.0074 115.29C11.5031 115.991 12.2755 116.447 13.1291 116.541L26.0531 117.963C26.2793 117.987 26.5075 117.987 26.7335 117.96L62.3387 113.75C62.5386 113.726 62.7357 113.682 62.9268 113.619L71.3964 110.824C72.8706 110.337 73.7301 108.806 73.3777 107.294L72.9175 105.319C72.601 103.961 71.3903 103 69.9958 103H40.8248C40.5819 103 40.3398 103.03 40.1039 103.088Z" fill="#62323E"/>
<path d="M14.5 14C12.7853 14.8573 12.1595 16.7867 12.0028 18.3656C11.8969 19.4324 12.2667 20.6547 13.2964 20.953C13.8344 21.1088 14.3668 21.0315 14.8016 20.8724C15.2856 20.6952 15.5766 20.2317 15.7182 19.7361C16.1245 18.3143 17.8083 17.569 19.277 17.3969C19.7846 17.3374 20.3577 17.2141 21 17C23.0588 16.3137 22.3213 15.0878 21.4387 14.3323C21.1603 14.094 20.8323 13.9217 20.4841 13.8072C19.1083 13.3547 16.6 12.95 14.5 14Z" fill="#B34840"/>
<path d="M71.507 13H28.507C21.307 15.8 26.8404 18.5 30.507 19.5H73.507C79.107 17.9 74.507 14.5 71.507 13Z" fill="#B34840"/>
<path d="M13 67.6253L13 110.503C14.2923 117.682 15.5385 112.165 16 108.509L16 65.631C15.2615 60.047 13.6923 64.6339 13 67.6253Z" fill="#B34840"/>
<path d="M124.461 13H100.92C96.9783 15.5846 100.008 18.0769 102.015 19H125.556C128.621 17.5231 126.103 14.3846 124.461 13Z" fill="#B34840"/>
<path d="M71.507 12H28.507C21.307 14.8 26.8404 17.5 30.507 18.5H73.507C79.107 16.9 74.507 13.5 71.507 12Z" fill="#FF8676"/>
<path d="M12 67.6253L12 110.503C13.2923 117.682 14.5385 112.165 15 108.509L15 65.631C14.2615 60.047 12.6923 64.6339 12 67.6253Z" fill="#FF8676"/>
<path d="M124.461 12H100.92C96.9783 14.5846 100.008 17.0769 102.015 18H125.556C128.621 16.5231 126.103 13.3846 124.461 12Z" fill="#FF8676"/>
<path d="M14.5 13C12.7625 13.8687 12.1431 15.838 11.9968 17.4282C11.9023 18.4548 12.255 19.6185 13.2363 19.9346C13.7876 20.1121 14.3365 20.0394 14.7843 19.8787C15.2742 19.7028 15.5414 19.2105 15.615 18.6953C15.8044 17.3693 17.3245 16.489 18.6629 16.4354C19.3599 16.4075 20.1507 16.2831 21 16C23.0588 15.3137 22.3213 14.0878 21.4387 13.3323C21.1603 13.094 20.8323 12.9217 20.4841 12.8072C19.1083 12.3547 16.6 11.95 14.5 13Z" fill="#FF8676"/>
<path d="M49.1834 53.0823C39.9423 49.4997 21.4707 47.0641 11.2507 46.1127C10.6097 46.053 10.0871 46.6094 10.1781 47.2468L10.7918 51.5429C10.8917 52.2419 11.6775 52.6422 12.3428 52.4057C15.6537 51.2283 21.475 50.6577 24.399 50.5052C24.4678 50.5016 24.5343 50.5054 24.6024 50.5162L48.7629 54.331C49.8082 54.496 50.1701 53.4648 49.1834 53.0823Z" fill="#FF8676"/>
<path d="M82.6155 32.1122C77.9934 38.7081 75.5042 53.3063 72.4338 63.2048C72.1505 64.118 73.1814 64.9247 73.9868 64.4095L79.486 60.8925C79.8517 60.6586 80.0219 60.2154 79.9268 59.7918C79.3007 57.0032 79.4519 54.7055 80.0997 51.6936L83.9348 32.7868C84.1226 31.8612 83.1575 31.3388 82.6155 32.1122Z" fill="#62323E"/>
<path d="M109.685 32.8796C112.336 42.5479 116.858 55.3464 122.041 61.9346C122.311 62.278 122.775 62.3856 123.178 62.2175L128.157 60.1431C128.378 60.0508 128.559 59.8819 128.666 59.6672L128.954 59.091C129.237 58.5266 128.933 57.8438 128.336 57.6391C125.348 56.6144 121.395 54.5848 119.174 52.6539C119.058 52.5533 118.971 52.4259 118.914 52.2834L111.052 32.4583C110.609 31.3408 109.367 31.7203 109.685 32.8796Z" fill="#62323E"/>
<path d="M113.809 30.0001L75.3089 9.00003C78.7941 11.5329 85.0651 19.0949 94.3089 25C102.785 30.4145 111.967 31.4098 117.538 31.9727C117.717 31.9908 117.895 31.9599 118.058 31.8837L123.371 29.4045C124.14 29.0457 124.14 27.9527 123.372 27.5928L122.331 27.105C122.04 26.9691 121.702 26.9803 121.423 27.138C118.839 28.5992 116.966 29.8858 113.809 30.0001Z" fill="#62323E" fill-opacity="0.5"/>
<path d="M49.1834 52.0823C39.9423 48.4997 21.4707 46.0641 11.2507 45.1127C10.6097 45.053 10.0871 45.6094 10.1781 46.2468L10.7918 50.5429C10.8917 51.2419 11.6775 51.6422 12.3428 51.4057C15.6537 50.2283 21.475 49.6577 24.399 49.5052C24.4678 49.5016 24.5343 49.5054 24.6024 49.5162L48.7629 53.331C49.8082 53.496 50.1701 52.4648 49.1834 52.0823Z" fill="#62323E"/>
<g filter="url(#filter1_d_149_1045)">
<path d="M124.5 9H16H15C11.6863 9 9 11.6863 9 15V44.2574C9 45.053 9.31607 45.8161 9.87868 46.3787C11.0503 47.5503 11.0503 49.4497 9.87868 50.6213C9.31607 51.1839 9 51.947 9 52.7426V110.489C9 113.605 11.3859 116.203 14.4912 116.467L31.8401 117.944C32.2787 117.981 32.7201 117.97 33.1563 117.911L67.8074 113.205C70.7818 112.801 73 110.261 73 107.26V68C73 64.6863 75.6863 62 79 62H124.5C127.814 62 130.5 59.3137 130.5 56V15C130.5 11.6863 127.814 9 124.5 9Z" stroke="black" stroke-width="2" shape-rendering="crispEdges"/>
</g>
<defs>
<filter id="filter0_d_149_1045" x="0" y="0" width="139.5" height="126.965" filterUnits="userSpaceOnUse" color-interpolation-filters="sRGB">
<feFlood flood-opacity="0" result="BackgroundImageFix"/>
<feColorMatrix in="SourceAlpha" type="matrix" values="0 0 0 0 0 0 0 0 0 0 0 0 0 0 0 0 0 0 127 0" result="hardAlpha"/>
<feOffset/>
<feGaussianBlur stdDeviation="4"/>
<feComposite in2="hardAlpha" operator="out"/>
<feColorMatrix type="matrix" values="0 0 0 0 0 0 0 0 0 0 0 0 0 0 0 0 0 0 1 0"/>
<feBlend mode="normal" in2="BackgroundImageFix" result="effect1_dropShadow_149_1045"/>
<feBlend mode="normal" in="SourceGraphic" in2="effect1_dropShadow_149_1045" result="shape"/>
</filter>
<filter id="filter1_d_149_1045" x="0" y="0" width="139.5" height="126.965" filterUnits="userSpaceOnUse" color-interpolation-filters="sRGB">
<feFlood flood-opacity="0" result="BackgroundImageFix"/>
<feColorMatrix in="SourceAlpha" type="matrix" values="0 0 0 0 0 0 0 0 0 0 0 0 0 0 0 0 0 0 127 0" result="hardAlpha"/>
<feOffset/>
<feGaussianBlur stdDeviation="4"/>
<feComposite in2="hardAlpha" operator="out"/>
<feColorMatrix type="matrix" values="0 0 0 0 0 0 0 0 0 0 0 0 0 0 0 0 0 0 1 0"/>
<feBlend mode="normal" in2="BackgroundImageFix" result="effect1_dropShadow_149_1045"/>
<feBlend mode="normal" in="SourceGraphic" in2="effect1_dropShadow_149_1045" result="shape"/>
</filter>
</defs>
</svg>
