<svg width="793" height="408" viewBox="0 0 793 408" fill="none" xmlns="http://www.w3.org/2000/svg">
<mask id="path-1-outside-1_129_2435" maskUnits="userSpaceOnUse" x="1.0918" y="46" width="775" height="153" fill="black">
<rect fill="white" x="1.0918" y="46" width="775" height="153"/>
<path d="M143.545 150.447V169.223H124.769V188H49.6621V169.223H30.8855V150.447H12.1088V94.1168H30.8855V75.3402H49.6621V56.5636H124.769V75.3402H143.545V94.1168H105.992V75.3402H68.4387V94.1168H49.6621V150.447H68.4387V169.223H105.992V150.447H143.545ZM299.039 56.5636V188H261.486V131.67H205.156V188H167.603V56.5636H205.156V112.893H261.486V56.5636H299.039ZM445.145 56.5636V75.3402H407.592V169.223H445.145V188H332.485V169.223H370.038V75.3402H332.485V56.5636H445.145ZM610.027 169.223V188H478.591V56.5636H516.144V169.223H610.027ZM765.521 169.223V188H634.085V56.5636H671.638V169.223H765.521Z"/>
</mask>
<path d="M143.545 150.447V169.223H124.769V188H49.6621V169.223H30.8855V150.447H12.1088V94.1168H30.8855V75.3402H49.6621V56.5636H124.769V75.3402H143.545V94.1168H105.992V75.3402H68.4387V94.1168H49.6621V150.447H68.4387V169.223H105.992V150.447H143.545ZM299.039 56.5636V188H261.486V131.67H205.156V188H167.603V56.5636H205.156V112.893H261.486V56.5636H299.039ZM445.145 56.5636V75.3402H407.592V169.223H445.145V188H332.485V169.223H370.038V75.3402H332.485V56.5636H445.145ZM610.027 169.223V188H478.591V56.5636H516.144V169.223H610.027ZM765.521 169.223V188H634.085V56.5636H671.638V169.223H765.521Z" fill="#5A5D40"/>
<path d="M143.545 150.447H153.623V140.369H143.545V150.447ZM143.545 169.223V179.301H153.623V169.223H143.545ZM124.769 169.223V159.146H114.691V169.223H124.769ZM124.769 188V198.078H134.846V188H124.769ZM49.6621 188H39.5844V198.078H49.6621V188ZM49.6621 169.223H59.7398V159.146H49.6621V169.223ZM30.8855 169.223H20.8077V179.301H30.8855V169.223ZM30.8855 150.447H40.9632V140.369H30.8855V150.447ZM12.1088 150.447H2.0311V160.524H12.1088V150.447ZM12.1088 94.1168V84.0391H2.0311V94.1168H12.1088ZM30.8855 94.1168V104.195H40.9632V94.1168H30.8855ZM30.8855 75.3402V65.2625H20.8077V75.3402H30.8855ZM49.6621 75.3402V85.4179H59.7398V75.3402H49.6621ZM49.6621 56.5636V46.4858H39.5844V56.5636H49.6621ZM124.769 56.5636H134.846V46.4858H124.769V56.5636ZM124.769 75.3402H114.691V85.4179H124.769V75.3402ZM143.545 75.3402H153.623V65.2625H143.545V75.3402ZM143.545 94.1168V104.195H153.623V94.1168H143.545ZM105.992 94.1168H95.9143V104.195H105.992V94.1168ZM105.992 75.3402H116.07V65.2625H105.992V75.3402ZM68.4387 75.3402V65.2625H58.361V75.3402H68.4387ZM68.4387 94.1168V104.195H78.5165V94.1168H68.4387ZM49.6621 94.1168V84.0391H39.5844V94.1168H49.6621ZM49.6621 150.447H39.5844V160.524H49.6621V150.447ZM68.4387 150.447H78.5165V140.369H68.4387V150.447ZM68.4387 169.223H58.361V179.301H68.4387V169.223ZM105.992 169.223V179.301H116.07V169.223H105.992ZM105.992 150.447V140.369H95.9143V150.447H105.992ZM133.468 150.447V169.223H153.623V150.447H133.468ZM143.545 159.146H124.769V179.301H143.545V159.146ZM114.691 169.223V188H134.846V169.223H114.691ZM124.769 177.922H49.6621V198.078H124.769V177.922ZM59.7398 188V169.223H39.5844V188H59.7398ZM49.6621 159.146H30.8855V179.301H49.6621V159.146ZM40.9632 169.223V150.447H20.8077V169.223H40.9632ZM30.8855 140.369H12.1088V160.524H30.8855V140.369ZM22.1866 150.447V94.1168H2.0311V150.447H22.1866ZM12.1088 104.195H30.8855V84.0391H12.1088V104.195ZM40.9632 94.1168V75.3402H20.8077V94.1168H40.9632ZM30.8855 85.4179H49.6621V65.2625H30.8855V85.4179ZM59.7398 75.3402V56.5636H39.5844V75.3402H59.7398ZM49.6621 66.6413H124.769V46.4858H49.6621V66.6413ZM114.691 56.5636V75.3402H134.846V56.5636H114.691ZM124.769 85.4179H143.545V65.2625H124.769V85.4179ZM133.468 75.3402V94.1168H153.623V75.3402H133.468ZM143.545 84.0391H105.992V104.195H143.545V84.0391ZM116.07 94.1168V75.3402H95.9143V94.1168H116.07ZM105.992 65.2625H68.4387V85.4179H105.992V65.2625ZM58.361 75.3402V94.1168H78.5165V75.3402H58.361ZM68.4387 84.0391H49.6621V104.195H68.4387V84.0391ZM39.5844 94.1168V150.447H59.7398V94.1168H39.5844ZM49.6621 160.524H68.4387V140.369H49.6621V160.524ZM58.361 150.447V169.223H78.5165V150.447H58.361ZM68.4387 179.301H105.992V159.146H68.4387V179.301ZM116.07 169.223V150.447H95.9143V169.223H116.07ZM105.992 160.524H143.545V140.369H105.992V160.524ZM299.039 56.5636H309.117V46.4858H299.039V56.5636ZM299.039 188V198.078H309.117V188H299.039ZM261.486 188H251.408V198.078H261.486V188ZM261.486 131.67H271.564V121.592H261.486V131.67ZM205.156 131.67V121.592H195.078V131.67H205.156ZM205.156 188V198.078H215.234V188H205.156ZM167.603 188H157.525V198.078H167.603V188ZM167.603 56.5636V46.4858H157.525V56.5636H167.603ZM205.156 56.5636H215.234V46.4858H205.156V56.5636ZM205.156 112.893H195.078V122.971H205.156V112.893ZM261.486 112.893V122.971H271.564V112.893H261.486ZM261.486 56.5636V46.4858H251.408V56.5636H261.486ZM288.962 56.5636V188H309.117V56.5636H288.962ZM299.039 177.922H261.486V198.078H299.039V177.922ZM271.564 188V131.67H251.408V188H271.564ZM261.486 121.592H205.156V141.748H261.486V121.592ZM195.078 131.67V188H215.234V131.67H195.078ZM205.156 177.922H167.603V198.078H205.156V177.922ZM177.681 188V56.5636H157.525V188H177.681ZM167.603 66.6413H205.156V46.4858H167.603V66.6413ZM195.078 56.5636V112.893H215.234V56.5636H195.078ZM205.156 122.971H261.486V102.816H205.156V122.971ZM271.564 112.893V56.5636H251.408V112.893H271.564ZM261.486 66.6413H299.039V46.4858H261.486V66.6413ZM445.145 56.5636H455.223V46.4858H445.145V56.5636ZM445.145 75.3402V85.4179H455.223V75.3402H445.145ZM407.592 75.3402V65.2625H397.514V75.3402H407.592ZM407.592 169.223H397.514V179.301H407.592V169.223ZM445.145 169.223H455.223V159.146H445.145V169.223ZM445.145 188V198.078H455.223V188H445.145ZM332.485 188H322.407V198.078H332.485V188ZM332.485 169.223V159.146H322.407V169.223H332.485ZM370.038 169.223V179.301H380.116V169.223H370.038ZM370.038 75.3402H380.116V65.2625H370.038V75.3402ZM332.485 75.3402H322.407V85.4179H332.485V75.3402ZM332.485 56.5636V46.4858H322.407V56.5636H332.485ZM435.067 56.5636V75.3402H455.223V56.5636H435.067ZM445.145 65.2625H407.592V85.4179H445.145V65.2625ZM397.514 75.3402V169.223H417.669V75.3402H397.514ZM407.592 179.301H445.145V159.146H407.592V179.301ZM435.067 169.223V188H455.223V169.223H435.067ZM445.145 177.922H332.485V198.078H445.145V177.922ZM342.563 188V169.223H322.407V188H342.563ZM332.485 179.301H370.038V159.146H332.485V179.301ZM380.116 169.223V75.3402H359.961V169.223H380.116ZM370.038 65.2625H332.485V85.4179H370.038V65.2625ZM342.563 75.3402V56.5636H322.407V75.3402H342.563ZM332.485 66.6413H445.145V46.4858H332.485V66.6413ZM610.027 169.223H620.105V159.146H610.027V169.223ZM610.027 188V198.078H620.105V188H610.027ZM478.591 188H468.513V198.078H478.591V188ZM478.591 56.5636V46.4858H468.513V56.5636H478.591ZM516.144 56.5636H526.222V46.4858H516.144V56.5636ZM516.144 169.223H506.066V179.301H516.144V169.223ZM599.95 169.223V188H620.105V169.223H599.95ZM610.027 177.922H478.591V198.078H610.027V177.922ZM488.669 188V56.5636H468.513V188H488.669ZM478.591 66.6413H516.144V46.4858H478.591V66.6413ZM506.066 56.5636V169.223H526.222V56.5636H506.066ZM516.144 179.301H610.027V159.146H516.144V179.301ZM765.521 169.223H775.599V159.146H765.521V169.223ZM765.521 188V198.078H775.599V188H765.521ZM634.085 188H624.007V198.078H634.085V188ZM634.085 56.5636V46.4858H624.007V56.5636H634.085ZM671.638 56.5636H681.716V46.4858H671.638V56.5636ZM671.638 169.223H661.56V179.301H671.638V169.223ZM755.443 169.223V188H775.599V169.223H755.443ZM765.521 177.922H634.085V198.078H765.521V177.922ZM644.163 188V56.5636H624.007V188H644.163ZM634.085 66.6413H671.638V46.4858H634.085V66.6413ZM661.56 56.5636V169.223H681.716V56.5636H661.56ZM671.638 179.301H765.521V159.146H671.638V179.301Z" fill="#1F2B17" mask="url(#path-1-outside-1_129_2435)"/>
<mask id="path-3-outside-2_129_2435" maskUnits="userSpaceOnUse" x="2.0918" y="221" width="776" height="159" fill="black">
<rect fill="white" x="2.0918" y="221" width="776" height="159"/>
<path d="M149.297 349.471V369H129.767V349.471H110.238V369H32.12V349.471H12.5906V251.823H32.12V232.294H129.767V251.823H149.297V329.941H129.767V349.471H149.297ZM71.1789 310.412H110.238V251.823H51.6495V349.471H90.7083V329.941H71.1789V310.412ZM311.025 232.294V349.471H291.495V369H193.848V349.471H174.319V232.294H213.377V349.471H271.966V232.294H311.025ZM472.753 349.471V369H336.047V232.294H472.753V251.823H375.106V290.882H453.223V310.412H375.106V349.471H472.753ZM634.481 310.412V349.471H614.951V369H517.304V349.471H497.775V329.941H536.834V349.471H595.422V310.412H517.304V290.882H497.775V251.823H517.304V232.294H595.422V251.823H614.951V271.353H575.892V251.823H536.834V290.882H614.951V310.412H634.481ZM766.991 232.294V251.823H727.932V369H688.873V251.823H649.814V232.294H766.991Z"/>
</mask>
<path d="M149.297 349.471V369H129.767V349.471H110.238V369H32.12V349.471H12.5906V251.823H32.12V232.294H129.767V251.823H149.297V329.941H129.767V349.471H149.297ZM71.1789 310.412H110.238V251.823H51.6495V349.471H90.7083V329.941H71.1789V310.412ZM311.025 232.294V349.471H291.495V369H193.848V349.471H174.319V232.294H213.377V349.471H271.966V232.294H311.025ZM472.753 349.471V369H336.047V232.294H472.753V251.823H375.106V290.882H453.223V310.412H375.106V349.471H472.753ZM634.481 310.412V349.471H614.951V369H517.304V349.471H497.775V329.941H536.834V349.471H595.422V310.412H517.304V290.882H497.775V251.823H517.304V232.294H595.422V251.823H614.951V271.353H575.892V251.823H536.834V290.882H614.951V310.412H634.481ZM766.991 232.294V251.823H727.932V369H688.873V251.823H649.814V232.294H766.991Z" fill="#5A5D40"/>
<path d="M149.297 349.471H159.778V338.989H149.297V349.471ZM149.297 369V379.482H159.778V369H149.297ZM129.767 369H119.285V379.482H129.767V369ZM129.767 349.471H140.249V338.989H129.767V349.471ZM110.238 349.471V338.989H99.756V349.471H110.238ZM110.238 369V379.482H120.72V369H110.238ZM32.12 369H21.6383V379.482H32.12V369ZM32.12 349.471H42.6018V338.989H32.12V349.471ZM12.5906 349.471H2.10885V359.952H12.5906V349.471ZM12.5906 251.823V241.342H2.10885V251.823H12.5906ZM32.12 251.823V262.305H42.6018V251.823H32.12ZM32.12 232.294V221.812H21.6383V232.294H32.12ZM129.767 232.294H140.249V221.812H129.767V232.294ZM129.767 251.823H119.285V262.305H129.767V251.823ZM149.297 251.823H159.778V241.342H149.297V251.823ZM149.297 329.941V340.423H159.778V329.941H149.297ZM129.767 329.941V319.459H119.285V329.941H129.767ZM129.767 349.471H119.285V359.952H129.767V349.471ZM71.1789 310.412V299.93H60.6971V310.412H71.1789ZM110.238 310.412V320.894H120.72V310.412H110.238ZM110.238 251.823H120.72V241.342H110.238V251.823ZM51.6495 251.823V241.342H41.1677V251.823H51.6495ZM51.6495 349.471H41.1677V359.952H51.6495V349.471ZM90.7083 349.471V359.952H101.19V349.471H90.7083ZM90.7083 329.941H101.19V319.459H90.7083V329.941ZM71.1789 329.941H60.6971V340.423H71.1789V329.941ZM138.815 349.471V369H159.778V349.471H138.815ZM149.297 358.518H129.767V379.482H149.297V358.518ZM140.249 369V349.471H119.285V369H140.249ZM129.767 338.989H110.238V359.952H129.767V338.989ZM99.756 349.471V369H120.72V349.471H99.756ZM110.238 358.518H32.12V379.482H110.238V358.518ZM42.6018 369V349.471H21.6383V369H42.6018ZM32.12 338.989H12.5906V359.952H32.12V338.989ZM23.0724 349.471V251.823H2.10885V349.471H23.0724ZM12.5906 262.305H32.12V241.342H12.5906V262.305ZM42.6018 251.823V232.294H21.6383V251.823H42.6018ZM32.12 242.776H129.767V221.812H32.12V242.776ZM119.285 232.294V251.823H140.249V232.294H119.285ZM129.767 262.305H149.297V241.342H129.767V262.305ZM138.815 251.823V329.941H159.778V251.823H138.815ZM149.297 319.459H129.767V340.423H149.297V319.459ZM119.285 329.941V349.471H140.249V329.941H119.285ZM129.767 359.952H149.297V338.989H129.767V359.952ZM71.1789 320.894H110.238V299.93H71.1789V320.894ZM120.72 310.412V251.823H99.756V310.412H120.72ZM110.238 241.342H51.6495V262.305H110.238V241.342ZM41.1677 251.823V349.471H62.1312V251.823H41.1677ZM51.6495 359.952H90.7083V338.989H51.6495V359.952ZM101.19 349.471V329.941H80.2265V349.471H101.19ZM90.7083 319.459H71.1789V340.423H90.7083V319.459ZM81.6607 329.941V310.412H60.6971V329.941H81.6607ZM311.025 232.294H321.506V221.812H311.025V232.294ZM311.025 349.471V359.952H321.506V349.471H311.025ZM291.495 349.471V338.989H281.013V349.471H291.495ZM291.495 369V379.482H301.977V369H291.495ZM193.848 369H183.366V379.482H193.848V369ZM193.848 349.471H204.33V338.989H193.848V349.471ZM174.319 349.471H163.837V359.952H174.319V349.471ZM174.319 232.294V221.812H163.837V232.294H174.319ZM213.378 232.294H223.859V221.812H213.378V232.294ZM213.378 349.471H202.896V359.952H213.378V349.471ZM271.966 349.471V359.952H282.448V349.471H271.966ZM271.966 232.294V221.812H261.484V232.294H271.966ZM300.543 232.294V349.471H321.506V232.294H300.543ZM311.025 338.989H291.495V359.952H311.025V338.989ZM281.013 349.471V369H301.977V349.471H281.013ZM291.495 358.518H193.848V379.482H291.495V358.518ZM204.33 369V349.471H183.366V369H204.33ZM193.848 338.989H174.319V359.952H193.848V338.989ZM184.8 349.471V232.294H163.837V349.471H184.8ZM174.319 242.776H213.378V221.812H174.319V242.776ZM202.896 232.294V349.471H223.859V232.294H202.896ZM213.378 359.952H271.966V338.989H213.378V359.952ZM282.448 349.471V232.294H261.484V349.471H282.448ZM271.966 242.776H311.025V221.812H271.966V242.776ZM472.753 349.471H483.234V338.989H472.753V349.471ZM472.753 369V379.482H483.234V369H472.753ZM336.047 369H325.565V379.482H336.047V369ZM336.047 232.294V221.812H325.565V232.294H336.047ZM472.753 232.294H483.234V221.812H472.753V232.294ZM472.753 251.823V262.305H483.234V251.823H472.753ZM375.106 251.823V241.342H364.624V251.823H375.106ZM375.106 290.882H364.624V301.364H375.106V290.882ZM453.223 290.882H463.705V280.401H453.223V290.882ZM453.223 310.412V320.894H463.705V310.412H453.223ZM375.106 310.412V299.93H364.624V310.412H375.106ZM375.106 349.471H364.624V359.952H375.106V349.471ZM462.271 349.471V369H483.234V349.471H462.271ZM472.753 358.518H336.047V379.482H472.753V358.518ZM346.528 369V232.294H325.565V369H346.528ZM336.047 242.776H472.753V221.812H336.047V242.776ZM462.271 232.294V251.823H483.234V232.294H462.271ZM472.753 241.342H375.106V262.305H472.753V241.342ZM364.624 251.823V290.882H385.587V251.823H364.624ZM375.106 301.364H453.223V280.401H375.106V301.364ZM442.741 290.882V310.412H463.705V290.882H442.741ZM453.223 299.93H375.106V320.894H453.223V299.93ZM364.624 310.412V349.471H385.587V310.412H364.624ZM375.106 359.952H472.753V338.989H375.106V359.952ZM634.481 310.412H644.962V299.93H634.481V310.412ZM634.481 349.471V359.952H644.962V349.471H634.481ZM614.951 349.471V338.989H604.469V349.471H614.951ZM614.951 369V379.482H625.433V369H614.951ZM517.304 369H506.822V379.482H517.304V369ZM517.304 349.471H527.786V338.989H517.304V349.471ZM497.775 349.471H487.293V359.952H497.775V349.471ZM497.775 329.941V319.459H487.293V329.941H497.775ZM536.834 329.941H547.315V319.459H536.834V329.941ZM536.834 349.471H526.352V359.952H536.834V349.471ZM595.422 349.471V359.952H605.904V349.471H595.422ZM595.422 310.412H605.904V299.93H595.422V310.412ZM517.304 310.412H506.822V320.894H517.304V310.412ZM517.304 290.882H527.786V280.401H517.304V290.882ZM497.775 290.882H487.293V301.364H497.775V290.882ZM497.775 251.823V241.342H487.293V251.823H497.775ZM517.304 251.823V262.305H527.786V251.823H517.304ZM517.304 232.294V221.812H506.822V232.294H517.304ZM595.422 232.294H605.904V221.812H595.422V232.294ZM595.422 251.823H584.94V262.305H595.422V251.823ZM614.951 251.823H625.433V241.342H614.951V251.823ZM614.951 271.353V281.835H625.433V271.353H614.951ZM575.892 271.353H565.411V281.835H575.892V271.353ZM575.892 251.823H586.374V241.342H575.892V251.823ZM536.834 251.823V241.342H526.352V251.823H536.834ZM536.834 290.882H526.352V301.364H536.834V290.882ZM614.951 290.882H625.433V280.401H614.951V290.882ZM614.951 310.412H604.469V320.894H614.951V310.412ZM623.999 310.412V349.471H644.962V310.412H623.999ZM634.481 338.989H614.951V359.952H634.481V338.989ZM604.469 349.471V369H625.433V349.471H604.469ZM614.951 358.518H517.304V379.482H614.951V358.518ZM527.786 369V349.471H506.822V369H527.786ZM517.304 338.989H497.775V359.952H517.304V338.989ZM508.256 349.471V329.941H487.293V349.471H508.256ZM497.775 340.423H536.834V319.459H497.775V340.423ZM526.352 329.941V349.471H547.315V329.941H526.352ZM536.834 359.952H595.422V338.989H536.834V359.952ZM605.904 349.471V310.412H584.94V349.471H605.904ZM595.422 299.93H517.304V320.894H595.422V299.93ZM527.786 310.412V290.882H506.822V310.412H527.786ZM517.304 280.401H497.775V301.364H517.304V280.401ZM508.256 290.882V251.823H487.293V290.882H508.256ZM497.775 262.305H517.304V241.342H497.775V262.305ZM527.786 251.823V232.294H506.822V251.823H527.786ZM517.304 242.776H595.422V221.812H517.304V242.776ZM584.94 232.294V251.823H605.904V232.294H584.94ZM595.422 262.305H614.951V241.342H595.422V262.305ZM604.469 251.823V271.353H625.433V251.823H604.469ZM614.951 260.871H575.892V281.835H614.951V260.871ZM586.374 271.353V251.823H565.411V271.353H586.374ZM575.892 241.342H536.834V262.305H575.892V241.342ZM526.352 251.823V290.882H547.315V251.823H526.352ZM536.834 301.364H614.951V280.401H536.834V301.364ZM604.469 290.882V310.412H625.433V290.882H604.469ZM614.951 320.894H634.481V299.93H614.951V320.894ZM766.991 232.294H777.473V221.812H766.991V232.294ZM766.991 251.823V262.305H777.473V251.823H766.991ZM727.932 251.823V241.342H717.45V251.823H727.932ZM727.932 369V379.482H738.414V369H727.932ZM688.873 369H678.391V379.482H688.873V369ZM688.873 251.823H699.355V241.342H688.873V251.823ZM649.814 251.823H639.333V262.305H649.814V251.823ZM649.814 232.294V221.812H639.333V232.294H649.814ZM756.509 232.294V251.823H777.473V232.294H756.509ZM766.991 241.342H727.932V262.305H766.991V241.342ZM717.45 251.823V369H738.414V251.823H717.45ZM727.932 358.518H688.873V379.482H727.932V358.518ZM699.355 369V251.823H678.391V369H699.355ZM688.873 241.342H649.814V262.305H688.873V241.342ZM660.296 251.823V232.294H639.333V251.823H660.296ZM649.814 242.776H766.991V221.812H649.814V242.776Z" fill="#1F2B17" mask="url(#path-3-outside-2_129_2435)"/>
</svg>
