<svg width="482" height="154" viewBox="0 0 482 154" fill="none" xmlns="http://www.w3.org/2000/svg">
<rect x="1" y="1" width="480" height="152" fill="#1F2B17"/>
<rect x="1" y="1" width="480" height="152" stroke="#E2C65B" stroke-width="2"/>
<path d="M52.2918 59.6V62.8H49.0918V66H36.2917V62.8H33.0918V59.6H29.8918V50H33.0918V46.8H36.2917V43.6H49.0918V46.8H52.2918V50H45.8918V46.8H39.4918V50H36.2917V59.6H39.4918V62.8H45.8918V59.6H52.2918ZM78.7918 46.8V62.8H75.5918V66H59.5918V62.8H56.3918V46.8H59.5918V43.6H75.5918V46.8H78.7918ZM62.7917 62.8H72.3918V46.8H62.7917V62.8ZM105.292 43.6V66H98.8918V62.8H95.6918V59.6H92.4918V56.4H89.2917V66H82.8918V43.6H89.2917V46.8H92.4918V50H95.6918V53.2H98.8918V43.6H105.292ZM131.792 53.2V66H115.792V62.736H112.592V59.6H109.392V50H112.592V46.8H115.792V43.6H131.792V46.8H118.992V50H115.792V59.6H118.992V62.8H125.392V56.4H122.192V53.2H131.792ZM158.292 62.8V66H148.692V62.8H145.492V59.6H142.292V66H135.892V43.6H155.092V46.8H158.292V56.4H151.892V59.6H155.092V62.8H158.292ZM148.692 53.2H151.892V46.8H142.292V56.4H148.692V53.2ZM184.792 50V66H178.392V59.6H168.792V66H162.392V50H165.592V46.8H168.792V43.6H178.392V46.8H181.592V50H184.792ZM168.792 56.4H178.392V50H175.192V46.8H171.992V50H168.792V56.4ZM208.098 43.6V46.8H201.698V66H195.298V46.8H188.898V43.6H208.098ZM236.198 43.6V62.8H232.998V66H216.998V62.8H213.798V43.6H220.198V62.8H229.798V43.6H236.198ZM262.698 62.8V66H240.298V43.6H246.698V62.8H262.698ZM289.198 50V66H282.798V59.6H273.198V66H266.798V50H269.998V46.8H273.198V43.6H282.798V46.8H285.998V50H289.198ZM273.198 56.4H282.798V50H279.598V46.8H276.398V50H273.198V56.4ZM312.504 43.6V46.8H306.104V66H299.704V46.8H293.304V43.6H312.504ZM339.004 43.6V46.8H332.604V62.8H339.004V66H319.804V62.8H326.204V46.8H319.804V43.6H339.004ZM367.104 46.8V62.8H363.904V66H347.904V62.8H344.704V46.8H347.904V43.6H363.904V46.8H367.104ZM351.104 62.8H360.704V46.8H351.104V62.8ZM393.604 43.6V66H387.204V62.8H384.004V59.6H380.804V56.4H377.604V66H371.204V43.6H377.604V46.8H380.804V50H384.004V53.2H387.204V43.6H393.604ZM420.104 56.4V62.8H416.904V66H400.904V62.8H397.704V59.6H404.104V62.8H413.704V56.4H400.904V53.2H397.704V46.8H400.904V43.6H413.704V46.8H416.904V50H410.504V46.8H404.104V53.2H416.904V56.4H420.104ZM422.156 68.24H454.156V36.24H422.156V68.24Z" fill="#E2C65B"/>
<path d="M194.233 105.944L188.353 95.648H190.993L194.857 102.584C195.097 102.992 195.241 103.328 195.433 103.736C195.649 103.304 195.697 103.16 196.009 102.584L199.849 95.648H202.417L196.585 105.944V113H194.233V105.944ZM201.165 107.12C201.165 103.496 203.757 100.952 207.285 100.952C210.789 100.952 213.381 103.496 213.381 107.12C213.381 110.744 210.789 113.288 207.285 113.288C203.757 113.288 201.165 110.744 201.165 107.12ZM203.445 107.12C203.445 109.568 205.005 111.272 207.285 111.272C209.541 111.272 211.125 109.568 211.125 107.12C211.125 104.672 209.541 102.968 207.285 102.968C205.005 102.968 203.445 104.672 203.445 107.12ZM223.709 101.264H225.941V113H223.925L223.685 111.224C223.013 112.448 221.453 113.288 219.725 113.288C216.989 113.288 215.453 111.44 215.453 108.56V101.264H217.709V107.816C217.709 110.336 218.789 111.296 220.517 111.296C222.581 111.296 223.709 109.976 223.709 107.456V101.264ZM238.297 113L234.457 101.264H236.785L238.729 107.36C238.993 108.224 239.233 109.112 239.449 110.144C239.641 109.112 239.953 108.128 240.217 107.36L242.185 101.264H244.489L246.433 107.36C246.625 107.936 247.009 109.304 247.201 110.144C247.393 109.208 247.609 108.392 247.945 107.36L249.913 101.264H252.265L248.257 113H246.121L244.081 106.712C243.697 105.536 243.457 104.624 243.337 103.976C243.217 104.552 243.001 105.32 242.569 106.736L240.529 113H238.297ZM252.891 107.12C252.891 103.496 255.483 100.952 259.011 100.952C262.515 100.952 265.107 103.496 265.107 107.12C265.107 110.744 262.515 113.288 259.011 113.288C255.483 113.288 252.891 110.744 252.891 107.12ZM255.171 107.12C255.171 109.568 256.731 111.272 259.011 111.272C261.267 111.272 262.851 109.568 262.851 107.12C262.851 104.672 261.267 102.968 259.011 102.968C256.731 102.968 255.171 104.672 255.171 107.12ZM269.861 113H267.605V101.264H269.645L269.885 103.064C270.629 101.72 272.117 100.928 273.773 100.928C276.869 100.928 278.285 102.824 278.285 105.824V113H276.029V106.328C276.029 103.952 274.925 102.992 273.197 102.992C271.085 102.992 269.861 104.504 269.861 106.784V113ZM284.169 107.792H282.417C282.177 105.992 282.009 102.8 282.009 99.68V95.648H284.601V99.68C284.601 102.848 284.409 106.016 284.169 107.792ZM283.305 113.336C282.345 113.336 281.577 112.568 281.577 111.632C281.577 110.696 282.345 109.928 283.305 109.928C284.217 109.928 285.009 110.696 285.009 111.632C285.009 112.568 284.217 113.336 283.305 113.336ZM291.224 107.792H289.472C289.232 105.992 289.064 102.8 289.064 99.68V95.648H291.656V99.68C291.656 102.848 291.464 106.016 291.224 107.792ZM290.36 113.336C289.4 113.336 288.632 112.568 288.632 111.632C288.632 110.696 289.4 109.928 290.36 109.928C291.272 109.928 292.064 110.696 292.064 111.632C292.064 112.568 291.272 113.336 290.36 113.336Z" fill="#E2C65B"/>
</svg>
