<svg width="336" height="89" viewBox="0 0 336 89" fill="none" xmlns="http://www.w3.org/2000/svg">
<g filter="url(#filter0_d_112_1208)">
<rect x="2.5" y="2.08789" width="332" height="83" rx="15.3443" stroke="black" stroke-width="3" shape-rendering="crispEdges"/>
<path d="M73.698 50.1879V53.3879H70.498V56.5879H57.698V53.3879H54.498V50.1879H51.298V40.5879H54.498V37.3879H57.698V34.1879H70.498V37.3879H73.698V40.5879H67.298V37.3879H60.898V40.5879H57.698V50.1879H60.898V53.3879H67.298V50.1879H73.698ZM100.198 37.3879V53.3879H96.998V56.5879H80.998V53.3879H77.798V37.3879H80.998V34.1879H96.998V37.3879H100.198ZM84.198 53.3879H93.798V37.3879H84.198V53.3879ZM126.698 37.3879V46.9879H123.498V50.1879H110.698V56.5879H104.298V34.1879H123.498V37.3879H126.698ZM110.698 46.9879H120.298V37.3879H110.698V46.9879ZM151.598 34.1879V43.7879H148.398V46.9879H145.198V56.5879H138.798V46.9879H135.566V43.7879H132.398V34.1879H138.798V43.7879H145.198V34.1879H151.598ZM206.198 50.1879V53.3879H202.998V56.5879H190.198V53.3879H186.998V50.1879H183.798V40.5879H186.998V37.3879H190.198V34.1879H202.998V37.3879H206.198V40.5879H199.798V37.3879H193.398V40.5879H190.198V50.1879H193.398V53.3879H199.798V50.1879H206.198ZM232.698 37.3879V53.3879H229.498V56.5879H213.498V53.3879H210.298V37.3879H213.498V34.1879H229.498V37.3879H232.698ZM216.698 53.3879H226.298V37.3879H216.698V53.3879ZM259.198 40.5879V50.1879H255.998V53.3879H252.798V56.5879H236.798V34.1879H252.798V37.3879H255.998V40.5879H259.198ZM249.598 50.1879H252.798V40.5879H249.598V37.3879H243.198V53.3879H249.598V50.1879ZM285.698 53.3879V56.5879H263.298V34.1879H285.698V37.3879H269.698V43.7879H282.498V46.9879H269.698V53.3879H285.698Z" fill="#1F2B17"/>
</g>
<defs>
<filter id="filter0_d_112_1208" x="0" y="0.587891" width="336" height="88" filterUnits="userSpaceOnUse" color-interpolation-filters="sRGB">
<feFlood flood-opacity="0" result="BackgroundImageFix"/>
<feColorMatrix in="SourceAlpha" type="matrix" values="0 0 0 0 0 0 0 0 0 0 0 0 0 0 0 0 0 0 127 0" result="hardAlpha"/>
<feOffset dx="-1" dy="2"/>
<feComposite in2="hardAlpha" operator="out"/>
<feColorMatrix type="matrix" values="0 0 0 0 0.121569 0 0 0 0 0.168627 0 0 0 0 0.0901961 0 0 0 1 0"/>
<feBlend mode="normal" in2="BackgroundImageFix" result="effect1_dropShadow_112_1208"/>
<feBlend mode="normal" in="SourceGraphic" in2="effect1_dropShadow_112_1208" result="shape"/>
</filter>
</defs>
</svg>
