<svg width="482" height="154" viewBox="0 0 482 154" fill="none" xmlns="http://www.w3.org/2000/svg">
<rect x="1" y="1" width="480" height="152" fill="#1F2B17"/>
<rect x="1" y="1" width="480" height="152" stroke="#E2C65B" stroke-width="2"/>
<path d="M79.948 59.6V62.8H76.748V66H63.948V62.8H60.748V59.6H57.548V50H60.748V46.8H63.948V43.6H76.748V46.8H79.948V50H73.548V46.8H67.148V50H63.948V59.6H67.148V62.8H73.548V59.6H79.948ZM106.448 46.8V62.8H103.248V66H87.248V62.8H84.048V46.8H87.248V43.6H103.248V46.8H106.448ZM90.448 62.8H100.048V46.8H90.448V62.8ZM132.948 62.8V66H123.348V62.8H120.148V59.6H116.948V66H110.548V43.6H129.748V46.8H132.948V56.4H126.548V59.6H129.748V62.8H132.948ZM123.348 53.2H126.548V46.8H116.948V56.4H123.348V53.2ZM159.448 62.8V66H149.848V62.8H146.648V59.6H143.448V66H137.048V43.6H156.248V46.8H159.448V56.4H153.048V59.6H156.248V62.8H159.448ZM149.848 53.2H153.048V46.8H143.448V56.4H149.848V53.2ZM185.948 62.8V66H163.548V43.6H185.948V46.8H169.948V53.2H182.748V56.4H169.948V62.8H185.948ZM212.448 59.6V62.8H209.248V66H196.448V62.8H193.248V59.6H190.048V50H193.248V46.8H196.448V43.6H209.248V46.8H212.448V50H206.048V46.8H199.648V50H196.448V59.6H199.648V62.8H206.048V59.6H212.448ZM237.348 43.6V46.8H230.948V66H224.548V46.8H218.148V43.6H237.348ZM291.948 50V66H285.548V59.6H275.948V66H269.548V50H272.748V46.8H275.948V43.6H285.548V46.8H288.748V50H291.948ZM275.948 56.4H285.548V50H282.348V46.8H279.148V50H275.948V56.4ZM318.448 43.6V66H312.048V62.8H308.848V59.6H305.648V56.4H302.448V66H296.048V43.6H302.448V46.8H305.648V50H308.848V53.2H312.048V43.6H318.448ZM344.948 56.4V62.8H341.748V66H325.748V62.8H322.548V59.6H328.948V62.8H338.548V56.4H325.748V53.2H322.548V46.8H325.748V43.6H338.548V46.8H341.748V50H335.348V46.8H328.948V53.2H341.748V56.4H344.948ZM371.448 43.6V66H365.048V62.8H361.848V59.6H358.648V62.8H355.448V66H349.048V43.6H355.448V53.2H358.648V50H361.848V53.2H365.048V43.6H371.448ZM397.948 62.8V66H375.548V43.6H397.948V46.8H381.948V53.2H394.748V56.4H381.948V62.8H397.948ZM424.448 62.8V66H414.848V62.8H411.648V59.6H408.448V66H402.048V43.6H421.248V46.8H424.448V56.4H418.048V59.6H421.248V62.8H424.448ZM414.848 53.2H418.048V46.8H408.448V56.4H414.848V53.2Z" fill="#E2C65B"/>
<path d="M166.433 97.568C162.689 97.568 160.433 100.328 160.433 104.432C160.433 108.632 162.881 111.056 166.457 111.056C169.409 111.056 171.785 109.544 171.785 106.04V105.536H165.977V103.448H173.993V113.024H172.025L171.857 110.672C170.921 112.184 168.809 113.288 166.265 113.288C161.345 113.288 157.961 109.736 157.961 104.384C157.961 99.104 161.369 95.36 166.481 95.36C170.273 95.36 173.225 97.544 173.801 100.88H171.305C170.657 98.672 168.737 97.568 166.433 97.568ZM176.192 107.12C176.192 103.496 178.784 100.952 182.312 100.952C185.816 100.952 188.408 103.496 188.408 107.12C188.408 110.744 185.816 113.288 182.312 113.288C178.784 113.288 176.192 110.744 176.192 107.12ZM178.472 107.12C178.472 109.568 180.032 111.272 182.312 111.272C184.568 111.272 186.152 109.568 186.152 107.12C186.152 104.672 184.568 102.968 182.312 102.968C180.032 102.968 178.472 104.672 178.472 107.12ZM200.78 113H198.524V103.16H196.22V101.264H198.524V97.592H200.78V101.264H203.084V103.16H200.78V113ZM204.223 107.12C204.223 103.496 206.815 100.952 210.343 100.952C213.847 100.952 216.439 103.496 216.439 107.12C216.439 110.744 213.847 113.288 210.343 113.288C206.815 113.288 204.223 110.744 204.223 107.12ZM206.503 107.12C206.503 109.568 208.063 111.272 210.343 111.272C212.599 111.272 214.183 109.568 214.183 107.12C214.183 104.672 212.599 102.968 210.343 102.968C208.063 102.968 206.503 104.672 206.503 107.12ZM227.755 113H225.499V101.264H227.539L227.779 103.064C228.523 101.72 230.011 100.928 231.667 100.928C234.763 100.928 236.179 102.824 236.179 105.824V113H233.923V106.328C233.923 103.952 232.819 102.992 231.091 102.992C228.979 102.992 227.755 104.504 227.755 106.784V113ZM244.368 113.288C240.912 113.288 238.536 110.792 238.536 107.144C238.536 103.472 240.864 100.928 244.272 100.928C247.608 100.928 249.792 103.232 249.792 106.712V107.552L240.72 107.576C240.888 110.048 242.184 111.416 244.416 111.416C246.168 111.416 247.32 110.696 247.704 109.352H249.816C249.24 111.872 247.272 113.288 244.368 113.288ZM244.272 102.824C242.304 102.824 241.056 104 240.768 106.064H247.536C247.536 104.12 246.264 102.824 244.272 102.824ZM253.066 113H250.474L254.578 107.192L250.498 101.264H253.114L256.09 105.632L258.994 101.264H261.562L257.482 107.192L261.49 113H258.874L255.946 108.704L253.066 113ZM267.225 113H264.969V103.16H262.665V101.264H264.969V97.592H267.225V101.264H269.529V103.16H267.225V113ZM280.42 113H278.164V95.336H280.42V113ZM288.805 113.288C285.349 113.288 282.973 110.792 282.973 107.144C282.973 103.472 285.301 100.928 288.709 100.928C292.045 100.928 294.229 103.232 294.229 106.712V107.552L285.157 107.576C285.325 110.048 286.621 111.416 288.853 111.416C290.605 111.416 291.757 110.696 292.141 109.352H294.253C293.677 111.872 291.709 113.288 288.805 113.288ZM288.709 102.824C286.741 102.824 285.493 104 285.205 106.064H291.973C291.973 104.12 290.701 102.824 288.709 102.824ZM299.639 113L294.911 101.264H297.311L299.879 107.816C300.287 108.92 300.623 109.904 300.815 110.624C301.007 109.856 301.391 108.848 301.799 107.816L304.415 101.264H306.767L301.871 113H299.639ZM313.087 113.288C309.631 113.288 307.255 110.792 307.255 107.144C307.255 103.472 309.583 100.928 312.991 100.928C316.327 100.928 318.511 103.232 318.511 106.712V107.552L309.439 107.576C309.607 110.048 310.903 111.416 313.135 111.416C314.887 111.416 316.039 110.696 316.423 109.352H318.535C317.959 111.872 315.991 113.288 313.087 113.288ZM312.991 102.824C311.023 102.824 309.775 104 309.487 106.064H316.255C316.255 104.12 314.983 102.824 312.991 102.824ZM323.334 113H321.078V95.336H323.334V113Z" fill="#E2C65B"/>
</svg>
