<svg width="563" height="122" viewBox="0 0 563 122" fill="none" xmlns="http://www.w3.org/2000/svg">
<rect width="563" height="122" rx="24" fill="#1F2B17"/>
<path d="M100.742 70.4V75.2H95.9423V80H76.7423V75.2H71.9423V70.4H67.1423V56H71.9423V51.2H76.7423V46.4H95.9423V51.2H100.742V56H91.1423V51.2H81.5423V56H76.7423V70.4H81.5423V75.2H91.1423V70.4H100.742ZM140.492 75.2V80H126.092V75.2H121.292V70.4H116.492V80H106.892V46.4H135.692V51.2H140.492V65.6H130.892V70.4H135.692V75.2H140.492ZM126.092 60.8H130.892V51.2H116.492V65.6H126.092V60.8ZM180.242 75.2V80H146.642V46.4H180.242V51.2H156.242V60.8H175.442V65.6H156.242V75.2H180.242ZM219.992 56V80H210.392V70.4H195.992V80H186.392V56H191.192V51.2H195.992V46.4H210.392V51.2H215.192V56H219.992ZM195.992 65.6H210.392V56H205.592V51.2H200.792V56H195.992V65.6ZM254.952 46.4V51.2H245.352V80H235.752V51.2H226.152V46.4H254.952ZM297.102 75.2V80H263.502V46.4H297.102V51.2H273.102V60.8H292.302V65.6H273.102V75.2H297.102ZM376.602 75.2V80H362.202V75.2H357.402V70.4H352.602V80H343.002V46.4H371.802V51.2H376.602V65.6H367.002V70.4H371.802V75.2H376.602ZM362.202 60.8H367.002V51.2H352.602V65.6H362.202V60.8ZM416.352 51.2V75.2H411.552V80H387.552V75.2H382.752V51.2H387.552V46.4H411.552V51.2H416.352ZM392.352 75.2H406.752V51.2H392.352V75.2ZM456.102 51.2V75.2H451.302V80H427.302V75.2H422.502V51.2H427.302V46.4H451.302V51.2H456.102ZM432.102 75.2H446.502V51.2H432.102V75.2ZM495.852 46.4V80H486.252V65.6H481.452V70.4H476.652V65.6H471.852V80H462.252V46.4H471.852V51.2H476.652V56H481.452V51.2H486.252V46.4H495.852Z" fill="#819EA2"/>
</svg>
