<svg width="149" height="73" viewBox="0 0 149 73" fill="none" xmlns="http://www.w3.org/2000/svg">
<g filter="url(#filter0_d_149_1062)">
<path d="M123.459 11H21.2042C16.7429 11 12.9199 14.1906 12.1218 18.5799C11.721 20.7844 12.1357 23.0594 13.2884 24.9807L14.5749 27.1249C15.5074 28.679 16 30.4574 16 32.2698V42.3579C16 45.01 14.9464 47.5536 13.0711 49.4289L11.9137 50.5863C11.6383 50.8617 11.3843 51.1577 11.154 51.4718C8.42246 55.1966 9.58932 60.4741 13.6366 62.7001L14.16 62.988C15.3671 63.6519 16.7223 64 18.0999 64H127.5C133.023 64 137.5 59.5228 137.5 54V52.9783C137.5 51.6721 137.244 50.3785 136.747 49.1708L135.142 45.2727C134.397 43.464 134.199 41.4766 134.572 39.5565L137.5 24.5L139.207 18.2419C139.982 15.4003 138.881 12.3788 136.459 10.7023C134.889 9.61564 132.942 9.22282 131.074 9.61611L125.519 10.7855C124.841 10.9281 124.151 11 123.459 11Z" fill="#7F3E48"/>
<path d="M123.459 11H21.2042C16.7429 11 12.9199 14.1906 12.1218 18.5799C11.721 20.7844 12.1357 23.0594 13.2884 24.9807L14.5749 27.1249C15.5074 28.679 16 30.4574 16 32.2698V42.3579C16 45.01 14.9464 47.5536 13.0711 49.4289L11.9137 50.5863C11.6383 50.8617 11.3843 51.1577 11.154 51.4718C8.42246 55.1966 9.58932 60.4741 13.6366 62.7001L14.16 62.988C15.3671 63.6519 16.7223 64 18.0999 64H127.5C133.023 64 137.5 59.5228 137.5 54V52.9783C137.5 51.6721 137.244 50.3785 136.747 49.1708L135.142 45.2727C134.397 43.464 134.199 41.4766 134.572 39.5565L137.5 24.5L139.207 18.2419C139.982 15.4003 138.881 12.3788 136.459 10.7023C134.889 9.61564 132.942 9.22282 131.074 9.61611L125.519 10.7855C124.841 10.9281 124.151 11 123.459 11Z" stroke="black" stroke-width="2"/>
</g>
<path d="M93.6757 33.6502C102.637 39.1956 121.687 43.3332 134.355 47.4525C135.088 47.6909 135.81 47.0522 135.659 46.2962L134.188 38.9393C134.083 38.4141 133.585 38.0658 133.053 38.1274C129.023 38.5942 122.666 38.4758 118.781 37.5942L94.3187 32.2759C93.3313 32.0612 92.8164 33.1184 93.6757 33.6502Z" fill="#703843"/>
<path d="M36.2868 57.4928L22.5285 59.381L9 61.2386H32.0698L37.5271 61.9878H45.3553C45.5935 61.9878 45.8315 61.97 46.0671 61.9344L64.8997 59.0906C65.3273 59.026 65.7227 58.8255 66.0274 58.5187C66.7492 57.7921 67.9015 57.7231 68.7048 58.3585L69.8288 59.2476C70.4383 59.7297 71.1869 60.0028 71.9636 60.0263L133.012 61.879C135.195 61.9452 137 60.1939 137 58.0103C137 55.5542 134.742 53.7193 132.338 54.2216L124.392 55.8817C124.034 55.9566 123.668 55.99 123.302 55.9811L83.8477 55.024C83.077 55.0053 82.3224 54.8 81.6484 54.4257L77.1996 51.9548C76.0986 51.3432 74.8003 51.1922 73.5884 51.5347L61.746 54.8812C61.4766 54.9573 61.201 55.0095 60.9224 55.0373L36.2868 57.4928Z" fill="#703843"/>
<path d="M35.3206 60.2439L15.1164 62.2268C14.7082 62.2668 14.2966 62.2541 13.8917 62.1888L30.2861 64.8436C30.9236 64.9468 31.5754 64.9194 32.2019 64.7631L37.1845 63.5204C37.4667 63.45 37.7547 63.4056 38.045 63.3877L46.1423 62.8887L62.54 63.394C62.9804 63.4076 63.4117 63.5226 63.8003 63.7302C64.3916 64.0459 65.0749 64.1442 65.7312 64.0078L68.1054 63.5144C68.4245 63.4481 68.7495 63.4146 69.0755 63.4146H129.818C131.165 63.4146 132.405 62.6785 133.049 61.4957C134.573 58.6988 132.064 55.4189 128.966 56.1571L120.419 58.1937C120.007 58.2918 119.584 58.3346 119.161 58.3211L81.5446 57.1202C80.5855 57.0896 79.6579 56.7702 78.8833 56.2039L75.2032 53.5138C73.9102 52.5687 72.2291 52.3359 70.7279 52.8942L59.9976 56.8849C59.6612 57.01 59.3117 57.0967 58.9558 57.1434L35.3206 60.2439Z" fill="#683F4F"/>
<path d="M29.8502 34.9251L18.8944 29.4472C17.5646 28.7823 16 29.7493 16 31.2361V33V43.5279C16 43.8384 15.9277 44.1446 15.7889 44.4223L13.1101 49.7798C13.037 49.926 12.9462 50.0628 12.8398 50.1869L10.4815 52.9383C10.1708 53.3008 10 53.7624 10 54.2398V57.8138C10 58.2585 10.1482 58.6906 10.4213 59.0417L12.9815 62.3334C13.313 62.7596 13.8027 63.0336 14.3394 63.0933L19.404 63.656C20.7864 63.8096 21.8208 62.4153 21.2729 61.1369C21.0972 60.7267 20.7765 60.3957 20.3721 60.207L16.91 58.5913C15.4577 57.9136 15.3525 55.8885 16.7267 55.064L20.8117 52.613C20.9369 52.5379 21.0698 52.4767 21.2083 52.4306L25.4194 51.0269C27.1097 50.4634 27.275 48.1375 25.6813 47.3407L25.1613 47.0807C25.054 47.027 24.9517 46.9638 24.8557 46.8918L21.8 44.6C21.2964 44.2223 21 43.6295 21 43V40.0141C21 38.7279 22.1965 37.7761 23.4497 38.0653L33.8598 40.4676C33.9531 40.4892 34.0479 40.504 34.1434 40.512L58 42.5L48 40.5L30.1602 35.0489C30.0536 35.0164 29.9499 34.9749 29.8502 34.9251Z" fill="#703843"/>
<g filter="url(#filter1_d_149_1062)">
<path d="M123.459 11H21.2042C16.7429 11 12.9199 14.1906 12.1218 18.5799C11.721 20.7844 12.1357 23.0594 13.2884 24.9807L14.5749 27.1249C15.5074 28.679 16 30.4574 16 32.2698V42.3579C16 45.01 14.9464 47.5536 13.0711 49.4289L11.9137 50.5863C11.6383 50.8617 11.3843 51.1577 11.154 51.4718C8.42246 55.1966 9.58932 60.4741 13.6366 62.7001L14.16 62.988C15.3671 63.6519 16.7223 64 18.0999 64H127.5C133.023 64 137.5 59.5228 137.5 54V52.9783C137.5 51.6721 137.244 50.3785 136.747 49.1708L135.142 45.2727C134.397 43.464 134.199 41.4766 134.572 39.5565L137.5 24.5L139.207 18.2419C139.982 15.4003 138.881 12.3788 136.459 10.7023C134.889 9.61564 132.942 9.22282 131.074 9.61611L125.519 10.7855C124.841 10.9281 124.151 11 123.459 11Z" stroke="black" stroke-width="2" shape-rendering="crispEdges"/>
</g>
<path d="M18.54 16.6626C16.8253 17.5199 16.1996 19.4493 16.0428 21.0282C15.9369 22.095 16.3067 23.3173 17.3364 23.6155C17.8745 23.7714 18.4069 23.6941 18.8416 23.535C19.3257 23.3578 19.6167 22.8943 19.7583 22.3987C20.1645 20.9769 21.8483 20.2316 23.317 20.0595C23.8247 20 24.3977 19.8767 25.04 19.6626C27.0988 18.9763 26.3613 17.7504 25.4788 16.9949C25.2004 16.7566 24.8723 16.5843 24.5242 16.4698C23.1483 16.0173 20.64 15.6126 18.54 16.6626Z" fill="#B34840"/>
<path d="M130.134 20.0169C132.499 20.147 134.346 18.5593 135.447 17.1047C136.118 16.2182 136.415 15.0041 135.7 14.197C135.22 13.6541 134.553 13.3966 133.95 13.2995C133.341 13.2016 132.747 13.4909 132.287 13.8989C131.01 15.0315 128.907 14.8551 127.352 14.2079C126.759 13.9612 126.043 13.7415 125.177 13.579C122.56 13.0881 122.658 14.7549 123.155 15.9707C123.285 16.2896 123.482 16.5772 123.723 16.8306C124.853 18.0184 127.26 19.8587 130.134 20.0169Z" fill="#B34840"/>
<path d="M82.507 16H39.507C32.307 18.8 37.8404 21.5 41.507 22.5H84.507C90.107 20.9 85.507 17.5 82.507 16Z" fill="#B34840"/>
<path d="M82.507 15H39.507C32.307 17.8 37.8404 20.5 41.507 21.5H84.507C90.107 19.9 85.507 16.5 82.507 15Z" fill="#FF8676"/>
<path d="M18.54 15.6626C16.8026 16.5313 16.1832 18.5006 16.0368 20.0908C15.9423 21.1174 16.2951 22.2811 17.2764 22.5972C17.8276 22.7747 18.3765 22.702 18.8243 22.5413C19.3142 22.3654 19.5814 21.8731 19.655 21.3579C19.8444 20.0319 21.3646 19.1516 22.703 19.098C23.3999 19.0701 24.1908 18.9457 25.04 18.6626C27.0988 17.9763 26.3613 16.7504 25.4788 15.9949C25.2004 15.7566 24.8723 15.5843 24.5242 15.4698C23.1483 15.0173 20.64 14.6126 18.54 15.6626Z" fill="#FF8676"/>
<path d="M129.534 20.9702C131.899 21.1004 133.746 19.5127 134.847 18.0581C135.518 17.1716 135.814 15.9574 135.1 15.1504C134.625 14.6133 133.967 14.3556 133.369 14.2561C132.757 14.1544 132.171 14.4857 131.773 14.9514C130.78 16.1108 128.762 16.1522 127.411 15.4738C126.643 15.0883 125.698 14.7428 124.577 14.5324C121.96 14.0415 122.058 15.7083 122.555 16.9241C122.685 17.2429 122.882 17.5306 123.123 17.7839C124.253 18.9718 126.66 20.812 129.534 20.9702Z" fill="#FF8676"/>
<path d="M121.809 32.0001L84 11.5C87.4852 14.0328 93.0651 21.0949 102.309 27C110.785 32.4145 119.967 33.4098 125.538 33.9727C125.717 33.9908 125.895 33.9599 126.058 33.8837L131.371 31.4045C132.14 31.0457 132.14 29.9527 131.372 29.5928L130.331 29.105C130.04 28.9691 129.702 28.9803 129.423 29.138C126.839 30.5992 124.966 31.8858 121.809 32.0001Z" fill="#62323E" fill-opacity="0.5"/>
<defs>
<filter id="filter0_d_149_1062" x="0.671387" y="0.467041" width="147.781" height="72.533" filterUnits="userSpaceOnUse" color-interpolation-filters="sRGB">
<feFlood flood-opacity="0" result="BackgroundImageFix"/>
<feColorMatrix in="SourceAlpha" type="matrix" values="0 0 0 0 0 0 0 0 0 0 0 0 0 0 0 0 0 0 127 0" result="hardAlpha"/>
<feOffset/>
<feGaussianBlur stdDeviation="4"/>
<feComposite in2="hardAlpha" operator="out"/>
<feColorMatrix type="matrix" values="0 0 0 0 0 0 0 0 0 0 0 0 0 0 0 0 0 0 1 0"/>
<feBlend mode="normal" in2="BackgroundImageFix" result="effect1_dropShadow_149_1062"/>
<feBlend mode="normal" in="SourceGraphic" in2="effect1_dropShadow_149_1062" result="shape"/>
</filter>
<filter id="filter1_d_149_1062" x="0.671387" y="0.467041" width="147.781" height="72.533" filterUnits="userSpaceOnUse" color-interpolation-filters="sRGB">
<feFlood flood-opacity="0" result="BackgroundImageFix"/>
<feColorMatrix in="SourceAlpha" type="matrix" values="0 0 0 0 0 0 0 0 0 0 0 0 0 0 0 0 0 0 127 0" result="hardAlpha"/>
<feOffset/>
<feGaussianBlur stdDeviation="4"/>
<feComposite in2="hardAlpha" operator="out"/>
<feColorMatrix type="matrix" values="0 0 0 0 0 0 0 0 0 0 0 0 0 0 0 0 0 0 1 0"/>
<feBlend mode="normal" in2="BackgroundImageFix" result="effect1_dropShadow_149_1062"/>
<feBlend mode="normal" in="SourceGraphic" in2="effect1_dropShadow_149_1062" result="shape"/>
</filter>
</defs>
</svg>
