<svg width="392" height="34" viewBox="0 0 392 34" fill="none" xmlns="http://www.w3.org/2000/svg">
<path d="M33.672 29.2V34H0.0720001V0.399998H33.672V5.2H9.672V14.8H28.872V19.6H9.672V29.2H33.672ZM73.422 0.399998V34H63.822V29.2H59.022V24.4H54.222V19.6H49.422V34H39.822V0.399998H49.422V5.2H54.222V10H59.022V14.8H63.822V0.399998H73.422ZM110.772 0.399998V5.2H101.172V34H91.572V5.2H81.972V0.399998H110.772ZM152.922 29.2V34H119.322V0.399998H152.922V5.2H128.922V14.8H148.122V19.6H128.922V29.2H152.922ZM192.672 29.2V34H178.272V29.2H173.472V24.4H168.672V34H159.072V0.399998H187.872V5.2H192.672V19.6H183.072V24.4H187.872V29.2H192.672ZM178.272 14.8H183.072V5.2H168.672V19.6H178.272V14.8ZM272.172 24.4V29.2H267.372V34H248.172V29.2H243.372V24.4H238.572V10H243.372V5.2H248.172V0.399998H267.372V5.2H272.172V10H262.572V5.2H252.972V10H248.172V24.4H252.972V29.2H262.572V24.4H272.172ZM311.922 5.2V29.2H307.122V34H283.122V29.2H278.322V5.2H283.122V0.399998H307.122V5.2H311.922ZM287.922 29.2H302.322V5.2H287.922V29.2ZM351.672 10V24.4H346.872V29.2H342.072V34H318.072V0.399998H342.072V5.2H346.872V10H351.672ZM337.272 24.4H342.072V10H337.272V5.2H327.672V29.2H337.272V24.4ZM391.422 29.2V34H357.822V0.399998H391.422V5.2H367.422V14.8H386.622V19.6H367.422V29.2H391.422Z" fill="#1F2B17"/>
</svg>
