<svg width="486" height="122" viewBox="0 0 486 122" fill="none" xmlns="http://www.w3.org/2000/svg">
<rect width="486" height="122" rx="24" fill="#1F2B17"/>
<path d="M100.797 46.4V75.2H95.997V80H71.997V75.2H67.197V70.4H76.797V75.2H91.197V46.4H100.797ZM140.547 51.2V75.2H135.747V80H111.747V75.2H106.947V51.2H111.747V46.4H135.747V51.2H140.547ZM116.547 75.2H130.947V51.2H116.547V75.2ZM177.897 46.4V51.2H168.297V75.2H177.897V80H149.097V75.2H158.697V51.2H149.097V46.4H177.897ZM220.047 46.4V80H210.447V75.2H205.647V70.4H200.847V65.6H196.047V80H186.447V46.4H196.047V51.2H200.847V56H205.647V60.8H210.447V46.4H220.047ZM299.547 75.2V80H285.147V75.2H280.347V70.4H275.547V80H265.947V46.4H294.747V51.2H299.547V65.6H289.947V70.4H294.747V75.2H299.547ZM285.147 60.8H289.947V51.2H275.547V65.6H285.147V60.8ZM339.297 51.2V75.2H334.497V80H310.497V75.2H305.697V51.2H310.497V46.4H334.497V51.2H339.297ZM315.297 75.2H329.697V51.2H315.297V75.2ZM379.047 51.2V75.2H374.247V80H350.247V75.2H345.447V51.2H350.247V46.4H374.247V51.2H379.047ZM355.047 75.2H369.447V51.2H355.047V75.2ZM418.797 46.4V80H409.197V65.6H404.397V70.4H399.597V65.6H394.797V80H385.197V46.4H394.797V51.2H399.597V56H404.397V51.2H409.197V46.4H418.797Z" fill="#819EA2"/>
</svg>
