<svg width="335" height="87" viewBox="0 0 335 87" fill="none" xmlns="http://www.w3.org/2000/svg">
<rect y="0.587891" width="335" height="86" rx="16.8443" fill="#1F2B17"/>
<path d="M72.698 34.1879V53.3879H69.498V56.5879H53.498V53.3879H50.298V50.1879H56.698V53.3879H66.298V34.1879H72.698ZM99.198 37.3879V53.3879H95.998V56.5879H79.998V53.3879H76.798V37.3879H79.998V34.1879H95.998V37.3879H99.198ZM83.198 53.3879H92.798V37.3879H83.198V53.3879ZM124.098 34.1879V37.3879H117.698V53.3879H124.098V56.5879H104.898V53.3879H111.298V37.3879H104.898V34.1879H124.098ZM152.198 34.1879V56.5879H145.798V53.3879H142.598V50.1879H139.398V46.9879H136.198V56.5879H129.798V34.1879H136.198V37.3879H139.398V40.5879H142.598V43.7879H145.798V34.1879H152.198ZM205.198 53.3879V56.5879H195.598V53.3879H192.398V50.1879H189.198V56.5879H182.798V34.1879H201.998V37.3879H205.198V46.9879H198.798V50.1879H201.998V53.3879H205.198ZM195.598 43.7879H198.798V37.3879H189.198V46.9879H195.598V43.7879ZM231.698 37.3879V53.3879H228.498V56.5879H212.498V53.3879H209.298V37.3879H212.498V34.1879H228.498V37.3879H231.698ZM215.698 53.3879H225.298V37.3879H215.698V53.3879ZM258.198 37.3879V53.3879H254.998V56.5879H238.998V53.3879H235.798V37.3879H238.998V34.1879H254.998V37.3879H258.198ZM242.198 53.3879H251.798V37.3879H242.198V53.3879ZM284.698 34.1879V56.5879H278.298V46.9879H275.098V50.1879H271.898V46.9879H268.698V56.5879H262.298V34.1879H268.698V37.3879H271.898V40.5879H275.098V37.3879H278.298V34.1879H284.698Z" fill="#819EA2"/>
</svg>
