<svg width="661" height="784" viewBox="0 0 661 784" fill="none" xmlns="http://www.w3.org/2000/svg">
<path d="M423.796 631.173L419.207 499.753L418.648 483.763L177.638 487.676C168.002 486.812 168.104 501.184 169.359 508.478L201.6 629.426C214.095 643.399 277.662 639.444 307.884 635.721L276.208 545.271L310.365 635.134C335.378 652.271 396.408 639.634 423.796 631.173Z" fill="#88B9B6" stroke="black" stroke-width="4"/>
<path d="M320.557 608.191L342.05 621.95" stroke="black"/>
<path d="M325.99 620.51C330.42 623.19 339.696 629.037 341.365 630.98" stroke="black"/>
<path d="M259.834 524.593C261.575 528.617 267.87 538.322 279.122 544.951" stroke="black" stroke-width="2"/>
<path d="M248.896 533.218C257.998 540.738 282.881 552.243 309.604 538.102" stroke="black" stroke-width="4"/>
<path d="M417.994 518.736L411.165 523.753L414.942 631.912L421.868 629.669L418.177 523.973L417.994 518.736Z" fill="#C3E2D2"/>
<path d="M180.498 523.028C182.315 517.761 183.415 496.743 184.221 486.375L208.952 535.542L187.244 544.305C184.238 539.407 178.68 528.294 180.498 523.028Z" fill="#88B9B6" stroke="#88B9B6" stroke-width="2"/>
<path d="M378.129 537.64C379.934 541.579 385.957 549.774 395.607 551.038" stroke="black"/>
<path d="M366.217 526.048C370.354 529.906 382.226 537.496 396.617 536.994" stroke="black"/>
<path d="M214.221 600.397C217.548 604.951 226.719 614.47 236.783 616.12" stroke="black"/>
<path d="M217.346 618.3C217.743 620.12 220.143 623.906 226.567 624.482" stroke="black"/>
<path d="M410.656 523.495L414.53 634.427" stroke="black"/>
<path d="M185.616 101.538C174.94 105.58 72.0995 123.382 20.6847 132.002C19.7669 132.156 18.8951 132.416 18.0918 132.886C-4.58517 146.149 3.03408 213.098 10.1965 247.547C10.5071 249.041 11.1661 250.428 12.1311 251.609C55.0309 304.145 127.186 317.173 166.611 317.384C172.352 317.415 177.193 321.934 177.234 327.675L177.309 338.066C177.325 340.355 178.125 342.602 179.654 344.306C230.494 400.969 343.06 364.583 398.551 336.678C401.798 335.046 403.834 331.754 403.894 328.12C404.34 301.016 404.614 242.644 402.716 184.487C401.233 139.078 392.505 114.172 384.876 102.372C381.589 97.2868 380.147 89.759 383.373 84.6344C401.108 56.4659 421.639 12.1863 395.928 4.53087C368.605 -3.60446 352.971 43.6809 347.731 72.2466C347.24 74.9214 344.722 76.8993 342.003 76.9187C338.667 76.9426 336.291 74.0456 336.603 70.7241C339.333 41.6934 339.206 -4.37504 319.919 3.57494C300.526 11.5684 304.614 50.6084 309.846 72.7813C310.369 74.9961 308.721 77.1569 306.445 77.1732C300.942 76.7125 199.08 96.4419 185.616 101.538Z" fill="#A28342" stroke="black" stroke-width="4"/>
<path d="M317.794 265.597C317.496 270.599 320.806 281.176 336.422 283.464" stroke="black" stroke-width="4"/>
<path d="M234.584 306.693C257.729 303.527 307.69 293.17 322.375 277.064" stroke="black" stroke-width="4"/>
<path d="M249.006 327.577C262.542 327.422 291.562 325.239 299.351 317.747" stroke="black" stroke-width="4"/>
<path d="M206.533 120.852C217.95 118.131 243.434 114.254 254.035 120.512C245.712 113.006 224.559 102.566 206.533 120.852Z" fill="black"/>
<path d="M280.156 111.564C291.803 110.116 326.321 111.567 336.169 118.953C328.723 110.577 301.699 93.101 280.156 111.564Z" fill="black"/>
<ellipse cx="232.979" cy="139.659" rx="18.1655" ry="14.0497" transform="rotate(-2.72719 232.979 139.659)" fill="#FFFBDC"/>
<ellipse cx="240.981" cy="139.209" rx="7.46573" ry="8.91285" transform="rotate(-2.72719 240.981 139.209)" fill="#100A00"/>
<path d="M250.375 131.822C243.936 130.011 221.829 131.417 211.58 132.346L217.071 127.232L223.505 123.397L248.698 124.402L250.375 131.822Z" fill="#A28342"/>
<path d="M223.464 122.517C219.174 125.074 210.625 130.804 210.742 133.269C222.982 130.921 248.698 128.108 253.644 135.636" stroke="black" stroke-width="1.76252"/>
<ellipse cx="309.38" cy="137.888" rx="21.5909" ry="15.4221" transform="rotate(-2.72719 309.38 137.888)" fill="#FFFBDC"/>
<ellipse cx="318.512" cy="136.01" rx="7.46573" ry="8.91285" transform="rotate(-2.72719 318.512 136.01)" fill="#100A00"/>
<path d="M327.309 128.498C320.949 126.429 298.803 126.94 288.525 127.454L294.218 122.566L300.802 118.994L325.933 121.017L327.309 128.498Z" fill="#A28342"/>
<path d="M300.795 118.112C296.405 120.494 287.631 125.874 287.649 128.341C299.973 126.491 325.782 124.72 330.42 132.442" stroke="black" stroke-width="1.76252"/>
<path d="M124.005 225.982C123.613 171.184 112.664 131.728 107.243 119.6C55.7805 124.968 30.6892 126.419 17.3567 135.743C5.98413 143.697 5.95864 155.579 5.56091 164.328C5.62412 173.162 4.19261 182.739 4.43305 216.338C4.52201 228.77 8.28493 245.789 17.7333 258.244C33.8201 279.449 61.0013 294.105 75.5252 298.831C115.124 298.548 124.345 250.147 124.005 225.982Z" fill="#010101" stroke="black"/>
<path d="M361.99 83.2757C364.9 70.5879 373.209 43.8944 383.171 38.623" stroke="black" stroke-width="4"/>
<g filter="url(#filter0_f_60_2867)">
<ellipse cx="153.303" cy="127.771" rx="36" ry="16" transform="rotate(-8.27604 153.303 127.771)" fill="#B57941"/>
</g>
<g filter="url(#filter1_f_60_2867)">
<ellipse cx="345.668" cy="263.393" rx="29.3364" ry="20.8904" transform="rotate(52.3175 345.668 263.393)" fill="#B57941"/>
</g>
<path d="M404.769 344.11L181.946 367.4C175.466 368.078 154.5 412.386 153.914 452.931C153.446 485.367 180.426 514.877 193.974 525.577L195.681 488.495L197.749 490.424C219.537 506.873 325.678 500.465 376.025 495.205C376.188 514.211 407.913 520.107 415.943 520.827C423.973 521.548 466.773 515.05 464.382 446.592C462.47 391.825 423.843 355.451 404.769 344.11Z" fill="#A5A7A6"/>
<path d="M404.5 324.106C321.153 378.648 218.915 363.107 178.215 348.518L178.703 362.51C287.239 410.351 374.842 367.835 405.076 340.596L404.5 324.106Z" fill="#9DA3A3" stroke="black" stroke-width="4"/>
<path d="M194.432 354.456L194.955 369.447" stroke="black" stroke-width="4"/>
<path d="M208.562 357.965L209.086 372.956" stroke="black" stroke-width="4"/>
<path d="M222.658 360.475L223.286 378.464" stroke="black" stroke-width="4"/>
<path d="M236.615 358.986L237.348 379.974" stroke="black" stroke-width="4"/>
<path d="M250.781 363.495L251.479 383.483" stroke="black" stroke-width="4"/>
<path d="M264.738 362.007L265.471 382.994" stroke="black" stroke-width="4"/>
<path d="M278.766 362.518L279.464 382.505" stroke="black" stroke-width="4"/>
<path d="M292.721 361.029L293.454 382.017" stroke="black" stroke-width="4"/>
<path d="M306.713 360.541L307.446 381.528" stroke="black" stroke-width="4"/>
<path d="M320.635 358.054L321.368 379.041" stroke="black" stroke-width="4"/>
<path d="M348.338 349.081L349.141 372.067" stroke="black" stroke-width="4"/>
<path d="M334.521 354.567L335.219 374.555" stroke="black" stroke-width="4"/>
<path d="M362.26 346.594L362.993 367.581" stroke="black" stroke-width="4"/>
<path d="M376.076 341.108L376.704 359.097" stroke="black" stroke-width="4"/>
<path d="M389.822 333.624L390.45 351.613" stroke="black" stroke-width="4"/>
<path d="M413.166 451.882L421.161 451.603" stroke="black" stroke-width="4"/>
<path d="M404.33 342.123C423.638 350.621 462.859 384.907 465.274 454.065C468.285 540.286 376.44 518.336 377.764 498.799C377.771 498.697 377.773 498.594 377.767 498.492C377.652 496.537 377.598 494.218 377.635 491.646M398.765 383.343C393.735 387.354 383.185 398.496 381.219 410.972C379.399 422.519 386.622 436.066 391.307 442.653C391.902 443.49 391.809 444.636 391.112 445.391C380.696 456.668 377.837 477.814 377.635 491.646M377.635 491.646C332.274 497.399 233.193 504.495 199.756 486.851C192.11 482.782 177.289 468.124 179.18 442.042C181.071 415.96 181.896 400.422 182.072 395.913M180.973 364.432C160.852 389.983 132.824 455.568 181.675 513.498L190.894 522.811C192.123 524.052 194.241 523.233 194.314 521.488L195.759 486.991" stroke="black" stroke-width="4"/>
<path d="M412.125 436.409C414.17 437.672 419.883 437.939 426.372 428.907" stroke="black" stroke-width="4"/>
<path d="M195.059 487.016C195.278 487.184 195.501 487.353 195.729 487.523C216.45 502.233 324.056 496.486 375.833 491.71C286.378 529.317 218.996 504.888 195.729 487.523C195.494 487.357 195.271 487.188 195.059 487.016Z" fill="#A5A7A6"/>
<path d="M195.059 487.016C217.679 504.403 285.503 529.685 375.833 491.71C323.469 496.54 214.006 502.364 195.059 487.016Z" stroke="black" stroke-width="4"/>
<path d="M219 493.516L219 498.516" stroke="black" stroke-width="4"/>
<path d="M230.5 494.016L231.5 505.016M252.5 496.516L251.5 508.016M268 496.516V510.016M290 497.516V510.016M309 496.516V508.016M329.5 496.516V505.016" stroke="black" stroke-width="4"/>
<path d="M160.5 441.014C164.167 438.848 171.9 436.614 173.5 445.014" stroke="black" stroke-width="2"/>
<path d="M369.5 518.516L370.5 505.516C379.3 518.316 408.5 520.016 422.5 518.516L403.5 531.516L389.67 529.388C385.938 528.814 382.386 527.402 379.278 525.259L369.5 518.516Z" fill="#637373" stroke="black" stroke-width="4"/>
<path d="M219.094 737.516C188.294 739.516 169.927 725.016 164.594 717.516L279.094 709.516V731.016L219.094 737.516Z" fill="#D9D9D9" stroke="black" stroke-width="4"/>
<path d="M155.094 693.374C155.094 655.774 191.094 650.374 209.094 652.374L296.594 657.875L311.094 667.875V716.375L277.094 723.875L233.594 729.875C207.427 733.374 155.094 730.974 155.094 693.374Z" fill="#90433B" stroke="black" stroke-width="4"/>
<path d="M213.094 673.516C219.927 676.849 233.894 685.216 235.094 692.016" stroke="black" stroke-width="4"/>
<path d="M237.594 724.516C231.594 695.316 196.094 667.682 179.094 657.516L160.594 670.016C155.427 679.182 149.194 701.516 165.594 717.516C181.994 733.516 221.427 731.516 239.094 728.516L237.594 724.516Z" fill="#E0D4BC"/>
<path d="M235.094 673.516C241.927 676.849 255.894 685.216 257.094 692.016" stroke="black" stroke-width="4"/>
<path d="M155.094 693.374C155.094 655.774 191.094 650.374 209.094 652.374L296.594 657.875L311.094 667.875V716.375L277.094 723.875L233.594 729.875C207.427 733.374 155.094 730.974 155.094 693.374Z" stroke="black" stroke-width="4"/>
<path d="M204.304 670.133C201.857 658.41 197.722 637.875 196.467 629.099C196.244 627.544 197.831 626.551 199.257 627.212C220.435 637.033 271.484 635.151 297.197 632.702C298.266 632.6 299.213 633.356 299.363 634.419L305.307 676.484C305.464 677.598 304.673 678.623 303.552 678.716C281.797 680.506 230.762 674.958 205.976 671.699C205.135 671.588 204.478 670.963 204.304 670.133Z" fill="#A9D5BC" stroke="black" stroke-width="4"/>
<path d="M179.594 657.516C197.927 669.516 235.494 700.616 239.094 729.016" stroke="black" stroke-width="4"/>
<path d="M192.094 654.016L203.094 666.016" stroke="black" stroke-width="4"/>
<path d="M402.094 733.016C347.294 779.416 293.26 768.349 273.094 757.016L277.094 769.016C337.494 798.616 384.26 766.682 402.094 746.516V733.016Z" fill="#F9FFF1" stroke="black" stroke-width="4"/>
<path d="M269.313 759.016C261.313 712.616 294.646 695.016 312.313 692.016L314.312 680.516L402.312 679.016V739.016C375.312 761.516 355.312 776.516 315.812 778.516C284.212 780.116 271.646 766.182 269.313 759.016Z" fill="#90433B" stroke="black" stroke-width="4"/>
<path d="M311.594 693.516C326.094 693.016 356.294 693.816 361.094 701.016" stroke="black" stroke-width="4"/>
<path d="M369.594 762.516C369.594 728.916 303.927 710.682 281.093 710.516C266.093 732.016 268.289 734.016 271.593 757.016C275.111 781.503 321.094 784.516 369.594 762.516Z" fill="#E0D4BC"/>
<path d="M280.094 710.016C308.427 713.682 367.394 729.316 370.594 762.516" stroke="black" stroke-width="4"/>
<path d="M292.594 701.516C314.427 703.682 360.094 712.416 368.094 730.016" stroke="black" stroke-width="4"/>
<path d="M269.313 759.016C261.313 712.616 294.646 695.016 312.313 692.016L314.312 680.516L402.312 679.016V739.016C375.312 761.516 355.312 776.516 315.812 778.516C284.212 780.116 271.646 766.182 269.313 759.016Z" stroke="black" stroke-width="4"/>
<path d="M308.594 681.016C303.487 677.732 297.16 649.803 293.936 632.649C293.61 630.914 295.573 629.584 297.15 630.378C325.106 644.444 389.408 638.147 422.086 632.545C423.508 632.301 424.718 633.589 424.383 634.993L414.751 675.356C414.649 675.784 414.451 676.149 414.07 676.37C403.282 682.623 315.465 685.433 308.594 681.016Z" fill="#A1C6B4" stroke="black" stroke-width="4"/>
<path d="M182 519.016C184 513.816 185.833 492.849 187 482.516L210 532.516L188 540.516C185.166 535.516 180 524.216 182 519.016Z" fill="#88B9B6" stroke="#88B9B6" stroke-width="2"/>
<defs>
<filter id="filter0_f_60_2867" x="103.802" y="97.3064" width="99.0023" height="60.9286" filterUnits="userSpaceOnUse" color-interpolation-filters="sRGB">
<feFlood flood-opacity="0" result="BackgroundImageFix"/>
<feBlend mode="normal" in="SourceGraphic" in2="BackgroundImageFix" result="shape"/>
<feGaussianBlur stdDeviation="6.9" result="effect1_foregroundBlur_60_2867"/>
</filter>
<filter id="filter1_f_60_2867" x="307.477" y="223.091" width="76.3813" height="80.6044" filterUnits="userSpaceOnUse" color-interpolation-filters="sRGB">
<feFlood flood-opacity="0" result="BackgroundImageFix"/>
<feBlend mode="normal" in="SourceGraphic" in2="BackgroundImageFix" result="shape"/>
<feGaussianBlur stdDeviation="6.9" result="effect1_foregroundBlur_60_2867"/>
</filter>
</defs>
</svg>
