<svg width="661" height="787" viewBox="0 0 661 787" fill="none" xmlns="http://www.w3.org/2000/svg">
<path d="M421.888 636.623L417.34 505.233L416.786 489.247L176.846 493.198C167.253 492.335 167.352 506.704 168.601 513.996L200.679 634.912C213.117 648.879 276.402 644.916 306.49 641.188L274.969 550.764L308.96 640.601C333.86 657.73 394.62 645.086 421.888 636.623Z" fill="#88B9B6" stroke="black" stroke-width="4"/>
<path d="M319.115 613.679L340.511 627.431" stroke="black"/>
<path d="M324.523 625.996C328.933 628.675 338.167 634.519 339.828 636.461" stroke="black"/>
<path d="M258.667 530.078C260.399 534.102 266.666 543.806 277.868 550.434" stroke="black" stroke-width="2"/>
<path d="M247.779 538.71C256.838 546.224 281.608 557.718 308.212 543.582" stroke="black" stroke-width="4"/>
<path d="M416.122 524.221L409.312 529.239L413.061 637.396L419.967 635.152L416.303 529.458L416.122 524.221Z" fill="#C3E2D2"/>
<path d="M179.688 528.514C181.498 523.247 182.597 502.231 183.401 491.864L208.019 541.023L186.403 549.789C183.41 544.892 177.877 533.78 179.688 528.514Z" fill="#88B9B6" stroke="#88B9B6" stroke-width="2"/>
<path d="M376.426 543.126C378.222 547.065 384.218 555.257 393.825 556.519" stroke="black"/>
<path d="M364.568 531.537C368.686 535.393 380.504 542.979 394.831 542.474" stroke="black"/>
<path d="M213.262 605.886C216.574 610.438 225.703 619.953 235.722 621.601" stroke="black"/>
<path d="M216.373 623.785C216.768 625.605 219.157 629.389 225.553 629.964" stroke="black"/>
<path d="M408.805 528.98L412.661 639.913" stroke="black"/>
<path d="M181.774 107.813C171.291 112.225 69.5909 133.618 18.7266 144.036C17.8117 144.224 16.9468 144.516 16.1587 145.017C-5.93772 159.077 3.95797 225.699 12.2745 259.863C12.6343 261.342 13.3371 262.702 14.3373 263.848C58.8202 314.816 131.025 325.314 170.273 324.152C176.012 323.982 181.009 328.329 181.249 334.066L181.682 344.451C181.777 346.731 182.649 348.944 184.227 350.591C236.769 405.425 347.511 365.127 401.765 335.297C404.945 333.549 406.861 330.191 406.795 326.563C406.302 299.469 404.557 241.128 400.658 183.078C397.613 137.738 388.061 113.157 380.06 101.641C376.615 96.6809 374.918 89.2343 377.949 84.0061C394.625 55.2391 413.54 10.2541 387.685 3.50522C360.213 -3.66627 346.29 44.1482 342.067 72.8729C341.672 75.5535 339.234 77.6117 336.527 77.7266C333.21 77.8675 330.746 75.0698 330.942 71.7548C332.658 42.6534 330.945 -3.40632 312.022 5.21671C292.998 13.8863 298.422 52.7688 304.395 74.7372C304.99 76.9241 303.424 79.1321 301.159 79.2282C295.667 78.961 194.995 102.248 181.774 107.813Z" fill="#A28342" stroke="black" stroke-width="4"/>
<path d="M318.956 267.144C318.832 272.151 322.489 282.601 338.109 284.337" stroke="black" stroke-width="4"/>
<path d="M237.594 311.112C260.514 307.136 309.867 295.035 323.924 278.438" stroke="black" stroke-width="4"/>
<path d="M252.675 331.48C266.136 330.849 294.931 327.649 302.423 319.899" stroke="black" stroke-width="4"/>
<path d="M203.236 126.364C214.502 123.246 239.723 118.48 250.486 124.352C241.947 117.154 220.543 107.48 203.236 126.364Z" fill="black"/>
<path d="M276.163 114.526C287.699 112.665 322.088 112.899 332.14 119.942C324.443 111.823 296.959 95.2901 276.163 114.526Z" fill="black"/>
<ellipse cx="18.0996" cy="14.0295" rx="18.0996" ry="14.0295" transform="matrix(0.996517 -0.0837618 0.0810841 0.99668 211.029 131.769)" fill="#FFFBDC"/>
<ellipse cx="7.44173" cy="8.904" rx="7.44173" ry="8.904" transform="matrix(0.996516 -0.0837647 0.0810814 0.99668 230.01 135.255)" fill="#100A00"/>
<path d="M247.238 135.765C240.77 134.192 218.82 136.386 208.653 137.679L213.944 132.388L220.218 128.336L245.32 128.434L247.238 135.765Z" fill="#A28342"/>
<path d="M220.146 127.462C215.964 130.165 207.648 136.184 207.848 138.637C219.95 135.857 245.447 132.13 250.623 139.457" stroke="black" stroke-width="1.76252"/>
<ellipse cx="21.5056" cy="15.4056" rx="21.5056" ry="15.4056" transform="matrix(0.996554 -0.0834699 0.0813693 0.996643 283.463 126.24)" fill="#FFFBDC"/>
<ellipse cx="7.4387" cy="8.90675" rx="7.4387" ry="8.90675" transform="matrix(0.996553 -0.0834743 0.0813651 0.996643 307.029 129.348)" fill="#100A00"/>
<path d="M323.657 129.768C317.258 127.93 295.24 129.225 285.031 130.102L290.529 125.026L296.958 121.231L322.033 122.357L323.657 129.768Z" fill="#A28342"/>
<path d="M296.924 120.353C292.637 122.884 284.09 128.563 284.191 131.024C296.392 128.741 322.013 126.058 326.892 133.597" stroke="black" stroke-width="1.76252"/>
<path d="M124.802 234.297C122.518 179.552 110.258 140.509 104.445 128.58C53.419 135.75 28.5003 138.081 15.555 147.866C4.51285 156.212 4.89816 168.087 4.80475 176.844C5.17294 185.668 4.07941 195.289 5.4799 228.855C5.99809 241.275 10.3309 258.15 20.1635 270.263C36.9048 290.889 64.4598 304.58 79.0762 308.794C118.472 307.121 125.975 258.432 124.802 234.297Z" fill="#010101" stroke="black"/>
<path d="M356.585 83.3853C359.042 70.6043 366.389 43.6379 376.122 38.0206" stroke="black" stroke-width="4"/>
<g filter="url(#filter0_f_60_2776)">
<ellipse cx="35.8436" cy="15.9931" rx="35.8436" ry="15.9931" transform="matrix(0.983846 -0.179307 0.177479 0.984072 112.422 125.824)" fill="#B57941"/>
</g>
<g filter="url(#filter1_f_60_2776)">
<ellipse cx="29.2829" cy="20.8351" rx="29.2829" ry="20.8351" transform="matrix(0.636681 0.770889 -0.768295 0.640384 343.975 228.046)" fill="#B57941"/>
</g>
<path d="M402.969 349.602L181.135 372.922C174.684 373.6 153.804 417.9 153.215 458.435C152.743 490.863 179.598 520.361 193.084 531.056L194.79 493.983L196.849 495.911C218.536 512.353 324.205 505.93 374.329 500.663C374.489 519.664 406.071 525.554 414.066 526.272C422.06 526.991 464.669 520.488 462.3 452.048C460.405 397.296 421.956 360.937 402.969 349.602Z" fill="#A5A7A6"/>
<path d="M402.694 329.591C319.704 384.1 217.928 368.605 177.414 354.044L177.896 368.021C285.932 415.78 373.155 373.282 403.262 346.063L402.694 329.591Z" fill="#9DA3A3" stroke="black" stroke-width="4"/>
<path d="M193.562 359.94L194.084 374.931" stroke="black" stroke-width="4"/>
<path d="M207.629 363.449L208.15 378.44" stroke="black" stroke-width="4"/>
<path d="M221.662 365.959L222.287 383.948" stroke="black" stroke-width="4"/>
<path d="M235.555 364.471L236.284 385.459" stroke="black" stroke-width="4"/>
<path d="M249.656 368.979L250.351 388.967" stroke="black" stroke-width="4"/>
<path d="M263.549 367.491L264.278 388.479" stroke="black" stroke-width="4"/>
<path d="M277.512 368.002L278.207 387.99" stroke="black" stroke-width="4"/>
<path d="M291.406 366.514L292.136 387.501" stroke="black" stroke-width="4"/>
<path d="M305.332 366.025L306.062 387.013" stroke="black" stroke-width="4"/>
<path d="M319.191 363.538L319.921 384.525" stroke="black" stroke-width="4"/>
<path d="M346.77 354.566L347.569 377.552" stroke="black" stroke-width="4"/>
<path d="M333.016 360.051L333.71 380.039" stroke="black" stroke-width="4"/>
<path d="M360.629 352.079L361.358 373.066" stroke="black" stroke-width="4"/>
<path d="M374.383 346.593L375.008 364.582" stroke="black" stroke-width="4"/>
<path d="M388.066 339.108L388.692 357.098" stroke="black" stroke-width="4"/>
<path d="M411.305 457.366L419.264 457.087" stroke="black" stroke-width="4"/>
<path d="M402.552 347.624C421.774 356.112 460.812 390.368 463.195 459.491C466.167 545.67 374.729 523.758 376.056 504.229C376.063 504.127 376.065 504.025 376.059 503.924C375.945 501.969 375.891 499.651 375.929 497.081M396.999 388.824C391.991 392.835 381.482 403.975 379.522 416.445C377.706 427.989 384.895 441.529 389.558 448.111C390.15 448.946 390.057 450.089 389.363 450.843C378.987 462.116 376.134 483.255 375.929 497.081M375.929 497.081C330.765 502.845 232.116 509.967 198.831 492.342C191.219 488.278 176.468 473.631 178.359 447.561C180.249 421.492 181.075 405.961 181.252 401.454M180.167 369.99C160.127 395.534 132.201 461.095 180.821 518.982L189.98 528.27C191.207 529.514 193.329 528.694 193.403 526.947L194.851 492.483" stroke="black" stroke-width="4"/>
<path d="M410.267 441.893C412.302 443.155 417.99 443.42 424.453 434.391" stroke="black" stroke-width="4"/>
<path d="M194.186 492.522C194.404 492.691 194.626 492.86 194.853 493.03C215.478 507.724 322.598 501.964 374.142 497.184C285.086 534.774 218.012 510.376 194.853 493.03C194.619 492.863 194.397 492.694 194.186 492.522Z" fill="#A5A7A6"/>
<path d="M194.186 492.522C216.701 509.892 284.214 535.142 374.142 497.184C322.014 502.018 213.045 507.855 194.186 492.522Z" stroke="black" stroke-width="4"/>
<path d="M218.02 499L218.02 504" stroke="black" stroke-width="4"/>
<path d="M229.467 499.5L230.462 510.5M251.367 502L250.371 513.5M266.797 502V515.5M288.697 503V515.5M307.611 502V513.5M328.017 502V510.5" stroke="black" stroke-width="4"/>
<path d="M159.785 446.5C163.435 444.333 171.133 442.1 172.726 450.5" stroke="black" stroke-width="2"/>
<path d="M367.836 524L368.831 511C377.591 523.8 406.659 525.5 420.595 524L401.682 537L387.958 534.879C384.215 534.301 380.652 532.879 377.539 530.722L367.836 524Z" fill="#637373" stroke="black" stroke-width="4"/>
<path d="M218.114 735C187.454 737 169.17 722.5 163.861 715L277.842 707V728.5L218.114 735Z" fill="#D9D9D9" stroke="black" stroke-width="4"/>
<path d="M154.404 690.859C154.404 653.259 190.241 647.859 208.159 649.859L295.262 655.359L309.696 665.359V713.859L275.851 721.359L232.548 727.359C206.5 730.859 154.404 728.459 154.404 690.859Z" fill="#90433B" stroke="black" stroke-width="4"/>
<path d="M212.141 671C218.943 674.333 232.846 682.7 234.041 689.5" stroke="black" stroke-width="4"/>
<path d="M236.53 722C230.557 692.8 195.218 665.167 178.295 655L159.879 667.5C154.736 676.667 148.531 699 164.857 715C181.182 731 220.436 729 238.023 726L236.53 722Z" fill="#E0D4BC"/>
<path d="M234.041 671C240.843 674.333 254.747 682.7 255.941 689.5" stroke="black" stroke-width="4"/>
<path d="M154.404 690.859C154.404 653.259 190.241 647.859 208.159 649.859L295.262 655.359L309.696 665.359V713.859L275.851 721.359L232.548 727.359C206.5 730.859 154.404 728.459 154.404 690.859Z" stroke="black" stroke-width="4"/>
<path d="M203.392 667.616C200.956 655.898 196.843 635.374 195.591 626.593C195.369 625.036 196.961 624.042 198.387 624.705C219.479 634.515 270.26 632.635 295.852 630.187C296.922 630.085 297.87 630.842 298.019 631.906L303.936 673.971C304.093 675.083 303.302 676.108 302.182 676.201C280.524 677.989 229.736 672.443 205.063 669.184C204.222 669.073 203.564 668.447 203.392 667.616Z" fill="#A9D5BC" stroke="black" stroke-width="4"/>
<path d="M178.793 655C197.043 667 234.439 698.1 238.023 726.5" stroke="black" stroke-width="4"/>
<path d="M191.236 651.5L202.186 663.5" stroke="black" stroke-width="4"/>
<path d="M400.282 730.5C345.73 776.9 291.942 765.833 271.867 754.5L275.849 766.5C335.975 796.1 382.529 764.167 400.282 744V730.5Z" fill="#F9FFF1" stroke="black" stroke-width="4"/>
<path d="M268.104 756.5C260.14 710.1 293.322 692.5 310.909 689.5L312.9 678L400.5 676.5V736.5C373.623 759 353.714 774 314.393 776C282.936 777.6 270.427 763.667 268.104 756.5Z" fill="#90433B" stroke="black" stroke-width="4"/>
<path d="M310.193 691C324.628 690.5 354.69 691.3 359.469 698.5" stroke="black" stroke-width="4"/>
<path d="M367.929 760C367.929 726.4 302.56 708.167 279.83 708C264.898 729.5 267.084 731.5 270.373 754.5C273.875 778.987 319.649 782 367.929 760Z" fill="#E0D4BC"/>
<path d="M278.836 707.5C307.041 711.167 365.74 726.8 368.925 760" stroke="black" stroke-width="4"/>
<path d="M291.279 699C313.014 701.167 358.473 709.9 366.437 727.5" stroke="black" stroke-width="4"/>
<path d="M268.104 756.5C260.14 710.1 293.322 692.5 310.909 689.5L312.9 678L400.5 676.5V736.5C373.623 759 353.714 774 314.393 776C282.936 777.6 270.427 763.667 268.104 756.5Z" stroke="black" stroke-width="4"/>
<path d="M307.207 678.5C302.124 675.217 295.827 647.298 292.618 630.143C292.293 628.406 294.26 627.077 295.837 627.873C323.675 641.924 387.647 635.632 420.171 630.032C421.593 629.787 422.804 631.073 422.471 632.477L412.882 672.841C412.781 673.268 412.584 673.634 412.204 673.855C401.461 680.108 314.047 682.917 307.207 678.5Z" fill="#A1C6B4" stroke="black" stroke-width="4"/>
<path d="M181.187 524.5C183.178 519.3 185.003 498.333 186.164 488L209.06 538L187.16 546C184.339 541 179.196 529.7 181.187 524.5Z" fill="#88B9B6" stroke="#88B9B6" stroke-width="2"/>
<defs>
<filter id="filter0_f_60_2776" x="101.345" y="104.331" width="98.3617" height="61.6093" filterUnits="userSpaceOnUse" color-interpolation-filters="sRGB">
<feFlood flood-opacity="0" result="BackgroundImageFix"/>
<feBlend mode="normal" in="SourceGraphic" in2="BackgroundImageFix" result="shape"/>
<feGaussianBlur stdDeviation="6.9" result="effect1_foregroundBlur_60_2776"/>
</filter>
<filter id="filter1_f_60_2776" x="308.237" y="223.936" width="76.7465" height="80.0526" filterUnits="userSpaceOnUse" color-interpolation-filters="sRGB">
<feFlood flood-opacity="0" result="BackgroundImageFix"/>
<feBlend mode="normal" in="SourceGraphic" in2="BackgroundImageFix" result="shape"/>
<feGaussianBlur stdDeviation="6.9" result="effect1_foregroundBlur_60_2776"/>
</filter>
</defs>
</svg>
