<svg width="2179" height="680" viewBox="0 0 2179 680" fill="none" xmlns="http://www.w3.org/2000/svg">
<path d="M1523 405.872C1523 630.026 1331.52 607.363 1066.7 607.363C801.884 607.363 564 630.026 564 405.872C564 181.717 778.679 0.00390625 1043.5 0.00390625C1308.32 0.00390625 1523 181.717 1523 405.872Z" fill="#FEF6A0"/>
<path d="M491.756 375.762C364.445 375.762 303.003 491.206 288.195 548.928V583.998H660.402C657.233 514.586 619.067 375.762 491.756 375.762Z" fill="#FFEE3D"/>
<path d="M733.814 324.949C629.447 324.949 571.454 458.37 555.504 525.081V570.593H877.366V496.713C873.002 439.458 838.182 324.949 733.814 324.949Z" fill="#FFEE3D"/>
<path d="M1004.71 218.479C918.671 238.305 877.003 407.751 866.924 489.996H1203.28C1199.96 461.265 1191.31 393.859 1183.33 354.082C1173.36 304.361 1112.26 193.696 1004.71 218.479Z" fill="#FFEE3D"/>
<ellipse cx="1609" cy="496.713" rx="195.299" ry="179.869" fill="#FFEE3D"/>
<ellipse cx="1304.91" cy="473.959" rx="252.19" ry="179.869" fill="#FFEE3D"/>
<rect x="1741.66" y="411.078" width="4.26622" height="54.8699" transform="rotate(30.129 1741.66 411.078)" fill="#988600"/>
<rect x="1759.68" y="383.055" width="4.33436" height="12.8702" transform="rotate(20.814 1759.68 383.055)" fill="#988600"/>
<rect x="1687.54" y="414.645" width="4.26622" height="53.0416" transform="rotate(-30 1687.54 414.645)" fill="#988600"/>
<rect x="1712.34" y="456.938" width="7.0926" height="48.072" fill="#988600"/>
<rect x="1731.26" y="394.484" width="64.9594" height="26.0062" rx="13.0031" fill="#988600"/>
<path d="M1731.26 406.828H1796.22C1796.22 414.373 1790.1 420.49 1782.56 420.49H1744.92C1737.38 420.49 1731.26 414.373 1731.26 406.828Z" fill="#988600"/>
<rect x="1734.02" y="342.668" width="85.7022" height="41.9645" rx="20.9823" fill="#988600"/>
<path d="M1734.02 362.59H1819.72V369.07C1819.72 377.666 1812.75 384.635 1804.15 384.635H1749.58C1740.98 384.635 1734.02 377.666 1734.02 369.07L1734.02 362.59Z" fill="#988600"/>
<rect x="1630.98" y="371.238" width="98.7053" height="42.9496" rx="21.4748" fill="#988600"/>
<path d="M1630.98 391.625H1729.68V398.623C1729.68 407.219 1722.71 414.187 1714.12 414.187H1646.54C1637.94 414.187 1630.98 407.219 1630.98 398.623L1630.98 391.625Z" fill="#988600"/>
<rect x="1657.97" y="334.785" width="89.2485" height="31.1286" rx="15.5643" fill="#988600"/>
<path d="M1657.97 349.562H1747.22V350.351C1747.22 358.947 1740.25 365.915 1731.65 365.915H1673.53C1664.94 365.915 1657.97 358.947 1657.97 350.351V349.562Z" fill="#988600"/>
<rect x="1701.12" y="311.734" width="46.1019" height="19.5046" rx="9.75232" fill="#988600"/>
<path d="M1701.12 320.992H1747.22C1747.22 326.651 1742.63 331.238 1736.97 331.238H1711.36C1705.7 331.238 1701.12 326.651 1701.12 320.992Z" fill="#988600"/>
<rect x="835.127" y="438.734" width="6.85808" height="39.2781" fill="#988505"/>
<path d="M883.133 402.574C883.133 426.419 863.105 445.749 838.399 445.749C813.694 445.749 793.666 426.419 793.666 402.574C793.666 378.729 803.953 368.907 842.14 310.613C873.469 369.219 883.133 378.729 883.133 402.574Z" fill="#988505"/>
<rect x="1537.6" y="455.078" width="6.85808" height="39.2781" fill="#988600"/>
<path d="M1585.61 418.918C1585.61 442.762 1565.58 462.092 1540.87 462.092C1516.17 462.092 1496.14 442.762 1496.14 418.918C1496.14 395.073 1506.43 385.251 1544.61 326.957C1575.94 385.562 1585.61 395.073 1585.61 418.918Z" fill="#988600"/>
<rect x="1012.96" y="425.254" width="8.10501" height="52.3708" fill="#896E1F"/>
<path d="M962.145 311.784C962.145 327.87 973.991 337.398 979.914 340.152C965.075 336.91 960.639 348.88 960.275 355.271C955.183 356.881 945 363.469 945 376.936C945 390.403 961.73 399.277 970.094 402.03C953.136 406.519 954.923 420.838 957.937 427.436C977.139 446.639 992.955 435.438 998.462 427.436C1010.93 438.908 1026.52 434.71 1032.75 431.177C1047.87 437.1 1078.11 444.644 1078.11 427.436C1078.11 410.229 1068.55 395.016 1063.77 389.561C1072.19 390.86 1089.02 389.436 1089.02 373.351C1089.02 357.266 1072.19 349.815 1063.77 348.101C1068.01 343.861 1062 338.229 1058.47 335.943C1063.15 337.346 1072.5 335.289 1072.5 315.837C1072.5 296.385 1048.08 294.639 1035.87 296.198C1034.73 289.132 1028.89 275 1014.67 275C1000.46 275 994.617 289.132 993.474 296.198C983.031 294.691 962.145 295.699 962.145 311.784Z" fill="#988505"/>
<rect x="1131.68" y="446.625" width="5.08756" height="32.8735" fill="#C7AE09"/>
<path d="M1099.78 375.398C1099.78 385.495 1107.22 391.476 1110.94 393.205C1101.62 391.17 1098.84 398.684 1098.61 402.695C1095.41 403.706 1089.02 407.841 1089.02 416.294C1089.02 424.748 1099.52 430.318 1104.77 432.046C1094.13 434.864 1095.25 443.852 1097.14 447.994C1109.2 460.047 1119.12 453.016 1122.58 447.994C1130.41 455.195 1140.19 452.56 1144.1 450.342C1153.59 454.06 1172.57 458.795 1172.57 447.994C1172.57 437.193 1166.57 427.644 1163.57 424.219C1168.86 425.035 1179.42 424.141 1179.42 414.044C1179.42 403.947 1168.86 399.271 1163.57 398.194C1166.23 395.533 1162.46 391.998 1160.25 390.563C1163.18 391.444 1169.05 390.152 1169.05 377.942C1169.05 365.732 1153.72 364.636 1146.06 365.615C1145.34 361.179 1141.68 352.309 1132.75 352.309C1123.83 352.309 1120.17 361.179 1119.45 365.615C1112.89 364.669 1099.78 365.301 1099.78 375.398Z" fill="#C7AE09"/>
<rect x="1390.78" y="449.57" width="4.98241" height="28.6793" fill="#C7AE09"/>
<path d="M1393.27 358.855L1429.18 458.22H1357.37L1393.27 358.855Z" fill="#C7AE09"/>
<rect x="120.641" y="561.867" width="1998.2" height="113.47" rx="56.7351" fill="#9F8202"/>
<path d="M747.757 495.778C736.931 495.778 737.241 495.778 724.268 495.778C711.296 495.778 717.599 495.778 700.779 495.778C700.779 482.901 711.296 472.461 724.268 472.461C737.241 472.461 747.757 482.901 747.757 495.778Z" fill="#9BAD09"/>
<path d="M791.65 495.778C780.824 495.778 781.133 495.778 768.161 495.778C755.188 495.778 761.491 495.778 744.672 495.778C744.672 482.901 755.188 472.461 768.161 472.461C781.133 472.461 791.65 482.901 791.65 495.778Z" fill="#9BAD09"/>
<path d="M835.54 495.778C824.714 495.778 825.024 495.778 812.051 495.778C799.079 495.778 805.382 495.778 788.562 495.778C788.562 482.901 799.079 472.461 812.051 472.461C825.024 472.461 835.54 482.901 835.54 495.778Z" fill="#9BAD09"/>
<path d="M879.433 495.778C868.607 495.778 868.917 495.778 855.944 495.778C842.971 495.778 849.274 495.778 832.455 495.778C832.455 482.901 842.971 472.461 855.944 472.461C868.917 472.461 879.433 482.901 879.433 495.778Z" fill="#9BAD09"/>
<path d="M923.324 495.778C912.497 495.778 912.807 495.778 899.835 495.778C886.862 495.778 893.165 495.778 876.346 495.778C876.346 482.901 886.862 472.461 899.835 472.461C912.807 472.461 923.324 482.901 923.324 495.778Z" fill="#9BAD09"/>
<path d="M967.216 495.778C956.39 495.778 956.7 495.778 943.727 495.778C930.755 495.778 937.058 495.778 920.238 495.778C920.238 482.901 930.755 472.461 943.727 472.461C956.7 472.461 967.216 482.901 967.216 495.778Z" fill="#9BAD09"/>
<path d="M1050.98 495.778C1040.15 495.778 1040.46 495.778 1027.49 495.778C1014.51 495.778 1020.82 495.778 1004 495.778C1004 482.901 1014.51 472.461 1027.49 472.461C1040.46 472.461 1050.98 482.901 1050.98 495.778Z" fill="#9BAD09"/>
<path d="M1094.87 495.778C1084.04 495.778 1084.35 495.778 1071.38 495.778C1058.41 495.778 1064.71 495.778 1047.89 495.778C1047.89 482.901 1058.41 472.461 1071.38 472.461C1084.35 472.461 1094.87 482.901 1094.87 495.778Z" fill="#9BAD09"/>
<path d="M1138.76 495.778C1127.93 495.778 1128.24 495.778 1115.27 495.778C1102.3 495.778 1108.6 495.778 1091.78 495.778C1091.78 482.901 1102.3 472.461 1115.27 472.461C1128.24 472.461 1138.76 482.901 1138.76 495.778Z" fill="#9BAD09"/>
<path d="M1182.65 495.778C1171.83 495.778 1172.14 495.778 1159.16 495.778C1146.19 495.778 1152.49 495.778 1135.67 495.778C1135.67 482.901 1146.19 472.461 1159.16 472.461C1172.14 472.461 1182.65 482.901 1182.65 495.778Z" fill="#9BAD09"/>
<path d="M1226.54 495.778C1215.72 495.778 1216.03 495.778 1203.05 495.778C1190.08 495.778 1196.38 495.778 1179.56 495.778C1179.56 482.901 1190.08 472.461 1203.05 472.461C1216.03 472.461 1226.54 482.901 1226.54 495.778Z" fill="#9BAD09"/>
<path d="M1270.43 495.778C1259.61 495.778 1259.92 495.778 1246.95 495.778C1233.97 495.778 1240.28 495.778 1223.46 495.778C1223.46 482.901 1233.97 472.461 1246.95 472.461C1259.92 472.461 1270.43 482.901 1270.43 495.778Z" fill="#9BAD09"/>
<path d="M1415.2 497.025C1404.37 497.025 1404.68 497.025 1391.71 497.025C1378.74 497.025 1385.04 497.025 1368.22 497.025C1368.22 484.147 1378.74 473.707 1391.71 473.707C1404.68 473.707 1415.2 484.147 1415.2 497.025Z" fill="#9BAD09"/>
<path d="M1459.09 497.025C1448.26 497.025 1448.57 497.025 1435.6 497.025C1422.63 497.025 1428.93 497.025 1412.11 497.025C1412.11 484.147 1422.63 473.707 1435.6 473.707C1448.57 473.707 1459.09 484.147 1459.09 497.025Z" fill="#9BAD09"/>
<path d="M1502.98 497.025C1492.15 497.025 1492.46 497.025 1479.49 497.025C1466.52 497.025 1472.82 497.025 1456 497.025C1456 484.147 1466.52 473.707 1479.49 473.707C1492.46 473.707 1502.98 484.147 1502.98 497.025Z" fill="#9BAD09"/>
<path d="M1546.87 497.025C1536.05 497.025 1536.36 497.025 1523.38 497.025C1510.41 497.025 1516.71 497.025 1499.89 497.025C1499.89 484.147 1510.41 473.707 1523.38 473.707C1536.36 473.707 1546.87 484.147 1546.87 497.025Z" fill="#9BAD09"/>
<path d="M1590.76 497.025C1579.94 497.025 1580.25 497.025 1567.27 497.025C1554.3 497.025 1560.6 497.025 1543.79 497.025C1543.79 484.147 1554.3 473.707 1567.27 473.707C1580.25 473.707 1590.76 484.147 1590.76 497.025Z" fill="#9BAD09"/>
<path d="M1634.66 497.025C1623.83 497.025 1624.14 497.025 1611.17 497.025C1598.19 497.025 1604.5 497.025 1587.68 497.025C1587.68 484.147 1598.19 473.707 1611.17 473.707C1624.14 473.707 1634.66 484.147 1634.66 497.025Z" fill="#9BAD09"/>
<path d="M1678.55 497.025C1667.72 497.025 1668.03 497.025 1655.06 497.025C1642.08 497.025 1648.39 497.025 1631.57 497.025C1631.57 484.147 1642.08 473.707 1655.06 473.707C1668.03 473.707 1678.55 484.147 1678.55 497.025Z" fill="#9BAD09"/>
<path d="M1722.44 497.025C1711.61 497.025 1711.92 497.025 1698.95 497.025C1685.98 497.025 1692.28 497.025 1675.46 497.025C1675.46 484.147 1685.98 473.707 1698.95 473.707C1711.92 473.707 1722.44 484.147 1722.44 497.025Z" fill="#9BAD09"/>
<path d="M1766.33 497.025C1755.51 497.025 1755.82 497.025 1742.84 497.025C1729.87 497.025 1736.17 497.025 1719.35 497.025C1719.35 484.147 1729.87 473.707 1742.84 473.707C1755.82 473.707 1766.33 484.147 1766.33 497.025Z" fill="#9BAD09"/>
<path d="M1810.22 497.025C1799.4 497.025 1799.71 497.025 1786.73 497.025C1773.76 497.025 1780.06 497.025 1763.24 497.025C1763.24 484.147 1773.76 473.707 1786.73 473.707C1799.71 473.707 1810.22 484.147 1810.22 497.025Z" fill="#9BAD09"/>
<rect x="646.85" y="495.781" width="1213.88" height="129.68" rx="64.8401" fill="#939901"/>
<path d="M646.85 556.879H1860.73V560.62C1860.73 596.43 1831.7 625.46 1795.89 625.46H711.69C675.88 625.46 646.85 596.43 646.85 560.62V556.879Z" fill="#939901"/>
<path fill-rule="evenodd" clip-rule="evenodd" d="M123.2 657.599C116.265 660.758 108.305 662.554 99.8401 662.554C72.9355 662.554 51.125 644.41 51.125 622.029C51.125 599.648 72.9355 581.504 99.8401 581.504C120.473 581.504 138.11 592.174 145.211 607.244C147.633 606.922 150.128 606.754 152.677 606.754C175.442 606.754 193.898 620.153 193.898 636.68C193.898 653.208 175.442 666.606 152.677 666.606C141.126 666.606 130.684 663.157 123.2 657.599Z" fill="#CDCA09"/>
<path fill-rule="evenodd" clip-rule="evenodd" d="M839.107 668.189C833.565 670.713 827.203 672.148 820.439 672.148C798.939 672.148 781.51 657.649 781.51 639.764C781.51 621.878 798.939 607.379 820.439 607.379C836.928 607.379 851.022 615.906 856.697 627.949C858.632 627.692 860.626 627.557 862.663 627.557C880.856 627.557 895.604 638.264 895.604 651.472C895.604 664.68 880.856 675.387 862.663 675.387C853.432 675.387 845.088 672.63 839.107 668.189Z" fill="#CDCA09"/>
<path fill-rule="evenodd" clip-rule="evenodd" d="M1654.94 670.618C1664.9 670.618 1674.27 668.505 1682.43 664.789C1691.23 671.327 1703.51 675.385 1717.1 675.385C1743.88 675.385 1765.59 659.623 1765.59 640.18C1765.59 620.736 1743.88 604.974 1717.1 604.974C1714.1 604.974 1711.17 605.172 1708.32 605.55C1699.96 587.822 1679.22 575.27 1654.94 575.27C1630.87 575.27 1610.27 587.615 1601.78 605.11C1600.36 605.02 1598.93 604.974 1597.48 604.974C1570.7 604.974 1548.99 620.736 1548.99 640.18C1548.99 659.623 1570.7 675.385 1597.48 675.385C1610.19 675.385 1621.75 671.839 1630.39 666.035C1637.84 668.974 1646.16 670.618 1654.94 670.618Z" fill="#CDCA09"/>
<circle cx="244.398" cy="457.752" r="38.9664" fill="#9CAF00"/>
<circle cx="244.399" cy="389.481" r="23.6916" fill="#9CAF00"/>
<circle cx="244.399" cy="542.229" r="72.0099" fill="#9CAF00"/>
<mask id="mask0_126_1955" style="mask-type:alpha" maskUnits="userSpaceOnUse" x="152" y="344" width="93" height="323">
<rect width="91.6489" height="322.33" transform="matrix(-1 0 0 1 244.398 344.277)" fill="#E9861D"/>
</mask>
<g mask="url(#mask0_126_1955)">
<circle cx="38.9664" cy="38.9664" r="38.9664" transform="matrix(-1 0 0 1 283.365 418.785)" fill="#9CAF00"/>
<circle cx="23.6916" cy="23.6916" r="23.6916" transform="matrix(-1 0 0 1 268.09 365.789)" fill="#9CAF00"/>
<circle cx="72.0099" cy="72.0099" r="72.0099" transform="matrix(-1 0 0 1 316.408 470.219)" fill="#9CAF00"/>
</g>
<rect x="238.787" y="614.238" width="11.2223" height="50.5004" fill="#A0640E"/>
<rect x="1981.47" y="574.148" width="12.2822" height="79.3619" fill="#896E1F"/>
<path d="M1903.98 401.746C1903.98 426.122 1921.93 440.561 1930.91 444.734C1908.42 439.821 1901.7 457.961 1901.15 467.645C1893.43 470.086 1878 480.069 1878 500.476C1878 520.884 1903.35 534.331 1916.03 538.504C1890.33 545.306 1893.04 567.005 1897.6 577.004C1926.7 606.103 1950.67 589.129 1959.02 577.004C1977.91 594.388 2001.53 588.026 2010.98 582.673C2033.89 591.648 2079.71 603.08 2079.71 577.004C2079.71 550.928 2065.22 527.875 2057.98 519.608C2070.74 521.576 2096.25 519.419 2096.25 495.044C2096.25 470.668 2070.74 459.378 2057.98 456.78C2064.41 450.355 2055.3 441.821 2049.95 438.357C2057.04 440.482 2071.21 437.365 2071.21 407.887C2071.21 378.41 2034.2 375.765 2015.7 378.127C2013.97 367.419 2005.12 346.004 1983.58 346.004C1962.04 346.004 1953.19 367.419 1951.46 378.127C1935.63 375.843 1903.98 377.371 1903.98 401.746Z" fill="#939901"/>
<path d="M1904.47 402.199C1904.47 426.575 1922.42 441.014 1931.4 445.187C1908.91 440.274 1902.19 458.414 1901.64 468.098C1893.92 470.539 1878.49 480.522 1878.49 500.929C1878.49 521.337 1903.84 534.784 1916.52 538.957C1890.82 545.759 1893.53 567.458 1898.09 577.457C1927.19 606.556 1951.16 589.582 1959.51 577.457C1959.51 581.079 1975.88 587.482 1984.07 590.231V346.457C1962.53 346.457 1953.68 367.872 1951.95 378.58C1936.12 376.296 1904.47 377.824 1904.47 402.199Z" fill="#939901"/>
<rect x="1253.78" y="591.168" width="12.781" height="73.5685" fill="#9C6411"/>
<path d="M1339.51 523.387C1339.51 568.051 1302.04 604.258 1255.81 604.258C1209.58 604.258 1172.11 568.051 1172.11 523.387C1172.11 478.722 1191.36 460.324 1262.81 351.133C1321.43 460.908 1339.51 478.722 1339.51 523.387Z" fill="#9BAD09"/>
<path d="M1262.96 523.364C1262.96 568.056 1262.96 555.002 1262.95 603.818C1216.08 603.818 1171 580.126 1171 523.364C1171 478.672 1190.51 460.263 1262.95 351.004C1262.95 486.691 1262.96 478.672 1262.96 523.364Z" fill="#9BAD09"/>
<rect y="653.516" width="2130.99" height="25.8737" rx="12.9368" fill="#9C6411"/>
<rect x="547.025" y="516.113" width="6.75026" height="86.8184" transform="rotate(30.129 547.025 516.113)" fill="#A0640E"/>
<rect x="575.531" y="471.773" width="6.85808" height="20.3639" transform="rotate(20.814 575.531 471.773)" fill="#A0640E"/>
<rect x="461.395" y="521.758" width="6.75026" height="83.9256" transform="rotate(-30 461.395 521.758)" fill="#A0640E"/>
<rect x="500.641" y="588.672" width="11.2223" height="76.0624" fill="#A0640E"/>
<rect x="530.566" y="489.855" width="102.782" height="41.1485" rx="20.5742" fill="#9BAD09"/>
<path d="M530.566 509.387H633.349C633.349 521.325 623.671 531.003 611.733 531.003H552.182C540.244 531.003 530.566 521.325 530.566 509.387Z" fill="#9BAD09"/>
<rect x="534.932" y="407.867" width="135.603" height="66.3987" rx="33.1994" fill="#9BAD09"/>
<path d="M534.932 439.387H670.535V449.64C670.535 463.241 659.509 474.267 645.908 474.267H559.558C545.957 474.267 534.932 463.241 534.932 449.64L534.932 439.387Z" fill="#9BAD09"/>
<rect x="371.896" y="453.07" width="156.177" height="67.9574" rx="33.9787" fill="#9BAD09"/>
<path d="M371.896 485.328H528.074V496.4C528.074 510.001 517.048 521.027 503.447 521.027H396.523C382.922 521.027 371.896 510.001 371.896 496.4L371.896 485.328Z" fill="#9BAD09"/>
<rect x="414.604" y="395.398" width="141.214" height="49.2535" rx="24.6268" fill="#9BAD09"/>
<path d="M414.604 418.777H555.818V420.024C555.818 433.625 544.792 444.651 531.191 444.651H439.23C425.629 444.651 414.604 433.625 414.604 420.024L414.604 418.777Z" fill="#9BAD09"/>
<rect x="482.873" y="358.926" width="72.9451" height="30.8614" rx="15.4307" fill="#9BAD09"/>
<path d="M483 374.004H555.945C555.945 382.958 548.687 390.216 539.733 390.216H499.212C490.258 390.216 483 382.958 483 374.004Z" fill="#9BAD09"/>
<rect x="48.3184" y="165.035" width="191.091" height="45.8245" rx="22.9122" fill="#FDF5A0"/>
<rect x="105.053" y="197.457" width="191.091" height="45.8245" rx="22.9122" fill="#FDF5A0"/>
<rect x="1931.17" y="214.906" width="191.091" height="45.8245" rx="22.9122" fill="#FDF5A0"/>
<rect x="1987.91" y="247.328" width="191.091" height="45.8245" rx="22.9122" fill="#FDF5A0"/>
<path d="M1172.11 245.632C1176.85 248.874 1271.24 246.982 1317.84 245.632C1325.43 222.719 1328.38 179.046 1279.5 187.65C1230.62 196.253 1253.83 214.822 1271.55 223.031" stroke="#FEF9BF" stroke-width="7.79328"/>
<path d="M1172.11 243.241C1182.46 250.645 1388.76 246.326 1490.62 243.241C1507.2 190.915 1513.65 91.1754 1406.82 110.824C1299.99 130.473 1350.72 172.88 1389.45 191.627" stroke="#FEF9BF" stroke-width="7.79328"/>
<path d="M850.402 217.114C853.78 219.426 921.075 218.077 954.3 217.114C959.708 200.779 961.812 169.643 926.965 175.777C892.117 181.911 908.667 195.149 921.297 201.002" stroke="#FEF9BF" stroke-width="5.55604"/>
<path d="M850.402 215.412C857.785 220.691 1004.86 217.612 1077.48 215.412C1089.3 178.108 1093.9 107.001 1017.74 121.009C941.573 135.017 977.744 165.25 1005.35 178.616" stroke="#FEF9BF" stroke-width="5.55604"/>
<rect width="191.091" height="45.8245" rx="22.9122" transform="matrix(-1 0 0 1 593.535 86.7852)" fill="#FDF5A0"/>
<rect width="191.091" height="45.8245" rx="22.9122" transform="matrix(-1 0 0 1 643.725 119.207)" fill="#FDF5A0"/>
<rect width="191.091" height="45.8245" rx="22.9122" transform="matrix(-1 0 0 1 578.262 154.43)" fill="#FDF5A0"/>
<rect width="191.091" height="45.8245" rx="22.9122" transform="matrix(-1 0 0 1 1925.25 86.7852)" fill="#FDF5A0"/>
<rect width="286.793" height="45.8245" rx="22.9122" transform="matrix(-1 0 0 1 1843.89 119.207)" fill="#FDF5A0"/>
<rect width="191.091" height="45.8245" rx="22.9122" transform="matrix(-1 0 0 1 1804.3 154.43)" fill="#FDF5A0"/>
</svg>
