<svg width="352" height="34" viewBox="0 0 352 34" fill="none" xmlns="http://www.w3.org/2000/svg">
<path d="M33.889 5.2V19.6H29.089V24.4H9.88904V34H0.289041V0.399998H29.089V5.2H33.889ZM9.88904 19.6H24.289V5.2H9.88904V19.6ZM73.639 29.2V34H40.039V0.399998H49.639V29.2H73.639ZM113.389 10V34H103.789V24.4H89.389V34H79.789V10H84.589V5.2H89.389V0.399998H103.789V5.2H108.589V10H113.389ZM89.389 19.6H103.789V10H98.989V5.2H94.189V10H89.389V19.6ZM150.739 0.399998V14.8H145.939V19.6H141.139V34H131.539V19.6H126.691V14.8H121.939V0.399998H131.539V14.8H141.139V0.399998H150.739ZM232.639 14.8V34H208.639V29.104H203.839V24.4H199.039V10H203.839V5.2H208.639V0.399998H232.639V5.2H213.439V10H208.639V24.4H213.439V29.2H223.039V19.6H218.239V14.8H232.639ZM272.389 10V34H262.789V24.4H248.389V34H238.789V10H243.589V5.2H248.389V0.399998H262.789V5.2H267.589V10H272.389ZM248.389 19.6H262.789V10H257.989V5.2H253.189V10H248.389V19.6ZM312.139 0.399998V34H302.539V19.6H297.739V24.4H292.939V19.6H288.139V34H278.539V0.399998H288.139V5.2H292.939V10H297.739V5.2H302.539V0.399998H312.139ZM351.889 29.2V34H318.289V0.399998H351.889V5.2H327.889V14.8H347.089V19.6H327.889V29.2H351.889Z" fill="#1F2B17"/>
</svg>
