<svg width="904" height="413" viewBox="0 0 904 413" fill="none" xmlns="http://www.w3.org/2000/svg">
<rect x="1" y="1" width="902" height="411" fill="#1F2B17"/>
<rect x="1" y="1" width="902" height="411" stroke="#E2C65B" stroke-width="2"/>
<path d="M372.042 62.8V66H368.842V62.8H365.642V66H352.842V62.8H349.642V46.8H352.842V43.6H368.842V46.8H372.042V59.6H368.842V62.8H372.042ZM359.242 56.4H365.642V46.8H356.042V62.8H362.442V59.6H359.242V56.4ZM398.542 43.6V62.8H395.342V66H379.342V62.8H376.142V43.6H382.542V62.8H392.142V43.6H398.542ZM425.042 62.8V66H402.642V43.6H425.042V46.8H409.042V53.2H421.842V56.4H409.042V62.8H425.042ZM451.542 56.4V62.8H448.342V66H432.342V62.8H429.142V59.6H435.542V62.8H445.142V56.4H432.342V53.2H429.142V46.8H432.342V43.6H445.142V46.8H448.342V50H441.942V46.8H435.542V53.2H448.342V56.4H451.542ZM473.254 43.6V46.8H466.854V66H460.454V46.8H454.054V43.6H473.254ZM499.754 43.6V46.8H493.354V62.8H499.754V66H480.554V62.8H486.954V46.8H480.554V43.6H499.754ZM527.854 46.8V62.8H524.654V66H508.654V62.8H505.454V46.8H508.654V43.6H524.654V46.8H527.854ZM511.854 62.8H521.454V46.8H511.854V62.8ZM554.354 43.6V66H547.954V62.8H544.754V59.6H541.554V56.4H538.354V66H531.954V43.6H538.354V46.8H541.554V50H544.754V53.2H547.954V43.6H554.354Z" fill="#E2C65B"/>
<path d="M84.1742 113H73.5902V95.648H84.1742V97.808H75.9422V103.232H83.3582V105.32H75.9422V110.816H84.1742V113ZM90.1817 113L85.4537 101.264H87.8537L90.4217 107.816C90.8297 108.92 91.1657 109.904 91.3577 110.624C91.5497 109.856 91.9337 108.848 92.3417 107.816L94.9577 101.264H97.3097L92.4137 113H90.1817ZM101.998 113.288C99.4776 113.288 97.9896 111.872 97.9896 109.736C97.9896 107.576 99.5976 106.232 102.358 106.016L106.054 105.728V105.392C106.054 103.424 104.878 102.728 103.294 102.728C101.398 102.728 100.318 103.568 100.318 104.984H98.3496C98.3496 102.536 100.366 100.928 103.39 100.928C106.294 100.928 108.262 102.464 108.262 105.632V113H106.342L106.102 111.104C105.502 112.448 103.894 113.288 101.998 113.288ZM102.646 111.536C104.782 111.536 106.078 110.144 106.078 107.936V107.312L103.078 107.552C101.086 107.744 100.27 108.512 100.27 109.664C100.27 110.912 101.182 111.536 102.646 111.536ZM113.69 113H111.434V95.336H113.69V113ZM125.123 101.264H127.355V113H125.339L125.099 111.224C124.427 112.448 122.867 113.288 121.139 113.288C118.403 113.288 116.867 111.44 116.867 108.56V101.264H119.123V107.816C119.123 110.336 120.203 111.296 121.931 111.296C123.995 111.296 125.123 109.976 125.123 107.456V101.264ZM134.06 113.288C131.54 113.288 130.052 111.872 130.052 109.736C130.052 107.576 131.66 106.232 134.42 106.016L138.116 105.728V105.392C138.116 103.424 136.94 102.728 135.356 102.728C133.46 102.728 132.38 103.568 132.38 104.984H130.412C130.412 102.536 132.428 100.928 135.452 100.928C138.356 100.928 140.324 102.464 140.324 105.632V113H138.404L138.164 111.104C137.564 112.448 135.956 113.288 134.06 113.288ZM134.708 111.536C136.844 111.536 138.14 110.144 138.14 107.936V107.312L135.14 107.552C133.148 107.744 132.332 108.512 132.332 109.664C132.332 110.912 133.244 111.536 134.708 111.536ZM146.573 113H144.317V103.16H142.013V101.264H144.317V97.592H146.573V101.264H148.877V103.16H146.573V113ZM155.848 113.288C152.392 113.288 150.016 110.792 150.016 107.144C150.016 103.472 152.344 100.928 155.752 100.928C159.088 100.928 161.272 103.232 161.272 106.712V107.552L152.2 107.576C152.368 110.048 153.664 111.416 155.896 111.416C157.648 111.416 158.8 110.696 159.184 109.352H161.296C160.72 111.872 158.752 113.288 155.848 113.288ZM155.752 102.824C153.784 102.824 152.536 104 152.248 106.064H159.016C159.016 104.12 157.744 102.824 155.752 102.824ZM173.667 113H171.411V103.16H169.107V101.264H171.411V97.592H173.667V101.264H175.971V103.16H173.667V113ZM180.251 112.976H177.995V95.336H180.251V103.064C180.995 101.792 182.411 100.928 184.235 100.928C187.235 100.928 188.675 102.824 188.675 105.824V113H186.419V106.328C186.419 103.952 185.291 102.992 183.611 102.992C181.427 102.992 180.251 104.576 180.251 106.592V112.976ZM196.864 113.288C193.408 113.288 191.032 110.792 191.032 107.144C191.032 103.472 193.36 100.928 196.768 100.928C200.104 100.928 202.288 103.232 202.288 106.712V107.552L193.216 107.576C193.384 110.048 194.68 111.416 196.912 111.416C198.664 111.416 199.816 110.696 200.2 109.352H202.312C201.736 111.872 199.768 113.288 196.864 113.288ZM196.768 102.824C194.8 102.824 193.552 104 193.264 106.064H200.032C200.032 104.12 198.76 102.824 196.768 102.824ZM211.37 118.256V101.264H213.41L213.578 103.376C214.37 101.768 215.954 100.928 217.826 100.928C221.186 100.928 223.274 103.448 223.274 107.048C223.274 110.624 221.306 113.312 217.826 113.312C215.954 113.312 214.394 112.52 213.626 111.08V118.256H211.37ZM213.65 107.144C213.65 109.544 215.042 111.272 217.346 111.272C219.65 111.272 221.018 109.544 221.018 107.144C221.018 104.72 219.65 102.992 217.346 102.992C215.042 102.992 213.65 104.696 213.65 107.144ZM224.993 107.12C224.993 103.496 227.585 100.952 231.113 100.952C234.617 100.952 237.209 103.496 237.209 107.12C237.209 110.744 234.617 113.288 231.113 113.288C227.585 113.288 224.993 110.744 224.993 107.12ZM227.273 107.12C227.273 109.568 228.833 111.272 231.113 111.272C233.369 111.272 234.953 109.568 234.953 107.12C234.953 104.672 233.369 102.968 231.113 102.968C228.833 102.968 227.273 104.672 227.273 107.12ZM242.01 113H239.754V95.336H242.01V113ZM244.203 118.256V116.408H245.715C246.795 116.408 247.659 116.24 248.211 114.752L248.619 113.624L243.891 101.264H246.267L249.675 110.72L253.155 101.264H255.483L249.939 115.64C249.147 117.656 247.971 118.496 246.171 118.496C245.427 118.496 244.803 118.4 244.203 118.256ZM259.54 113H257.284V101.264H259.324L259.564 103.064C260.308 101.72 261.796 100.928 263.452 100.928C266.548 100.928 267.964 102.824 267.964 105.824V113H265.708V106.328C265.708 103.952 264.604 102.992 262.876 102.992C260.764 102.992 259.54 104.504 259.54 106.784V113ZM270.321 107.12C270.321 103.496 272.913 100.952 276.441 100.952C279.945 100.952 282.537 103.496 282.537 107.12C282.537 110.744 279.945 113.288 276.441 113.288C272.913 113.288 270.321 110.744 270.321 107.12ZM272.601 107.12C272.601 109.568 274.161 111.272 276.441 111.272C278.697 111.272 280.281 109.568 280.281 107.12C280.281 104.672 278.697 102.968 276.441 102.968C274.161 102.968 272.601 104.672 272.601 107.12ZM287.29 113H285.034V101.264H287.05L287.266 102.8C287.866 101.696 289.114 100.928 290.77 100.928C292.594 100.928 293.89 101.84 294.49 103.304C295.042 101.84 296.458 100.928 298.282 100.928C300.97 100.928 302.602 102.608 302.602 105.32V113H300.394V105.872C300.394 104.024 299.362 102.968 297.778 102.968C296.074 102.968 294.946 104.168 294.946 106.04V113H292.714V105.848C292.714 104 291.706 102.992 290.122 102.992C288.418 102.992 287.29 104.168 287.29 106.04V113ZM306.834 98.48C306.018 98.48 305.346 97.808 305.346 96.992C305.346 96.152 306.018 95.504 306.834 95.504C307.65 95.504 308.322 96.152 308.322 96.992C308.322 97.808 307.65 98.48 306.834 98.48ZM305.73 113V101.264H307.986V113H305.73ZM314.693 113.288C312.173 113.288 310.685 111.872 310.685 109.736C310.685 107.576 312.293 106.232 315.053 106.016L318.749 105.728V105.392C318.749 103.424 317.573 102.728 315.989 102.728C314.093 102.728 313.013 103.568 313.013 104.984H311.045C311.045 102.536 313.061 100.928 316.085 100.928C318.989 100.928 320.957 102.464 320.957 105.632V113H319.037L318.797 111.104C318.197 112.448 316.589 113.288 314.693 113.288ZM315.341 111.536C317.477 111.536 318.773 110.144 318.773 107.936V107.312L315.773 107.552C313.781 107.744 312.965 108.512 312.965 109.664C312.965 110.912 313.877 111.536 315.341 111.536ZM326.385 113H324.129V95.336H326.385V113ZM335.021 101.264H336.749V99.392C336.749 96.512 338.333 95.336 340.469 95.336C340.901 95.336 341.405 95.36 341.861 95.432V97.376H340.853C339.389 97.376 339.005 98.12 339.005 99.392V101.264H341.789V103.16H339.005V113H336.749V103.16H335.021V101.264ZM348.95 117.152H347.078C344.87 114.392 343.406 110.216 343.406 105.872C343.406 101.792 344.726 97.52 347.078 94.616H348.95C347.054 97.256 345.71 101.384 345.71 105.872C345.71 110.12 346.91 114.344 348.95 117.152ZM351.789 113H349.197L353.301 107.192L349.221 101.264H351.837L354.813 105.632L357.717 101.264H360.285L356.205 107.192L360.213 113H357.597L354.669 108.704L351.789 113ZM362.431 117.152H360.535C362.575 114.344 363.775 110.12 363.775 105.872C363.775 101.384 362.455 97.256 360.535 94.616H362.431C364.759 97.52 366.079 101.792 366.079 105.872C366.079 110.216 364.615 114.392 362.431 117.152ZM375.721 102.344H387.721V104.288H375.721V102.344ZM375.721 107.384H387.721V109.328H375.721V107.384ZM402.351 104.024H400.623V102.464L405.543 97.736H397.743V95.648H408.519V97.544L403.767 102.08C406.719 102.44 408.951 104.432 408.951 107.552C408.951 111.056 406.311 113.288 402.783 113.288C399.375 113.288 396.927 111.2 396.927 107.6H399.255C399.255 109.856 400.647 111.176 402.831 111.176C405.087 111.176 406.551 109.736 406.551 107.504C406.551 105.416 405.111 104.024 402.351 104.024ZM412.68 113H410.088L414.192 107.192L410.112 101.264H412.728L415.704 105.632L418.608 101.264H421.176L417.096 107.192L421.104 113H418.488L415.56 108.704L412.68 113ZM425.122 103.4H423.13L426.322 95.648H428.53L431.722 103.4H429.73L427.426 97.64L425.122 103.4ZM439.57 104.024H437.842V102.464L442.762 97.736H434.962V95.648H445.738V97.544L440.986 102.08C443.938 102.44 446.17 104.432 446.17 107.552C446.17 111.056 443.53 113.288 440.002 113.288C436.594 113.288 434.146 111.2 434.146 107.6H436.474C436.474 109.856 437.866 111.176 440.05 111.176C442.306 111.176 443.77 109.736 443.77 107.504C443.77 105.416 442.33 104.024 439.57 104.024ZM455.549 103.952H460.589V98.912H462.509V103.952H467.549V105.872H462.509V110.936H460.589V105.872H455.549V103.952ZM483.043 113.288C479.491 113.288 477.187 111.032 477.187 107.576H479.515C479.515 109.808 480.883 111.176 483.091 111.176C485.443 111.176 486.955 109.616 486.955 107.264C486.955 105.032 485.539 103.376 483.115 103.376C481.651 103.376 480.307 104.072 479.515 105.056L477.523 104.552L479.635 95.648H488.323V97.808H481.339L480.187 102.416C481.099 101.72 482.251 101.36 483.547 101.36C487.075 101.36 489.355 103.832 489.355 107.168C489.355 110.768 486.787 113.288 483.043 113.288ZM493.047 113H490.455L494.559 107.192L490.479 101.264H493.095L496.071 105.632L498.975 101.264H501.543L497.463 107.192L501.471 113H498.855L495.927 108.704L493.047 113ZM505.489 103.4H503.497L506.689 95.648H508.897L512.089 103.4H510.097L507.793 97.64L505.489 103.4ZM526.609 112.976L514.897 113V111.2L520.489 106.376C523.297 103.952 524.089 102.776 524.089 100.928C524.089 98.744 522.841 97.448 520.753 97.448C518.617 97.448 517.225 99.008 517.177 101.48H514.825C514.897 97.76 517.249 95.336 520.777 95.336C524.257 95.336 526.489 97.448 526.489 100.784C526.489 103.256 525.265 105.008 522.193 107.672L518.593 110.792H526.609V112.976ZM536.08 103.952H541.12V98.912H543.04V103.952H548.08V105.872H543.04V110.936H541.12V105.872H536.08V103.952ZM556.758 95.648H568.878V97.808L562.302 113H559.854L566.502 97.808H556.758V95.648ZM571.867 113H569.275L573.379 107.192L569.299 101.264H571.915L574.891 105.632L577.795 101.264H580.363L576.283 107.192L580.291 113H577.675L574.747 108.704L571.867 113ZM589.096 103.952H594.136V98.912H596.056V103.952H601.096V105.872H596.056V110.936H594.136V105.872H589.096V103.952ZM614.07 97.76H610.422V95.648H616.326V113H614.07V97.76ZM622.601 97.76H618.953V95.648H624.857V113H622.601V97.76ZM634.282 107.12C634.282 103.496 636.874 100.952 640.402 100.952C643.906 100.952 646.498 103.496 646.498 107.12C646.498 110.744 643.906 113.288 640.402 113.288C636.874 113.288 634.282 110.744 634.282 107.12ZM636.562 107.12C636.562 109.568 638.122 111.272 640.402 111.272C642.658 111.272 644.242 109.568 644.242 107.12C644.242 104.672 642.658 102.968 640.402 102.968C638.122 102.968 636.562 104.672 636.562 107.12ZM651.744 113L647.016 101.264H649.416L651.984 107.816C652.392 108.92 652.728 109.904 652.92 110.624C653.112 109.856 653.496 108.848 653.904 107.816L656.52 101.264H658.872L653.976 113H651.744ZM665.192 113.288C661.736 113.288 659.36 110.792 659.36 107.144C659.36 103.472 661.688 100.928 665.096 100.928C668.432 100.928 670.616 103.232 670.616 106.712V107.552L661.544 107.576C661.712 110.048 663.008 111.416 665.24 111.416C666.992 111.416 668.144 110.696 668.528 109.352H670.64C670.064 111.872 668.096 113.288 665.192 113.288ZM665.096 102.824C663.128 102.824 661.88 104 661.592 106.064H668.36C668.36 104.12 667.088 102.824 665.096 102.824ZM679.856 101.168V103.232H678.848C676.712 103.232 675.392 104.528 675.392 106.784V113H673.136V101.288H675.248L675.392 103.064C675.872 101.84 677.048 101.024 678.656 101.024C679.064 101.024 679.4 101.072 679.856 101.168ZM691.966 113.288C689.446 113.288 687.958 111.872 687.958 109.736C687.958 107.576 689.566 106.232 692.326 106.016L696.022 105.728V105.392C696.022 103.424 694.846 102.728 693.262 102.728C691.366 102.728 690.286 103.568 690.286 104.984H688.318C688.318 102.536 690.334 100.928 693.358 100.928C696.262 100.928 698.23 102.464 698.23 105.632V113H696.31L696.07 111.104C695.47 112.448 693.862 113.288 691.966 113.288ZM692.614 111.536C694.75 111.536 696.046 110.144 696.046 107.936V107.312L693.046 107.552C691.054 107.744 690.238 108.512 690.238 109.664C690.238 110.912 691.15 111.536 692.614 111.536ZM715.861 113V103.16H710.653V113H708.397V103.16H706.669V101.264H708.397V99.392C708.397 96.512 709.957 95.336 711.997 95.336C712.429 95.336 712.957 95.36 713.389 95.432V97.376H712.381C711.013 97.376 710.653 98.12 710.653 99.392V101.264H718.117V113H715.861ZM716.989 98.384C716.173 98.384 715.549 97.76 715.549 96.944C715.549 96.128 716.173 95.504 716.989 95.504C717.781 95.504 718.405 96.128 718.405 96.944C718.405 97.76 717.781 98.384 716.989 98.384ZM723.579 113H721.323V101.264H723.363L723.603 103.064C724.347 101.72 725.835 100.928 727.491 100.928C730.587 100.928 732.003 102.824 732.003 105.824V113H729.747V106.328C729.747 103.952 728.643 102.992 726.915 102.992C724.803 102.992 723.579 104.504 723.579 106.784V113ZM736.232 98.48C735.416 98.48 734.744 97.808 734.744 96.992C734.744 96.152 735.416 95.504 736.232 95.504C737.048 95.504 737.72 96.152 737.72 96.992C737.72 97.808 737.048 98.48 736.232 98.48ZM735.128 113V101.264H737.384V113H735.128ZM743.971 113H741.715V103.16H739.411V101.264H741.715V97.592H743.971V101.264H746.275V103.16H743.971V113ZM753.247 113.288C749.791 113.288 747.415 110.792 747.415 107.144C747.415 103.472 749.743 100.928 753.151 100.928C756.487 100.928 758.671 103.232 758.671 106.712V107.552L749.599 107.576C749.767 110.048 751.063 111.416 753.295 111.416C755.047 111.416 756.199 110.696 756.583 109.352H758.695C758.119 111.872 756.151 113.288 753.247 113.288ZM753.151 102.824C751.183 102.824 749.935 104 749.647 106.064H756.415C756.415 104.12 755.143 102.824 753.151 102.824ZM775.697 113V103.16H770.489V113H768.233V103.16H766.505V101.264H768.233V99.392C768.233 96.512 769.793 95.336 771.833 95.336C772.265 95.336 772.793 95.36 773.225 95.432V97.376H772.217C770.849 97.376 770.489 98.12 770.489 99.392V101.264H777.953V113H775.697ZM776.825 98.384C776.009 98.384 775.385 97.76 775.385 96.944C775.385 96.128 776.009 95.504 776.825 95.504C777.617 95.504 778.241 96.128 778.241 96.944C778.241 97.76 777.617 98.384 776.825 98.384ZM786.223 113.288C782.767 113.288 780.391 110.792 780.391 107.144C780.391 103.472 782.719 100.928 786.127 100.928C789.463 100.928 791.647 103.232 791.647 106.712V107.552L782.575 107.576C782.743 110.048 784.039 111.416 786.271 111.416C788.023 111.416 789.175 110.696 789.559 109.352H791.671C791.095 111.872 789.127 113.288 786.223 113.288ZM786.127 102.824C784.159 102.824 782.911 104 782.623 106.064H789.391C789.391 104.12 788.119 102.824 786.127 102.824ZM796.471 113H794.215V95.336H796.471V113ZM804.496 113.288C801.088 113.288 799.024 110.744 799.024 107.168C799.024 103.568 801.112 100.928 804.592 100.928C806.392 100.928 807.904 101.72 808.696 103.16V95.336H810.928V113H808.912L808.72 110.864C807.952 112.472 806.368 113.288 804.496 113.288ZM804.952 111.248C807.256 111.248 808.672 109.544 808.672 107.096C808.672 104.696 807.256 102.968 804.952 102.968C802.648 102.968 801.304 104.696 801.304 107.096C801.304 109.52 802.648 111.248 804.952 111.248ZM830.297 105.632H823.481V113H821.129V95.648H831.593V97.808H823.481V103.496H830.297V105.632ZM408.954 133.264H410.682V131.392C410.682 128.512 412.266 127.336 414.402 127.336C414.834 127.336 415.338 127.36 415.794 127.432V129.376H414.786C413.322 129.376 412.938 130.12 412.938 131.392V133.264H415.722V135.16H412.938V145H410.682V135.16H408.954V133.264ZM416.7 139.12C416.7 135.496 419.292 132.952 422.82 132.952C426.324 132.952 428.916 135.496 428.916 139.12C428.916 142.744 426.324 145.288 422.82 145.288C419.292 145.288 416.7 142.744 416.7 139.12ZM418.98 139.12C418.98 141.568 420.54 143.272 422.82 143.272C425.076 143.272 426.66 141.568 426.66 139.12C426.66 136.672 425.076 134.968 422.82 134.968C420.54 134.968 418.98 136.672 418.98 139.12ZM438.133 133.168V135.232H437.125C434.989 135.232 433.669 136.528 433.669 138.784V145H431.413V133.288H433.525L433.669 135.064C434.149 133.84 435.325 133.024 436.933 133.024C437.341 133.024 437.677 133.072 438.133 133.168ZM448.012 145H445.42L449.524 139.192L445.444 133.264H448.06L451.036 137.632L453.94 133.264H456.508L452.428 139.192L456.436 145H453.82L450.892 140.704L448.012 145ZM458.678 134.344H470.678V136.288H458.678V134.344ZM458.678 139.384H470.678V141.328H458.678V139.384ZM477.09 129.76H473.442V127.648H479.346V145H477.09V129.76ZM488.258 145.288C484.706 145.288 482.402 143.032 482.402 139.576H484.73C484.73 141.808 486.098 143.176 488.306 143.176C490.658 143.176 492.17 141.616 492.17 139.264C492.17 137.032 490.754 135.376 488.33 135.376C486.866 135.376 485.522 136.072 484.73 137.056L482.738 136.552L484.85 127.648H493.538V129.808H486.554L485.402 134.416C486.314 133.72 487.466 133.36 488.762 133.36C492.29 133.36 494.57 135.832 494.57 139.168C494.57 142.768 492.002 145.288 488.258 145.288Z" fill="#E2C65B"/>
<path d="M827.713 110.38H825.889V109.324H828.841V118H827.713V110.38ZM830.428 113.668C830.428 110.98 831.82 109.156 834.004 109.156C836.176 109.156 837.568 110.98 837.568 113.668C837.568 116.368 836.236 118.156 834.004 118.156C831.76 118.156 830.428 116.368 830.428 113.668ZM831.592 113.668C831.592 115.804 832.48 117.1 834.004 117.1C835.528 117.1 836.404 115.804 836.404 113.668C836.404 111.508 835.528 110.212 834.004 110.212C832.48 110.212 831.592 111.508 831.592 113.668ZM840.404 110.38H838.58V109.324H841.532V118H840.404V110.38Z" fill="#E2C65B"/>
<rect width="788" height="131" transform="translate(58 168)" fill="#33371D"/>
<path d="M77.344 193H75.296V181.304H77.344V186.136H82.528V181.304H84.576V193H82.528V188.04H77.344V193ZM87.859 183.512C87.187 183.512 86.659 182.984 86.659 182.328C86.659 181.672 87.187 181.16 87.859 181.16C88.499 181.16 89.027 181.672 89.027 182.328C89.027 182.984 88.499 183.512 87.859 183.512ZM86.883 193V185.096H88.835V193H86.883ZM92.8038 193H90.8518V185.096H92.6598L92.8198 186.12C93.3158 185.32 94.2758 184.856 95.3478 184.856C97.3318 184.856 98.3558 186.088 98.3558 188.136V193H96.4038V188.6C96.4038 187.272 95.7478 186.632 94.7398 186.632C93.5398 186.632 92.8038 187.464 92.8038 188.744V193ZM102.962 193H101.01V186.728H99.4896V185.096H101.01V182.632H102.962V185.096H104.498V186.728H102.962V193ZM107.183 187.368C106.479 187.368 105.887 186.792 105.887 186.104C105.887 185.4 106.479 184.824 107.183 184.824C107.887 184.824 108.479 185.4 108.479 186.104C108.479 186.792 107.887 187.368 107.183 187.368ZM107.183 193.192C106.479 193.192 105.887 192.616 105.887 191.928C105.887 191.224 106.479 190.648 107.183 190.648C107.887 190.648 108.479 191.224 108.479 191.928C108.479 192.616 107.887 193.192 107.183 193.192Z" fill="#E2C65B"/>
<path d="M76.544 208.544V220H75.392V208.544H76.544ZM80.1935 220H79.0895V212.256H80.0495L80.2095 213.6C80.7215 212.608 81.7455 212.048 82.8655 212.048C84.9935 212.048 85.8735 213.312 85.8735 215.264V220H84.7695V215.504C84.7695 213.696 83.9535 213.056 82.6735 213.056C81.0895 213.056 80.1935 214.208 80.1935 215.952V220ZM94.7354 220.192C93.0874 220.192 92.1114 219.264 92.1114 217.904C92.1114 216.48 93.1994 215.584 95.0074 215.44L97.5674 215.232V214.976C97.5674 213.456 96.6554 212.976 95.5194 212.976C94.1754 212.976 93.3754 213.584 93.3754 214.624H92.3674C92.3674 213.056 93.6474 212.048 95.5514 212.048C97.3434 212.048 98.6554 212.944 98.6554 214.992V220H97.7274L97.5834 218.64C97.1034 219.616 96.0474 220.192 94.7354 220.192ZM94.9914 219.296C96.6234 219.296 97.5674 218.16 97.5674 216.48V216.064L95.2794 216.24C93.8234 216.368 93.2314 217.008 93.2314 217.872C93.2314 218.816 93.9354 219.296 94.9914 219.296ZM110.412 220V213.184H106.732V220H105.628V213.184H104.444V212.256H105.628V210.752C105.628 209.008 106.572 208.336 107.724 208.336C107.996 208.336 108.332 208.352 108.588 208.4V209.36H107.916C106.988 209.36 106.732 209.84 106.732 210.752V212.256H111.516V220H110.412ZM110.956 210.048C110.508 210.048 110.188 209.728 110.188 209.28C110.188 208.832 110.508 208.496 110.956 208.496C111.388 208.496 111.724 208.832 111.724 209.28C111.724 209.728 111.388 210.048 110.956 210.048ZM114.881 220H113.777V212.256H114.737L114.897 213.6C115.409 212.608 116.433 212.048 117.553 212.048C119.681 212.048 120.561 213.312 120.561 215.264V220H119.457V215.504C119.457 213.696 118.641 213.056 117.361 213.056C115.777 213.056 114.881 214.208 114.881 215.952V220ZM123.305 210.128C122.857 210.128 122.489 209.76 122.489 209.312C122.489 208.864 122.857 208.48 123.305 208.48C123.753 208.48 124.137 208.864 124.137 209.312C124.137 209.76 123.753 210.128 123.305 210.128ZM122.761 220V212.256H123.865V220H122.761ZM127.944 220H126.856V213.184H125.304V212.256H126.856V209.808H127.944V212.256H129.496V213.184H127.944V220ZM134.103 220.192C131.831 220.192 130.311 218.56 130.311 216.128C130.311 213.712 131.815 212.048 134.023 212.048C136.119 212.048 137.543 213.536 137.543 215.728V216.272H131.383C131.463 218.16 132.455 219.248 134.119 219.248C135.383 219.248 136.199 218.704 136.487 217.68H137.543C137.127 219.312 135.927 220.192 134.103 220.192ZM134.023 212.992C132.567 212.992 131.607 213.952 131.415 215.472H136.439C136.439 213.984 135.479 212.992 134.023 212.992ZM148.85 220V213.184H145.17V220H144.066V213.184H142.882V212.256H144.066V210.752C144.066 209.008 145.01 208.336 146.162 208.336C146.434 208.336 146.77 208.352 147.026 208.4V209.36H146.354C145.426 209.36 145.17 209.84 145.17 210.752V212.256H149.954V220H148.85ZM149.394 210.048C148.946 210.048 148.626 209.728 148.626 209.28C148.626 208.832 148.946 208.496 149.394 208.496C149.826 208.496 150.162 208.832 150.162 209.28C150.162 209.728 149.826 210.048 149.394 210.048ZM155.463 220.192C153.191 220.192 151.671 218.56 151.671 216.128C151.671 213.712 153.174 212.048 155.383 212.048C157.479 212.048 158.903 213.536 158.903 215.728V216.272H152.743C152.823 218.16 153.815 219.248 155.479 219.248C156.743 219.248 157.559 218.704 157.847 217.68H158.903C158.487 219.312 157.287 220.192 155.463 220.192ZM155.383 212.992C153.927 212.992 152.967 213.952 152.775 215.472H157.799C157.799 213.984 156.839 212.992 155.383 212.992ZM161.82 220H160.716V208.336H161.82V220ZM167.208 220.192C164.952 220.192 163.624 218.464 163.624 216.144C163.624 213.808 164.952 212.048 167.256 212.048C168.536 212.048 169.56 212.608 170.104 213.728V208.336H171.208V220H170.248L170.136 218.416C169.592 219.616 168.504 220.192 167.208 220.192ZM167.4 219.184C169.096 219.184 170.088 217.904 170.088 216.112C170.088 214.336 169.096 213.04 167.4 213.04C165.72 213.04 164.744 214.336 164.744 216.112C164.744 217.904 165.72 219.184 167.4 219.184ZM175.463 219.456C175.463 220.448 174.695 221.312 173.703 221.456V220.864C174.279 220.768 174.695 220.352 174.695 219.904C174.599 219.968 174.471 220.016 174.279 220.016C173.831 220.016 173.447 219.696 173.447 219.152C173.447 218.592 173.831 218.192 174.391 218.192C174.967 218.192 175.463 218.656 175.463 219.456ZM184.36 220.192C182.712 220.192 181.736 219.264 181.736 217.904C181.736 216.48 182.824 215.584 184.632 215.44L187.192 215.232V214.976C187.192 213.456 186.28 212.976 185.144 212.976C183.8 212.976 183 213.584 183 214.624H181.992C181.992 213.056 183.272 212.048 185.176 212.048C186.968 212.048 188.28 212.944 188.28 214.992V220H187.352L187.208 218.64C186.728 219.616 185.672 220.192 184.36 220.192ZM184.616 219.296C186.248 219.296 187.192 218.16 187.192 216.48V216.064L184.904 216.24C183.448 216.368 182.856 217.008 182.856 217.872C182.856 218.816 183.56 219.296 184.616 219.296ZM191.648 220H190.544V208.336H191.648V220ZM195.148 220H194.044V208.336H195.148V220ZM201.389 216.128C201.389 213.76 203.053 212.048 205.325 212.048C207.597 212.048 209.261 213.76 209.261 216.128C209.261 218.48 207.597 220.192 205.325 220.192C203.053 220.192 201.389 218.48 201.389 216.128ZM202.509 216.112C202.509 217.936 203.661 219.2 205.325 219.2C206.973 219.2 208.141 217.936 208.141 216.112C208.141 214.32 206.973 213.04 205.325 213.04C203.661 213.04 202.509 214.32 202.509 216.112ZM211.027 223.376V212.256H211.987L212.099 213.824C212.643 212.624 213.731 212.048 215.027 212.048C217.267 212.048 218.611 213.76 218.611 216.096C218.611 218.432 217.315 220.192 215.027 220.192C213.715 220.192 212.675 219.632 212.131 218.512V223.376H211.027ZM212.147 216.128C212.147 217.904 213.139 219.2 214.835 219.2C216.515 219.2 217.491 217.904 217.491 216.128C217.491 214.336 216.515 213.056 214.835 213.056C213.139 213.056 212.147 214.336 212.147 216.128ZM223.619 220.192C221.347 220.192 219.827 218.56 219.827 216.128C219.827 213.712 221.331 212.048 223.539 212.048C225.635 212.048 227.059 213.536 227.059 215.728V216.272H220.899C220.979 218.16 221.971 219.248 223.635 219.248C224.899 219.248 225.715 218.704 226.003 217.68H227.059C226.643 219.312 225.443 220.192 223.619 220.192ZM223.539 212.992C222.083 212.992 221.123 213.952 220.931 215.472H225.955C225.955 213.984 224.995 212.992 223.539 212.992ZM232.872 212.16V213.152H232.264C230.84 213.152 229.928 214.112 229.928 215.584V220H228.824V212.256H229.864L229.944 213.456C230.248 212.624 231.064 212.08 232.152 212.08C232.392 212.08 232.6 212.096 232.872 212.16ZM236.251 220.192C234.603 220.192 233.627 219.264 233.627 217.904C233.627 216.48 234.715 215.584 236.523 215.44L239.083 215.232V214.976C239.083 213.456 238.171 212.976 237.035 212.976C235.691 212.976 234.891 213.584 234.891 214.624H233.883C233.883 213.056 235.163 212.048 237.067 212.048C238.859 212.048 240.171 212.944 240.171 214.992V220H239.243L239.099 218.64C238.619 219.616 237.563 220.192 236.251 220.192ZM236.507 219.296C238.139 219.296 239.083 218.16 239.083 216.48V216.064L236.795 216.24C235.339 216.368 234.747 217.008 234.747 217.872C234.747 218.816 235.451 219.296 236.507 219.296ZM244.022 220H242.934V213.184H241.382V212.256H242.934V209.808H244.022V212.256H245.574V213.184H244.022V220ZM247.555 210.128C247.107 210.128 246.739 209.76 246.739 209.312C246.739 208.864 247.107 208.48 247.555 208.48C248.003 208.48 248.387 208.864 248.387 209.312C248.387 209.76 248.003 210.128 247.555 210.128ZM247.011 220V212.256H248.115V220H247.011ZM249.874 216.128C249.874 213.76 251.538 212.048 253.81 212.048C256.082 212.048 257.746 213.76 257.746 216.128C257.746 218.48 256.082 220.192 253.81 220.192C251.538 220.192 249.874 218.48 249.874 216.128ZM250.994 216.112C250.994 217.936 252.146 219.2 253.81 219.2C255.458 219.2 256.626 217.936 256.626 216.112C256.626 214.32 255.458 213.04 253.81 213.04C252.146 213.04 250.994 214.32 250.994 216.112ZM260.615 220H259.511V212.256H260.471L260.631 213.6C261.143 212.608 262.167 212.048 263.287 212.048C265.415 212.048 266.295 213.312 266.295 215.264V220H265.191V215.504C265.191 213.696 264.375 213.056 263.095 213.056C261.511 213.056 260.615 214.208 260.615 215.952V220ZM267.746 217.824H268.802C268.802 218.72 269.474 219.28 270.562 219.28C271.762 219.28 272.466 218.768 272.466 217.936C272.466 217.296 272.146 216.928 271.234 216.704L269.906 216.368C268.562 216.032 267.906 215.328 267.906 214.272C267.906 212.912 269.042 212.048 270.706 212.048C272.338 212.048 273.394 212.944 273.442 214.384H272.37C272.338 213.488 271.714 212.96 270.674 212.96C269.586 212.96 268.978 213.424 268.978 214.256C268.978 214.848 269.394 215.264 270.242 215.472L271.57 215.808C272.914 216.144 273.522 216.768 273.522 217.888C273.522 219.28 272.338 220.192 270.578 220.192C268.834 220.192 267.746 219.264 267.746 217.824ZM282.689 222.512H281.681C280.337 220.672 279.457 217.952 279.457 215.2C279.457 212.56 280.305 209.808 281.681 207.904H282.689C281.457 209.632 280.593 212.32 280.593 215.2C280.593 218.016 281.425 220.752 282.689 222.512ZM286.064 220.192C284.416 220.192 283.44 219.264 283.44 217.904C283.44 216.48 284.528 215.584 286.336 215.44L288.896 215.232V214.976C288.896 213.456 287.984 212.976 286.848 212.976C285.504 212.976 284.704 213.584 284.704 214.624H283.696C283.696 213.056 284.976 212.048 286.88 212.048C288.672 212.048 289.984 212.944 289.984 214.992V220H289.056L288.912 218.64C288.432 219.616 287.376 220.192 286.064 220.192ZM286.32 219.296C287.952 219.296 288.896 218.16 288.896 216.48V216.064L286.608 216.24C285.152 216.368 284.56 217.008 284.56 217.872C284.56 218.816 285.264 219.296 286.32 219.296ZM295.239 220.192C292.983 220.192 291.655 218.464 291.655 216.144C291.655 213.808 292.983 212.048 295.287 212.048C296.567 212.048 297.591 212.608 298.135 213.728V208.336H299.239V220H298.279L298.167 218.416C297.623 219.616 296.535 220.192 295.239 220.192ZM295.431 219.184C297.127 219.184 298.119 217.904 298.119 216.112C298.119 214.336 297.127 213.04 295.431 213.04C293.751 213.04 292.775 214.336 292.775 216.112C292.775 217.904 293.751 219.184 295.431 219.184ZM304.583 220.192C302.327 220.192 300.999 218.464 300.999 216.144C300.999 213.808 302.327 212.048 304.631 212.048C305.911 212.048 306.935 212.608 307.479 213.728V208.336H308.583V220H307.623L307.511 218.416C306.967 219.616 305.879 220.192 304.583 220.192ZM304.775 219.184C306.471 219.184 307.463 217.904 307.463 216.112C307.463 214.336 306.471 213.04 304.775 213.04C303.095 213.04 302.119 214.336 302.119 216.112C302.119 217.904 303.095 219.184 304.775 219.184ZM311.43 210.128C310.982 210.128 310.614 209.76 310.614 209.312C310.614 208.864 310.982 208.48 311.43 208.48C311.878 208.48 312.262 208.864 312.262 209.312C312.262 209.76 311.878 210.128 311.43 210.128ZM310.886 220V212.256H311.99V220H310.886ZM316.069 220H314.981V213.184H313.429V212.256H314.981V209.808H316.069V212.256H317.621V213.184H316.069V220ZM319.602 210.128C319.154 210.128 318.786 209.76 318.786 209.312C318.786 208.864 319.154 208.48 319.602 208.48C320.05 208.48 320.434 208.864 320.434 209.312C320.434 209.76 320.05 210.128 319.602 210.128ZM319.058 220V212.256H320.162V220H319.058ZM321.921 216.128C321.921 213.76 323.585 212.048 325.857 212.048C328.129 212.048 329.793 213.76 329.793 216.128C329.793 218.48 328.129 220.192 325.857 220.192C323.585 220.192 321.921 218.48 321.921 216.128ZM323.041 216.112C323.041 217.936 324.193 219.2 325.857 219.2C327.505 219.2 328.673 217.936 328.673 216.112C328.673 214.32 327.505 213.04 325.857 213.04C324.193 213.04 323.041 214.32 323.041 216.112ZM332.662 220H331.558V212.256H332.518L332.678 213.6C333.19 212.608 334.214 212.048 335.334 212.048C337.462 212.048 338.342 213.312 338.342 215.264V220H337.238V215.504C337.238 213.696 336.422 213.056 335.142 213.056C333.558 213.056 332.662 214.208 332.662 215.952V220ZM342.495 219.456C342.495 220.448 341.727 221.312 340.735 221.456V220.864C341.311 220.768 341.727 220.352 341.727 219.904C341.631 219.968 341.503 220.016 341.311 220.016C340.863 220.016 340.479 219.696 340.479 219.152C340.479 218.592 340.863 218.192 341.423 218.192C341.999 218.192 342.495 218.656 342.495 219.456ZM348.512 217.824H349.568C349.568 218.72 350.24 219.28 351.328 219.28C352.528 219.28 353.232 218.768 353.232 217.936C353.232 217.296 352.912 216.928 352 216.704L350.672 216.368C349.328 216.032 348.672 215.328 348.672 214.272C348.672 212.912 349.808 212.048 351.472 212.048C353.104 212.048 354.16 212.944 354.208 214.384H353.136C353.104 213.488 352.48 212.96 351.44 212.96C350.352 212.96 349.744 213.424 349.744 214.256C349.744 214.848 350.16 215.264 351.008 215.472L352.336 215.808C353.68 216.144 354.288 216.768 354.288 217.888C354.288 219.28 353.104 220.192 351.344 220.192C349.6 220.192 348.512 219.264 348.512 217.824ZM361.545 212.256H362.649V220H361.689L361.545 218.688C361.113 219.584 360.041 220.192 358.825 220.192C357.001 220.192 356.009 218.944 356.009 217.056V212.24H357.129V216.704C357.129 218.544 357.945 219.2 359.177 219.2C360.665 219.2 361.545 218.208 361.545 216.368V212.256ZM365.909 220H364.949V208.336H366.053V213.76C366.597 212.624 367.653 212.048 368.965 212.048C371.221 212.048 372.533 213.808 372.533 216.144C372.533 218.464 371.189 220.192 368.933 220.192C367.637 220.192 366.565 219.616 366.021 218.416L365.909 220ZM366.069 216.112C366.069 217.904 367.061 219.184 368.757 219.184C370.437 219.184 371.413 217.904 371.413 216.112C371.413 214.336 370.437 213.04 368.757 213.04C367.061 213.04 366.069 214.336 366.069 216.112ZM375.991 220H374.903V213.184H373.351V212.256H374.903V209.808H375.991V212.256H377.543V213.184H375.991V220ZM383.028 212.16V213.152H382.42C380.996 213.152 380.084 214.112 380.084 215.584V220H378.98V212.256H380.02L380.1 213.456C380.404 212.624 381.22 212.08 382.308 212.08C382.548 212.08 382.756 212.096 383.028 212.16ZM386.407 220.192C384.759 220.192 383.783 219.264 383.783 217.904C383.783 216.48 384.871 215.584 386.679 215.44L389.239 215.232V214.976C389.239 213.456 388.327 212.976 387.191 212.976C385.847 212.976 385.047 213.584 385.047 214.624H384.039C384.039 213.056 385.319 212.048 387.223 212.048C389.015 212.048 390.327 212.944 390.327 214.992V220H389.399L389.255 218.64C388.775 219.616 387.719 220.192 386.407 220.192ZM386.663 219.296C388.295 219.296 389.239 218.16 389.239 216.48V216.064L386.951 216.24C385.495 216.368 384.903 217.008 384.903 217.872C384.903 218.816 385.607 219.296 386.663 219.296ZM391.999 216.144C391.999 213.712 393.487 212.048 395.743 212.048C397.535 212.048 398.847 213.088 399.151 214.688H398.047C397.759 213.616 396.831 213.024 395.759 213.024C394.191 213.024 393.087 214.224 393.087 216.128C393.087 217.968 394.111 219.2 395.679 219.2C396.831 219.2 397.759 218.56 398.063 217.568H399.183C398.815 219.152 397.439 220.192 395.679 220.192C393.487 220.192 391.999 218.576 391.999 216.144ZM402.631 220H401.543V213.184H399.991V212.256H401.543V209.808H402.631V212.256H404.183V213.184H402.631V220ZM406.165 210.128C405.717 210.128 405.349 209.76 405.349 209.312C405.349 208.864 405.717 208.48 406.165 208.48C406.613 208.48 406.997 208.864 406.997 209.312C406.997 209.76 406.613 210.128 406.165 210.128ZM405.621 220V212.256H406.725V220H405.621ZM408.483 216.128C408.483 213.76 410.147 212.048 412.419 212.048C414.691 212.048 416.355 213.76 416.355 216.128C416.355 218.48 414.691 220.192 412.419 220.192C410.147 220.192 408.483 218.48 408.483 216.128ZM409.603 216.112C409.603 217.936 410.755 219.2 412.419 219.2C414.067 219.2 415.235 217.936 415.235 216.112C415.235 214.32 414.067 213.04 412.419 213.04C410.755 213.04 409.603 214.32 409.603 216.112ZM419.225 220H418.121V212.256H419.081L419.241 213.6C419.753 212.608 420.777 212.048 421.897 212.048C424.025 212.048 424.905 213.312 424.905 215.264V220H423.801V215.504C423.801 213.696 422.985 213.056 421.705 213.056C420.121 213.056 419.225 214.208 419.225 215.952V220ZM429.057 219.456C429.057 220.448 428.289 221.312 427.297 221.456V220.864C427.873 220.768 428.289 220.352 428.289 219.904C428.193 219.968 428.065 220.016 427.873 220.016C427.425 220.016 427.041 219.696 427.041 219.152C427.041 218.592 427.425 218.192 427.985 218.192C428.561 218.192 429.057 218.656 429.057 219.456ZM436.834 220H435.73V212.256H436.69L436.818 213.36C437.202 212.544 438.066 212.048 439.154 212.048C440.37 212.048 441.282 212.688 441.65 213.696C442.002 212.688 442.946 212.048 444.194 212.048C445.874 212.048 446.978 213.136 446.978 214.928V220H445.906V215.152C445.906 213.824 445.17 213.04 443.986 213.04C442.69 213.04 441.922 214.016 441.922 215.216V220H440.834V215.136C440.834 213.824 440.082 213.056 438.914 213.056C437.618 213.056 436.834 214.016 436.834 215.2V220ZM454.639 212.256H455.743V220H454.783L454.639 218.688C454.207 219.584 453.135 220.192 451.919 220.192C450.095 220.192 449.103 218.944 449.103 217.056V212.24H450.223V216.704C450.223 218.544 451.039 219.2 452.271 219.2C453.759 219.2 454.639 218.208 454.639 216.368V212.256ZM459.195 220H458.091V208.336H459.195V220ZM463.319 220H462.231V213.184H460.679V212.256H462.231V209.808H463.319V212.256H464.871V213.184H463.319V220ZM466.852 210.128C466.404 210.128 466.036 209.76 466.036 209.312C466.036 208.864 466.404 208.48 466.852 208.48C467.3 208.48 467.684 208.864 467.684 209.312C467.684 209.76 467.3 210.128 466.852 210.128ZM466.308 220V212.256H467.412V220H466.308ZM469.715 223.376V212.256H470.674L470.787 213.824C471.331 212.624 472.419 212.048 473.715 212.048C475.955 212.048 477.299 213.76 477.299 216.096C477.299 218.432 476.003 220.192 473.715 220.192C472.403 220.192 471.363 219.632 470.819 218.512V223.376H469.715ZM470.835 216.128C470.835 217.904 471.827 219.2 473.523 219.2C475.203 219.2 476.179 217.904 476.179 216.128C476.179 214.336 475.203 213.056 473.523 213.056C471.827 213.056 470.835 214.336 470.835 216.128ZM480.21 220H479.106V208.336H480.21V220ZM483.102 210.128C482.654 210.128 482.286 209.76 482.286 209.312C482.286 208.864 482.654 208.48 483.102 208.48C483.55 208.48 483.934 208.864 483.934 209.312C483.934 209.76 483.55 210.128 483.102 210.128ZM482.558 220V212.256H483.662V220H482.558ZM485.421 216.144C485.421 213.712 486.909 212.048 489.165 212.048C490.957 212.048 492.269 213.088 492.573 214.688H491.469C491.181 213.616 490.253 213.024 489.181 213.024C487.613 213.024 486.509 214.224 486.509 216.128C486.509 217.968 487.533 219.2 489.101 219.2C490.253 219.2 491.181 218.56 491.485 217.568H492.605C492.237 219.152 490.861 220.192 489.101 220.192C486.909 220.192 485.421 218.576 485.421 216.144ZM496.501 220.192C494.853 220.192 493.877 219.264 493.877 217.904C493.877 216.48 494.965 215.584 496.773 215.44L499.333 215.232V214.976C499.333 213.456 498.421 212.976 497.285 212.976C495.941 212.976 495.141 213.584 495.141 214.624H494.133C494.133 213.056 495.413 212.048 497.317 212.048C499.109 212.048 500.421 212.944 500.421 214.992V220H499.493L499.349 218.64C498.869 219.616 497.813 220.192 496.501 220.192ZM496.757 219.296C498.389 219.296 499.333 218.16 499.333 216.48V216.064L497.045 216.24C495.589 216.368 494.997 217.008 494.997 217.872C494.997 218.816 495.701 219.296 496.757 219.296ZM504.272 220H503.184V213.184H501.632V212.256H503.184V209.808H504.272V212.256H505.824V213.184H504.272V220ZM507.805 210.128C507.357 210.128 506.989 209.76 506.989 209.312C506.989 208.864 507.357 208.48 507.805 208.48C508.253 208.48 508.637 208.864 508.637 209.312C508.637 209.76 508.253 210.128 507.805 210.128ZM507.261 220V212.256H508.365V220H507.261ZM510.124 216.128C510.124 213.76 511.788 212.048 514.06 212.048C516.332 212.048 517.996 213.76 517.996 216.128C517.996 218.48 516.332 220.192 514.06 220.192C511.788 220.192 510.124 218.48 510.124 216.128ZM511.244 216.112C511.244 217.936 512.396 219.2 514.06 219.2C515.708 219.2 516.876 217.936 516.876 216.112C516.876 214.32 515.708 213.04 514.06 213.04C512.396 213.04 511.244 214.32 511.244 216.112ZM520.865 220H519.761V212.256H520.721L520.881 213.6C521.393 212.608 522.417 212.048 523.537 212.048C525.665 212.048 526.545 213.312 526.545 215.264V220H525.441V215.504C525.441 213.696 524.625 213.056 523.345 213.056C521.761 213.056 520.865 214.208 520.865 215.952V220ZM530.698 219.456C530.698 220.448 529.93 221.312 528.938 221.456V220.864C529.514 220.768 529.93 220.352 529.93 219.904C529.834 219.968 529.706 220.016 529.514 220.016C529.066 220.016 528.682 219.696 528.682 219.152C528.682 218.592 529.066 218.192 529.626 218.192C530.202 218.192 530.698 218.656 530.698 219.456ZM539.595 220.192C537.947 220.192 536.971 219.264 536.971 217.904C536.971 216.48 538.059 215.584 539.867 215.44L542.427 215.232V214.976C542.427 213.456 541.515 212.976 540.379 212.976C539.035 212.976 538.235 213.584 538.235 214.624H537.227C537.227 213.056 538.507 212.048 540.411 212.048C542.203 212.048 543.515 212.944 543.515 214.992V220H542.587L542.443 218.64C541.963 219.616 540.907 220.192 539.595 220.192ZM539.851 219.296C541.483 219.296 542.427 218.16 542.427 216.48V216.064L540.139 216.24C538.683 216.368 538.091 217.008 538.091 217.872C538.091 218.816 538.795 219.296 539.851 219.296ZM546.834 220H545.73V212.256H546.69L546.85 213.6C547.362 212.608 548.386 212.048 549.506 212.048C551.634 212.048 552.514 213.312 552.514 215.264V220H551.41V215.504C551.41 213.696 550.594 213.056 549.314 213.056C547.73 213.056 546.834 214.208 546.834 215.952V220ZM557.755 220.192C555.499 220.192 554.171 218.464 554.171 216.144C554.171 213.808 555.499 212.048 557.803 212.048C559.083 212.048 560.107 212.608 560.651 213.728V208.336H561.755V220H560.795L560.683 218.416C560.139 219.616 559.051 220.192 557.755 220.192ZM557.947 219.184C559.643 219.184 560.635 217.904 560.635 216.112C560.635 214.336 559.643 213.04 557.947 213.04C556.267 213.04 555.291 214.336 555.291 216.112C555.291 217.904 556.267 219.184 557.947 219.184ZM571.744 220.192C569.472 220.192 567.952 218.56 567.952 216.128C567.952 213.712 569.456 212.048 571.664 212.048C573.76 212.048 575.184 213.536 575.184 215.728V216.272H569.024C569.104 218.16 570.096 219.248 571.76 219.248C573.024 219.248 573.84 218.704 574.128 217.68H575.184C574.768 219.312 573.568 220.192 571.744 220.192ZM571.664 212.992C570.208 212.992 569.248 213.952 569.056 215.472H574.08C574.08 213.984 573.12 212.992 571.664 212.992ZM576.987 220H575.691L578.459 216.128L575.707 212.256H577.003L579.195 215.36L581.371 212.256H582.651L579.899 216.144L582.635 220H581.323L579.147 216.896L576.987 220ZM583.965 223.376V212.256H584.924L585.037 213.824C585.581 212.624 586.669 212.048 587.965 212.048C590.205 212.048 591.549 213.76 591.549 216.096C591.549 218.432 590.253 220.192 587.965 220.192C586.653 220.192 585.613 219.632 585.069 218.512V223.376H583.965ZM585.085 216.128C585.085 217.904 586.077 219.2 587.773 219.2C589.453 219.2 590.429 217.904 590.429 216.128C590.429 214.336 589.453 213.056 587.773 213.056C586.077 213.056 585.085 214.336 585.085 216.128ZM592.764 216.128C592.764 213.76 594.428 212.048 596.7 212.048C598.972 212.048 600.636 213.76 600.636 216.128C600.636 218.48 598.972 220.192 596.7 220.192C594.428 220.192 592.764 218.48 592.764 216.128ZM593.884 216.112C593.884 217.936 595.036 219.2 596.7 219.2C598.348 219.2 599.516 217.936 599.516 216.112C599.516 214.32 598.348 213.04 596.7 213.04C595.036 213.04 593.884 214.32 593.884 216.112ZM603.506 220H602.402V212.256H603.362L603.522 213.6C604.034 212.608 605.058 212.048 606.178 212.048C608.306 212.048 609.186 213.312 609.186 215.264V220H608.082V215.504C608.082 213.696 607.266 213.056 605.986 213.056C604.402 213.056 603.506 214.208 603.506 215.952V220ZM614.634 220.192C612.362 220.192 610.842 218.56 610.842 216.128C610.842 213.712 612.346 212.048 614.554 212.048C616.65 212.048 618.074 213.536 618.074 215.728V216.272H611.914C611.994 218.16 612.986 219.248 614.65 219.248C615.914 219.248 616.73 218.704 617.018 217.68H618.074C617.658 219.312 616.458 220.192 614.634 220.192ZM614.554 212.992C613.098 212.992 612.138 213.952 611.946 215.472H616.97C616.97 213.984 616.01 212.992 614.554 212.992ZM620.944 220H619.84V212.256H620.799L620.96 213.6C621.472 212.608 622.496 212.048 623.616 212.048C625.744 212.048 626.624 213.312 626.624 215.264V220H625.52V215.504C625.52 213.696 624.704 213.056 623.424 213.056C621.84 213.056 620.944 214.208 620.944 215.952V220ZM630.6 220H629.512V213.184H627.96V212.256H629.512V209.808H630.6V212.256H632.152V213.184H630.6V220ZM634.134 210.128C633.686 210.128 633.318 209.76 633.318 209.312C633.318 208.864 633.686 208.48 634.134 208.48C634.582 208.48 634.966 208.864 634.966 209.312C634.966 209.76 634.582 210.128 634.134 210.128ZM633.59 220V212.256H634.694V220H633.59ZM639.22 220.192C637.572 220.192 636.596 219.264 636.596 217.904C636.596 216.48 637.684 215.584 639.492 215.44L642.052 215.232V214.976C642.052 213.456 641.14 212.976 640.004 212.976C638.66 212.976 637.86 213.584 637.86 214.624H636.852C636.852 213.056 638.132 212.048 640.036 212.048C641.828 212.048 643.14 212.944 643.14 214.992V220H642.212L642.068 218.64C641.588 219.616 640.532 220.192 639.22 220.192ZM639.476 219.296C641.108 219.296 642.052 218.16 642.052 216.48V216.064L639.764 216.24C638.308 216.368 637.716 217.008 637.716 217.872C637.716 218.816 638.42 219.296 639.476 219.296ZM646.991 220H645.903V213.184H644.351V212.256H645.903V209.808H646.991V212.256H648.543V213.184H646.991V220ZM650.524 210.128C650.076 210.128 649.708 209.76 649.708 209.312C649.708 208.864 650.076 208.48 650.524 208.48C650.972 208.48 651.356 208.864 651.356 209.312C651.356 209.76 650.972 210.128 650.524 210.128ZM649.98 220V212.256H651.084V220H649.98ZM652.842 216.128C652.842 213.76 654.506 212.048 656.778 212.048C659.05 212.048 660.714 213.76 660.714 216.128C660.714 218.48 659.05 220.192 656.778 220.192C654.506 220.192 652.842 218.48 652.842 216.128ZM653.962 216.112C653.962 217.936 655.114 219.2 656.778 219.2C658.426 219.2 659.594 217.936 659.594 216.112C659.594 214.32 658.426 213.04 656.778 213.04C655.114 213.04 653.962 214.32 653.962 216.112ZM663.584 220H662.48V212.256H663.44L663.6 213.6C664.112 212.608 665.136 212.048 666.256 212.048C668.384 212.048 669.264 213.312 669.264 215.264V220H668.16V215.504C668.16 213.696 667.344 213.056 666.064 213.056C664.48 213.056 663.584 214.208 663.584 215.952V220ZM671.321 222.512H670.312C671.577 220.752 672.424 218.016 672.424 215.2C672.424 212.32 671.545 209.632 670.312 207.904H671.321C672.713 209.808 673.545 212.56 673.545 215.2C673.545 217.952 672.664 220.672 671.321 222.512ZM682.189 220.192C680.541 220.192 679.565 219.264 679.565 217.904C679.565 216.48 680.653 215.584 682.461 215.44L685.021 215.232V214.976C685.021 213.456 684.109 212.976 682.973 212.976C681.629 212.976 680.829 213.584 680.829 214.624H679.821C679.821 213.056 681.101 212.048 683.005 212.048C684.797 212.048 686.109 212.944 686.109 214.992V220H685.181L685.037 218.64C684.557 219.616 683.501 220.192 682.189 220.192ZM682.445 219.296C684.077 219.296 685.021 218.16 685.021 216.48V216.064L682.733 216.24C681.277 216.368 680.685 217.008 680.685 217.872C680.685 218.816 681.389 219.296 682.445 219.296ZM692.372 212.16V213.152H691.764C690.34 213.152 689.428 214.112 689.428 215.584V220H688.324V212.256H689.364L689.444 213.456C689.748 212.624 690.564 212.08 691.652 212.08C691.892 212.08 692.1 212.096 692.372 212.16ZM696.791 220.192C694.519 220.192 692.999 218.56 692.999 216.128C692.999 213.712 694.503 212.048 696.711 212.048C698.807 212.048 700.231 213.536 700.231 215.728V216.272H694.071C694.151 218.16 695.143 219.248 696.807 219.248C698.071 219.248 698.887 218.704 699.175 217.68H700.231C699.815 219.312 698.615 220.192 696.791 220.192ZM696.711 212.992C695.255 212.992 694.295 213.952 694.103 215.472H699.127C699.127 213.984 698.167 212.992 696.711 212.992ZM706.433 223.376V212.256H707.393L707.505 213.824C708.049 212.624 709.137 212.048 710.433 212.048C712.673 212.048 714.017 213.76 714.017 216.096C714.017 218.432 712.721 220.192 710.433 220.192C709.121 220.192 708.081 219.632 707.537 218.512V223.376H706.433ZM707.553 216.128C707.553 217.904 708.545 219.2 710.241 219.2C711.921 219.2 712.897 217.904 712.897 216.128C712.897 214.336 711.921 213.056 710.241 213.056C708.545 213.056 707.553 214.336 707.553 216.128ZM719.025 220.192C716.753 220.192 715.233 218.56 715.233 216.128C715.233 213.712 716.737 212.048 718.945 212.048C721.041 212.048 722.465 213.536 722.465 215.728V216.272H716.305C716.385 218.16 717.377 219.248 719.041 219.248C720.305 219.248 721.121 218.704 721.409 217.68H722.465C722.049 219.312 720.849 220.192 719.025 220.192ZM718.945 212.992C717.489 212.992 716.529 213.952 716.337 215.472H721.361C721.361 213.984 720.401 212.992 718.945 212.992ZM728.278 212.16V213.152H727.67C726.246 213.152 725.334 214.112 725.334 215.584V220H724.23V212.256H725.27L725.35 213.456C725.654 212.624 726.47 212.08 727.558 212.08C727.798 212.08 728.006 212.096 728.278 212.16ZM729.194 212.256H730.378V210.752C730.378 209.008 731.338 208.336 732.522 208.336C732.794 208.336 733.114 208.352 733.37 208.4V209.344H732.714C731.738 209.344 731.482 209.84 731.482 210.752V212.256H733.306V213.184H731.482V220H730.378V213.184H729.194V212.256ZM734.03 216.128C734.03 213.76 735.694 212.048 737.966 212.048C740.238 212.048 741.902 213.76 741.902 216.128C741.902 218.48 740.238 220.192 737.966 220.192C735.694 220.192 734.03 218.48 734.03 216.128ZM735.15 216.112C735.15 217.936 736.302 219.2 737.966 219.2C739.614 219.2 740.782 217.936 740.782 216.112C740.782 214.32 739.614 213.04 737.966 213.04C736.302 213.04 735.15 214.32 735.15 216.112ZM747.716 212.16V213.152H747.108C745.684 213.152 744.772 214.112 744.772 215.584V220H743.668V212.256H744.708L744.788 213.456C745.092 212.624 745.908 212.08 746.996 212.08C747.236 212.08 747.444 212.096 747.716 212.16ZM750.287 220H749.183V212.256H750.143L750.271 213.36C750.655 212.544 751.519 212.048 752.607 212.048C753.823 212.048 754.735 212.688 755.103 213.696C755.455 212.688 756.399 212.048 757.647 212.048C759.327 212.048 760.431 213.136 760.431 214.928V220H759.359V215.152C759.359 213.824 758.623 213.04 757.439 213.04C756.143 213.04 755.375 214.016 755.375 215.216V220H754.287V215.136C754.287 213.824 753.535 213.056 752.367 213.056C751.071 213.056 750.287 214.016 750.287 215.2V220ZM765.9 220.192C763.628 220.192 762.108 218.56 762.108 216.128C762.108 213.712 763.612 212.048 765.82 212.048C767.916 212.048 769.34 213.536 769.34 215.728V216.272H763.18C763.26 218.16 764.252 219.248 765.916 219.248C767.18 219.248 767.996 218.704 768.284 217.68H769.34C768.924 219.312 767.724 220.192 765.9 220.192ZM765.82 212.992C764.364 212.992 763.404 213.952 763.212 215.472H768.236C768.236 213.984 767.276 212.992 765.82 212.992ZM774.145 220.192C771.889 220.192 770.561 218.464 770.561 216.144C770.561 213.808 771.889 212.048 774.193 212.048C775.473 212.048 776.497 212.608 777.041 213.728V208.336H778.145V220H777.185L777.073 218.416C776.529 219.616 775.441 220.192 774.145 220.192ZM774.337 219.184C776.033 219.184 777.025 217.904 777.025 216.112C777.025 214.336 776.033 213.04 774.337 213.04C772.657 213.04 771.681 214.336 771.681 216.112C771.681 217.904 772.657 219.184 774.337 219.184ZM76.256 242H75.152V234.256H76.112L76.24 235.36C76.624 234.544 77.488 234.048 78.576 234.048C79.792 234.048 80.704 234.688 81.072 235.696C81.424 234.688 82.368 234.048 83.616 234.048C85.296 234.048 86.4 235.136 86.4 236.928V242H85.328V237.152C85.328 235.824 84.592 235.04 83.408 235.04C82.112 235.04 81.344 236.016 81.344 237.216V242H80.256V237.136C80.256 235.824 79.504 235.056 78.336 235.056C77.04 235.056 76.256 236.016 76.256 237.2V242ZM88.0768 238.128C88.0768 235.76 89.7408 234.048 92.0128 234.048C94.2848 234.048 95.9488 235.76 95.9488 238.128C95.9488 240.48 94.2848 242.192 92.0128 242.192C89.7408 242.192 88.0768 240.48 88.0768 238.128ZM89.1968 238.112C89.1968 239.936 90.3488 241.2 92.0128 241.2C93.6608 241.2 94.8288 239.936 94.8288 238.112C94.8288 236.32 93.6608 235.04 92.0128 235.04C90.3488 235.04 89.1968 236.32 89.1968 238.112ZM100.755 242.192C98.4985 242.192 97.1705 240.464 97.1705 238.144C97.1705 235.808 98.4985 234.048 100.803 234.048C102.083 234.048 103.107 234.608 103.651 235.728V230.336H104.755V242H103.795L103.683 240.416C103.139 241.616 102.051 242.192 100.755 242.192ZM100.947 241.184C102.643 241.184 103.635 239.904 103.635 238.112C103.635 236.336 102.643 235.04 100.947 235.04C99.2665 235.04 98.2905 236.336 98.2905 238.112C98.2905 239.904 99.2665 241.184 100.947 241.184ZM112.498 234.256H113.602V242H112.642L112.498 240.688C112.066 241.584 110.994 242.192 109.778 242.192C107.954 242.192 106.962 240.944 106.962 239.056V234.24H108.082V238.704C108.082 240.544 108.898 241.2 110.13 241.2C111.618 241.2 112.498 240.208 112.498 238.368V234.256ZM117.054 242H115.95V230.336H117.054V242ZM118.858 238.128C118.858 235.76 120.522 234.048 122.794 234.048C125.066 234.048 126.73 235.76 126.73 238.128C126.73 240.48 125.066 242.192 122.794 242.192C120.522 242.192 118.858 240.48 118.858 238.128ZM119.978 238.112C119.978 239.936 121.13 241.2 122.794 241.2C124.442 241.2 125.61 239.936 125.61 238.112C125.61 236.32 124.442 235.04 122.794 235.04C121.13 235.04 119.978 236.32 119.978 238.112ZM132.933 245.376V234.256H133.893L134.005 235.824C134.549 234.624 135.637 234.048 136.933 234.048C139.173 234.048 140.517 235.76 140.517 238.096C140.517 240.432 139.221 242.192 136.933 242.192C135.621 242.192 134.581 241.632 134.037 240.512V245.376H132.933ZM134.053 238.128C134.053 239.904 135.045 241.2 136.741 241.2C138.421 241.2 139.397 239.904 139.397 238.128C139.397 236.336 138.421 235.056 136.741 235.056C135.045 235.056 134.053 236.336 134.053 238.128ZM149.627 244.512H148.619C147.275 242.672 146.395 239.952 146.395 237.2C146.395 234.56 147.243 231.808 148.619 229.904H149.627C148.395 231.632 147.531 234.32 147.531 237.2C147.531 240.016 148.363 242.752 149.627 244.512ZM152.409 242L149.849 234.256H150.985L152.505 238.928C152.681 239.44 152.825 239.968 152.985 240.592C153.113 239.968 153.369 239.184 153.449 238.928L154.985 234.256H156.121L157.641 238.928C157.785 239.344 157.977 240.016 158.121 240.592C158.281 239.952 158.313 239.76 158.585 238.928L160.121 234.256H161.273L158.649 242H157.577L155.977 237.136C155.785 236.56 155.657 236.08 155.561 235.616C155.449 236.032 155.321 236.496 155.113 237.136L153.513 242H152.409ZM163.756 241.984H162.652V230.336H163.756V235.6C164.252 234.672 165.196 234.048 166.492 234.048C168.524 234.048 169.436 235.312 169.436 237.264V242H168.332V237.504C168.332 235.696 167.484 235.056 166.284 235.056C164.62 235.056 163.756 236.288 163.756 237.776V241.984ZM174.884 242.192C172.612 242.192 171.092 240.56 171.092 238.128C171.092 235.712 172.596 234.048 174.804 234.048C176.9 234.048 178.324 235.536 178.324 237.728V238.272H172.164C172.244 240.16 173.236 241.248 174.9 241.248C176.164 241.248 176.98 240.704 177.268 239.68H178.324C177.908 241.312 176.708 242.192 174.884 242.192ZM174.804 234.992C173.348 234.992 172.388 235.952 172.196 237.472H177.22C177.22 235.984 176.26 234.992 174.804 234.992ZM184.138 234.16V235.152H183.53C182.106 235.152 181.194 236.112 181.194 237.584V242H180.09V234.256H181.13L181.21 235.456C181.514 234.624 182.33 234.08 183.418 234.08C183.658 234.08 183.866 234.096 184.138 234.16ZM188.556 242.192C186.284 242.192 184.764 240.56 184.764 238.128C184.764 235.712 186.268 234.048 188.476 234.048C190.572 234.048 191.996 235.536 191.996 237.728V238.272H185.836C185.916 240.16 186.908 241.248 188.572 241.248C189.836 241.248 190.652 240.704 190.94 239.68H191.996C191.58 241.312 190.38 242.192 188.556 242.192ZM188.476 234.992C187.02 234.992 186.06 235.952 185.868 237.472H190.892C190.892 235.984 189.932 234.992 188.476 234.992ZM198.199 245.376V234.256H199.159L199.271 235.824C199.815 234.624 200.903 234.048 202.199 234.048C204.439 234.048 205.783 235.76 205.783 238.096C205.783 240.432 204.487 242.192 202.199 242.192C200.887 242.192 199.847 241.632 199.303 240.512V245.376H198.199ZM199.319 238.128C199.319 239.904 200.311 241.2 202.007 241.2C203.687 241.2 204.663 239.904 204.663 238.128C204.663 236.336 203.687 235.056 202.007 235.056C200.311 235.056 199.319 236.336 199.319 238.128ZM212.524 232.128C212.076 232.128 211.708 231.76 211.708 231.312C211.708 230.864 212.076 230.48 212.524 230.48C212.972 230.48 213.356 230.864 213.356 231.312C213.356 231.76 212.972 232.128 212.524 232.128ZM211.98 242V234.256H213.084V242H211.98ZM214.73 239.824H215.786C215.786 240.72 216.458 241.28 217.546 241.28C218.746 241.28 219.45 240.768 219.45 239.936C219.45 239.296 219.13 238.928 218.218 238.704L216.89 238.368C215.546 238.032 214.89 237.328 214.89 236.272C214.89 234.912 216.026 234.048 217.69 234.048C219.322 234.048 220.378 234.944 220.426 236.384H219.354C219.322 235.488 218.698 234.96 217.658 234.96C216.57 234.96 215.962 235.424 215.962 236.256C215.962 236.848 216.378 237.264 217.226 237.472L218.554 237.808C219.898 238.144 220.506 238.768 220.506 239.888C220.506 241.28 219.322 242.192 217.562 242.192C215.818 242.192 214.73 241.264 214.73 239.824ZM228.537 242H227.449V235.184H225.897V234.256H227.449V231.808H228.537V234.256H230.089V235.184H228.537V242ZM232.631 241.984H231.527V230.336H232.631V235.6C233.127 234.672 234.071 234.048 235.367 234.048C237.399 234.048 238.311 235.312 238.311 237.264V242H237.207V237.504C237.207 235.696 236.359 235.056 235.159 235.056C233.495 235.056 232.631 236.288 232.631 237.776V241.984ZM243.759 242.192C241.487 242.192 239.967 240.56 239.967 238.128C239.967 235.712 241.471 234.048 243.679 234.048C245.775 234.048 247.199 235.536 247.199 237.728V238.272H241.039C241.119 240.16 242.111 241.248 243.775 241.248C245.039 241.248 245.855 240.704 246.143 239.68H247.199C246.783 241.312 245.583 242.192 243.759 242.192ZM243.679 234.992C242.223 234.992 241.263 235.952 241.071 237.472H246.095C246.095 235.984 245.135 234.992 243.679 234.992ZM252.746 239.824H253.802C253.802 240.72 254.474 241.28 255.562 241.28C256.762 241.28 257.466 240.768 257.466 239.936C257.466 239.296 257.146 238.928 256.234 238.704L254.906 238.368C253.562 238.032 252.906 237.328 252.906 236.272C252.906 234.912 254.042 234.048 255.706 234.048C257.338 234.048 258.394 234.944 258.442 236.384H257.37C257.338 235.488 256.714 234.96 255.674 234.96C254.586 234.96 253.978 235.424 253.978 236.256C253.978 236.848 254.394 237.264 255.242 237.472L256.57 237.808C257.914 238.144 258.522 238.768 258.522 239.888C258.522 241.28 257.338 242.192 255.578 242.192C253.834 242.192 252.746 241.264 252.746 239.824ZM260.884 232.128C260.436 232.128 260.068 231.76 260.068 231.312C260.068 230.864 260.436 230.48 260.884 230.48C261.332 230.48 261.716 230.864 261.716 231.312C261.716 231.76 261.332 232.128 260.884 232.128ZM260.34 242V234.256H261.444V242H260.34ZM269.058 242H263.218V241.12L267.698 235.184H263.218V234.256H269.058V235.152L264.562 241.072H269.058V242ZM273.838 242.192C271.566 242.192 270.046 240.56 270.046 238.128C270.046 235.712 271.549 234.048 273.758 234.048C275.854 234.048 277.278 235.536 277.278 237.728V238.272H271.118C271.198 240.16 272.19 241.248 273.854 241.248C275.118 241.248 275.934 240.704 276.222 239.68H277.278C276.862 241.312 275.662 242.192 273.838 242.192ZM273.758 234.992C272.302 234.992 271.342 235.952 271.15 237.472H276.174C276.174 235.984 275.214 234.992 273.758 234.992ZM282.936 238.128C282.936 235.76 284.6 234.048 286.872 234.048C289.144 234.048 290.808 235.76 290.808 238.128C290.808 240.48 289.144 242.192 286.872 242.192C284.6 242.192 282.936 240.48 282.936 238.128ZM284.056 238.112C284.056 239.936 285.208 241.2 286.872 241.2C288.52 241.2 289.688 239.936 289.688 238.112C289.688 236.32 288.52 235.04 286.872 235.04C285.208 235.04 284.056 236.32 284.056 238.112ZM291.647 234.256H292.831V232.752C292.831 231.008 293.791 230.336 294.975 230.336C295.247 230.336 295.567 230.352 295.823 230.4V231.344H295.167C294.191 231.344 293.935 231.84 293.935 232.752V234.256H295.759V235.184H293.935V242H292.831V235.184H291.647V234.256ZM303.475 242H302.387V235.184H300.835V234.256H302.387V231.808H303.475V234.256H305.027V235.184H303.475V242ZM307.569 241.984H306.465V230.336H307.569V235.6C308.065 234.672 309.009 234.048 310.305 234.048C312.337 234.048 313.249 235.312 313.249 237.264V242H312.145V237.504C312.145 235.696 311.297 235.056 310.097 235.056C308.433 235.056 307.569 236.288 307.569 237.776V241.984ZM318.697 242.192C316.425 242.192 314.905 240.56 314.905 238.128C314.905 235.712 316.409 234.048 318.617 234.048C320.713 234.048 322.137 235.536 322.137 237.728V238.272H315.977C316.057 240.16 317.049 241.248 318.713 241.248C319.977 241.248 320.793 240.704 321.081 239.68H322.137C321.721 241.312 320.521 242.192 318.697 242.192ZM318.617 234.992C317.161 234.992 316.201 235.952 316.009 237.472H321.033C321.033 235.984 320.073 234.992 318.617 234.992ZM333.444 242V235.184H329.764V242H328.66V235.184H327.476V234.256H328.66V232.752C328.66 231.008 329.604 230.336 330.756 230.336C331.028 230.336 331.364 230.352 331.62 230.4V231.36H330.948C330.02 231.36 329.764 231.84 329.764 232.752V234.256H334.548V242H333.444ZM333.988 232.048C333.54 232.048 333.22 231.728 333.22 231.28C333.22 230.832 333.54 230.496 333.988 230.496C334.42 230.496 334.756 230.832 334.756 231.28C334.756 231.728 334.42 232.048 333.988 232.048ZM340.056 242.192C337.784 242.192 336.264 240.56 336.264 238.128C336.264 235.712 337.768 234.048 339.976 234.048C342.072 234.048 343.496 235.536 343.496 237.728V238.272H337.336C337.416 240.16 338.408 241.248 340.072 241.248C341.336 241.248 342.152 240.704 342.44 239.68H343.496C343.08 241.312 341.88 242.192 340.056 242.192ZM339.976 234.992C338.52 234.992 337.56 235.952 337.368 237.472H342.392C342.392 235.984 341.432 234.992 339.976 234.992ZM346.413 242H345.309V230.336H346.413V242ZM351.801 242.192C349.545 242.192 348.217 240.464 348.217 238.144C348.217 235.808 349.545 234.048 351.849 234.048C353.129 234.048 354.153 234.608 354.697 235.728V230.336H355.801V242H354.841L354.729 240.416C354.185 241.616 353.097 242.192 351.801 242.192ZM351.993 241.184C353.689 241.184 354.681 239.904 354.681 238.112C354.681 236.336 353.689 235.04 351.993 235.04C350.313 235.04 349.337 236.336 349.337 238.112C349.337 239.904 350.313 241.184 351.993 241.184ZM357.961 244.512H356.953C358.217 242.752 359.065 240.016 359.065 237.2C359.065 234.32 358.185 231.632 356.953 229.904H357.961C359.353 231.808 360.185 234.56 360.185 237.2C360.185 239.952 359.305 242.672 357.961 244.512Z" fill="#E2C65B"/>
<rect x="334.333" y="331.5" width="173" height="47" fill="#172012"/>
<rect x="334.333" y="331.5" width="173" height="47" stroke="#F0CE7B"/>
<rect x="569.667" y="331.792" width="46.4167" height="46.3333" transform="rotate(90 569.667 331.792)" fill="#172012"/>
<rect x="569.667" y="331.792" width="46.4167" height="46.3333" transform="rotate(90 569.667 331.792)" stroke="#F0CE7B"/>
<path d="M530.833 353.042L530.833 356.958L554.333 356.958L554.333 360.875L558.25 360.875L558.25 356.958L562.167 356.958L562.167 353.042L558.25 353.042L558.25 349.125L554.333 349.125L554.333 353.042L530.833 353.042ZM550.417 345.208L554.333 345.208L554.333 349.125L550.417 349.125L550.417 345.208ZM550.417 345.208L546.5 345.208L546.5 341.292L550.417 341.292L550.417 345.208ZM550.417 364.792L554.333 364.792L554.333 360.875L550.417 360.875L550.417 364.792ZM550.417 364.792L546.5 364.792L546.5 368.708L550.417 368.708L550.417 364.792Z" fill="#F0CE7B"/>
</svg>
