<svg width="904" height="266" viewBox="0 0 904 266" fill="none" xmlns="http://www.w3.org/2000/svg">
<rect x="1" y="1" width="902" height="264" fill="#1F2B17"/>
<rect x="1" y="1" width="902" height="264" stroke="#E2C65B" stroke-width="2"/>
<path d="M372.042 62.8V66H368.842V62.8H365.642V66H352.842V62.8H349.642V46.8H352.842V43.6H368.842V46.8H372.042V59.6H368.842V62.8H372.042ZM359.242 56.4H365.642V46.8H356.042V62.8H362.442V59.6H359.242V56.4ZM398.542 43.6V62.8H395.342V66H379.342V62.8H376.142V43.6H382.542V62.8H392.142V43.6H398.542ZM425.042 62.8V66H402.642V43.6H425.042V46.8H409.042V53.2H421.842V56.4H409.042V62.8H425.042ZM451.542 56.4V62.8H448.342V66H432.342V62.8H429.142V59.6H435.542V62.8H445.142V56.4H432.342V53.2H429.142V46.8H432.342V43.6H445.142V46.8H448.342V50H441.942V46.8H435.542V53.2H448.342V56.4H451.542ZM473.254 43.6V46.8H466.854V66H460.454V46.8H454.054V43.6H473.254ZM499.754 43.6V46.8H493.354V62.8H499.754V66H480.554V62.8H486.954V46.8H480.554V43.6H499.754ZM527.854 46.8V62.8H524.654V66H508.654V62.8H505.454V46.8H508.654V43.6H524.654V46.8H527.854ZM511.854 62.8H521.454V46.8H511.854V62.8ZM554.354 43.6V66H547.954V62.8H544.754V59.6H541.554V56.4H538.354V66H531.954V43.6H538.354V46.8H541.554V50H544.754V53.2H547.954V43.6H554.354Z" fill="#E2C65B"/>
<path d="M84.1742 113H73.5902V95.648H84.1742V97.808H75.9422V103.232H83.3582V105.32H75.9422V110.816H84.1742V113ZM90.1817 113L85.4537 101.264H87.8537L90.4217 107.816C90.8297 108.92 91.1657 109.904 91.3577 110.624C91.5497 109.856 91.9337 108.848 92.3417 107.816L94.9577 101.264H97.3097L92.4137 113H90.1817ZM101.998 113.288C99.4776 113.288 97.9896 111.872 97.9896 109.736C97.9896 107.576 99.5976 106.232 102.358 106.016L106.054 105.728V105.392C106.054 103.424 104.878 102.728 103.294 102.728C101.398 102.728 100.318 103.568 100.318 104.984H98.3496C98.3496 102.536 100.366 100.928 103.39 100.928C106.294 100.928 108.262 102.464 108.262 105.632V113H106.342L106.102 111.104C105.502 112.448 103.894 113.288 101.998 113.288ZM102.646 111.536C104.782 111.536 106.078 110.144 106.078 107.936V107.312L103.078 107.552C101.086 107.744 100.27 108.512 100.27 109.664C100.27 110.912 101.182 111.536 102.646 111.536ZM113.69 113H111.434V95.336H113.69V113ZM125.123 101.264H127.355V113H125.339L125.099 111.224C124.427 112.448 122.867 113.288 121.139 113.288C118.403 113.288 116.867 111.44 116.867 108.56V101.264H119.123V107.816C119.123 110.336 120.203 111.296 121.931 111.296C123.995 111.296 125.123 109.976 125.123 107.456V101.264ZM134.06 113.288C131.54 113.288 130.052 111.872 130.052 109.736C130.052 107.576 131.66 106.232 134.42 106.016L138.116 105.728V105.392C138.116 103.424 136.94 102.728 135.356 102.728C133.46 102.728 132.38 103.568 132.38 104.984H130.412C130.412 102.536 132.428 100.928 135.452 100.928C138.356 100.928 140.324 102.464 140.324 105.632V113H138.404L138.164 111.104C137.564 112.448 135.956 113.288 134.06 113.288ZM134.708 111.536C136.844 111.536 138.14 110.144 138.14 107.936V107.312L135.14 107.552C133.148 107.744 132.332 108.512 132.332 109.664C132.332 110.912 133.244 111.536 134.708 111.536ZM146.573 113H144.317V103.16H142.013V101.264H144.317V97.592H146.573V101.264H148.877V103.16H146.573V113ZM155.848 113.288C152.392 113.288 150.016 110.792 150.016 107.144C150.016 103.472 152.344 100.928 155.752 100.928C159.088 100.928 161.272 103.232 161.272 106.712V107.552L152.2 107.576C152.368 110.048 153.664 111.416 155.896 111.416C157.648 111.416 158.8 110.696 159.184 109.352H161.296C160.72 111.872 158.752 113.288 155.848 113.288ZM155.752 102.824C153.784 102.824 152.536 104 152.248 106.064H159.016C159.016 104.12 157.744 102.824 155.752 102.824ZM173.667 113H171.411V103.16H169.107V101.264H171.411V97.592H173.667V101.264H175.971V103.16H173.667V113ZM180.251 112.976H177.995V95.336H180.251V103.064C180.995 101.792 182.411 100.928 184.235 100.928C187.235 100.928 188.675 102.824 188.675 105.824V113H186.419V106.328C186.419 103.952 185.291 102.992 183.611 102.992C181.427 102.992 180.251 104.576 180.251 106.592V112.976ZM196.864 113.288C193.408 113.288 191.032 110.792 191.032 107.144C191.032 103.472 193.36 100.928 196.768 100.928C200.104 100.928 202.288 103.232 202.288 106.712V107.552L193.216 107.576C193.384 110.048 194.68 111.416 196.912 111.416C198.664 111.416 199.816 110.696 200.2 109.352H202.312C201.736 111.872 199.768 113.288 196.864 113.288ZM196.768 102.824C194.8 102.824 193.552 104 193.264 106.064H200.032C200.032 104.12 198.76 102.824 196.768 102.824ZM211.37 118.256V101.264H213.41L213.578 103.376C214.37 101.768 215.954 100.928 217.826 100.928C221.186 100.928 223.274 103.448 223.274 107.048C223.274 110.624 221.306 113.312 217.826 113.312C215.954 113.312 214.394 112.52 213.626 111.08V118.256H211.37ZM213.65 107.144C213.65 109.544 215.042 111.272 217.346 111.272C219.65 111.272 221.018 109.544 221.018 107.144C221.018 104.72 219.65 102.992 217.346 102.992C215.042 102.992 213.65 104.696 213.65 107.144ZM224.993 107.12C224.993 103.496 227.585 100.952 231.113 100.952C234.617 100.952 237.209 103.496 237.209 107.12C237.209 110.744 234.617 113.288 231.113 113.288C227.585 113.288 224.993 110.744 224.993 107.12ZM227.273 107.12C227.273 109.568 228.833 111.272 231.113 111.272C233.369 111.272 234.953 109.568 234.953 107.12C234.953 104.672 233.369 102.968 231.113 102.968C228.833 102.968 227.273 104.672 227.273 107.12ZM242.01 113H239.754V95.336H242.01V113ZM244.203 118.256V116.408H245.715C246.795 116.408 247.659 116.24 248.211 114.752L248.619 113.624L243.891 101.264H246.267L249.675 110.72L253.155 101.264H255.483L249.939 115.64C249.147 117.656 247.971 118.496 246.171 118.496C245.427 118.496 244.803 118.4 244.203 118.256ZM259.54 113H257.284V101.264H259.324L259.564 103.064C260.308 101.72 261.796 100.928 263.452 100.928C266.548 100.928 267.964 102.824 267.964 105.824V113H265.708V106.328C265.708 103.952 264.604 102.992 262.876 102.992C260.764 102.992 259.54 104.504 259.54 106.784V113ZM270.321 107.12C270.321 103.496 272.913 100.952 276.441 100.952C279.945 100.952 282.537 103.496 282.537 107.12C282.537 110.744 279.945 113.288 276.441 113.288C272.913 113.288 270.321 110.744 270.321 107.12ZM272.601 107.12C272.601 109.568 274.161 111.272 276.441 111.272C278.697 111.272 280.281 109.568 280.281 107.12C280.281 104.672 278.697 102.968 276.441 102.968C274.161 102.968 272.601 104.672 272.601 107.12ZM287.29 113H285.034V101.264H287.05L287.266 102.8C287.866 101.696 289.114 100.928 290.77 100.928C292.594 100.928 293.89 101.84 294.49 103.304C295.042 101.84 296.458 100.928 298.282 100.928C300.97 100.928 302.602 102.608 302.602 105.32V113H300.394V105.872C300.394 104.024 299.362 102.968 297.778 102.968C296.074 102.968 294.946 104.168 294.946 106.04V113H292.714V105.848C292.714 104 291.706 102.992 290.122 102.992C288.418 102.992 287.29 104.168 287.29 106.04V113ZM306.834 98.48C306.018 98.48 305.346 97.808 305.346 96.992C305.346 96.152 306.018 95.504 306.834 95.504C307.65 95.504 308.322 96.152 308.322 96.992C308.322 97.808 307.65 98.48 306.834 98.48ZM305.73 113V101.264H307.986V113H305.73ZM314.693 113.288C312.173 113.288 310.685 111.872 310.685 109.736C310.685 107.576 312.293 106.232 315.053 106.016L318.749 105.728V105.392C318.749 103.424 317.573 102.728 315.989 102.728C314.093 102.728 313.013 103.568 313.013 104.984H311.045C311.045 102.536 313.061 100.928 316.085 100.928C318.989 100.928 320.957 102.464 320.957 105.632V113H319.037L318.797 111.104C318.197 112.448 316.589 113.288 314.693 113.288ZM315.341 111.536C317.477 111.536 318.773 110.144 318.773 107.936V107.312L315.773 107.552C313.781 107.744 312.965 108.512 312.965 109.664C312.965 110.912 313.877 111.536 315.341 111.536ZM326.385 113H324.129V95.336H326.385V113ZM335.021 101.264H336.749V99.392C336.749 96.512 338.333 95.336 340.469 95.336C340.901 95.336 341.405 95.36 341.861 95.432V97.376H340.853C339.389 97.376 339.005 98.12 339.005 99.392V101.264H341.789V103.16H339.005V113H336.749V103.16H335.021V101.264ZM348.95 117.152H347.078C344.87 114.392 343.406 110.216 343.406 105.872C343.406 101.792 344.726 97.52 347.078 94.616H348.95C347.054 97.256 345.71 101.384 345.71 105.872C345.71 110.12 346.91 114.344 348.95 117.152ZM351.789 113H349.197L353.301 107.192L349.221 101.264H351.837L354.813 105.632L357.717 101.264H360.285L356.205 107.192L360.213 113H357.597L354.669 108.704L351.789 113ZM362.431 117.152H360.535C362.575 114.344 363.775 110.12 363.775 105.872C363.775 101.384 362.455 97.256 360.535 94.616H362.431C364.759 97.52 366.079 101.792 366.079 105.872C366.079 110.216 364.615 114.392 362.431 117.152ZM375.721 102.344H387.721V104.288H375.721V102.344ZM375.721 107.384H387.721V109.328H375.721V107.384ZM402.351 104.024H400.623V102.464L405.543 97.736H397.743V95.648H408.519V97.544L403.767 102.08C406.719 102.44 408.951 104.432 408.951 107.552C408.951 111.056 406.311 113.288 402.783 113.288C399.375 113.288 396.927 111.2 396.927 107.6H399.255C399.255 109.856 400.647 111.176 402.831 111.176C405.087 111.176 406.551 109.736 406.551 107.504C406.551 105.416 405.111 104.024 402.351 104.024ZM412.68 113H410.088L414.192 107.192L410.112 101.264H412.728L415.704 105.632L418.608 101.264H421.176L417.096 107.192L421.104 113H418.488L415.56 108.704L412.68 113ZM425.122 103.4H423.13L426.322 95.648H428.53L431.722 103.4H429.73L427.426 97.64L425.122 103.4ZM439.57 104.024H437.842V102.464L442.762 97.736H434.962V95.648H445.738V97.544L440.986 102.08C443.938 102.44 446.17 104.432 446.17 107.552C446.17 111.056 443.53 113.288 440.002 113.288C436.594 113.288 434.146 111.2 434.146 107.6H436.474C436.474 109.856 437.866 111.176 440.05 111.176C442.306 111.176 443.77 109.736 443.77 107.504C443.77 105.416 442.33 104.024 439.57 104.024ZM455.549 103.952H460.589V98.912H462.509V103.952H467.549V105.872H462.509V110.936H460.589V105.872H455.549V103.952ZM483.043 113.288C479.491 113.288 477.187 111.032 477.187 107.576H479.515C479.515 109.808 480.883 111.176 483.091 111.176C485.443 111.176 486.955 109.616 486.955 107.264C486.955 105.032 485.539 103.376 483.115 103.376C481.651 103.376 480.307 104.072 479.515 105.056L477.523 104.552L479.635 95.648H488.323V97.808H481.339L480.187 102.416C481.099 101.72 482.251 101.36 483.547 101.36C487.075 101.36 489.355 103.832 489.355 107.168C489.355 110.768 486.787 113.288 483.043 113.288ZM493.047 113H490.455L494.559 107.192L490.479 101.264H493.095L496.071 105.632L498.975 101.264H501.543L497.463 107.192L501.471 113H498.855L495.927 108.704L493.047 113ZM505.489 103.4H503.497L506.689 95.648H508.897L512.089 103.4H510.097L507.793 97.64L505.489 103.4ZM526.609 112.976L514.897 113V111.2L520.489 106.376C523.297 103.952 524.089 102.776 524.089 100.928C524.089 98.744 522.841 97.448 520.753 97.448C518.617 97.448 517.225 99.008 517.177 101.48H514.825C514.897 97.76 517.249 95.336 520.777 95.336C524.257 95.336 526.489 97.448 526.489 100.784C526.489 103.256 525.265 105.008 522.193 107.672L518.593 110.792H526.609V112.976ZM536.08 103.952H541.12V98.912H543.04V103.952H548.08V105.872H543.04V110.936H541.12V105.872H536.08V103.952ZM556.758 95.648H568.878V97.808L562.302 113H559.854L566.502 97.808H556.758V95.648ZM571.867 113H569.275L573.379 107.192L569.299 101.264H571.915L574.891 105.632L577.795 101.264H580.363L576.283 107.192L580.291 113H577.675L574.747 108.704L571.867 113ZM589.096 103.952H594.136V98.912H596.056V103.952H601.096V105.872H596.056V110.936H594.136V105.872H589.096V103.952ZM614.07 97.76H610.422V95.648H616.326V113H614.07V97.76ZM622.601 97.76H618.953V95.648H624.857V113H622.601V97.76ZM634.282 107.12C634.282 103.496 636.874 100.952 640.402 100.952C643.906 100.952 646.498 103.496 646.498 107.12C646.498 110.744 643.906 113.288 640.402 113.288C636.874 113.288 634.282 110.744 634.282 107.12ZM636.562 107.12C636.562 109.568 638.122 111.272 640.402 111.272C642.658 111.272 644.242 109.568 644.242 107.12C644.242 104.672 642.658 102.968 640.402 102.968C638.122 102.968 636.562 104.672 636.562 107.12ZM651.744 113L647.016 101.264H649.416L651.984 107.816C652.392 108.92 652.728 109.904 652.92 110.624C653.112 109.856 653.496 108.848 653.904 107.816L656.52 101.264H658.872L653.976 113H651.744ZM665.192 113.288C661.736 113.288 659.36 110.792 659.36 107.144C659.36 103.472 661.688 100.928 665.096 100.928C668.432 100.928 670.616 103.232 670.616 106.712V107.552L661.544 107.576C661.712 110.048 663.008 111.416 665.24 111.416C666.992 111.416 668.144 110.696 668.528 109.352H670.64C670.064 111.872 668.096 113.288 665.192 113.288ZM665.096 102.824C663.128 102.824 661.88 104 661.592 106.064H668.36C668.36 104.12 667.088 102.824 665.096 102.824ZM679.856 101.168V103.232H678.848C676.712 103.232 675.392 104.528 675.392 106.784V113H673.136V101.288H675.248L675.392 103.064C675.872 101.84 677.048 101.024 678.656 101.024C679.064 101.024 679.4 101.072 679.856 101.168ZM691.966 113.288C689.446 113.288 687.958 111.872 687.958 109.736C687.958 107.576 689.566 106.232 692.326 106.016L696.022 105.728V105.392C696.022 103.424 694.846 102.728 693.262 102.728C691.366 102.728 690.286 103.568 690.286 104.984H688.318C688.318 102.536 690.334 100.928 693.358 100.928C696.262 100.928 698.23 102.464 698.23 105.632V113H696.31L696.07 111.104C695.47 112.448 693.862 113.288 691.966 113.288ZM692.614 111.536C694.75 111.536 696.046 110.144 696.046 107.936V107.312L693.046 107.552C691.054 107.744 690.238 108.512 690.238 109.664C690.238 110.912 691.15 111.536 692.614 111.536ZM715.861 113V103.16H710.653V113H708.397V103.16H706.669V101.264H708.397V99.392C708.397 96.512 709.957 95.336 711.997 95.336C712.429 95.336 712.957 95.36 713.389 95.432V97.376H712.381C711.013 97.376 710.653 98.12 710.653 99.392V101.264H718.117V113H715.861ZM716.989 98.384C716.173 98.384 715.549 97.76 715.549 96.944C715.549 96.128 716.173 95.504 716.989 95.504C717.781 95.504 718.405 96.128 718.405 96.944C718.405 97.76 717.781 98.384 716.989 98.384ZM723.579 113H721.323V101.264H723.363L723.603 103.064C724.347 101.72 725.835 100.928 727.491 100.928C730.587 100.928 732.003 102.824 732.003 105.824V113H729.747V106.328C729.747 103.952 728.643 102.992 726.915 102.992C724.803 102.992 723.579 104.504 723.579 106.784V113ZM736.232 98.48C735.416 98.48 734.744 97.808 734.744 96.992C734.744 96.152 735.416 95.504 736.232 95.504C737.048 95.504 737.72 96.152 737.72 96.992C737.72 97.808 737.048 98.48 736.232 98.48ZM735.128 113V101.264H737.384V113H735.128ZM743.971 113H741.715V103.16H739.411V101.264H741.715V97.592H743.971V101.264H746.275V103.16H743.971V113ZM753.247 113.288C749.791 113.288 747.415 110.792 747.415 107.144C747.415 103.472 749.743 100.928 753.151 100.928C756.487 100.928 758.671 103.232 758.671 106.712V107.552L749.599 107.576C749.767 110.048 751.063 111.416 753.295 111.416C755.047 111.416 756.199 110.696 756.583 109.352H758.695C758.119 111.872 756.151 113.288 753.247 113.288ZM753.151 102.824C751.183 102.824 749.935 104 749.647 106.064H756.415C756.415 104.12 755.143 102.824 753.151 102.824ZM775.697 113V103.16H770.489V113H768.233V103.16H766.505V101.264H768.233V99.392C768.233 96.512 769.793 95.336 771.833 95.336C772.265 95.336 772.793 95.36 773.225 95.432V97.376H772.217C770.849 97.376 770.489 98.12 770.489 99.392V101.264H777.953V113H775.697ZM776.825 98.384C776.009 98.384 775.385 97.76 775.385 96.944C775.385 96.128 776.009 95.504 776.825 95.504C777.617 95.504 778.241 96.128 778.241 96.944C778.241 97.76 777.617 98.384 776.825 98.384ZM786.223 113.288C782.767 113.288 780.391 110.792 780.391 107.144C780.391 103.472 782.719 100.928 786.127 100.928C789.463 100.928 791.647 103.232 791.647 106.712V107.552L782.575 107.576C782.743 110.048 784.039 111.416 786.271 111.416C788.023 111.416 789.175 110.696 789.559 109.352H791.671C791.095 111.872 789.127 113.288 786.223 113.288ZM786.127 102.824C784.159 102.824 782.911 104 782.623 106.064H789.391C789.391 104.12 788.119 102.824 786.127 102.824ZM796.471 113H794.215V95.336H796.471V113ZM804.496 113.288C801.088 113.288 799.024 110.744 799.024 107.168C799.024 103.568 801.112 100.928 804.592 100.928C806.392 100.928 807.904 101.72 808.696 103.16V95.336H810.928V113H808.912L808.72 110.864C807.952 112.472 806.368 113.288 804.496 113.288ZM804.952 111.248C807.256 111.248 808.672 109.544 808.672 107.096C808.672 104.696 807.256 102.968 804.952 102.968C802.648 102.968 801.304 104.696 801.304 107.096C801.304 109.52 802.648 111.248 804.952 111.248ZM830.297 105.632H823.481V113H821.129V95.648H831.593V97.808H823.481V103.496H830.297V105.632ZM408.954 133.264H410.682V131.392C410.682 128.512 412.266 127.336 414.402 127.336C414.834 127.336 415.338 127.36 415.794 127.432V129.376H414.786C413.322 129.376 412.938 130.12 412.938 131.392V133.264H415.722V135.16H412.938V145H410.682V135.16H408.954V133.264ZM416.7 139.12C416.7 135.496 419.292 132.952 422.82 132.952C426.324 132.952 428.916 135.496 428.916 139.12C428.916 142.744 426.324 145.288 422.82 145.288C419.292 145.288 416.7 142.744 416.7 139.12ZM418.98 139.12C418.98 141.568 420.54 143.272 422.82 143.272C425.076 143.272 426.66 141.568 426.66 139.12C426.66 136.672 425.076 134.968 422.82 134.968C420.54 134.968 418.98 136.672 418.98 139.12ZM438.133 133.168V135.232H437.125C434.989 135.232 433.669 136.528 433.669 138.784V145H431.413V133.288H433.525L433.669 135.064C434.149 133.84 435.325 133.024 436.933 133.024C437.341 133.024 437.677 133.072 438.133 133.168ZM448.012 145H445.42L449.524 139.192L445.444 133.264H448.06L451.036 137.632L453.94 133.264H456.508L452.428 139.192L456.436 145H453.82L450.892 140.704L448.012 145ZM458.678 134.344H470.678V136.288H458.678V134.344ZM458.678 139.384H470.678V141.328H458.678V139.384ZM477.09 129.76H473.442V127.648H479.346V145H477.09V129.76ZM488.258 145.288C484.706 145.288 482.402 143.032 482.402 139.576H484.73C484.73 141.808 486.098 143.176 488.306 143.176C490.658 143.176 492.17 141.616 492.17 139.264C492.17 137.032 490.754 135.376 488.33 135.376C486.866 135.376 485.522 136.072 484.73 137.056L482.738 136.552L484.85 127.648H493.538V129.808H486.554L485.402 134.416C486.314 133.72 487.466 133.36 488.762 133.36C492.29 133.36 494.57 135.832 494.57 139.168C494.57 142.768 492.002 145.288 488.258 145.288Z" fill="#E2C65B"/>
<path d="M827.713 110.38H825.889V109.324H828.841V118H827.713V110.38ZM830.428 113.668C830.428 110.98 831.82 109.156 834.004 109.156C836.176 109.156 837.568 110.98 837.568 113.668C837.568 116.368 836.236 118.156 834.004 118.156C831.76 118.156 830.428 116.368 830.428 113.668ZM831.592 113.668C831.592 115.804 832.48 117.1 834.004 117.1C835.528 117.1 836.404 115.804 836.404 113.668C836.404 111.508 835.528 110.212 834.004 110.212C832.48 110.212 831.592 111.508 831.592 113.668ZM840.404 110.38H838.58V109.324H841.532V118H840.404V110.38Z" fill="#E2C65B"/>
<rect x="334.333" y="184.5" width="173" height="47" fill="#172012"/>
<rect x="334.333" y="184.5" width="173" height="47" stroke="#F0CE7B"/>
<rect x="569.667" y="184.792" width="46.4167" height="46.3333" transform="rotate(90 569.667 184.792)" fill="#172012"/>
<rect x="569.667" y="184.792" width="46.4167" height="46.3333" transform="rotate(90 569.667 184.792)" stroke="#F0CE7B"/>
<path d="M530.833 206.042L530.833 209.958L554.333 209.958L554.333 213.875L558.25 213.875L558.25 209.958L562.167 209.958L562.167 206.042L558.25 206.042L558.25 202.125L554.333 202.125L554.333 206.042L530.833 206.042ZM550.417 198.208L554.333 198.208L554.333 202.125L550.417 202.125L550.417 198.208ZM550.417 198.208L546.5 198.208L546.5 194.292L550.417 194.292L550.417 198.208ZM550.417 217.792L554.333 217.792L554.333 213.875L550.417 213.875L550.417 217.792ZM550.417 217.792L546.5 217.792L546.5 221.708L550.417 221.708L550.417 217.792Z" fill="#F0CE7B"/>
</svg>
