<svg width="924" height="519" viewBox="0 0 924 519" fill="none" xmlns="http://www.w3.org/2000/svg">
<rect x="1" y="1" width="922" height="517" fill="#1F2B17"/>
<rect x="1" y="1" width="922" height="517" stroke="#E2C65B" stroke-width="2"/>
<path d="M382.042 62.8V66H378.842V62.8H375.642V66H362.842V62.8H359.642V46.8H362.842V43.6H378.842V46.8H382.042V59.6H378.842V62.8H382.042ZM369.242 56.4H375.642V46.8H366.042V62.8H372.442V59.6H369.242V56.4ZM408.542 43.6V62.8H405.342V66H389.342V62.8H386.142V43.6H392.542V62.8H402.142V43.6H408.542ZM435.042 62.8V66H412.642V43.6H435.042V46.8H419.042V53.2H431.842V56.4H419.042V62.8H435.042ZM461.542 56.4V62.8H458.342V66H442.342V62.8H439.142V59.6H445.542V62.8H455.142V56.4H442.342V53.2H439.142V46.8H442.342V43.6H455.142V46.8H458.342V50H451.942V46.8H445.542V53.2H458.342V56.4H461.542ZM483.254 43.6V46.8H476.854V66H470.454V46.8H464.054V43.6H483.254ZM509.754 43.6V46.8H503.354V62.8H509.754V66H490.554V62.8H496.954V46.8H490.554V43.6H509.754ZM537.854 46.8V62.8H534.654V66H518.654V62.8H515.454V46.8H518.654V43.6H534.654V46.8H537.854ZM521.854 62.8H531.454V46.8H521.854V62.8ZM564.354 43.6V66H557.954V62.8H554.754V59.6H551.554V56.4H548.354V66H541.954V43.6H548.354V46.8H551.554V50H554.754V53.2H557.954V43.6H564.354Z" fill="#E2C65B"/>
<path d="M120.213 105.824L114.381 95.816H116.325L120.573 103.232C120.765 103.592 120.909 103.88 121.077 104.264C121.293 103.832 121.293 103.832 121.605 103.232L125.805 95.816H127.701L121.941 105.824V113H120.213V105.824ZM126.607 107.192C126.607 103.64 129.103 101.072 132.511 101.072C135.919 101.072 138.415 103.64 138.415 107.192C138.415 110.72 135.919 113.288 132.511 113.288C129.103 113.288 126.607 110.72 126.607 107.192ZM128.287 107.168C128.287 109.904 130.015 111.8 132.511 111.8C134.983 111.8 136.735 109.904 136.735 107.168C136.735 104.48 134.983 102.56 132.511 102.56C130.015 102.56 128.287 104.48 128.287 107.168ZM148.943 101.384H150.599V113H149.159L148.943 111.032C148.295 112.376 146.687 113.288 144.863 113.288C142.127 113.288 140.639 111.416 140.639 108.584V101.36H142.319V108.056C142.319 110.816 143.543 111.8 145.391 111.8C147.623 111.8 148.943 110.312 148.943 107.552V101.384ZM164.041 113.288C161.569 113.288 160.105 111.896 160.105 109.856C160.105 107.72 161.737 106.376 164.449 106.16L168.289 105.848V105.464C168.289 103.184 166.921 102.464 165.217 102.464C163.201 102.464 162.001 103.376 162.001 104.936H160.489C160.489 102.584 162.409 101.072 165.265 101.072C167.953 101.072 169.921 102.416 169.921 105.488V113H168.529L168.313 110.96C167.593 112.424 166.009 113.288 164.041 113.288ZM164.425 111.944C166.873 111.944 168.289 110.24 168.289 107.72V107.096L164.857 107.36C162.673 107.552 161.785 108.512 161.785 109.808C161.785 111.224 162.841 111.944 164.425 111.944ZM179.316 101.24V102.728H178.404C176.268 102.728 174.9 104.168 174.9 106.376V113H173.244V101.384H174.804L174.924 103.184C175.38 101.936 176.604 101.12 178.236 101.12C178.596 101.12 178.908 101.144 179.316 101.24ZM185.944 113.288C182.536 113.288 180.256 110.84 180.256 107.192C180.256 103.568 182.512 101.072 185.824 101.072C188.968 101.072 191.104 103.304 191.104 106.592V107.408H181.864C181.984 110.24 183.472 111.872 185.968 111.872C187.864 111.872 189.088 111.056 189.52 109.52H191.104C190.48 111.968 188.68 113.288 185.944 113.288ZM185.824 102.488C183.64 102.488 182.2 103.928 181.912 106.208H189.448C189.448 103.976 188.008 102.488 185.824 102.488ZM199.616 106.856C199.616 103.688 201.656 101.072 205.064 101.072C207.08 101.072 208.616 102.008 209.36 103.712L209.528 101.384H210.968V112.64C210.968 116.096 208.76 118.352 205.352 118.352C202.376 118.352 200.288 116.672 199.832 113.864H201.488C201.848 115.736 203.288 116.84 205.376 116.84C207.752 116.84 209.336 115.232 209.336 112.808V110.048C208.544 111.68 206.936 112.64 204.944 112.64C201.632 112.64 199.616 110.024 199.616 106.856ZM201.272 106.832C201.272 109.208 202.736 111.152 205.184 111.152C207.704 111.152 209.192 109.328 209.192 106.832C209.192 104.36 207.752 102.536 205.208 102.536C202.712 102.536 201.272 104.48 201.272 106.832ZM215.239 98.192C214.567 98.192 214.015 97.64 214.015 96.968C214.015 96.296 214.567 95.72 215.239 95.72C215.911 95.72 216.487 96.296 216.487 96.968C216.487 97.64 215.911 98.192 215.239 98.192ZM214.423 113V101.384H216.079V113H214.423ZM222.773 113L218.021 101.384H219.797L222.797 108.872C223.109 109.712 223.421 110.504 223.637 111.272C223.853 110.48 224.165 109.712 224.501 108.872L227.549 101.384H229.253L224.429 113H222.773ZM235.561 113.288C232.153 113.288 229.873 110.84 229.873 107.192C229.873 103.568 232.129 101.072 235.441 101.072C238.585 101.072 240.721 103.304 240.721 106.592V107.408H231.481C231.601 110.24 233.089 111.872 235.585 111.872C237.481 111.872 238.705 111.056 239.137 109.52H240.721C240.097 111.968 238.297 113.288 235.561 113.288ZM235.441 102.488C233.257 102.488 231.817 103.928 231.529 106.208H239.065C239.065 103.976 237.625 102.488 235.441 102.488ZM245.025 113H243.369V101.384H244.809L245.049 103.4C245.817 101.912 247.353 101.072 249.033 101.072C252.225 101.072 253.545 102.968 253.545 105.896V113H251.889V106.256C251.889 103.544 250.665 102.584 248.745 102.584C246.369 102.584 245.025 104.312 245.025 106.928V113ZM266.165 113H264.533V102.776H262.205V101.384H264.533V97.712H266.165V101.384H268.493V102.776H266.165V113ZM272.306 112.976H270.65V95.504H272.306V103.4C273.05 102.008 274.466 101.072 276.41 101.072C279.458 101.072 280.826 102.968 280.826 105.896V113H279.17V106.256C279.17 103.544 277.898 102.584 276.098 102.584C273.602 102.584 272.306 104.432 272.306 106.664V112.976ZM288.998 113.288C285.59 113.288 283.31 110.84 283.31 107.192C283.31 103.568 285.566 101.072 288.878 101.072C292.022 101.072 294.158 103.304 294.158 106.592V107.408H284.918C285.038 110.24 286.526 111.872 289.022 111.872C290.918 111.872 292.142 111.056 292.574 109.52H294.158C293.534 111.968 291.734 113.288 288.998 113.288ZM288.878 102.488C286.694 102.488 285.254 103.928 284.966 106.208H292.502C292.502 103.976 291.062 102.488 288.878 102.488ZM308.334 113.288C304.926 113.288 302.646 110.84 302.646 107.192C302.646 103.568 304.902 101.072 308.214 101.072C311.358 101.072 313.494 103.304 313.494 106.592V107.408H304.254C304.374 110.24 305.862 111.872 308.358 111.872C310.254 111.872 311.478 111.056 311.91 109.52H313.494C312.87 111.968 311.07 113.288 308.334 113.288ZM308.214 102.488C306.03 102.488 304.59 103.928 304.302 106.208H311.838C311.838 103.976 310.398 102.488 308.214 102.488ZM317.87 113H316.214V95.504H317.87V113ZM323.12 113H321.464V95.504H323.12V113ZM327.458 98.192C326.786 98.192 326.234 97.64 326.234 96.968C326.234 96.296 326.786 95.72 327.458 95.72C328.13 95.72 328.706 96.296 328.706 96.968C328.706 97.64 328.13 98.192 327.458 98.192ZM326.642 113V101.384H328.298V113H326.642ZM331.751 118.064V101.384H333.191L333.359 103.736C334.175 101.936 335.807 101.072 337.751 101.072C341.111 101.072 343.127 103.64 343.127 107.144C343.127 110.648 341.183 113.288 337.751 113.288C335.783 113.288 334.223 112.448 333.407 110.768V118.064H331.751ZM333.431 107.192C333.431 109.856 334.919 111.8 337.463 111.8C339.983 111.8 341.447 109.856 341.447 107.192C341.447 104.504 339.983 102.584 337.463 102.584C334.919 102.584 333.431 104.504 333.431 107.192ZM348.314 113H346.682V102.776H344.354V101.384H346.682V97.712H348.314V101.384H350.642V102.776H348.314V113ZM353.614 98.192C352.942 98.192 352.39 97.64 352.39 96.968C352.39 96.296 352.942 95.72 353.614 95.72C354.286 95.72 354.862 96.296 354.862 96.968C354.862 97.64 354.286 98.192 353.614 98.192ZM352.798 113V101.384H354.454V113H352.798ZM357.092 107.216C357.092 103.568 359.324 101.072 362.708 101.072C365.396 101.072 367.364 102.632 367.82 105.032H366.164C365.732 103.424 364.34 102.536 362.732 102.536C360.38 102.536 358.724 104.336 358.724 107.192C358.724 109.952 360.26 111.8 362.612 111.8C364.34 111.8 365.732 110.84 366.188 109.352H367.868C367.316 111.728 365.252 113.288 362.612 113.288C359.324 113.288 357.092 110.864 357.092 107.216ZM376.217 107.216C376.217 103.568 378.449 101.072 381.833 101.072C384.521 101.072 386.489 102.632 386.945 105.032H385.289C384.857 103.424 383.465 102.536 381.857 102.536C379.505 102.536 377.849 104.336 377.849 107.192C377.849 109.952 379.385 111.8 381.737 111.8C383.465 111.8 384.857 110.84 385.313 109.352H386.993C386.441 111.728 384.377 113.288 381.737 113.288C378.449 113.288 376.217 110.864 376.217 107.216ZM397.661 101.384H399.317V113H397.877L397.661 111.032C397.013 112.376 395.405 113.288 393.581 113.288C390.845 113.288 389.357 111.416 389.357 108.584V101.36H391.037V108.056C391.037 110.816 392.261 111.8 394.109 111.8C396.341 111.8 397.661 110.312 397.661 107.552V101.384ZM408.839 101.24V102.728H407.927C405.791 102.728 404.423 104.168 404.423 106.376V113H402.767V101.384H404.327L404.447 103.184C404.903 101.936 406.127 101.12 407.759 101.12C408.119 101.12 408.431 101.144 408.839 101.24ZM414.632 113L409.88 101.384H411.656L414.656 108.872C414.968 109.712 415.28 110.504 415.496 111.272C415.712 110.48 416.024 109.712 416.36 108.872L419.408 101.384H421.112L416.288 113H414.632ZM427.42 113.288C424.012 113.288 421.732 110.84 421.732 107.192C421.732 103.568 423.988 101.072 427.3 101.072C430.444 101.072 432.58 103.304 432.58 106.592V107.408H423.34C423.46 110.24 424.948 111.872 427.444 111.872C429.34 111.872 430.564 111.056 430.996 109.52H432.58C431.956 111.968 430.156 113.288 427.42 113.288ZM427.3 102.488C425.116 102.488 423.676 103.928 423.388 106.208H430.924C430.924 103.976 429.484 102.488 427.3 102.488ZM452.54 113H442.244V95.816H452.516V97.4H443.972V103.592H451.724V105.152H443.972V111.416H452.54V113ZM457.345 104.072C456.529 104.072 455.833 103.376 455.833 102.584C455.833 101.768 456.529 101.096 457.345 101.096C458.161 101.096 458.857 101.768 458.857 102.584C458.857 103.376 458.161 104.072 457.345 104.072ZM457.345 113.264C456.529 113.264 455.833 112.592 455.833 111.8C455.833 110.984 456.529 110.288 457.345 110.288C458.161 110.288 458.857 110.984 458.857 111.8C458.857 112.592 458.161 113.264 457.345 113.264ZM467.943 118.064V116.696H469.215C470.223 116.696 471.231 116.624 471.807 115.064L472.311 113.696L467.607 101.384H469.359L473.103 111.512L476.775 101.384H478.479L473.151 115.664C472.479 117.488 471.351 118.232 469.695 118.232C468.999 118.232 468.471 118.184 467.943 118.064ZM482.024 103.4H480.512L483.704 95.816H485.336L488.528 103.4H486.992L484.52 97.4L482.024 103.4ZM502.744 113H491.416V111.632L496.912 106.832C500.08 104.072 500.896 102.872 500.896 100.832C500.896 98.504 499.504 97.088 497.224 97.088C494.848 97.088 493.288 98.816 493.216 101.48H491.488C491.584 97.88 493.864 95.504 497.248 95.504C500.488 95.504 502.648 97.592 502.648 100.736C502.648 103.232 501.52 104.888 498.088 107.888L494.08 111.392H502.744V113ZM512.389 102.68H524.389V104.168H512.389V102.68ZM512.389 107.624H524.389V109.112H512.389V107.624ZM539.065 116.768H537.553C535.537 114.008 534.217 109.928 534.217 105.8C534.217 101.84 535.489 97.712 537.553 94.856H539.065C537.217 97.448 535.921 101.48 535.921 105.8C535.921 110.024 537.169 114.128 539.065 116.768ZM541.247 113H539.303L543.455 107.192L539.327 101.384H541.271L544.559 106.04L547.823 101.384H549.743L545.615 107.216L549.719 113H547.751L544.487 108.344L541.247 113ZM553.32 103.4H551.808L555 95.816H556.632L559.824 103.4H558.288L555.816 97.4L553.32 103.4ZM567.705 103.784H566.337V102.584L571.641 97.352H563.409V95.816H573.825V97.208L568.689 102.32C571.905 102.488 574.209 104.528 574.209 107.648C574.209 111.056 571.713 113.288 568.233 113.288C564.849 113.288 562.569 111.2 562.569 107.768H564.273C564.273 110.24 565.809 111.728 568.233 111.728C570.801 111.728 572.457 110.096 572.457 107.6C572.457 105.248 570.777 103.784 567.705 103.784ZM577.193 104.168H582.449V98.912H583.937V104.168H589.193V105.656H583.937V110.936H582.449V105.656H577.193V104.168ZM596.181 113.288C593.709 113.288 592.245 111.896 592.245 109.856C592.245 107.72 593.877 106.376 596.589 106.16L600.429 105.848V105.464C600.429 103.184 599.061 102.464 597.357 102.464C595.341 102.464 594.141 103.376 594.141 104.936H592.629C592.629 102.584 594.549 101.072 597.405 101.072C600.093 101.072 602.061 102.416 602.061 105.488V113H600.669L600.453 110.96C599.733 112.424 598.149 113.288 596.181 113.288ZM596.565 111.944C599.013 111.944 600.429 110.24 600.429 107.72V107.096L596.997 107.36C594.813 107.552 593.925 108.512 593.925 109.808C593.925 111.224 594.981 111.944 596.565 111.944ZM605.84 113H603.896L608.048 107.192L603.92 101.384H605.864L609.152 106.04L612.416 101.384H614.336L610.208 107.216L614.312 113H612.344L609.08 108.344L605.84 113ZM616.498 104.168H621.754V98.912H623.242V104.168H628.498V105.656H623.242V110.936H621.754V105.656H616.498V104.168ZM633.59 113H632.15V95.504H633.806V103.64C634.622 101.936 636.206 101.072 638.174 101.072C641.558 101.072 643.526 103.712 643.526 107.216C643.526 110.696 641.51 113.288 638.126 113.288C636.182 113.288 634.574 112.424 633.758 110.624L633.59 113ZM633.83 107.168C633.83 109.856 635.318 111.776 637.862 111.776C640.382 111.776 641.846 109.856 641.846 107.168C641.846 104.504 640.382 102.56 637.862 102.56C635.318 102.56 633.83 104.504 633.83 107.168ZM645.95 116.768H644.438C646.334 114.128 647.605 110.024 647.605 105.8C647.605 101.48 646.286 97.448 644.438 94.856H645.95C648.038 97.712 649.286 101.84 649.286 105.8C649.286 109.928 647.965 114.008 645.95 116.768ZM660.572 113H658.916V101.384H660.355L660.548 103.04C661.124 101.816 662.42 101.072 664.052 101.072C665.876 101.072 667.244 102.032 667.796 103.544C668.324 102.032 669.74 101.072 671.612 101.072C674.132 101.072 675.788 102.704 675.788 105.392V113H674.18V105.728C674.18 103.736 673.076 102.56 671.299 102.56C669.356 102.56 668.204 104.024 668.204 105.824V113H666.572V105.704C666.572 103.736 665.444 102.584 663.692 102.584C661.748 102.584 660.572 104.024 660.572 105.8V113ZM678.303 107.192C678.303 103.64 680.799 101.072 684.207 101.072C687.615 101.072 690.111 103.64 690.111 107.192C690.111 110.72 687.615 113.288 684.207 113.288C680.799 113.288 678.303 110.72 678.303 107.192ZM679.983 107.168C679.983 109.904 681.711 111.8 684.207 111.8C686.679 111.8 688.431 109.904 688.431 107.168C688.431 104.48 686.679 102.56 684.207 102.56C681.711 102.56 679.983 104.48 679.983 107.168ZM697.319 113.288C693.935 113.288 691.943 110.696 691.943 107.216C691.943 103.712 693.935 101.072 697.391 101.072C699.311 101.072 700.847 101.912 701.663 103.592V95.504H703.319V113H701.879L701.711 110.624C700.895 112.424 699.263 113.288 697.319 113.288ZM697.607 111.776C700.151 111.776 701.639 109.856 701.639 107.168C701.639 104.504 700.151 102.56 697.607 102.56C695.087 102.56 693.623 104.504 693.623 107.168C693.623 109.856 695.087 111.776 697.607 111.776ZM713.431 118.064V101.384H714.871L715.039 103.736C715.855 101.936 717.487 101.072 719.431 101.072C722.791 101.072 724.807 103.64 724.807 107.144C724.807 110.648 722.863 113.288 719.431 113.288C717.463 113.288 715.903 112.448 715.087 110.768V118.064H713.431ZM715.111 107.192C715.111 109.856 716.599 111.8 719.143 111.8C721.663 111.8 723.127 109.856 723.127 107.192C723.127 104.504 721.663 102.584 719.143 102.584C716.599 102.584 715.111 104.504 715.111 107.192ZM736.551 113L732.711 101.384H734.415L736.695 108.392C736.959 109.16 737.175 109.952 737.415 110.888C737.607 109.952 737.991 108.776 738.111 108.392L740.415 101.384H742.119L744.399 108.392C744.615 109.016 744.903 110.024 745.119 110.888C745.359 109.928 745.407 109.64 745.815 108.392L748.119 101.384H749.847L745.911 113H744.303L741.903 105.704C741.615 104.84 741.423 104.12 741.279 103.424C741.111 104.048 740.919 104.744 740.607 105.704L738.207 113H736.551ZM753.572 112.976H751.916V95.504H753.572V103.4C754.316 102.008 755.732 101.072 757.676 101.072C760.724 101.072 762.092 102.968 762.092 105.896V113H760.436V106.256C760.436 103.544 759.164 102.584 757.364 102.584C754.868 102.584 753.572 104.432 753.572 106.664V112.976ZM770.264 113.288C766.856 113.288 764.576 110.84 764.576 107.192C764.576 103.568 766.832 101.072 770.144 101.072C773.288 101.072 775.424 103.304 775.424 106.592V107.408H766.184C766.304 110.24 767.792 111.872 770.288 111.872C772.184 111.872 773.408 111.056 773.84 109.52H775.424C774.8 111.968 773 113.288 770.264 113.288ZM770.144 102.488C767.96 102.488 766.52 103.928 766.232 106.208H773.768C773.768 103.976 772.328 102.488 770.144 102.488ZM784.144 101.24V102.728H783.232C781.096 102.728 779.728 104.168 779.728 106.376V113H778.072V101.384H779.632L779.752 103.184C780.208 101.936 781.432 101.12 783.064 101.12C783.424 101.12 783.736 101.144 784.144 101.24ZM790.772 113.288C787.364 113.288 785.084 110.84 785.084 107.192C785.084 103.568 787.34 101.072 790.652 101.072C793.796 101.072 795.932 103.304 795.932 106.592V107.408H786.692C786.812 110.24 788.3 111.872 790.796 111.872C792.692 111.872 793.916 111.056 794.348 109.52H795.932C795.308 111.968 793.508 113.288 790.772 113.288ZM790.652 102.488C788.468 102.488 787.028 103.928 786.74 106.208H794.276C794.276 103.976 792.836 102.488 790.652 102.488ZM800.236 104.072C799.42 104.072 798.724 103.376 798.724 102.584C798.724 101.768 799.42 101.096 800.236 101.096C801.052 101.096 801.748 101.768 801.748 102.584C801.748 103.376 801.052 104.072 800.236 104.072ZM800.236 113.264C799.42 113.264 798.724 112.592 798.724 111.8C798.724 110.984 799.42 110.288 800.236 110.288C801.052 110.288 801.748 110.984 801.748 111.8C801.748 112.592 801.052 113.264 800.236 113.264ZM443.017 145.288C440.545 145.288 439.081 143.896 439.081 141.856C439.081 139.72 440.713 138.376 443.425 138.16L447.265 137.848V137.464C447.265 135.184 445.897 134.464 444.193 134.464C442.177 134.464 440.977 135.376 440.977 136.936H439.465C439.465 134.584 441.385 133.072 444.241 133.072C446.929 133.072 448.897 134.416 448.897 137.488V145H447.505L447.289 142.96C446.569 144.424 444.985 145.288 443.017 145.288ZM443.401 143.944C445.849 143.944 447.265 142.24 447.265 139.72V139.096L443.833 139.36C441.649 139.552 440.761 140.512 440.761 141.808C440.761 143.224 441.817 143.944 443.401 143.944ZM452.412 134.68H464.412V136.168H452.412V134.68ZM452.412 139.624H464.412V141.112H452.412V139.624ZM478.744 145H467.416V143.632L472.912 138.832C476.08 136.072 476.896 134.872 476.896 132.832C476.896 130.504 475.504 129.088 473.224 129.088C470.848 129.088 469.288 130.816 469.216 133.48H467.488C467.584 129.88 469.864 127.504 473.248 127.504C476.488 127.504 478.648 129.592 478.648 132.736C478.648 135.232 477.52 136.888 474.088 139.888L470.08 143.392H478.744V145ZM440.301 177H438.861V159.504H440.517V167.64C441.333 165.936 442.917 165.072 444.885 165.072C448.269 165.072 450.237 167.712 450.237 171.216C450.237 174.696 448.221 177.288 444.837 177.288C442.893 177.288 441.285 176.424 440.469 174.624L440.301 177ZM440.541 171.168C440.541 173.856 442.029 175.776 444.573 175.776C447.093 175.776 448.557 173.856 448.557 171.168C448.557 168.504 447.093 166.56 444.573 166.56C442.029 166.56 440.541 168.504 440.541 171.168ZM453.068 166.68H465.068V168.168H453.068V166.68ZM453.068 171.624H465.068V173.112H453.068V171.624ZM473.064 167.784H471.696V166.584L477 161.352H468.768V159.816H479.184V161.208L474.048 166.32C477.264 166.488 479.568 168.528 479.568 171.648C479.568 175.056 477.072 177.288 473.592 177.288C470.208 177.288 467.928 175.2 467.928 171.768H469.632C469.632 174.24 471.168 175.728 473.592 175.728C476.16 175.728 477.816 174.096 477.816 171.6C477.816 169.248 476.136 167.784 473.064 167.784ZM247.447 214.064V197.384H248.887L249.055 199.736C249.871 197.936 251.503 197.072 253.447 197.072C256.807 197.072 258.823 199.64 258.823 203.144C258.823 206.648 256.879 209.288 253.447 209.288C251.479 209.288 249.919 208.448 249.103 206.768V214.064H247.447ZM249.127 203.192C249.127 205.856 250.615 207.8 253.159 207.8C255.679 207.8 257.143 205.856 257.143 203.192C257.143 200.504 255.679 198.584 253.159 198.584C250.615 198.584 249.127 200.504 249.127 203.192ZM261.654 198.68H273.654V200.168H261.654V198.68ZM261.654 203.624H273.654V205.112H261.654V203.624ZM286.786 203.192L282.49 209H280.474L284.986 203C284.194 203.432 283.45 203.576 282.634 203.576C279.058 203.576 276.682 200.96 276.682 197.6C276.682 194.096 279.346 191.504 282.778 191.504C286.234 191.504 288.946 194.168 288.946 197.624C288.946 199.616 288.418 201.008 286.786 203.192ZM287.218 197.6C287.218 194.984 285.394 193.088 282.778 193.088C280.234 193.088 278.41 194.984 278.41 197.6C278.41 200.192 280.234 202.064 282.778 202.064C285.394 202.064 287.218 200.192 287.218 197.6ZM289.88 191.816H301.568V193.4L294.8 209H293.024L299.816 193.4H289.88V191.816ZM314.51 212.768H312.998C310.982 210.008 309.662 205.928 309.662 201.8C309.662 197.84 310.934 193.712 312.998 190.856H314.51C312.662 193.448 311.366 197.48 311.366 201.8C311.366 206.024 312.614 210.128 314.51 212.768ZM319.572 209.288C317.1 209.288 315.636 207.896 315.636 205.856C315.636 203.72 317.268 202.376 319.98 202.16L323.82 201.848V201.464C323.82 199.184 322.452 198.464 320.748 198.464C318.732 198.464 317.532 199.376 317.532 200.936H316.02C316.02 198.584 317.94 197.072 320.796 197.072C323.484 197.072 325.452 198.416 325.452 201.488V209H324.06L323.844 206.96C323.124 208.424 321.54 209.288 319.572 209.288ZM319.956 207.944C322.404 207.944 323.82 206.24 323.82 203.72V203.096L320.388 203.36C318.204 203.552 317.316 204.512 317.316 205.808C317.316 207.224 318.372 207.944 319.956 207.944ZM335.431 214.064V197.384H336.871L337.039 199.736C337.855 197.936 339.487 197.072 341.431 197.072C344.791 197.072 346.807 199.64 346.807 203.144C346.807 206.648 344.863 209.288 341.431 209.288C339.463 209.288 337.903 208.448 337.087 206.768V214.064H335.431ZM337.111 203.192C337.111 205.856 338.599 207.8 341.143 207.8C343.663 207.8 345.127 205.856 345.127 203.192C345.127 200.504 343.663 198.584 341.143 198.584C338.599 198.584 337.111 200.504 337.111 203.192ZM355.519 197.24V198.728H354.607C352.471 198.728 351.103 200.168 351.103 202.376V209H349.447V197.384H351.007L351.127 199.184C351.583 197.936 352.807 197.12 354.439 197.12C354.799 197.12 355.111 197.144 355.519 197.24ZM358.536 194.192C357.864 194.192 357.312 193.64 357.312 192.968C357.312 192.296 357.864 191.72 358.536 191.72C359.208 191.72 359.784 192.296 359.784 192.968C359.784 193.64 359.208 194.192 358.536 194.192ZM357.72 209V197.384H359.376V209H357.72ZM364.486 209H362.83V197.384H364.27L364.462 199.04C365.038 197.816 366.334 197.072 367.966 197.072C369.79 197.072 371.158 198.032 371.71 199.544C372.238 198.032 373.654 197.072 375.526 197.072C378.046 197.072 379.702 198.704 379.702 201.392V209H378.094V201.728C378.094 199.736 376.99 198.56 375.214 198.56C373.27 198.56 372.118 200.024 372.118 201.824V209H370.486V201.704C370.486 199.736 369.358 198.584 367.606 198.584C365.662 198.584 364.486 200.024 364.486 201.8V209ZM387.905 209.288C384.497 209.288 382.217 206.84 382.217 203.192C382.217 199.568 384.473 197.072 387.785 197.072C390.929 197.072 393.065 199.304 393.065 202.592V203.408H383.825C383.945 206.24 385.433 207.872 387.929 207.872C389.825 207.872 391.049 207.056 391.481 205.52H393.065C392.441 207.968 390.641 209.288 387.905 209.288ZM387.785 198.488C385.601 198.488 384.161 199.928 383.873 202.208H391.409C391.409 199.976 389.969 198.488 387.785 198.488ZM404.025 209H402.369V197.384H403.809L404.049 199.4C404.817 197.912 406.353 197.072 408.033 197.072C411.225 197.072 412.545 198.968 412.545 201.896V209H410.889V202.256C410.889 199.544 409.665 198.584 407.745 198.584C405.369 198.584 404.025 200.312 404.025 202.928V209ZM424.005 197.384H425.661V209H424.221L424.005 207.032C423.357 208.376 421.749 209.288 419.925 209.288C417.189 209.288 415.701 207.416 415.701 204.584V197.36H417.381V204.056C417.381 206.816 418.605 207.8 420.453 207.8C422.685 207.8 424.005 206.312 424.005 203.552V197.384ZM430.767 209H429.111V197.384H430.551L430.743 199.04C431.319 197.816 432.615 197.072 434.247 197.072C436.071 197.072 437.439 198.032 437.991 199.544C438.519 198.032 439.935 197.072 441.807 197.072C444.327 197.072 445.983 198.704 445.983 201.392V209H444.375V201.728C444.375 199.736 443.271 198.56 441.495 198.56C439.551 198.56 438.399 200.024 438.399 201.824V209H436.767V201.704C436.767 199.736 435.639 198.584 433.887 198.584C431.943 198.584 430.767 200.024 430.767 201.8V209ZM450.754 209H449.314V191.504H450.97V199.64C451.786 197.936 453.37 197.072 455.338 197.072C458.722 197.072 460.69 199.712 460.69 203.216C460.69 206.696 458.674 209.288 455.29 209.288C453.346 209.288 451.738 208.424 450.922 206.624L450.754 209ZM450.994 203.168C450.994 205.856 452.482 207.776 455.026 207.776C457.546 207.776 459.01 205.856 459.01 203.168C459.01 200.504 457.546 198.56 455.026 198.56C452.482 198.56 450.994 200.504 450.994 203.168ZM468.202 209.288C464.794 209.288 462.514 206.84 462.514 203.192C462.514 199.568 464.77 197.072 468.082 197.072C471.226 197.072 473.362 199.304 473.362 202.592V203.408H464.122C464.242 206.24 465.73 207.872 468.226 207.872C470.122 207.872 471.346 207.056 471.778 205.52H473.362C472.738 207.968 470.938 209.288 468.202 209.288ZM468.082 198.488C465.898 198.488 464.458 199.928 464.17 202.208H471.706C471.706 199.976 470.266 198.488 468.082 198.488ZM482.081 197.24V198.728H481.169C479.033 198.728 477.665 200.168 477.665 202.376V209H476.009V197.384H477.569L477.689 199.184C478.145 197.936 479.369 197.12 481.001 197.12C481.361 197.12 481.673 197.144 482.081 197.24ZM495.499 209.288C492.115 209.288 490.123 206.696 490.123 203.216C490.123 199.712 492.115 197.072 495.571 197.072C497.491 197.072 499.027 197.912 499.843 199.592V191.504H501.499V209H500.059L499.891 206.624C499.075 208.424 497.443 209.288 495.499 209.288ZM495.787 207.776C498.331 207.776 499.819 205.856 499.819 203.168C499.819 200.504 498.331 198.56 495.787 198.56C493.267 198.56 491.803 200.504 491.803 203.168C491.803 205.856 493.267 207.776 495.787 207.776ZM509.827 209.288C506.419 209.288 504.139 206.84 504.139 203.192C504.139 199.568 506.395 197.072 509.707 197.072C512.851 197.072 514.987 199.304 514.987 202.592V203.408H505.747C505.867 206.24 507.355 207.872 509.851 207.872C511.747 207.872 512.971 207.056 513.403 205.52H514.987C514.363 207.968 512.563 209.288 509.827 209.288ZM509.707 198.488C507.523 198.488 506.083 199.928 505.795 202.208H513.331C513.331 199.976 511.891 198.488 509.707 198.488ZM525.29 209V198.776H519.77V209H518.114V198.776H516.338V197.384H518.114V195.128C518.114 192.512 519.53 191.504 521.258 191.504C521.666 191.504 522.17 191.528 522.554 191.6V193.04H521.546C520.154 193.04 519.77 193.76 519.77 195.128V197.384H526.946V209H525.29ZM526.106 194.072C525.434 194.072 524.954 193.592 524.954 192.92C524.954 192.248 525.434 191.744 526.106 191.744C526.754 191.744 527.258 192.248 527.258 192.92C527.258 193.592 526.754 194.072 526.106 194.072ZM531.993 209H530.337V197.384H531.777L532.017 199.4C532.785 197.912 534.321 197.072 536.001 197.072C539.193 197.072 540.513 198.968 540.513 201.896V209H538.857V202.256C538.857 199.544 537.633 198.584 535.713 198.584C533.337 198.584 531.993 200.312 531.993 202.928V209ZM544.63 194.192C543.958 194.192 543.406 193.64 543.406 192.968C543.406 192.296 543.958 191.72 544.63 191.72C545.302 191.72 545.878 192.296 545.878 192.968C545.878 193.64 545.302 194.192 544.63 194.192ZM543.814 209V197.384H545.47V209H543.814ZM550.579 209H548.923V197.384H550.363L550.603 199.4C551.371 197.912 552.907 197.072 554.587 197.072C557.779 197.072 559.099 198.968 559.099 201.896V209H557.443V202.256C557.443 199.544 556.219 198.584 554.299 198.584C551.923 198.584 550.579 200.312 550.579 202.928V209ZM561.608 202.856C561.608 199.688 563.648 197.072 567.056 197.072C569.072 197.072 570.608 198.008 571.352 199.712L571.52 197.384H572.96V208.64C572.96 212.096 570.752 214.352 567.344 214.352C564.368 214.352 562.28 212.672 561.824 209.864H563.48C563.84 211.736 565.28 212.84 567.368 212.84C569.744 212.84 571.328 211.232 571.328 208.808V206.048C570.536 207.68 568.928 208.64 566.936 208.64C563.624 208.64 561.608 206.024 561.608 202.856ZM563.264 202.832C563.264 205.208 564.728 207.152 567.176 207.152C569.696 207.152 571.184 205.328 571.184 202.832C571.184 200.36 569.744 198.536 567.2 198.536C564.704 198.536 563.264 200.48 563.264 202.832ZM585.736 209H584.104V198.776H581.776V197.384H584.104V193.712H585.736V197.384H588.064V198.776H585.736V209ZM591.876 208.976H590.22V191.504H591.876V199.4C592.62 198.008 594.036 197.072 595.98 197.072C599.028 197.072 600.396 198.968 600.396 201.896V209H598.74V202.256C598.74 199.544 597.468 198.584 595.668 198.584C593.172 198.584 591.876 200.432 591.876 202.664V208.976ZM608.569 209.288C605.161 209.288 602.881 206.84 602.881 203.192C602.881 199.568 605.137 197.072 608.449 197.072C611.593 197.072 613.729 199.304 613.729 202.592V203.408H604.489C604.609 206.24 606.097 207.872 608.593 207.872C610.489 207.872 611.713 207.056 612.145 205.52H613.729C613.105 207.968 611.305 209.288 608.569 209.288ZM608.449 198.488C606.265 198.488 604.825 199.928 604.537 202.208H612.073C612.073 199.976 610.633 198.488 608.449 198.488ZM630.689 209V198.776H625.169V209H623.513V198.776H621.737V197.384H623.513V195.128C623.513 192.512 624.929 191.504 626.657 191.504C627.065 191.504 627.569 191.528 627.953 191.6V193.04H626.945C625.553 193.04 625.169 193.76 625.169 195.128V197.384H632.345V209H630.689ZM631.505 194.072C630.833 194.072 630.353 193.592 630.353 192.92C630.353 192.248 630.833 191.744 631.505 191.744C632.153 191.744 632.657 192.248 632.657 192.92C632.657 193.592 632.153 194.072 631.505 194.072ZM640.608 209.288C637.2 209.288 634.92 206.84 634.92 203.192C634.92 199.568 637.176 197.072 640.488 197.072C643.632 197.072 645.768 199.304 645.768 202.592V203.408H636.528C636.648 206.24 638.136 207.872 640.632 207.872C642.528 207.872 643.752 207.056 644.184 205.52H645.768C645.144 207.968 643.344 209.288 640.608 209.288ZM640.488 198.488C638.304 198.488 636.864 199.928 636.576 202.208H644.112C644.112 199.976 642.672 198.488 640.488 198.488ZM650.144 209H648.488V191.504H650.144V209ZM658.226 209.288C654.842 209.288 652.85 206.696 652.85 203.216C652.85 199.712 654.842 197.072 658.298 197.072C660.218 197.072 661.754 197.912 662.57 199.592V191.504H664.226V209H662.786L662.618 206.624C661.802 208.424 660.17 209.288 658.226 209.288ZM658.514 207.776C661.058 207.776 662.546 205.856 662.546 203.168C662.546 200.504 661.058 198.56 658.514 198.56C655.994 198.56 654.53 200.504 654.53 203.168C654.53 205.856 655.994 207.776 658.514 207.776ZM667.465 212.768H665.953C667.849 210.128 669.121 206.024 669.121 201.8C669.121 197.48 667.801 193.448 665.953 190.856H667.465C669.553 193.712 670.801 197.84 670.801 201.8C670.801 205.928 669.481 210.008 667.465 212.768ZM125.714 225.4V223.816H138.026V225.4H132.722V241H130.994V225.4H125.714ZM141.7 240.976H140.044V223.504H141.7V231.4C142.444 230.008 143.86 229.072 145.804 229.072C148.852 229.072 150.22 230.968 150.22 233.896V241H148.564V234.256C148.564 231.544 147.292 230.584 145.492 230.584C142.996 230.584 141.7 232.432 141.7 234.664V240.976ZM158.393 241.288C154.985 241.288 152.705 238.84 152.705 235.192C152.705 231.568 154.961 229.072 158.273 229.072C161.417 229.072 163.553 231.304 163.553 234.592V235.408H154.313C154.433 238.24 155.921 239.872 158.417 239.872C160.313 239.872 161.537 239.056 161.969 237.52H163.553C162.929 239.968 161.129 241.288 158.393 241.288ZM158.273 230.488C156.089 230.488 154.649 231.928 154.361 234.208H161.897C161.897 231.976 160.457 230.488 158.273 230.488ZM172.857 246.064V229.384H174.297L174.465 231.736C175.281 229.936 176.913 229.072 178.857 229.072C182.217 229.072 184.233 231.64 184.233 235.144C184.233 238.648 182.289 241.288 178.857 241.288C176.889 241.288 175.329 240.448 174.513 238.768V246.064H172.857ZM174.537 235.192C174.537 237.856 176.025 239.8 178.569 239.8C181.089 239.8 182.553 237.856 182.553 235.192C182.553 232.504 181.089 230.584 178.569 230.584C176.025 230.584 174.537 232.504 174.537 235.192ZM186.057 235.192C186.057 231.64 188.553 229.072 191.961 229.072C195.369 229.072 197.865 231.64 197.865 235.192C197.865 238.72 195.369 241.288 191.961 241.288C188.553 241.288 186.057 238.72 186.057 235.192ZM187.737 235.168C187.737 237.904 189.465 239.8 191.961 239.8C194.433 239.8 196.185 237.904 196.185 235.168C196.185 232.48 194.433 230.56 191.961 230.56C189.465 230.56 187.737 232.48 187.737 235.168ZM201.329 226.192C200.657 226.192 200.105 225.64 200.105 224.968C200.105 224.296 200.657 223.72 201.329 223.72C202.001 223.72 202.577 224.296 202.577 224.968C202.577 225.64 202.001 226.192 201.329 226.192ZM200.513 241V229.384H202.169V241H200.513ZM207.279 241H205.623V229.384H207.063L207.303 231.4C208.071 229.912 209.607 229.072 211.287 229.072C214.479 229.072 215.799 230.968 215.799 233.896V241H214.143V234.256C214.143 231.544 212.919 230.584 210.999 230.584C208.623 230.584 207.279 232.312 207.279 234.928V241ZM221.763 241H220.131V230.776H217.803V229.384H220.131V225.712H221.763V229.384H224.091V230.776H221.763V241ZM225.264 237.736H226.848C226.848 239.08 227.856 239.92 229.488 239.92C231.288 239.92 232.344 239.152 232.344 237.904C232.344 236.944 231.864 236.392 230.496 236.056L228.504 235.552C226.488 235.048 225.504 233.992 225.504 232.408C225.504 230.368 227.208 229.072 229.704 229.072C232.152 229.072 233.736 230.416 233.808 232.576H232.2C232.152 231.232 231.216 230.44 229.656 230.44C228.024 230.44 227.112 231.136 227.112 232.384C227.112 233.272 227.736 233.896 229.008 234.208L231 234.712C233.016 235.216 233.928 236.152 233.928 237.832C233.928 239.92 232.152 241.288 229.512 241.288C226.896 241.288 225.264 239.896 225.264 237.736ZM250.222 234.688H245.398V241H243.67V223.816H250.222C253.534 223.816 255.622 225.976 255.622 229.216C255.622 232.336 253.51 234.688 250.222 234.688ZM249.982 225.376H245.398V233.128H249.886C252.382 233.128 253.822 231.544 253.822 229.192C253.822 226.816 252.358 225.376 249.982 225.376ZM258.244 230.68H270.244V232.168H258.244V230.68ZM258.244 235.624H270.244V237.112H258.244V235.624ZM278.264 244.768H276.752C274.736 242.008 273.416 237.928 273.416 233.8C273.416 229.84 274.688 225.712 276.752 222.856H278.264C276.416 225.448 275.12 229.48 275.12 233.8C275.12 238.024 276.368 242.128 278.264 244.768ZM284.334 231.784H282.966V230.584L288.27 225.352H280.038V223.816H290.454V225.208L285.318 230.32C288.534 230.488 290.838 232.528 290.838 235.648C290.838 239.056 288.342 241.288 284.862 241.288C281.478 241.288 279.198 239.2 279.198 235.768H280.902C280.902 238.24 282.438 239.728 284.862 239.728C287.43 239.728 289.086 238.096 289.086 235.6C289.086 233.248 287.406 231.784 284.334 231.784ZM295.972 240.184C295.972 241.672 294.82 242.968 293.332 243.184V242.296C294.196 242.152 294.82 241.528 294.82 240.856C294.676 240.952 294.484 241.024 294.196 241.024C293.524 241.024 292.948 240.544 292.948 239.728C292.948 238.888 293.524 238.288 294.364 238.288C295.228 238.288 295.972 238.984 295.972 240.184ZM300.135 229.6L304.431 223.816H306.447L301.935 229.792C302.751 229.384 303.495 229.216 304.287 229.216C307.863 229.216 310.239 231.832 310.239 235.192C310.239 238.72 307.575 241.288 304.143 241.288C300.687 241.288 297.975 238.624 297.975 235.192C297.975 233.2 298.527 231.808 300.135 229.6ZM299.727 235.216C299.727 237.832 301.527 239.728 304.143 239.728C306.687 239.728 308.511 237.832 308.511 235.216C308.511 232.6 306.687 230.728 304.143 230.728C301.527 230.728 299.727 232.6 299.727 235.216ZM312.844 244.768H311.332C313.228 242.128 314.5 238.024 314.5 233.8C314.5 229.48 313.18 225.448 311.332 222.856H312.844C314.932 225.712 316.18 229.84 316.18 233.8C316.18 237.928 314.86 242.008 312.844 244.768ZM329.146 241.288C326.674 241.288 325.21 239.896 325.21 237.856C325.21 235.72 326.842 234.376 329.554 234.16L333.394 233.848V233.464C333.394 231.184 332.026 230.464 330.322 230.464C328.306 230.464 327.106 231.376 327.106 232.936H325.594C325.594 230.584 327.514 229.072 330.37 229.072C333.058 229.072 335.026 230.416 335.026 233.488V241H333.634L333.418 238.96C332.698 240.424 331.114 241.288 329.146 241.288ZM329.53 239.944C331.978 239.944 333.394 238.24 333.394 235.72V235.096L329.962 235.36C327.778 235.552 326.89 236.512 326.89 237.808C326.89 239.224 327.946 239.944 329.53 239.944ZM340.005 241H338.349V229.384H339.789L340.029 231.4C340.797 229.912 342.333 229.072 344.013 229.072C347.205 229.072 348.525 230.968 348.525 233.896V241H346.869V234.256C346.869 231.544 345.645 230.584 343.725 230.584C341.349 230.584 340.005 232.312 340.005 234.928V241ZM356.386 241.288C353.002 241.288 351.01 238.696 351.01 235.216C351.01 231.712 353.002 229.072 356.458 229.072C358.378 229.072 359.914 229.912 360.73 231.592V223.504H362.386V241H360.946L360.778 238.624C359.962 240.424 358.33 241.288 356.386 241.288ZM356.674 239.776C359.218 239.776 360.706 237.856 360.706 235.168C360.706 232.504 359.218 230.56 356.674 230.56C354.154 230.56 352.69 232.504 352.69 235.168C352.69 237.856 354.154 239.776 356.674 239.776ZM386.418 241.984L384.594 239.92C383.298 240.808 381.738 241.288 379.986 241.288C375.162 241.288 371.802 237.616 371.802 232.408C371.802 227.2 375.186 223.504 379.986 223.504C384.81 223.504 388.17 227.176 388.17 232.408C388.17 235.072 387.282 237.328 385.794 238.888L387.594 240.904L386.418 241.984ZM386.394 232.408C386.394 228.112 383.778 225.184 379.986 225.184C376.194 225.184 373.602 228.112 373.602 232.408C373.602 236.704 376.194 239.632 379.986 239.632C381.306 239.632 382.482 239.272 383.442 238.648L381.21 236.128L382.362 235.048L384.642 237.592C385.746 236.32 386.394 234.52 386.394 232.408ZM391.135 230.68H403.135V232.168H391.135V230.68ZM391.135 235.624H403.135V237.112H391.135V235.624ZM411.155 244.768H409.643C407.627 242.008 406.307 237.928 406.307 233.8C406.307 229.84 407.579 225.712 409.643 222.856H411.155C409.307 225.448 408.011 229.48 408.011 233.8C408.011 238.024 409.259 242.128 411.155 244.768ZM415.871 225.376H412.367V223.816H417.527V241H415.871V225.376ZM420.863 232.408C420.863 227.08 423.479 223.48 427.751 223.48C431.999 223.48 434.615 227.08 434.615 232.408C434.615 237.76 432.047 241.312 427.751 241.312C423.431 241.312 420.863 237.76 420.863 232.408ZM422.567 232.408C422.567 236.872 424.463 239.752 427.751 239.752C431.039 239.752 432.935 236.872 432.935 232.408C432.935 227.92 431.039 225.064 427.751 225.064C424.463 225.064 422.567 227.92 422.567 232.408ZM439.48 240.184C439.48 241.672 438.328 242.968 436.84 243.184V242.296C437.704 242.152 438.328 241.528 438.328 240.856C438.184 240.952 437.992 241.024 437.704 241.024C437.032 241.024 436.456 240.544 436.456 239.728C436.456 238.888 437.032 238.288 437.872 238.288C438.736 238.288 439.48 238.984 439.48 240.184ZM451.634 235.192L447.338 241H445.322L449.834 235C449.042 235.432 448.298 235.576 447.482 235.576C443.906 235.576 441.53 232.96 441.53 229.6C441.53 226.096 444.194 223.504 447.626 223.504C451.082 223.504 453.794 226.168 453.794 229.624C453.794 231.616 453.266 233.008 451.634 235.192ZM452.066 229.6C452.066 226.984 450.242 225.088 447.626 225.088C445.082 225.088 443.258 226.984 443.258 229.6C443.258 232.192 445.082 234.064 447.626 234.064C450.242 234.064 452.066 232.192 452.066 229.6ZM456.399 244.768H454.887C456.783 242.128 458.055 238.024 458.055 233.8C458.055 229.48 456.735 225.448 454.887 222.856H456.399C458.487 225.712 459.735 229.84 459.735 233.8C459.735 237.928 458.415 242.008 456.399 244.768ZM471.093 241H469.437V223.504H471.093V241ZM475.431 226.192C474.759 226.192 474.207 225.64 474.207 224.968C474.207 224.296 474.759 223.72 475.431 223.72C476.103 223.72 476.679 224.296 476.679 224.968C476.679 225.64 476.103 226.192 475.431 226.192ZM474.615 241V229.384H476.271V241H474.615ZM484.596 241.288C481.188 241.288 478.908 238.84 478.908 235.192C478.908 231.568 481.164 229.072 484.476 229.072C487.62 229.072 489.756 231.304 489.756 234.592V235.408H480.516C480.636 238.24 482.124 239.872 484.62 239.872C486.516 239.872 487.74 239.056 488.172 237.52H489.756C489.132 239.968 487.332 241.288 484.596 241.288ZM484.476 230.488C482.292 230.488 480.852 231.928 480.564 234.208H488.1C488.1 231.976 486.66 230.488 484.476 230.488ZM498.244 235.192C498.244 231.64 500.74 229.072 504.148 229.072C507.556 229.072 510.052 231.64 510.052 235.192C510.052 238.72 507.556 241.288 504.148 241.288C500.74 241.288 498.244 238.72 498.244 235.192ZM499.924 235.168C499.924 237.904 501.652 239.8 504.148 239.8C506.62 239.8 508.372 237.904 508.372 235.168C508.372 232.48 506.62 230.56 504.148 230.56C501.652 230.56 499.924 232.48 499.924 235.168ZM514.357 241H512.701V229.384H514.141L514.381 231.4C515.149 229.912 516.685 229.072 518.365 229.072C521.557 229.072 522.877 230.968 522.877 233.896V241H521.221V234.256C521.221 231.544 519.997 230.584 518.077 230.584C515.701 230.584 514.357 232.312 514.357 234.928V241ZM535.497 241H533.865V230.776H531.537V229.384H533.865V225.712H535.497V229.384H537.825V230.776H535.497V241ZM541.638 240.976H539.982V223.504H541.638V231.4C542.382 230.008 543.798 229.072 545.742 229.072C548.79 229.072 550.158 230.968 550.158 233.896V241H548.502V234.256C548.502 231.544 547.23 230.584 545.43 230.584C542.934 230.584 541.638 232.432 541.638 234.664V240.976ZM558.33 241.288C554.922 241.288 552.642 238.84 552.642 235.192C552.642 231.568 554.898 229.072 558.21 229.072C561.354 229.072 563.49 231.304 563.49 234.592V235.408H554.25C554.37 238.24 555.858 239.872 558.354 239.872C560.25 239.872 561.474 239.056 561.906 237.52H563.49C562.866 239.968 561.066 241.288 558.33 241.288ZM558.21 230.488C556.026 230.488 554.586 231.928 554.298 234.208H561.834C561.834 231.976 560.394 230.488 558.21 230.488ZM571.978 235.216C571.978 231.568 574.21 229.072 577.594 229.072C580.282 229.072 582.25 230.632 582.706 233.032H581.05C580.618 231.424 579.226 230.536 577.618 230.536C575.266 230.536 573.61 232.336 573.61 235.192C573.61 237.952 575.146 239.8 577.498 239.8C579.226 239.8 580.618 238.84 581.074 237.352H582.754C582.202 239.728 580.138 241.288 577.498 241.288C574.21 241.288 571.978 238.864 571.978 235.216ZM593.423 229.384H595.079V241H593.639L593.423 239.032C592.775 240.376 591.167 241.288 589.343 241.288C586.607 241.288 585.119 239.416 585.119 236.584V229.36H586.799V236.056C586.799 238.816 588.023 239.8 589.871 239.8C592.103 239.8 593.423 238.312 593.423 235.552V229.384ZM604.601 229.24V230.728H603.689C601.553 230.728 600.185 232.168 600.185 234.376V241H598.529V229.384H600.089L600.209 231.184C600.665 229.936 601.889 229.12 603.521 229.12C603.881 229.12 604.193 229.144 604.601 229.24ZM610.394 241L605.642 229.384H607.418L610.418 236.872C610.73 237.712 611.042 238.504 611.258 239.272C611.474 238.48 611.786 237.712 612.122 236.872L615.17 229.384H616.874L612.05 241H610.394ZM623.182 241.288C619.774 241.288 617.494 238.84 617.494 235.192C617.494 231.568 619.75 229.072 623.062 229.072C626.206 229.072 628.342 231.304 628.342 234.592V235.408H619.102C619.222 238.24 620.71 239.872 623.206 239.872C625.102 239.872 626.326 239.056 626.758 237.52H628.342C627.718 239.968 625.918 241.288 623.182 241.288ZM623.062 230.488C620.878 230.488 619.438 231.928 619.15 234.208H626.686C626.686 231.976 625.246 230.488 623.062 230.488ZM631.679 241.264C630.863 241.264 630.167 240.592 630.167 239.8C630.167 238.984 630.863 238.288 631.679 238.288C632.495 238.288 633.191 238.984 633.191 239.8C633.191 240.592 632.495 241.264 631.679 241.264ZM647.545 233.824L641.713 223.816H643.657L647.905 231.232C648.097 231.592 648.241 231.88 648.409 232.264C648.625 231.832 648.625 231.832 648.937 231.232L653.137 223.816H655.033L649.273 233.824V241H647.545V233.824ZM653.939 235.192C653.939 231.64 656.435 229.072 659.843 229.072C663.251 229.072 665.747 231.64 665.747 235.192C665.747 238.72 663.251 241.288 659.843 241.288C656.435 241.288 653.939 238.72 653.939 235.192ZM655.619 235.168C655.619 237.904 657.347 239.8 659.843 239.8C662.315 239.8 664.067 237.904 664.067 235.168C664.067 232.48 662.315 230.56 659.843 230.56C657.347 230.56 655.619 232.48 655.619 235.168ZM676.275 229.384H677.931V241H676.491L676.275 239.032C675.627 240.376 674.019 241.288 672.195 241.288C669.459 241.288 667.971 239.416 667.971 236.584V229.36H669.651V236.056C669.651 238.816 670.875 239.8 672.723 239.8C674.955 239.8 676.275 238.312 676.275 235.552V229.384ZM687.452 229.24V230.728H686.54C684.404 230.728 683.036 232.168 683.036 234.376V241H681.38V229.384H682.94L683.06 231.184C683.516 229.936 684.74 229.12 686.372 229.12C686.732 229.12 687.044 229.144 687.452 229.24ZM698.974 241H697.342V230.776H695.014V229.384H697.342V225.712H698.974V229.384H701.302V230.776H698.974V241ZM706.607 241.288C704.135 241.288 702.671 239.896 702.671 237.856C702.671 235.72 704.303 234.376 707.015 234.16L710.855 233.848V233.464C710.855 231.184 709.487 230.464 707.783 230.464C705.767 230.464 704.567 231.376 704.567 232.936H703.055C703.055 230.584 704.975 229.072 707.831 229.072C710.519 229.072 712.487 230.416 712.487 233.488V241H711.095L710.879 238.96C710.159 240.424 708.575 241.288 706.607 241.288ZM706.991 239.944C709.439 239.944 710.855 238.24 710.855 235.72V235.096L707.423 235.36C705.239 235.552 704.351 236.512 704.351 237.808C704.351 239.224 705.407 239.944 706.991 239.944ZM714.826 237.736H716.41C716.41 239.08 717.418 239.92 719.05 239.92C720.85 239.92 721.906 239.152 721.906 237.904C721.906 236.944 721.426 236.392 720.058 236.056L718.066 235.552C716.05 235.048 715.066 233.992 715.066 232.408C715.066 230.368 716.77 229.072 719.266 229.072C721.714 229.072 723.298 230.416 723.37 232.576H721.762C721.714 231.232 720.778 230.44 719.218 230.44C717.586 230.44 716.674 231.136 716.674 232.384C716.674 233.272 717.298 233.896 718.57 234.208L720.562 234.712C722.578 235.216 723.49 236.152 723.49 237.832C723.49 239.92 721.714 241.288 719.074 241.288C716.458 241.288 714.826 239.896 714.826 237.736ZM727.944 241H726.288V223.504H727.944V235.384L733.704 229.384H735.792L731.328 234.016L735.816 241H733.896L730.2 235.192L727.944 237.52V241ZM745.267 226.192C744.595 226.192 744.043 225.64 744.043 224.968C744.043 224.296 744.595 223.72 745.267 223.72C745.939 223.72 746.515 224.296 746.515 224.968C746.515 225.64 745.939 226.192 745.267 226.192ZM744.451 241V229.384H746.107V241H744.451ZM748.576 237.736H750.16C750.16 239.08 751.168 239.92 752.8 239.92C754.6 239.92 755.656 239.152 755.656 237.904C755.656 236.944 755.176 236.392 753.808 236.056L751.816 235.552C749.8 235.048 748.816 233.992 748.816 232.408C748.816 230.368 750.52 229.072 753.016 229.072C755.464 229.072 757.048 230.416 757.12 232.576H755.512C755.464 231.232 754.528 230.44 752.968 230.44C751.336 230.44 750.424 231.136 750.424 232.384C750.424 233.272 751.048 233.896 752.32 234.208L754.312 234.712C756.328 235.216 757.24 236.152 757.24 237.832C757.24 239.92 755.464 241.288 752.824 241.288C750.208 241.288 748.576 239.896 748.576 237.736ZM769.287 241H767.655V230.776H765.327V229.384H767.655V225.712H769.287V229.384H771.615V230.776H769.287V241ZM772.838 235.192C772.838 231.64 775.334 229.072 778.742 229.072C782.15 229.072 784.646 231.64 784.646 235.192C784.646 238.72 782.15 241.288 778.742 241.288C775.334 241.288 772.838 238.72 772.838 235.192ZM774.518 235.168C774.518 237.904 776.246 239.8 778.742 239.8C781.214 239.8 782.966 237.904 782.966 235.168C782.966 232.48 781.214 230.56 778.742 230.56C776.246 230.56 774.518 232.48 774.518 235.168ZM788.95 232.072C788.134 232.072 787.438 231.376 787.438 230.584C787.438 229.768 788.134 229.096 788.95 229.096C789.766 229.096 790.462 229.768 790.462 230.584C790.462 231.376 789.766 232.072 788.95 232.072ZM788.95 241.264C788.134 241.264 787.438 240.592 787.438 239.8C787.438 238.984 788.134 238.288 788.95 238.288C789.766 238.288 790.462 238.984 790.462 239.8C790.462 240.592 789.766 241.264 788.95 241.264ZM69.6233 273.264C64.8233 273.264 61.5593 269.688 61.5593 264.408C61.5593 259.128 64.8713 255.528 69.7193 255.528C73.4153 255.528 76.3193 257.76 77.0153 261.168H75.1673C74.4473 258.696 72.3353 257.184 69.6473 257.184C65.8793 257.184 63.3593 260.064 63.3593 264.408C63.3593 268.728 65.8793 271.608 69.6473 271.608C72.3593 271.608 74.5193 270.144 75.2633 267.84H77.1113C76.3193 271.08 73.3193 273.264 69.6233 273.264ZM78.9237 267.192C78.9237 263.64 81.4197 261.072 84.8277 261.072C88.2357 261.072 90.7317 263.64 90.7317 267.192C90.7317 270.72 88.2357 273.288 84.8277 273.288C81.4197 273.288 78.9237 270.72 78.9237 267.192ZM80.6037 267.168C80.6037 269.904 82.3317 271.8 84.8277 271.8C87.2997 271.8 89.0517 269.904 89.0517 267.168C89.0517 264.48 87.2997 262.56 84.8277 262.56C82.3317 262.56 80.6037 264.48 80.6037 267.168ZM95.0363 273H93.3803V261.384H94.8203L95.0123 263.04C95.5883 261.816 96.8843 261.072 98.5163 261.072C100.34 261.072 101.708 262.032 102.26 263.544C102.788 262.032 104.204 261.072 106.076 261.072C108.596 261.072 110.252 262.704 110.252 265.392V273H108.644V265.728C108.644 263.736 107.54 262.56 105.764 262.56C103.82 262.56 102.668 264.024 102.668 265.824V273H101.036V265.704C101.036 263.736 99.9083 262.584 98.1563 262.584C96.2123 262.584 95.0363 264.024 95.0363 265.8V273ZM113.583 278.064V261.384H115.023L115.191 263.736C116.007 261.936 117.639 261.072 119.583 261.072C122.943 261.072 124.959 263.64 124.959 267.144C124.959 270.648 123.015 273.288 119.583 273.288C117.615 273.288 116.055 272.448 115.239 270.768V278.064H113.583ZM115.263 267.192C115.263 269.856 116.751 271.8 119.295 271.8C121.815 271.8 123.279 269.856 123.279 267.192C123.279 264.504 121.815 262.584 119.295 262.584C116.751 262.584 115.263 264.504 115.263 267.192ZM135.478 261.384H137.134V273H135.694L135.478 271.032C134.83 272.376 133.222 273.288 131.398 273.288C128.662 273.288 127.174 271.416 127.174 268.584V261.36H128.854V268.056C128.854 270.816 130.078 271.8 131.926 271.8C134.158 271.8 135.478 270.312 135.478 267.552V261.384ZM143.247 273H141.615V262.776H139.287V261.384H141.615V257.712H143.247V261.384H145.575V262.776H143.247V273ZM152.487 273.288C149.079 273.288 146.799 270.84 146.799 267.192C146.799 263.568 149.055 261.072 152.367 261.072C155.511 261.072 157.647 263.304 157.647 266.592V267.408H148.407C148.527 270.24 150.015 271.872 152.511 271.872C154.407 271.872 155.631 271.056 156.063 269.52H157.647C157.023 271.968 155.223 273.288 152.487 273.288ZM152.367 262.488C150.183 262.488 148.743 263.928 148.455 266.208H155.991C155.991 263.976 154.551 262.488 152.367 262.488ZM169.615 273H167.983V262.776H165.655V261.384H167.983V257.712H169.615V261.384H171.943V262.776H169.615V273ZM175.755 272.976H174.099V255.504H175.755V263.4C176.499 262.008 177.915 261.072 179.859 261.072C182.907 261.072 184.275 262.968 184.275 265.896V273H182.619V266.256C182.619 263.544 181.347 262.584 179.547 262.584C177.051 262.584 175.755 264.432 175.755 266.664V272.976ZM192.448 273.288C189.04 273.288 186.76 270.84 186.76 267.192C186.76 263.568 189.016 261.072 192.328 261.072C195.472 261.072 197.608 263.304 197.608 266.592V267.408H188.368C188.488 270.24 189.976 271.872 192.472 271.872C194.368 271.872 195.592 271.056 196.024 269.52H197.608C196.984 271.968 195.184 273.288 192.448 273.288ZM192.328 262.488C190.144 262.488 188.704 263.928 188.416 266.208H195.952C195.952 263.976 194.512 262.488 192.328 262.488ZM205.928 269.736H207.512C207.512 271.08 208.52 271.92 210.152 271.92C211.952 271.92 213.008 271.152 213.008 269.904C213.008 268.944 212.528 268.392 211.16 268.056L209.168 267.552C207.152 267.048 206.168 265.992 206.168 264.408C206.168 262.368 207.872 261.072 210.368 261.072C212.816 261.072 214.4 262.416 214.472 264.576H212.864C212.816 263.232 211.88 262.44 210.32 262.44C208.688 262.44 207.776 263.136 207.776 264.384C207.776 265.272 208.4 265.896 209.672 266.208L211.664 266.712C213.68 267.216 214.592 268.152 214.592 269.832C214.592 271.92 212.816 273.288 210.176 273.288C207.56 273.288 205.928 271.896 205.928 269.736ZM225.478 261.384H227.134V273H225.694L225.478 271.032C224.83 272.376 223.222 273.288 221.398 273.288C218.662 273.288 217.174 271.416 217.174 268.584V261.36H218.854V268.056C218.854 270.816 220.078 271.8 221.926 271.8C224.158 271.8 225.478 270.312 225.478 267.552V261.384ZM232.239 273H230.583V261.384H232.023L232.215 263.04C232.791 261.816 234.087 261.072 235.719 261.072C237.543 261.072 238.911 262.032 239.463 263.544C239.991 262.032 241.407 261.072 243.279 261.072C245.799 261.072 247.455 262.704 247.455 265.392V273H245.847V265.728C245.847 263.736 244.743 262.56 242.967 262.56C241.023 262.56 239.871 264.024 239.871 265.824V273H238.239V265.704C238.239 263.736 237.111 262.584 235.359 262.584C233.415 262.584 232.239 264.024 232.239 265.8V273ZM259.531 273H257.803V255.816H264.211C267.691 255.816 269.803 257.736 269.803 260.784C269.803 263.256 268.507 264.984 266.299 265.584L269.971 273H268.051L264.547 265.872H259.531V273ZM259.531 257.376V264.312H264.259C266.635 264.312 268.027 263.016 268.027 260.832C268.027 258.6 266.563 257.376 264.211 257.376H259.531ZM272.986 262.68H284.986V264.168H272.986V262.68ZM272.986 267.624H284.986V269.112H272.986V267.624ZM295.55 266.688H290.726V273H288.998V255.816H295.55C298.862 255.816 300.95 257.976 300.95 261.216C300.95 264.336 298.838 266.688 295.55 266.688ZM295.31 257.376H290.726V265.128H295.214C297.71 265.128 299.15 263.544 299.15 261.192C299.15 258.816 297.686 257.376 295.31 257.376ZM303.572 264.168H308.828V258.912H310.316V264.168H315.572V265.656H310.316V270.936H308.828V265.656H303.572V264.168ZM333.144 273.984L331.32 271.92C330.024 272.808 328.464 273.288 326.712 273.288C321.888 273.288 318.528 269.616 318.528 264.408C318.528 259.2 321.912 255.504 326.712 255.504C331.536 255.504 334.896 259.176 334.896 264.408C334.896 267.072 334.008 269.328 332.52 270.888L334.32 272.904L333.144 273.984ZM333.12 264.408C333.12 260.112 330.504 257.184 326.712 257.184C322.92 257.184 320.328 260.112 320.328 264.408C320.328 268.704 322.92 271.632 326.712 271.632C328.032 271.632 329.208 271.272 330.168 270.648L327.936 268.128L329.088 267.048L331.368 269.592C332.472 268.32 333.12 266.52 333.12 264.408ZM347.662 273.288C345.19 273.288 343.726 271.896 343.726 269.856C343.726 267.72 345.358 266.376 348.07 266.16L351.91 265.848V265.464C351.91 263.184 350.542 262.464 348.838 262.464C346.822 262.464 345.622 263.376 345.622 264.936H344.11C344.11 262.584 346.03 261.072 348.886 261.072C351.574 261.072 353.542 262.416 353.542 265.488V273H352.15L351.934 270.96C351.214 272.424 349.63 273.288 347.662 273.288ZM348.046 271.944C350.494 271.944 351.91 270.24 351.91 267.72V267.096L348.478 267.36C346.294 267.552 345.406 268.512 345.406 269.808C345.406 271.224 346.462 271.944 348.046 271.944ZM358.521 273H356.865V261.384H358.305L358.545 263.4C359.313 261.912 360.849 261.072 362.529 261.072C365.721 261.072 367.041 262.968 367.041 265.896V273H365.385V266.256C365.385 263.544 364.161 262.584 362.241 262.584C359.865 262.584 358.521 264.312 358.521 266.928V273ZM374.901 273.288C371.517 273.288 369.525 270.696 369.525 267.216C369.525 263.712 371.517 261.072 374.973 261.072C376.893 261.072 378.429 261.912 379.245 263.592V255.504H380.901V273H379.461L379.293 270.624C378.477 272.424 376.845 273.288 374.901 273.288ZM375.189 271.776C377.733 271.776 379.221 269.856 379.221 267.168C379.221 264.504 377.733 262.56 375.189 262.56C372.669 262.56 371.205 264.504 371.205 267.168C371.205 269.856 372.669 271.776 375.189 271.776ZM390.197 267.216C390.197 263.568 392.429 261.072 395.813 261.072C398.501 261.072 400.469 262.632 400.925 265.032H399.269C398.837 263.424 397.445 262.536 395.837 262.536C393.485 262.536 391.829 264.336 391.829 267.192C391.829 269.952 393.365 271.8 395.717 271.8C397.445 271.8 398.837 270.84 399.293 269.352H400.973C400.421 271.728 398.357 273.288 395.717 273.288C392.429 273.288 390.197 270.864 390.197 267.216ZM406.818 273.288C404.346 273.288 402.882 271.896 402.882 269.856C402.882 267.72 404.514 266.376 407.226 266.16L411.066 265.848V265.464C411.066 263.184 409.698 262.464 407.994 262.464C405.978 262.464 404.778 263.376 404.778 264.936H403.266C403.266 262.584 405.186 261.072 408.042 261.072C410.73 261.072 412.698 262.416 412.698 265.488V273H411.306L411.09 270.96C410.37 272.424 408.786 273.288 406.818 273.288ZM407.202 271.944C409.65 271.944 411.066 270.24 411.066 267.72V267.096L407.634 267.36C405.45 267.552 404.562 268.512 404.562 269.808C404.562 271.224 405.618 271.944 407.202 271.944ZM417.749 273H416.093V255.504H417.749V273ZM420.455 267.216C420.455 263.568 422.687 261.072 426.071 261.072C428.759 261.072 430.727 262.632 431.183 265.032H429.527C429.095 263.424 427.703 262.536 426.095 262.536C423.743 262.536 422.087 264.336 422.087 267.192C422.087 269.952 423.623 271.8 425.975 271.8C427.703 271.8 429.095 270.84 429.551 269.352H431.231C430.679 271.728 428.615 273.288 425.975 273.288C422.687 273.288 420.455 270.864 420.455 267.216ZM441.9 261.384H443.556V273H442.116L441.9 271.032C441.252 272.376 439.644 273.288 437.82 273.288C435.084 273.288 433.596 271.416 433.596 268.584V261.36H435.276V268.056C435.276 270.816 436.5 271.8 438.348 271.8C440.58 271.8 441.9 270.312 441.9 267.552V261.384ZM448.733 273H447.077V255.504H448.733V273ZM455.591 273.288C453.119 273.288 451.655 271.896 451.655 269.856C451.655 267.72 453.287 266.376 455.999 266.16L459.839 265.848V265.464C459.839 263.184 458.471 262.464 456.767 262.464C454.751 262.464 453.551 263.376 453.551 264.936H452.039C452.039 262.584 453.959 261.072 456.815 261.072C459.503 261.072 461.471 262.416 461.471 265.488V273H460.079L459.863 270.96C459.143 272.424 457.559 273.288 455.591 273.288ZM455.975 271.944C458.423 271.944 459.839 270.24 459.839 267.72V267.096L456.407 267.36C454.223 267.552 453.335 268.512 453.335 269.808C453.335 271.224 454.391 271.944 455.975 271.944ZM467.247 273H465.615V262.776H463.287V261.384H465.615V257.712H467.247V261.384H469.575V262.776H467.247V273ZM476.487 273.288C473.079 273.288 470.799 270.84 470.799 267.192C470.799 263.568 473.055 261.072 476.367 261.072C479.511 261.072 481.647 263.304 481.647 266.592V267.408H472.407C472.527 270.24 474.015 271.872 476.511 271.872C478.407 271.872 479.631 271.056 480.063 269.52H481.647C481.023 271.968 479.223 273.288 476.487 273.288ZM476.367 262.488C474.183 262.488 472.743 263.928 472.455 266.208H479.991C479.991 263.976 478.551 262.488 476.367 262.488ZM493.615 273H491.983V262.776H489.655V261.384H491.983V257.712H493.615V261.384H495.943V262.776H493.615V273ZM499.755 272.976H498.099V255.504H499.755V263.4C500.499 262.008 501.915 261.072 503.859 261.072C506.907 261.072 508.275 262.968 508.275 265.896V273H506.619V266.256C506.619 263.544 505.347 262.584 503.547 262.584C501.051 262.584 499.755 264.432 499.755 266.664V272.976ZM516.448 273.288C513.04 273.288 510.76 270.84 510.76 267.192C510.76 263.568 513.016 261.072 516.328 261.072C519.472 261.072 521.608 263.304 521.608 266.592V267.408H512.368C512.488 270.24 513.976 271.872 516.472 271.872C518.368 271.872 519.592 271.056 520.024 269.52H521.608C520.984 271.968 519.184 273.288 516.448 273.288ZM516.328 262.488C514.144 262.488 512.704 263.928 512.416 266.208H519.952C519.952 263.976 518.512 262.488 516.328 262.488ZM530.912 278.064V261.384H532.352L532.52 263.736C533.336 261.936 534.968 261.072 536.912 261.072C540.272 261.072 542.288 263.64 542.288 267.144C542.288 270.648 540.344 273.288 536.912 273.288C534.944 273.288 533.384 272.448 532.568 270.768V278.064H530.912ZM532.592 267.192C532.592 269.856 534.08 271.8 536.624 271.8C539.144 271.8 540.608 269.856 540.608 267.192C540.608 264.504 539.144 262.584 536.624 262.584C534.08 262.584 532.592 264.504 532.592 267.192ZM550.999 261.24V262.728H550.087C547.951 262.728 546.583 264.168 546.583 266.376V273H544.927V261.384H546.487L546.607 263.184C547.063 261.936 548.287 261.12 549.919 261.12C550.279 261.12 550.591 261.144 550.999 261.24ZM551.939 267.192C551.939 263.64 554.435 261.072 557.843 261.072C561.251 261.072 563.747 263.64 563.747 267.192C563.747 270.72 561.251 273.288 557.843 273.288C554.435 273.288 551.939 270.72 551.939 267.192ZM553.619 267.168C553.619 269.904 555.347 271.8 557.843 271.8C560.315 271.8 562.067 269.904 562.067 267.168C562.067 264.48 560.315 262.56 557.843 262.56C555.347 262.56 553.619 264.48 553.619 267.168ZM570.956 273.288C567.572 273.288 565.58 270.696 565.58 267.216C565.58 263.712 567.572 261.072 571.028 261.072C572.948 261.072 574.484 261.912 575.3 263.592V255.504H576.956V273H575.516L575.348 270.624C574.532 272.424 572.9 273.288 570.956 273.288ZM571.244 271.776C573.788 271.776 575.276 269.856 575.276 267.168C575.276 264.504 573.788 262.56 571.244 262.56C568.724 262.56 567.26 264.504 567.26 267.168C567.26 269.856 568.724 271.776 571.244 271.776ZM588.572 261.384H590.228V273H588.788L588.572 271.032C587.924 272.376 586.316 273.288 584.492 273.288C581.756 273.288 580.268 271.416 580.268 268.584V261.36H581.948V268.056C581.948 270.816 583.172 271.8 585.02 271.8C587.252 271.8 588.572 270.312 588.572 267.552V261.384ZM592.627 267.216C592.627 263.568 594.859 261.072 598.243 261.072C600.931 261.072 602.899 262.632 603.355 265.032H601.699C601.267 263.424 599.875 262.536 598.267 262.536C595.915 262.536 594.259 264.336 594.259 267.192C594.259 269.952 595.795 271.8 598.147 271.8C599.875 271.8 601.267 270.84 601.723 269.352H603.403C602.851 271.728 600.787 273.288 598.147 273.288C594.859 273.288 592.627 270.864 592.627 267.216ZM608.576 273H606.944V262.776H604.616V261.384H606.944V257.712H608.576V261.384H610.904V262.776H608.576V273ZM618.9 267.192C618.9 263.64 621.396 261.072 624.804 261.072C628.212 261.072 630.708 263.64 630.708 267.192C630.708 270.72 628.212 273.288 624.804 273.288C621.396 273.288 618.9 270.72 618.9 267.192ZM620.58 267.168C620.58 269.904 622.308 271.8 624.804 271.8C627.276 271.8 629.028 269.904 629.028 267.168C629.028 264.48 627.276 262.56 624.804 262.56C622.308 262.56 620.58 264.48 620.58 267.168ZM631.967 261.384H633.743V259.128C633.743 256.512 635.183 255.504 636.959 255.504C637.367 255.504 637.847 255.528 638.231 255.6V257.016H637.247C635.783 257.016 635.399 257.76 635.399 259.128V261.384H638.135V262.776H635.399V273H633.743V262.776H631.967V261.384ZM649.708 273H648.076V262.776H645.748V261.384H648.076V257.712H649.708V261.384H652.036V262.776H649.708V273ZM655.849 272.976H654.193V255.504H655.849V263.4C656.593 262.008 658.009 261.072 659.953 261.072C663.001 261.072 664.369 262.968 664.369 265.896V273H662.713V266.256C662.713 263.544 661.441 262.584 659.641 262.584C657.145 262.584 655.849 264.432 655.849 266.664V272.976ZM672.541 273.288C669.133 273.288 666.853 270.84 666.853 267.192C666.853 263.568 669.109 261.072 672.421 261.072C675.565 261.072 677.701 263.304 677.701 266.592V267.408H668.461C668.581 270.24 670.069 271.872 672.565 271.872C674.461 271.872 675.685 271.056 676.117 269.52H677.701C677.077 271.968 675.277 273.288 672.541 273.288ZM672.421 262.488C670.237 262.488 668.797 263.928 668.509 266.208H676.045C676.045 263.976 674.605 262.488 672.421 262.488ZM686.189 267.216C686.189 263.568 688.421 261.072 691.805 261.072C694.493 261.072 696.461 262.632 696.917 265.032H695.261C694.829 263.424 693.437 262.536 691.829 262.536C689.477 262.536 687.821 264.336 687.821 267.192C687.821 269.952 689.357 271.8 691.709 271.8C693.437 271.8 694.829 270.84 695.285 269.352H696.965C696.413 271.728 694.349 273.288 691.709 273.288C688.421 273.288 686.189 270.864 686.189 267.216ZM698.658 267.192C698.658 263.64 701.154 261.072 704.562 261.072C707.97 261.072 710.466 263.64 710.466 267.192C710.466 270.72 707.97 273.288 704.562 273.288C701.154 273.288 698.658 270.72 698.658 267.192ZM700.338 267.168C700.338 269.904 702.066 271.8 704.562 271.8C707.034 271.8 708.786 269.904 708.786 267.168C708.786 264.48 707.034 262.56 704.562 262.56C702.066 262.56 700.338 264.48 700.338 267.168ZM712.299 267.192C712.299 263.64 714.795 261.072 718.203 261.072C721.611 261.072 724.107 263.64 724.107 267.192C724.107 270.72 721.611 273.288 718.203 273.288C714.795 273.288 712.299 270.72 712.299 267.192ZM713.979 267.168C713.979 269.904 715.707 271.8 718.203 271.8C720.675 271.8 722.427 269.904 722.427 267.168C722.427 264.48 720.675 262.56 718.203 262.56C715.707 262.56 713.979 264.48 713.979 267.168ZM732.827 261.24V262.728H731.915C729.779 262.728 728.411 264.168 728.411 266.376V273H726.755V261.384H728.315L728.435 263.184C728.891 261.936 730.115 261.12 731.747 261.12C732.107 261.12 732.419 261.144 732.827 261.24ZM739.143 273.288C735.759 273.288 733.767 270.696 733.767 267.216C733.767 263.712 735.759 261.072 739.215 261.072C741.135 261.072 742.671 261.912 743.487 263.592V255.504H745.143V273H743.703L743.535 270.624C742.719 272.424 741.087 273.288 739.143 273.288ZM739.431 271.776C741.975 271.776 743.463 269.856 743.463 267.168C743.463 264.504 741.975 262.56 739.431 262.56C736.911 262.56 735.447 264.504 735.447 267.168C735.447 269.856 736.911 271.776 739.431 271.776ZM749.415 258.192C748.743 258.192 748.191 257.64 748.191 256.968C748.191 256.296 748.743 255.72 749.415 255.72C750.087 255.72 750.663 256.296 750.663 256.968C750.663 257.64 750.087 258.192 749.415 258.192ZM748.599 273V261.384H750.255V273H748.599ZM755.364 273H753.708V261.384H755.148L755.388 263.4C756.156 261.912 757.692 261.072 759.372 261.072C762.564 261.072 763.884 262.968 763.884 265.896V273H762.228V266.256C762.228 263.544 761.004 262.584 759.084 262.584C756.708 262.584 755.364 264.312 755.364 266.928V273ZM770.521 273.288C768.049 273.288 766.585 271.896 766.585 269.856C766.585 267.72 768.217 266.376 770.929 266.16L774.769 265.848V265.464C774.769 263.184 773.401 262.464 771.697 262.464C769.681 262.464 768.481 263.376 768.481 264.936H766.969C766.969 262.584 768.889 261.072 771.745 261.072C774.433 261.072 776.401 262.416 776.401 265.488V273H775.009L774.793 270.96C774.073 272.424 772.489 273.288 770.521 273.288ZM770.905 271.944C773.353 271.944 774.769 270.24 774.769 267.72V267.096L771.337 267.36C769.153 267.552 768.265 268.512 768.265 269.808C768.265 271.224 769.321 271.944 770.905 271.944ZM782.177 273H780.545V262.776H778.217V261.384H780.545V257.712H782.177V261.384H784.505V262.776H782.177V273ZM791.416 273.288C788.008 273.288 785.728 270.84 785.728 267.192C785.728 263.568 787.984 261.072 791.296 261.072C794.44 261.072 796.576 263.304 796.576 266.592V267.408H787.336C787.456 270.24 788.944 271.872 791.44 271.872C793.336 271.872 794.56 271.056 794.992 269.52H796.576C795.952 271.968 794.152 273.288 791.416 273.288ZM791.296 262.488C789.112 262.488 787.672 263.928 787.384 266.208H794.92C794.92 263.976 793.48 262.488 791.296 262.488ZM798.24 269.736H799.824C799.824 271.08 800.832 271.92 802.464 271.92C804.264 271.92 805.32 271.152 805.32 269.904C805.32 268.944 804.84 268.392 803.472 268.056L801.48 267.552C799.464 267.048 798.48 265.992 798.48 264.408C798.48 262.368 800.184 261.072 802.68 261.072C805.128 261.072 806.712 262.416 806.784 264.576H805.176C805.128 263.232 804.192 262.44 802.632 262.44C801 262.44 800.088 263.136 800.088 264.384C800.088 265.272 800.712 265.896 801.984 266.208L803.976 266.712C805.992 267.216 806.904 268.152 806.904 269.832C806.904 271.92 805.128 273.288 802.488 273.288C799.872 273.288 798.24 271.896 798.24 269.736ZM815.471 267.192C815.471 263.64 817.967 261.072 821.375 261.072C824.783 261.072 827.279 263.64 827.279 267.192C827.279 270.72 824.783 273.288 821.375 273.288C817.967 273.288 815.471 270.72 815.471 267.192ZM817.151 267.168C817.151 269.904 818.879 271.8 821.375 271.8C823.847 271.8 825.599 269.904 825.599 267.168C825.599 264.48 823.847 262.56 821.375 262.56C818.879 262.56 817.151 264.48 817.151 267.168ZM828.537 261.384H830.313V259.128C830.313 256.512 831.753 255.504 833.529 255.504C833.937 255.504 834.417 255.528 834.801 255.6V257.016H833.817C832.353 257.016 831.969 257.76 831.969 259.128V261.384H834.705V262.776H831.969V273H830.313V262.776H828.537V261.384ZM845.703 273H843.975V255.816H850.383C853.863 255.816 855.975 257.736 855.975 260.784C855.975 263.256 854.679 264.984 852.471 265.584L856.143 273H854.223L850.719 265.872H845.703V273ZM845.703 257.376V264.312H850.431C852.807 264.312 854.199 263.016 854.199 260.832C854.199 258.6 852.735 257.376 850.383 257.376H845.703ZM860.335 273.264C859.519 273.264 858.823 272.592 858.823 271.8C858.823 270.984 859.519 270.288 860.335 270.288C861.151 270.288 861.847 270.984 861.847 271.8C861.847 272.592 861.151 273.264 860.335 273.264Z" fill="#E2C65B"/>
<rect width="808" height="109" transform="translate(58 296)" fill="#33371D"/>
<path d="M77.344 321H75.296V309.304H77.344V314.136H82.528V309.304H84.576V321H82.528V316.04H77.344V321ZM87.859 311.512C87.187 311.512 86.659 310.984 86.659 310.328C86.659 309.672 87.187 309.16 87.859 309.16C88.499 309.16 89.027 309.672 89.027 310.328C89.027 310.984 88.499 311.512 87.859 311.512ZM86.883 321V313.096H88.835V321H86.883ZM92.8038 321H90.8518V313.096H92.6598L92.8198 314.12C93.3158 313.32 94.2758 312.856 95.3478 312.856C97.3318 312.856 98.3558 314.088 98.3558 316.136V321H96.4038V316.6C96.4038 315.272 95.7478 314.632 94.7398 314.632C93.5398 314.632 92.8038 315.464 92.8038 316.744V321ZM102.962 321H101.01V314.728H99.4896V313.096H101.01V310.632H102.962V313.096H104.498V314.728H102.962V321ZM107.183 315.368C106.479 315.368 105.887 314.792 105.887 314.104C105.887 313.4 106.479 312.824 107.183 312.824C107.887 312.824 108.479 313.4 108.479 314.104C108.479 314.792 107.887 315.368 107.183 315.368ZM107.183 321.192C106.479 321.192 105.887 320.616 105.887 319.928C105.887 319.224 106.479 318.648 107.183 318.648C107.887 318.648 108.479 319.224 108.479 319.928C108.479 320.616 107.887 321.192 107.183 321.192Z" fill="#E2C65B"/>
<path d="M80.064 348.176C76.864 348.176 74.688 345.792 74.688 342.272C74.688 338.752 76.896 336.352 80.128 336.352C82.592 336.352 84.528 337.84 84.992 340.112H83.76C83.28 338.464 81.872 337.456 80.08 337.456C77.568 337.456 75.888 339.376 75.888 342.272C75.888 345.152 77.568 347.072 80.08 347.072C81.888 347.072 83.328 346.096 83.824 344.56H85.056C84.528 346.72 82.528 348.176 80.064 348.176ZM87.8341 347.984H86.7301V336.336H87.8341V341.6C88.3301 340.672 89.2741 340.048 90.5701 340.048C92.6021 340.048 93.5141 341.312 93.5141 343.264V348H92.4101V343.504C92.4101 341.696 91.5621 341.056 90.3621 341.056C88.6981 341.056 87.8341 342.288 87.8341 343.776V347.984ZM98.9625 348.192C96.6905 348.192 95.1705 346.56 95.1705 344.128C95.1705 341.712 96.6745 340.048 98.8825 340.048C100.979 340.048 102.403 341.536 102.403 343.728V344.272H96.2425C96.3225 346.16 97.3145 347.248 98.9785 347.248C100.243 347.248 101.059 346.704 101.347 345.68H102.403C101.987 347.312 100.787 348.192 98.9625 348.192ZM98.8825 340.992C97.4265 340.992 96.4665 341.952 96.2745 343.472H101.299C101.299 341.984 100.339 340.992 98.8825 340.992ZM103.624 344.144C103.624 341.712 105.112 340.048 107.368 340.048C109.16 340.048 110.472 341.088 110.776 342.688H109.672C109.384 341.616 108.456 341.024 107.384 341.024C105.816 341.024 104.712 342.224 104.712 344.128C104.712 345.968 105.736 347.2 107.304 347.2C108.456 347.2 109.384 346.56 109.688 345.568H110.808C110.44 347.152 109.064 348.192 107.304 348.192C105.112 348.192 103.624 346.576 103.624 344.144ZM113.632 348H112.528V336.336H113.632V344.256L117.472 340.256H118.864L115.888 343.344L118.88 348H117.6L115.136 344.128L113.632 345.68V348ZM119.389 344.128C119.389 341.76 121.053 340.048 123.325 340.048C125.597 340.048 127.261 341.76 127.261 344.128C127.261 346.48 125.597 348.192 123.325 348.192C121.053 348.192 119.389 346.48 119.389 344.128ZM120.509 344.112C120.509 345.936 121.661 347.2 123.325 347.2C124.973 347.2 126.141 345.936 126.141 344.112C126.141 342.32 124.973 341.04 123.325 341.04C121.661 341.04 120.509 342.32 120.509 344.112ZM134.28 340.256H135.384V348H134.424L134.28 346.688C133.848 347.584 132.776 348.192 131.56 348.192C129.736 348.192 128.743 346.944 128.743 345.056V340.24H129.864V344.704C129.864 346.544 130.68 347.2 131.911 347.2C133.4 347.2 134.28 346.208 134.28 344.368V340.256ZM139.459 348H138.371V341.184H136.819V340.256H138.371V337.808H139.459V340.256H141.011V341.184H139.459V348ZM148.662 348H147.574V341.184H146.022V340.256H147.574V337.808H148.662V340.256H150.214V341.184H148.662V348ZM152.756 347.984H151.652V336.336H152.756V341.6C153.252 340.672 154.196 340.048 155.492 340.048C157.524 340.048 158.436 341.312 158.436 343.264V348H157.332V343.504C157.332 341.696 156.484 341.056 155.284 341.056C153.62 341.056 152.756 342.288 152.756 343.776V347.984ZM163.884 348.192C161.612 348.192 160.092 346.56 160.092 344.128C160.092 341.712 161.596 340.048 163.804 340.048C165.9 340.048 167.324 341.536 167.324 343.728V344.272H161.164C161.244 346.16 162.236 347.248 163.9 347.248C165.164 347.248 165.98 346.704 166.268 345.68H167.324C166.908 347.312 165.708 348.192 163.884 348.192ZM163.804 340.992C162.348 340.992 161.388 341.952 161.196 343.472H166.22C166.22 341.984 165.26 340.992 163.804 340.992ZM175.751 348.192C174.103 348.192 173.127 347.264 173.127 345.904C173.127 344.48 174.215 343.584 176.023 343.44L178.583 343.232V342.976C178.583 341.456 177.671 340.976 176.535 340.976C175.191 340.976 174.391 341.584 174.391 342.624H173.383C173.383 341.056 174.663 340.048 176.567 340.048C178.359 340.048 179.671 340.944 179.671 342.992V348H178.743L178.599 346.64C178.119 347.616 177.063 348.192 175.751 348.192ZM176.007 347.296C177.639 347.296 178.583 346.16 178.583 344.48V344.064L176.295 344.24C174.839 344.368 174.247 345.008 174.247 345.872C174.247 346.816 174.951 347.296 176.007 347.296ZM183.038 348H181.934V336.336H183.038V348ZM184.858 343.904C184.858 341.792 186.218 340.048 188.49 340.048C189.834 340.048 190.858 340.672 191.354 341.808L191.466 340.256H192.426V347.76C192.426 350.064 190.954 351.568 188.682 351.568C186.698 351.568 185.306 350.448 185.002 348.576H186.106C186.346 349.824 187.306 350.56 188.698 350.56C190.282 350.56 191.338 349.488 191.338 347.872V346.032C190.81 347.12 189.738 347.76 188.41 347.76C186.202 347.76 184.858 346.016 184.858 343.904ZM185.962 343.888C185.962 345.472 186.938 346.768 188.57 346.768C190.25 346.768 191.242 345.552 191.242 343.888C191.242 342.24 190.282 341.024 188.586 341.024C186.922 341.024 185.962 342.32 185.962 343.888ZM194.186 344.128C194.186 341.76 195.85 340.048 198.122 340.048C200.394 340.048 202.058 341.76 202.058 344.128C202.058 346.48 200.394 348.192 198.122 348.192C195.85 348.192 194.186 346.48 194.186 344.128ZM195.306 344.112C195.306 345.936 196.458 347.2 198.122 347.2C199.77 347.2 200.938 345.936 200.938 344.112C200.938 342.32 199.77 341.04 198.122 341.04C196.458 341.04 195.306 342.32 195.306 344.112ZM207.872 340.16V341.152H207.264C205.84 341.152 204.928 342.112 204.928 343.584V348H203.824V340.256H204.864L204.944 341.456C205.248 340.624 206.064 340.08 207.152 340.08C207.392 340.08 207.6 340.096 207.872 340.16ZM209.884 338.128C209.436 338.128 209.068 337.76 209.068 337.312C209.068 336.864 209.436 336.48 209.884 336.48C210.332 336.48 210.716 336.864 210.716 337.312C210.716 337.76 210.332 338.128 209.884 338.128ZM209.34 348V340.256H210.444V348H209.34ZM214.522 348H213.434V341.184H211.882V340.256H213.434V337.808H214.522V340.256H216.074V341.184H214.522V348ZM218.615 347.984H217.511V336.336H218.615V341.6C219.111 340.672 220.055 340.048 221.351 340.048C223.383 340.048 224.295 341.312 224.295 343.264V348H223.191V343.504C223.191 341.696 222.343 341.056 221.143 341.056C219.479 341.056 218.615 342.288 218.615 343.776V347.984ZM227.6 348H226.496V340.256H227.456L227.584 341.36C227.968 340.544 228.832 340.048 229.92 340.048C231.136 340.048 232.048 340.688 232.416 341.696C232.768 340.688 233.712 340.048 234.96 340.048C236.64 340.048 237.744 341.136 237.744 342.928V348H236.672V343.152C236.672 341.824 235.936 341.04 234.752 341.04C233.456 341.04 232.688 342.016 232.688 343.216V348H231.6V343.136C231.6 341.824 230.848 341.056 229.68 341.056C228.384 341.056 227.6 342.016 227.6 343.2V348ZM243.538 340.256H244.722V338.752C244.722 337.008 245.682 336.336 246.866 336.336C247.138 336.336 247.458 336.352 247.714 336.4V337.344H247.058C246.082 337.344 245.826 337.84 245.826 338.752V340.256H247.65V341.184H245.826V348H244.722V341.184H243.538V340.256ZM248.374 344.128C248.374 341.76 250.038 340.048 252.31 340.048C254.582 340.048 256.246 341.76 256.246 344.128C256.246 346.48 254.582 348.192 252.31 348.192C250.038 348.192 248.374 346.48 248.374 344.128ZM249.494 344.112C249.494 345.936 250.646 347.2 252.31 347.2C253.958 347.2 255.126 345.936 255.126 344.112C255.126 342.32 253.958 341.04 252.31 341.04C250.646 341.04 249.494 342.32 249.494 344.112ZM262.059 340.16V341.152H261.451C260.027 341.152 259.115 342.112 259.115 343.584V348H258.011V340.256H259.051L259.131 341.456C259.435 340.624 260.251 340.08 261.339 340.08C261.579 340.08 261.787 340.096 262.059 340.16ZM270.189 348.192C268.541 348.192 267.565 347.264 267.565 345.904C267.565 344.48 268.653 343.584 270.461 343.44L273.021 343.232V342.976C273.021 341.456 272.109 340.976 270.973 340.976C269.629 340.976 268.829 341.584 268.829 342.624H267.821C267.821 341.056 269.101 340.048 271.005 340.048C272.797 340.048 274.109 340.944 274.109 342.992V348H273.181L273.037 346.64C272.557 347.616 271.501 348.192 270.189 348.192ZM270.445 347.296C272.077 347.296 273.021 346.16 273.021 344.48V344.064L270.733 344.24C269.277 344.368 268.685 345.008 268.685 345.872C268.685 346.816 269.389 347.296 270.445 347.296ZM279.364 348.192C277.108 348.192 275.78 346.464 275.78 344.144C275.78 341.808 277.108 340.048 279.412 340.048C280.692 340.048 281.716 340.608 282.26 341.728V336.336H283.364V348H282.404L282.292 346.416C281.748 347.616 280.66 348.192 279.364 348.192ZM279.556 347.184C281.252 347.184 282.244 345.904 282.244 344.112C282.244 342.336 281.252 341.04 279.556 341.04C277.876 341.04 276.9 342.336 276.9 344.112C276.9 345.904 277.876 347.184 279.556 347.184ZM288.708 348.192C286.452 348.192 285.124 346.464 285.124 344.144C285.124 341.808 286.452 340.048 288.756 340.048C290.036 340.048 291.06 340.608 291.604 341.728V336.336H292.708V348H291.748L291.636 346.416C291.092 347.616 290.004 348.192 288.708 348.192ZM288.9 347.184C290.596 347.184 291.588 345.904 291.588 344.112C291.588 342.336 290.596 341.04 288.9 341.04C287.22 341.04 286.244 342.336 286.244 344.112C286.244 345.904 287.22 347.184 288.9 347.184ZM295.555 338.128C295.107 338.128 294.739 337.76 294.739 337.312C294.739 336.864 295.107 336.48 295.555 336.48C296.003 336.48 296.387 336.864 296.387 337.312C296.387 337.76 296.003 338.128 295.555 338.128ZM295.011 348V340.256H296.115V348H295.011ZM300.194 348H299.106V341.184H297.554V340.256H299.106V337.808H300.194V340.256H301.746V341.184H300.194V348ZM303.727 338.128C303.279 338.128 302.911 337.76 302.911 337.312C302.911 336.864 303.279 336.48 303.727 336.48C304.175 336.48 304.559 336.864 304.559 337.312C304.559 337.76 304.175 338.128 303.727 338.128ZM303.183 348V340.256H304.287V348H303.183ZM306.046 344.128C306.046 341.76 307.71 340.048 309.982 340.048C312.254 340.048 313.918 341.76 313.918 344.128C313.918 346.48 312.254 348.192 309.982 348.192C307.71 348.192 306.046 346.48 306.046 344.128ZM307.166 344.112C307.166 345.936 308.318 347.2 309.982 347.2C311.63 347.2 312.798 345.936 312.798 344.112C312.798 342.32 311.63 341.04 309.982 341.04C308.318 341.04 307.166 342.32 307.166 344.112ZM316.787 348H315.683V340.256H316.643L316.803 341.6C317.315 340.608 318.339 340.048 319.459 340.048C321.587 340.048 322.467 341.312 322.467 343.264V348H321.363V343.504C321.363 341.696 320.547 341.056 319.267 341.056C317.683 341.056 316.787 342.208 316.787 343.952V348ZM328.561 344.128C328.561 341.76 330.225 340.048 332.497 340.048C334.769 340.048 336.433 341.76 336.433 344.128C336.433 346.48 334.769 348.192 332.497 348.192C330.225 348.192 328.561 346.48 328.561 344.128ZM329.681 344.112C329.681 345.936 330.833 347.2 332.497 347.2C334.145 347.2 335.313 345.936 335.313 344.112C335.313 342.32 334.145 341.04 332.497 341.04C330.833 341.04 329.681 342.32 329.681 344.112ZM337.272 340.256H338.456V338.752C338.456 337.008 339.416 336.336 340.6 336.336C340.872 336.336 341.192 336.352 341.448 336.4V337.344H340.792C339.816 337.344 339.56 337.84 339.56 338.752V340.256H341.384V341.184H339.56V348H338.456V341.184H337.272V340.256ZM350.572 348.192C348.3 348.192 346.78 346.56 346.78 344.128C346.78 341.712 348.284 340.048 350.492 340.048C352.588 340.048 354.012 341.536 354.012 343.728V344.272H347.852C347.932 346.16 348.924 347.248 350.588 347.248C351.852 347.248 352.668 346.704 352.956 345.68H354.012C353.596 347.312 352.396 348.192 350.572 348.192ZM350.492 340.992C349.036 340.992 348.076 341.952 347.884 343.472H352.908C352.908 341.984 351.948 340.992 350.492 340.992ZM356.929 348H355.825V336.336H356.929V348ZM360.429 348H359.325V336.336H360.429V348ZM363.321 338.128C362.873 338.128 362.505 337.76 362.505 337.312C362.505 336.864 362.873 336.48 363.321 336.48C363.769 336.48 364.153 336.864 364.153 337.312C364.153 337.76 363.769 338.128 363.321 338.128ZM362.777 348V340.256H363.881V348H362.777ZM366.183 351.376V340.256H367.143L367.255 341.824C367.799 340.624 368.887 340.048 370.183 340.048C372.423 340.048 373.767 341.76 373.767 344.096C373.767 346.432 372.471 348.192 370.183 348.192C368.871 348.192 367.831 347.632 367.287 346.512V351.376H366.183ZM367.303 344.128C367.303 345.904 368.295 347.2 369.991 347.2C371.671 347.2 372.647 345.904 372.647 344.128C372.647 342.336 371.671 341.056 369.991 341.056C368.295 341.056 367.303 342.336 367.303 344.128ZM377.225 348H376.137V341.184H374.585V340.256H376.137V337.808H377.225V340.256H378.777V341.184H377.225V348ZM380.759 338.128C380.311 338.128 379.943 337.76 379.943 337.312C379.943 336.864 380.311 336.48 380.759 336.48C381.207 336.48 381.591 336.864 381.591 337.312C381.591 337.76 381.207 338.128 380.759 338.128ZM380.215 348V340.256H381.319V348H380.215ZM383.077 344.144C383.077 341.712 384.565 340.048 386.821 340.048C388.613 340.048 389.925 341.088 390.229 342.688H389.125C388.837 341.616 387.909 341.024 386.837 341.024C385.269 341.024 384.165 342.224 384.165 344.128C384.165 345.968 385.189 347.2 386.757 347.2C387.909 347.2 388.837 346.56 389.141 345.568H390.261C389.893 347.152 388.517 348.192 386.757 348.192C384.565 348.192 383.077 346.576 383.077 344.144ZM395.827 344.144C395.827 341.712 397.315 340.048 399.571 340.048C401.363 340.048 402.675 341.088 402.979 342.688H401.875C401.587 341.616 400.659 341.024 399.587 341.024C398.019 341.024 396.915 342.224 396.915 344.128C396.915 345.968 397.939 347.2 399.507 347.2C400.659 347.2 401.587 346.56 401.891 345.568H403.011C402.643 347.152 401.267 348.192 399.507 348.192C397.315 348.192 395.827 346.576 395.827 344.144ZM410.123 340.256H411.227V348H410.267L410.123 346.688C409.691 347.584 408.619 348.192 407.403 348.192C405.579 348.192 404.587 346.944 404.587 345.056V340.24H405.707V344.704C405.707 346.544 406.523 347.2 407.755 347.2C409.243 347.2 410.123 346.208 410.123 344.368V340.256ZM417.575 340.16V341.152H416.967C415.543 341.152 414.631 342.112 414.631 343.584V348H413.527V340.256H414.567L414.647 341.456C414.951 340.624 415.767 340.08 416.855 340.08C417.095 340.08 417.303 340.096 417.575 340.16ZM421.437 348L418.269 340.256H419.453L421.453 345.248C421.661 345.808 421.869 346.336 422.013 346.848C422.157 346.32 422.365 345.808 422.589 345.248L424.621 340.256H425.757L422.541 348H421.437ZM429.963 348.192C427.691 348.192 426.171 346.56 426.171 344.128C426.171 341.712 427.674 340.048 429.883 340.048C431.979 340.048 433.403 341.536 433.403 343.728V344.272H427.243C427.323 346.16 428.315 347.248 429.979 347.248C431.243 347.248 432.059 346.704 432.347 345.68H433.403C432.987 347.312 431.787 348.192 429.963 348.192ZM429.883 340.992C428.427 340.992 427.467 341.952 427.275 343.472H432.299C432.299 341.984 431.339 340.992 429.883 340.992ZM439.605 351.376V340.256H440.565L440.677 341.824C441.221 340.624 442.309 340.048 443.605 340.048C445.845 340.048 447.189 341.76 447.189 344.096C447.189 346.432 445.893 348.192 443.605 348.192C442.293 348.192 441.253 347.632 440.709 346.512V351.376H439.605ZM440.725 344.128C440.725 345.904 441.717 347.2 443.413 347.2C445.093 347.2 446.069 345.904 446.069 344.128C446.069 342.336 445.093 341.056 443.413 341.056C441.717 341.056 440.725 342.336 440.725 344.128ZM448.405 344.128C448.405 341.76 450.069 340.048 452.341 340.048C454.613 340.048 456.277 341.76 456.277 344.128C456.277 346.48 454.613 348.192 452.341 348.192C450.069 348.192 448.405 346.48 448.405 344.128ZM449.525 344.112C449.525 345.936 450.677 347.2 452.341 347.2C453.989 347.2 455.157 345.936 455.157 344.112C455.157 342.32 453.989 341.04 452.341 341.04C450.677 341.04 449.525 342.32 449.525 344.112ZM458.587 338.128C458.139 338.128 457.771 337.76 457.771 337.312C457.771 336.864 458.139 336.48 458.587 336.48C459.035 336.48 459.419 336.864 459.419 337.312C459.419 337.76 459.035 338.128 458.587 338.128ZM458.043 348V340.256H459.147V348H458.043ZM462.553 348H461.449V340.256H462.409L462.569 341.6C463.081 340.608 464.105 340.048 465.225 340.048C467.353 340.048 468.233 341.312 468.233 343.264V348H467.129V343.504C467.129 341.696 466.313 341.056 465.033 341.056C463.449 341.056 462.553 342.208 462.553 343.952V348ZM472.209 348H471.121V341.184H469.569V340.256H471.121V337.808H472.209V340.256H473.761V341.184H472.209V348ZM474.543 345.824H475.599C475.599 346.72 476.271 347.28 477.359 347.28C478.559 347.28 479.263 346.768 479.263 345.936C479.263 345.296 478.943 344.928 478.031 344.704L476.703 344.368C475.359 344.032 474.703 343.328 474.703 342.272C474.703 340.912 475.839 340.048 477.503 340.048C479.135 340.048 480.191 340.944 480.239 342.384H479.167C479.135 341.488 478.511 340.96 477.471 340.96C476.383 340.96 475.775 341.424 475.775 342.256C475.775 342.848 476.191 343.264 477.039 343.472L478.367 343.808C479.711 344.144 480.319 344.768 480.319 345.888C480.319 347.28 479.135 348.192 477.375 348.192C475.631 348.192 474.543 347.264 474.543 345.824ZM482.955 348.176C482.411 348.176 481.947 347.728 481.947 347.2C481.947 346.656 482.411 346.192 482.955 346.192C483.499 346.192 483.963 346.656 483.963 347.2C483.963 347.728 483.499 348.176 482.955 348.176Z" fill="#E2C65B"/>
<rect x="344.333" y="437.5" width="173" height="47" fill="#172012"/>
<rect x="344.333" y="437.5" width="173" height="47" stroke="#F0CE7B"/>
<rect x="579.667" y="437.792" width="46.4167" height="46.3333" transform="rotate(90 579.667 437.792)" fill="#172012"/>
<rect x="579.667" y="437.792" width="46.4167" height="46.3333" transform="rotate(90 579.667 437.792)" stroke="#F0CE7B"/>
<path d="M540.833 459.042L540.833 462.958L564.333 462.958L564.333 466.875L568.25 466.875L568.25 462.958L572.167 462.958L572.167 459.042L568.25 459.042L568.25 455.125L564.333 455.125L564.333 459.042L540.833 459.042ZM560.417 451.208L564.333 451.208L564.333 455.125L560.417 455.125L560.417 451.208ZM560.417 451.208L556.5 451.208L556.5 447.292L560.417 447.292L560.417 451.208ZM560.417 470.792L564.333 470.792L564.333 466.875L560.417 466.875L560.417 470.792ZM560.417 470.792L556.5 470.792L556.5 474.708L560.417 474.708L560.417 470.792Z" fill="#F0CE7B"/>
</svg>
