<svg width="904" height="330" viewBox="0 0 904 330" fill="none" xmlns="http://www.w3.org/2000/svg">
<rect x="1" y="1" width="902" height="328" fill="#1F2B17"/>
<rect x="1" y="1" width="902" height="328" stroke="#F0CE7B" stroke-width="2"/>
<path d="M372.042 62.8V66H368.842V62.8H365.642V66H352.842V62.8H349.642V46.8H352.842V43.6H368.842V46.8H372.042V59.6H368.842V62.8H372.042ZM359.242 56.4H365.642V46.8H356.042V62.8H362.442V59.6H359.242V56.4ZM398.542 43.6V62.8H395.342V66H379.342V62.8H376.142V43.6H382.542V62.8H392.142V43.6H398.542ZM425.042 62.8V66H402.642V43.6H425.042V46.8H409.042V53.2H421.842V56.4H409.042V62.8H425.042ZM451.542 56.4V62.8H448.342V66H432.342V62.8H429.142V59.6H435.542V62.8H445.142V56.4H432.342V53.2H429.142V46.8H432.342V43.6H445.142V46.8H448.342V50H441.942V46.8H435.542V53.2H448.342V56.4H451.542ZM473.254 43.6V46.8H466.854V66H460.454V46.8H454.054V43.6H473.254ZM499.754 43.6V46.8H493.354V62.8H499.754V66H480.554V62.8H486.954V46.8H480.554V43.6H499.754ZM527.854 46.8V62.8H524.654V66H508.654V62.8H505.454V46.8H508.654V43.6H524.654V46.8H527.854ZM511.854 62.8H521.454V46.8H511.854V62.8ZM554.354 43.6V66H547.954V62.8H544.754V59.6H541.554V56.4H538.354V66H531.954V43.6H538.354V46.8H541.554V50H544.754V53.2H547.954V43.6H554.354Z" fill="#F0CE7B"/>
<path d="M171.736 105.824L165.904 95.816H167.848L172.096 103.232C172.288 103.592 172.432 103.88 172.6 104.264C172.816 103.832 172.816 103.832 173.128 103.232L177.328 95.816H179.224L173.464 105.824V113H171.736V105.824ZM178.131 107.192C178.131 103.64 180.627 101.072 184.035 101.072C187.443 101.072 189.939 103.64 189.939 107.192C189.939 110.72 187.443 113.288 184.035 113.288C180.627 113.288 178.131 110.72 178.131 107.192ZM179.811 107.168C179.811 109.904 181.539 111.8 184.035 111.8C186.507 111.8 188.259 109.904 188.259 107.168C188.259 104.48 186.507 102.56 184.035 102.56C181.539 102.56 179.811 104.48 179.811 107.168ZM200.466 101.384H202.122V113H200.682L200.466 111.032C199.818 112.376 198.21 113.288 196.386 113.288C193.65 113.288 192.162 111.416 192.162 108.584V101.36H193.842V108.056C193.842 110.816 195.066 111.8 196.914 111.8C199.146 111.8 200.466 110.312 200.466 107.552V101.384ZM215.564 113.288C213.092 113.288 211.628 111.896 211.628 109.856C211.628 107.72 213.26 106.376 215.972 106.16L219.812 105.848V105.464C219.812 103.184 218.444 102.464 216.74 102.464C214.724 102.464 213.524 103.376 213.524 104.936H212.012C212.012 102.584 213.932 101.072 216.788 101.072C219.476 101.072 221.444 102.416 221.444 105.488V113H220.052L219.836 110.96C219.116 112.424 217.532 113.288 215.564 113.288ZM215.948 111.944C218.396 111.944 219.812 110.24 219.812 107.72V107.096L216.38 107.36C214.196 107.552 213.308 108.512 213.308 109.808C213.308 111.224 214.364 111.944 215.948 111.944ZM230.839 101.24V102.728H229.927C227.791 102.728 226.423 104.168 226.423 106.376V113H224.767V101.384H226.327L226.447 103.184C226.903 101.936 228.127 101.12 229.759 101.12C230.119 101.12 230.431 101.144 230.839 101.24ZM237.467 113.288C234.059 113.288 231.779 110.84 231.779 107.192C231.779 103.568 234.035 101.072 237.347 101.072C240.491 101.072 242.627 103.304 242.627 106.592V107.408H233.387C233.507 110.24 234.995 111.872 237.491 111.872C239.387 111.872 240.611 111.056 241.043 109.52H242.627C242.003 111.968 240.203 113.288 237.467 113.288ZM237.347 102.488C235.163 102.488 233.723 103.928 233.435 106.208H240.971C240.971 103.976 239.531 102.488 237.347 102.488ZM251.139 106.856C251.139 103.688 253.179 101.072 256.587 101.072C258.603 101.072 260.139 102.008 260.883 103.712L261.051 101.384H262.491V112.64C262.491 116.096 260.283 118.352 256.875 118.352C253.899 118.352 251.811 116.672 251.355 113.864H253.011C253.371 115.736 254.811 116.84 256.899 116.84C259.275 116.84 260.859 115.232 260.859 112.808V110.048C260.067 111.68 258.459 112.64 256.467 112.64C253.155 112.64 251.139 110.024 251.139 106.856ZM252.795 106.832C252.795 109.208 254.259 111.152 256.707 111.152C259.227 111.152 260.715 109.328 260.715 106.832C260.715 104.36 259.275 102.536 256.731 102.536C254.235 102.536 252.795 104.48 252.795 106.832ZM266.763 98.192C266.091 98.192 265.539 97.64 265.539 96.968C265.539 96.296 266.091 95.72 266.763 95.72C267.435 95.72 268.011 96.296 268.011 96.968C268.011 97.64 267.435 98.192 266.763 98.192ZM265.947 113V101.384H267.603V113H265.947ZM274.296 113L269.544 101.384H271.32L274.32 108.872C274.632 109.712 274.944 110.504 275.16 111.272C275.376 110.48 275.688 109.712 276.024 108.872L279.072 101.384H280.776L275.952 113H274.296ZM287.084 113.288C283.676 113.288 281.396 110.84 281.396 107.192C281.396 103.568 283.652 101.072 286.964 101.072C290.108 101.072 292.244 103.304 292.244 106.592V107.408H283.004C283.124 110.24 284.612 111.872 287.108 111.872C289.004 111.872 290.228 111.056 290.66 109.52H292.244C291.62 111.968 289.82 113.288 287.084 113.288ZM286.964 102.488C284.78 102.488 283.34 103.928 283.052 106.208H290.588C290.588 103.976 289.148 102.488 286.964 102.488ZM296.548 113H294.892V101.384H296.332L296.572 103.4C297.34 101.912 298.876 101.072 300.556 101.072C303.748 101.072 305.068 102.968 305.068 105.896V113H303.412V106.256C303.412 103.544 302.188 102.584 300.268 102.584C297.892 102.584 296.548 104.312 296.548 106.928V113ZM317.689 113H316.057V102.776H313.729V101.384H316.057V97.712H317.689V101.384H320.017V102.776H317.689V113ZM323.829 112.976H322.173V95.504H323.829V103.4C324.573 102.008 325.989 101.072 327.933 101.072C330.981 101.072 332.349 102.968 332.349 105.896V113H330.693V106.256C330.693 103.544 329.421 102.584 327.621 102.584C325.125 102.584 323.829 104.432 323.829 106.664V112.976ZM340.522 113.288C337.114 113.288 334.834 110.84 334.834 107.192C334.834 103.568 337.09 101.072 340.402 101.072C343.546 101.072 345.682 103.304 345.682 106.592V107.408H336.442C336.562 110.24 338.05 111.872 340.546 111.872C342.442 111.872 343.666 111.056 344.098 109.52H345.682C345.058 111.968 343.258 113.288 340.522 113.288ZM340.402 102.488C338.218 102.488 336.778 103.928 336.49 106.208H344.026C344.026 103.976 342.586 102.488 340.402 102.488ZM353.69 101.384H355.466V99.128C355.466 96.512 356.906 95.504 358.682 95.504C359.09 95.504 359.57 95.528 359.954 95.6V97.016H358.97C357.506 97.016 357.122 97.76 357.122 99.128V101.384H359.858V102.776H357.122V113H355.466V102.776H353.69V101.384ZM360.943 107.192C360.943 103.64 363.439 101.072 366.847 101.072C370.255 101.072 372.751 103.64 372.751 107.192C372.751 110.72 370.255 113.288 366.847 113.288C363.439 113.288 360.943 110.72 360.943 107.192ZM362.623 107.168C362.623 109.904 364.351 111.8 366.847 111.8C369.319 111.8 371.071 109.904 371.071 107.168C371.071 104.48 369.319 102.56 366.847 102.56C364.351 102.56 362.623 104.48 362.623 107.168ZM377.128 113H375.472V95.504H377.128V113ZM382.378 113H380.722V95.504H382.378V113ZM385.084 107.192C385.084 103.64 387.58 101.072 390.988 101.072C394.396 101.072 396.892 103.64 396.892 107.192C396.892 110.72 394.396 113.288 390.988 113.288C387.58 113.288 385.084 110.72 385.084 107.192ZM386.764 107.168C386.764 109.904 388.492 111.8 390.988 111.8C393.46 111.8 395.212 109.904 395.212 107.168C395.212 104.48 393.46 102.56 390.988 102.56C388.492 102.56 386.764 104.48 386.764 107.168ZM401.473 113L397.633 101.384H399.337L401.617 108.392C401.881 109.16 402.097 109.952 402.337 110.888C402.529 109.952 402.913 108.776 403.033 108.392L405.337 101.384H407.041L409.321 108.392C409.537 109.016 409.825 110.024 410.041 110.888C410.281 109.928 410.329 109.64 410.737 108.392L413.041 101.384H414.769L410.833 113H409.225L406.825 105.704C406.537 104.84 406.345 104.12 406.201 103.424C406.033 104.048 405.841 104.744 405.529 105.704L403.129 113H401.473ZM417.653 98.192C416.981 98.192 416.429 97.64 416.429 96.968C416.429 96.296 416.981 95.72 417.653 95.72C418.325 95.72 418.901 96.296 418.901 96.968C418.901 97.64 418.325 98.192 417.653 98.192ZM416.837 113V101.384H418.493V113H416.837ZM423.603 113H421.947V101.384H423.387L423.627 103.4C424.395 101.912 425.931 101.072 427.611 101.072C430.803 101.072 432.123 102.968 432.123 105.896V113H430.467V106.256C430.467 103.544 429.243 102.584 427.323 102.584C424.947 102.584 423.603 104.312 423.603 106.928V113ZM434.631 106.856C434.631 103.688 436.671 101.072 440.079 101.072C442.095 101.072 443.631 102.008 444.375 103.712L444.543 101.384H445.983V112.64C445.983 116.096 443.775 118.352 440.367 118.352C437.391 118.352 435.303 116.672 434.847 113.864H436.503C436.863 115.736 438.303 116.84 440.391 116.84C442.767 116.84 444.351 115.232 444.351 112.808V110.048C443.559 111.68 441.951 112.64 439.959 112.64C436.647 112.64 434.631 110.024 434.631 106.856ZM436.287 106.832C436.287 109.208 437.751 111.152 440.199 111.152C442.719 111.152 444.207 109.328 444.207 106.832C444.207 104.36 442.767 102.536 440.223 102.536C437.727 102.536 436.287 104.48 436.287 106.832ZM456.095 118.064V101.384H457.535L457.703 103.736C458.519 101.936 460.151 101.072 462.095 101.072C465.455 101.072 467.471 103.64 467.471 107.144C467.471 110.648 465.527 113.288 462.095 113.288C460.127 113.288 458.567 112.448 457.751 110.768V118.064H456.095ZM457.775 107.192C457.775 109.856 459.263 111.8 461.807 111.8C464.327 111.8 465.791 109.856 465.791 107.192C465.791 104.504 464.327 102.584 461.807 102.584C459.263 102.584 457.775 104.504 457.775 107.192ZM469.295 107.192C469.295 103.64 471.791 101.072 475.199 101.072C478.607 101.072 481.103 103.64 481.103 107.192C481.103 110.72 478.607 113.288 475.199 113.288C471.791 113.288 469.295 110.72 469.295 107.192ZM470.975 107.168C470.975 109.904 472.703 111.8 475.199 111.8C477.671 111.8 479.423 109.904 479.423 107.168C479.423 104.48 477.671 102.56 475.199 102.56C472.703 102.56 470.975 104.48 470.975 107.168ZM484.567 98.192C483.895 98.192 483.343 97.64 483.343 96.968C483.343 96.296 483.895 95.72 484.567 95.72C485.239 95.72 485.815 96.296 485.815 96.968C485.815 97.64 485.239 98.192 484.567 98.192ZM483.751 113V101.384H485.407V113H483.751ZM490.517 113H488.861V101.384H490.301L490.541 103.4C491.309 101.912 492.845 101.072 494.525 101.072C497.717 101.072 499.037 102.968 499.037 105.896V113H497.381V106.256C497.381 103.544 496.157 102.584 494.237 102.584C491.861 102.584 490.517 104.312 490.517 106.928V113ZM505.001 113H503.369V102.776H501.041V101.384H503.369V97.712H505.001V101.384H507.329V102.776H505.001V113ZM508.502 109.736H510.086C510.086 111.08 511.094 111.92 512.726 111.92C514.526 111.92 515.582 111.152 515.582 109.904C515.582 108.944 515.102 108.392 513.734 108.056L511.742 107.552C509.726 107.048 508.742 105.992 508.742 104.408C508.742 102.368 510.446 101.072 512.942 101.072C515.39 101.072 516.974 102.416 517.046 104.576H515.438C515.39 103.232 514.454 102.44 512.894 102.44C511.262 102.44 510.35 103.136 510.35 104.384C510.35 105.272 510.974 105.896 512.246 106.208L514.238 106.712C516.254 107.216 517.166 108.152 517.166 109.832C517.166 111.92 515.39 113.288 512.75 113.288C510.134 113.288 508.502 111.896 508.502 109.736ZM527.364 98.192C526.692 98.192 526.14 97.64 526.14 96.968C526.14 96.296 526.692 95.72 527.364 95.72C528.036 95.72 528.612 96.296 528.612 96.968C528.612 97.64 528.036 98.192 527.364 98.192ZM526.548 113V101.384H528.204V113H526.548ZM533.314 113H531.658V101.384H533.098L533.338 103.4C534.106 101.912 535.642 101.072 537.322 101.072C540.514 101.072 541.834 102.968 541.834 105.896V113H540.178V106.256C540.178 103.544 538.954 102.584 537.034 102.584C534.658 102.584 533.314 104.312 533.314 106.928V113ZM554.455 113H552.823V102.776H550.495V101.384H552.823V97.712H554.455V101.384H556.783V102.776H554.455V113ZM560.595 112.976H558.939V95.504H560.595V103.4C561.339 102.008 562.755 101.072 564.699 101.072C567.747 101.072 569.115 102.968 569.115 105.896V113H567.459V106.256C567.459 103.544 566.187 102.584 564.387 102.584C561.891 102.584 560.595 104.432 560.595 106.664V112.976ZM577.288 113.288C573.88 113.288 571.6 110.84 571.6 107.192C571.6 103.568 573.855 101.072 577.168 101.072C580.312 101.072 582.448 103.304 582.448 106.592V107.408H573.208C573.328 110.24 574.816 111.872 577.312 111.872C579.208 111.872 580.432 111.056 580.864 109.52H582.448C581.824 111.968 580.024 113.288 577.288 113.288ZM577.168 102.488C574.984 102.488 573.544 103.928 573.256 106.208H580.792C580.792 103.976 579.352 102.488 577.168 102.488ZM599.407 113V102.776H593.887V113H592.231V102.776H590.455V101.384H592.231V99.128C592.231 96.512 593.647 95.504 595.375 95.504C595.783 95.504 596.287 95.528 596.671 95.6V97.04H595.663C594.271 97.04 593.887 97.76 593.887 99.128V101.384H601.063V113H599.407ZM600.223 98.072C599.551 98.072 599.071 97.592 599.071 96.92C599.071 96.248 599.551 95.744 600.223 95.744C600.871 95.744 601.375 96.248 601.375 96.92C601.375 97.592 600.871 98.072 600.223 98.072ZM606.111 113H604.455V101.384H605.895L606.135 103.4C606.903 101.912 608.439 101.072 610.119 101.072C613.311 101.072 614.631 102.968 614.631 105.896V113H612.975V106.256C612.975 103.544 611.751 102.584 609.831 102.584C607.455 102.584 606.111 104.312 606.111 106.928V113ZM618.747 98.192C618.075 98.192 617.523 97.64 617.523 96.968C617.523 96.296 618.075 95.72 618.747 95.72C619.419 95.72 619.995 96.296 619.995 96.968C619.995 97.64 619.419 98.192 618.747 98.192ZM617.931 113V101.384H619.587V113H617.931ZM625.705 113H624.073V102.776H621.745V101.384H624.073V97.712H625.705V101.384H628.033V102.776H625.705V113ZM634.944 113.288C631.536 113.288 629.256 110.84 629.256 107.192C629.256 103.568 631.512 101.072 634.824 101.072C637.968 101.072 640.104 103.304 640.104 106.592V107.408H630.864C630.984 110.24 632.472 111.872 634.968 111.872C636.864 111.872 638.088 111.056 638.52 109.52H640.104C639.48 111.968 637.68 113.288 634.944 113.288ZM634.824 102.488C632.64 102.488 631.2 103.928 630.912 106.208H638.448C638.448 103.976 637.008 102.488 634.824 102.488ZM657.064 113V102.776H651.544V113H649.888V102.776H648.112V101.384H649.888V99.128C649.888 96.512 651.304 95.504 653.032 95.504C653.44 95.504 653.944 95.528 654.328 95.6V97.04H653.32C651.928 97.04 651.544 97.76 651.544 99.128V101.384H658.72V113H657.064ZM657.88 98.072C657.208 98.072 656.728 97.592 656.728 96.92C656.728 96.248 657.208 95.744 657.88 95.744C658.528 95.744 659.032 96.248 659.032 96.92C659.032 97.592 658.528 98.072 657.88 98.072ZM666.983 113.288C663.575 113.288 661.295 110.84 661.295 107.192C661.295 103.568 663.551 101.072 666.863 101.072C670.007 101.072 672.143 103.304 672.143 106.592V107.408H662.903C663.023 110.24 664.511 111.872 667.007 111.872C668.903 111.872 670.127 111.056 670.559 109.52H672.143C671.519 111.968 669.719 113.288 666.983 113.288ZM666.863 102.488C664.679 102.488 663.239 103.928 662.951 106.208H670.487C670.487 103.976 669.047 102.488 666.863 102.488ZM676.519 113H674.863V95.504H676.519V113ZM684.601 113.288C681.217 113.288 679.225 110.696 679.225 107.216C679.225 103.712 681.217 101.072 684.673 101.072C686.593 101.072 688.129 101.912 688.945 103.592V95.504H690.601V113H689.161L688.993 110.624C688.177 112.424 686.545 113.288 684.601 113.288ZM684.889 111.776C687.433 111.776 688.921 109.856 688.921 107.168C688.921 104.504 687.433 102.56 684.889 102.56C682.369 102.56 680.905 104.504 680.905 107.168C680.905 109.856 682.369 111.776 684.889 111.776ZM709.832 105.44H702.8V113H701.072V95.816H711.2V97.4H702.8V103.88H709.832V105.44ZM728.712 104.072C727.896 104.072 727.2 103.376 727.2 102.584C727.2 101.768 727.896 101.096 728.712 101.096C729.528 101.096 730.224 101.768 730.224 102.584C730.224 103.376 729.528 104.072 728.712 104.072ZM728.712 113.264C727.896 113.264 727.2 112.592 727.2 111.8C727.2 110.984 727.896 110.288 728.712 110.288C729.528 110.288 730.224 110.984 730.224 111.8C730.224 112.592 729.528 113.264 728.712 113.264ZM348.936 148.768H347.424C345.408 146.008 344.088 141.928 344.088 137.8C344.088 133.84 345.36 129.712 347.424 126.856H348.936C347.088 129.448 345.792 133.48 345.792 137.8C345.792 142.024 347.04 146.128 348.936 148.768ZM353.653 129.376H350.149V127.816H355.309V145H353.653V129.376ZM361.98 144.184C361.98 145.672 360.828 146.968 359.34 147.184V146.296C360.204 146.152 360.828 145.528 360.828 144.856C360.684 144.952 360.492 145.024 360.204 145.024C359.532 145.024 358.956 144.544 358.956 143.728C358.956 142.888 359.532 142.288 360.372 142.288C361.236 142.288 361.98 142.984 361.98 144.184ZM369.933 145.288C366.477 145.288 364.269 143.128 364.269 139.744H365.997C365.997 142.216 367.509 143.704 369.957 143.704C372.549 143.704 374.229 141.976 374.229 139.432C374.229 137.032 372.669 135.136 369.957 135.136C368.373 135.136 366.933 135.856 365.997 136.888L364.629 136.456L366.693 127.816H374.997V129.4H367.941L366.645 134.8C367.605 134.032 368.853 133.6 370.197 133.6C373.773 133.6 375.981 136.168 375.981 139.384C375.981 142.84 373.533 145.288 369.933 145.288ZM378.477 148.768H376.965C378.861 146.128 380.133 142.024 380.133 137.8C380.133 133.48 378.813 129.448 376.965 126.856H378.477C380.565 129.712 381.813 133.84 381.813 137.8C381.813 141.928 380.493 146.008 378.477 148.768ZM387.715 144.184C387.715 145.672 386.563 146.968 385.075 147.184V146.296C385.939 146.152 386.563 145.528 386.563 144.856C386.419 144.952 386.227 145.024 385.939 145.024C385.267 145.024 384.691 144.544 384.691 143.728C384.691 142.888 385.267 142.288 386.107 142.288C386.971 142.288 387.715 142.984 387.715 144.184ZM395.436 148.768H393.924C391.908 146.008 390.588 141.928 390.588 137.8C390.588 133.84 391.86 129.712 393.924 126.856H395.436C393.588 129.448 392.292 133.48 392.292 137.8C392.292 142.024 393.54 146.128 395.436 148.768ZM407.842 145H396.514V143.632L402.01 138.832C405.178 136.072 405.994 134.872 405.994 132.832C405.994 130.504 404.602 129.088 402.322 129.088C399.946 129.088 398.386 130.816 398.314 133.48H396.586C396.682 129.88 398.962 127.504 402.346 127.504C405.586 127.504 407.746 129.592 407.746 132.736C407.746 135.232 406.618 136.888 403.186 139.888L399.178 143.392H407.842V145ZM413.66 144.184C413.66 145.672 412.508 146.968 411.02 147.184V146.296C411.884 146.152 412.508 145.528 412.508 144.856C412.364 144.952 412.172 145.024 411.884 145.024C411.212 145.024 410.636 144.544 410.636 143.728C410.636 142.888 411.212 142.288 412.052 142.288C412.916 142.288 413.66 142.984 413.66 144.184ZM418.059 129.376H414.555V127.816H419.715V145H418.059V129.376ZM434.138 145H422.81V143.632L428.306 138.832C431.474 136.072 432.29 134.872 432.29 132.832C432.29 130.504 430.898 129.088 428.618 129.088C426.242 129.088 424.682 130.816 424.61 133.48H422.882C422.978 129.88 425.258 127.504 428.642 127.504C431.882 127.504 434.042 129.592 434.042 132.736C434.042 135.232 432.914 136.888 429.482 139.888L425.474 143.392H434.138V145ZM436.719 148.768H435.207C437.103 146.128 438.375 142.024 438.375 137.8C438.375 133.48 437.055 129.448 435.207 126.856H436.719C438.807 129.712 440.055 133.84 440.055 137.8C440.055 141.928 438.735 146.008 436.719 148.768ZM445.957 144.184C445.957 145.672 444.805 146.968 443.317 147.184V146.296C444.181 146.152 444.805 145.528 444.805 144.856C444.661 144.952 444.469 145.024 444.181 145.024C443.509 145.024 442.933 144.544 442.933 143.728C442.933 142.888 443.509 142.288 444.349 142.288C445.213 142.288 445.957 142.984 445.957 144.184ZM453.678 148.768H452.166C450.15 146.008 448.83 141.928 448.83 137.8C448.83 133.84 450.102 129.712 452.166 126.856H453.678C451.83 129.448 450.534 133.48 450.534 137.8C450.534 142.024 451.782 146.128 453.678 148.768ZM467.356 141.352H465.34V145H463.66V141.352H454.636V139.816L463.036 127.816H465.34V139.816H467.356V141.352ZM456.508 139.816H463.66V129.592L456.508 139.816ZM472.746 144.184C472.746 145.672 471.594 146.968 470.106 147.184V146.296C470.97 146.152 471.594 145.528 471.594 144.856C471.45 144.952 471.258 145.024 470.97 145.024C470.298 145.024 469.722 144.544 469.722 143.728C469.722 142.888 470.298 142.288 471.138 142.288C472.002 142.288 472.746 142.984 472.746 144.184ZM479.857 135.784H478.489V134.584L483.793 129.352H475.561V127.816H485.977V129.208L480.841 134.32C484.057 134.488 486.361 136.528 486.361 139.648C486.361 143.056 483.865 145.288 480.385 145.288C477.001 145.288 474.721 143.2 474.721 139.768H476.425C476.425 142.24 477.961 143.728 480.385 143.728C482.953 143.728 484.609 142.096 484.609 139.6C484.609 137.248 482.929 135.784 479.857 135.784ZM488.938 148.768H487.426C489.322 146.128 490.594 142.024 490.594 137.8C490.594 133.48 489.274 129.448 487.426 126.856H488.938C491.026 129.712 492.274 133.84 492.274 137.8C492.274 141.928 490.954 146.008 488.938 148.768ZM498.176 144.184C498.176 145.672 497.024 146.968 495.536 147.184V146.296C496.4 146.152 497.024 145.528 497.024 144.856C496.88 144.952 496.688 145.024 496.4 145.024C495.728 145.024 495.152 144.544 495.152 143.728C495.152 142.888 495.728 142.288 496.568 142.288C497.432 142.288 498.176 142.984 498.176 144.184ZM505.897 148.768H504.385C502.369 146.008 501.049 141.928 501.049 137.8C501.049 133.84 502.321 129.712 504.385 126.856H505.897C504.049 129.448 502.753 133.48 502.753 137.8C502.753 142.024 504.001 146.128 505.897 148.768ZM509.159 133.6L513.455 127.816H515.471L510.959 133.792C511.775 133.384 512.519 133.216 513.311 133.216C516.887 133.216 519.263 135.832 519.263 139.192C519.263 142.72 516.599 145.288 513.167 145.288C509.711 145.288 506.999 142.624 506.999 139.192C506.999 137.2 507.551 135.808 509.159 133.6ZM508.751 139.216C508.751 141.832 510.551 143.728 513.167 143.728C515.711 143.728 517.535 141.832 517.535 139.216C517.535 136.6 515.711 134.728 513.167 134.728C510.551 134.728 508.751 136.6 508.751 139.216ZM524.379 144.184C524.379 145.672 523.227 146.968 521.739 147.184V146.296C522.603 146.152 523.227 145.528 523.227 144.856C523.083 144.952 522.891 145.024 522.603 145.024C521.931 145.024 521.355 144.544 521.355 143.728C521.355 142.888 521.931 142.288 522.771 142.288C523.635 142.288 524.379 142.984 524.379 144.184ZM528.778 129.376H525.274V127.816H530.434V145H528.778V129.376ZM533.769 136.408C533.769 131.08 536.385 127.48 540.657 127.48C544.905 127.48 547.521 131.08 547.521 136.408C547.521 141.76 544.953 145.312 540.657 145.312C536.337 145.312 533.769 141.76 533.769 136.408ZM535.473 136.408C535.473 140.872 537.369 143.752 540.657 143.752C543.945 143.752 545.841 140.872 545.841 136.408C545.841 131.92 543.945 129.064 540.657 129.064C537.369 129.064 535.473 131.92 535.473 136.408ZM550.344 148.768H548.832C550.728 146.128 552 142.024 552 137.8C552 133.48 550.68 129.448 548.832 126.856H550.344C552.432 129.712 553.68 133.84 553.68 137.8C553.68 141.928 552.36 146.008 550.344 148.768ZM85.9431 169.824L80.1111 159.816H82.0551L86.3031 167.232C86.4951 167.592 86.6391 167.88 86.8071 168.264C87.0231 167.832 87.0231 167.832 87.3351 167.232L91.5351 159.816H93.4311L87.6711 169.824V177H85.9431V169.824ZM92.3378 171.192C92.3378 167.64 94.8338 165.072 98.2418 165.072C101.65 165.072 104.146 167.64 104.146 171.192C104.146 174.72 101.65 177.288 98.2418 177.288C94.8338 177.288 92.3378 174.72 92.3378 171.192ZM94.0178 171.168C94.0178 173.904 95.7458 175.8 98.2418 175.8C100.714 175.8 102.466 173.904 102.466 171.168C102.466 168.48 100.714 166.56 98.2418 166.56C95.7458 166.56 94.0178 168.48 94.0178 171.168ZM114.673 165.384H116.329V177H114.889L114.673 175.032C114.025 176.376 112.417 177.288 110.593 177.288C107.857 177.288 106.369 175.416 106.369 172.584V165.36H108.049V172.056C108.049 174.816 109.273 175.8 111.121 175.8C113.353 175.8 114.673 174.312 114.673 171.552V165.384ZM125.851 165.24V166.728H124.939C122.803 166.728 121.435 168.168 121.435 170.376V177H119.779V165.384H121.339L121.459 167.184C121.915 165.936 123.139 165.12 124.771 165.12C125.131 165.12 125.443 165.144 125.851 165.24ZM137.372 177H135.74V166.776H133.412V165.384H135.74V161.712H137.372V165.384H139.7V166.776H137.372V177ZM145.005 177.288C142.533 177.288 141.069 175.896 141.069 173.856C141.069 171.72 142.701 170.376 145.413 170.16L149.253 169.848V169.464C149.253 167.184 147.885 166.464 146.181 166.464C144.165 166.464 142.965 167.376 142.965 168.936H141.453C141.453 166.584 143.373 165.072 146.229 165.072C148.917 165.072 150.885 166.416 150.885 169.488V177H149.493L149.277 174.96C148.557 176.424 146.973 177.288 145.005 177.288ZM145.389 175.944C147.837 175.944 149.253 174.24 149.253 171.72V171.096L145.821 171.36C143.637 171.552 142.749 172.512 142.749 173.808C142.749 175.224 143.805 175.944 145.389 175.944ZM153.224 173.736H154.808C154.808 175.08 155.816 175.92 157.448 175.92C159.248 175.92 160.304 175.152 160.304 173.904C160.304 172.944 159.824 172.392 158.456 172.056L156.464 171.552C154.448 171.048 153.464 169.992 153.464 168.408C153.464 166.368 155.168 165.072 157.664 165.072C160.112 165.072 161.696 166.416 161.768 168.576H160.16C160.112 167.232 159.176 166.44 157.616 166.44C155.984 166.44 155.072 167.136 155.072 168.384C155.072 169.272 155.696 169.896 156.968 170.208L158.96 170.712C160.976 171.216 161.888 172.152 161.888 173.832C161.888 175.92 160.112 177.288 157.472 177.288C154.856 177.288 153.224 175.896 153.224 173.736ZM166.343 177H164.687V159.504H166.343V171.384L172.103 165.384H174.191L169.727 170.016L174.215 177H172.295L168.599 171.192L166.343 173.52V177ZM183.665 162.192C182.993 162.192 182.441 161.64 182.441 160.968C182.441 160.296 182.993 159.72 183.665 159.72C184.337 159.72 184.913 160.296 184.913 160.968C184.913 161.64 184.337 162.192 183.665 162.192ZM182.849 177V165.384H184.505V177H182.849ZM186.974 173.736H188.558C188.558 175.08 189.566 175.92 191.198 175.92C192.998 175.92 194.054 175.152 194.054 173.904C194.054 172.944 193.574 172.392 192.206 172.056L190.214 171.552C188.198 171.048 187.214 169.992 187.214 168.408C187.214 166.368 188.918 165.072 191.414 165.072C193.862 165.072 195.446 166.416 195.518 168.576H193.91C193.862 167.232 192.926 166.44 191.366 166.44C189.734 166.44 188.822 167.136 188.822 168.384C188.822 169.272 189.446 169.896 190.718 170.208L192.71 170.712C194.726 171.216 195.638 172.152 195.638 173.832C195.638 175.92 193.862 177.288 191.222 177.288C188.606 177.288 186.974 175.896 186.974 173.736ZM207.685 177H206.053V166.776H203.725V165.384H206.053V161.712H207.685V165.384H210.013V166.776H207.685V177ZM211.236 171.192C211.236 167.64 213.732 165.072 217.14 165.072C220.548 165.072 223.044 167.64 223.044 171.192C223.044 174.72 220.548 177.288 217.14 177.288C213.732 177.288 211.236 174.72 211.236 171.192ZM212.916 171.168C212.916 173.904 214.644 175.8 217.14 175.8C219.612 175.8 221.364 173.904 221.364 171.168C221.364 168.48 219.612 166.56 217.14 166.56C214.644 166.56 212.916 168.48 212.916 171.168ZM231.533 171.216C231.533 167.568 233.765 165.072 237.149 165.072C239.837 165.072 241.805 166.632 242.261 169.032H240.605C240.173 167.424 238.781 166.536 237.173 166.536C234.821 166.536 233.165 168.336 233.165 171.192C233.165 173.952 234.701 175.8 237.053 175.8C238.781 175.8 240.173 174.84 240.629 173.352H242.309C241.757 175.728 239.693 177.288 237.053 177.288C233.765 177.288 231.533 174.864 231.533 171.216ZM244.002 171.192C244.002 167.64 246.498 165.072 249.906 165.072C253.314 165.072 255.81 167.64 255.81 171.192C255.81 174.72 253.314 177.288 249.906 177.288C246.498 177.288 244.002 174.72 244.002 171.192ZM245.682 171.168C245.682 173.904 247.41 175.8 249.906 175.8C252.378 175.8 254.13 173.904 254.13 171.168C254.13 168.48 252.378 166.56 249.906 166.56C247.41 166.56 245.682 168.48 245.682 171.168ZM260.114 177H258.458V165.384H259.898L260.09 167.04C260.666 165.816 261.962 165.072 263.594 165.072C265.418 165.072 266.786 166.032 267.338 167.544C267.866 166.032 269.282 165.072 271.154 165.072C273.674 165.072 275.33 166.704 275.33 169.392V177H273.722V169.728C273.722 167.736 272.618 166.56 270.842 166.56C268.898 166.56 267.746 168.024 267.746 169.824V177H266.114V169.704C266.114 167.736 264.986 166.584 263.234 166.584C261.29 166.584 260.114 168.024 260.114 169.8V177ZM278.662 182.064V165.384H280.102L280.27 167.736C281.086 165.936 282.718 165.072 284.662 165.072C288.022 165.072 290.038 167.64 290.038 171.144C290.038 174.648 288.094 177.288 284.662 177.288C282.694 177.288 281.134 176.448 280.318 174.768V182.064H278.662ZM280.342 171.192C280.342 173.856 281.83 175.8 284.374 175.8C286.894 175.8 288.358 173.856 288.358 171.192C288.358 168.504 286.894 166.584 284.374 166.584C281.83 166.584 280.342 168.504 280.342 171.192ZM300.556 165.384H302.212V177H300.772L300.556 175.032C299.908 176.376 298.3 177.288 296.476 177.288C293.74 177.288 292.252 175.416 292.252 172.584V165.36H293.932V172.056C293.932 174.816 295.156 175.8 297.004 175.8C299.236 175.8 300.556 174.312 300.556 171.552V165.384ZM308.326 177H306.694V166.776H304.366V165.384H306.694V161.712H308.326V165.384H310.654V166.776H308.326V177ZM317.565 177.288C314.157 177.288 311.877 174.84 311.877 171.192C311.877 167.568 314.133 165.072 317.445 165.072C320.589 165.072 322.725 167.304 322.725 170.592V171.408H313.485C313.605 174.24 315.093 175.872 317.589 175.872C319.485 175.872 320.709 175.056 321.141 173.52H322.725C322.101 175.968 320.301 177.288 317.565 177.288ZM317.445 166.488C315.261 166.488 313.821 167.928 313.533 170.208H321.069C321.069 167.976 319.629 166.488 317.445 166.488ZM334.693 177H333.061V166.776H330.733V165.384H333.061V161.712H334.693V165.384H337.021V166.776H334.693V177ZM340.833 176.976H339.177V159.504H340.833V167.4C341.577 166.008 342.993 165.072 344.937 165.072C347.985 165.072 349.353 166.968 349.353 169.896V177H347.697V170.256C347.697 167.544 346.425 166.584 344.625 166.584C342.129 166.584 340.833 168.432 340.833 170.664V176.976ZM357.526 177.288C354.118 177.288 351.838 174.84 351.838 171.192C351.838 167.568 354.094 165.072 357.406 165.072C360.55 165.072 362.686 167.304 362.686 170.592V171.408H353.446C353.566 174.24 355.054 175.872 357.55 175.872C359.446 175.872 360.67 175.056 361.102 173.52H362.686C362.062 175.968 360.262 177.288 357.526 177.288ZM357.406 166.488C355.222 166.488 353.782 167.928 353.494 170.208H361.03C361.03 167.976 359.59 166.488 357.406 166.488ZM374.078 159.816V175.416H381.974V177H372.35V159.816H374.078ZM387.537 177.288C385.065 177.288 383.601 175.896 383.601 173.856C383.601 171.72 385.233 170.376 387.945 170.16L391.785 169.848V169.464C391.785 167.184 390.417 166.464 388.713 166.464C386.697 166.464 385.497 167.376 385.497 168.936H383.985C383.985 166.584 385.905 165.072 388.761 165.072C391.449 165.072 393.417 166.416 393.417 169.488V177H392.025L391.809 174.96C391.089 176.424 389.505 177.288 387.537 177.288ZM387.921 175.944C390.369 175.944 391.785 174.24 391.785 171.72V171.096L388.353 171.36C386.169 171.552 385.281 172.512 385.281 173.808C385.281 175.224 386.337 175.944 387.921 175.944ZM395.948 170.856C395.948 167.688 397.988 165.072 401.396 165.072C403.412 165.072 404.948 166.008 405.692 167.712L405.86 165.384H407.3V176.64C407.3 180.096 405.092 182.352 401.684 182.352C398.708 182.352 396.62 180.672 396.164 177.864H397.82C398.18 179.736 399.62 180.84 401.708 180.84C404.084 180.84 405.668 179.232 405.668 176.808V174.048C404.876 175.68 403.268 176.64 401.276 176.64C397.964 176.64 395.948 174.024 395.948 170.856ZM397.604 170.832C397.604 173.208 399.068 175.152 401.516 175.152C404.036 175.152 405.524 173.328 405.524 170.832C405.524 168.36 404.084 166.536 401.54 166.536C399.044 166.536 397.604 168.48 397.604 170.832ZM416.827 165.24V166.728H415.915C413.779 166.728 412.411 168.168 412.411 170.376V177H410.755V165.384H412.315L412.435 167.184C412.891 165.936 414.115 165.12 415.747 165.12C416.107 165.12 416.419 165.144 416.827 165.24ZM421.896 177.288C419.424 177.288 417.96 175.896 417.96 173.856C417.96 171.72 419.592 170.376 422.304 170.16L426.144 169.848V169.464C426.144 167.184 424.776 166.464 423.072 166.464C421.056 166.464 419.856 167.376 419.856 168.936H418.344C418.344 166.584 420.264 165.072 423.12 165.072C425.808 165.072 427.776 166.416 427.776 169.488V177H426.384L426.168 174.96C425.448 176.424 423.864 177.288 421.896 177.288ZM422.28 175.944C424.728 175.944 426.144 174.24 426.144 171.72V171.096L422.712 171.36C420.528 171.552 419.64 172.512 419.64 173.808C419.64 175.224 420.696 175.944 422.28 175.944ZM432.755 177H431.099V165.384H432.539L432.779 167.4C433.547 165.912 435.083 165.072 436.763 165.072C439.955 165.072 441.275 166.968 441.275 169.896V177H439.619V170.256C439.619 167.544 438.395 166.584 436.475 166.584C434.099 166.584 432.755 168.312 432.755 170.928V177ZM443.784 170.856C443.784 167.688 445.824 165.072 449.232 165.072C451.248 165.072 452.784 166.008 453.528 167.712L453.696 165.384H455.136V176.64C455.136 180.096 452.928 182.352 449.52 182.352C446.544 182.352 444.456 180.672 444 177.864H445.656C446.016 179.736 447.456 180.84 449.544 180.84C451.92 180.84 453.504 179.232 453.504 176.808V174.048C452.712 175.68 451.104 176.64 449.112 176.64C445.8 176.64 443.784 174.024 443.784 170.856ZM445.44 170.832C445.44 173.208 446.904 175.152 449.352 175.152C451.872 175.152 453.36 173.328 453.36 170.832C453.36 168.36 451.92 166.536 449.376 166.536C446.88 166.536 445.44 168.48 445.44 170.832ZM463.463 177.288C460.055 177.288 457.775 174.84 457.775 171.192C457.775 167.568 460.031 165.072 463.343 165.072C466.487 165.072 468.623 167.304 468.623 170.592V171.408H459.383C459.503 174.24 460.991 175.872 463.487 175.872C465.383 175.872 466.607 175.056 467.039 173.52H468.623C467.999 175.968 466.199 177.288 463.463 177.288ZM463.343 166.488C461.159 166.488 459.719 167.928 459.431 170.208H466.967C466.967 167.976 465.527 166.488 463.343 166.488ZM478.743 162.192C478.071 162.192 477.519 161.64 477.519 160.968C477.519 160.296 478.071 159.72 478.743 159.72C479.415 159.72 479.991 160.296 479.991 160.968C479.991 161.64 479.415 162.192 478.743 162.192ZM477.927 177V165.384H479.583V177H477.927ZM484.693 177H483.037V165.384H484.477L484.717 167.4C485.485 165.912 487.021 165.072 488.701 165.072C491.893 165.072 493.213 166.968 493.213 169.896V177H491.557V170.256C491.557 167.544 490.333 166.584 488.413 166.584C486.037 166.584 484.693 168.312 484.693 170.928V177ZM499.177 177H497.545V166.776H495.217V165.384H497.545V161.712H499.177V165.384H501.505V166.776H499.177V177ZM508.416 177.288C505.008 177.288 502.728 174.84 502.728 171.192C502.728 167.568 504.984 165.072 508.296 165.072C511.44 165.072 513.576 167.304 513.576 170.592V171.408H504.336C504.456 174.24 505.944 175.872 508.44 175.872C510.336 175.872 511.56 175.056 511.992 173.52H513.576C512.952 175.968 511.152 177.288 508.416 177.288ZM508.296 166.488C506.112 166.488 504.672 167.928 504.384 170.208H511.92C511.92 167.976 510.48 166.488 508.296 166.488ZM522.296 165.24V166.728H521.384C519.248 166.728 517.88 168.168 517.88 170.376V177H516.224V165.384H517.784L517.904 167.184C518.36 165.936 519.584 165.12 521.216 165.12C521.576 165.12 521.888 165.144 522.296 165.24ZM524.498 182.064V165.384H525.938L526.106 167.736C526.922 165.936 528.554 165.072 530.498 165.072C533.858 165.072 535.874 167.64 535.874 171.144C535.874 174.648 533.93 177.288 530.498 177.288C528.53 177.288 526.97 176.448 526.154 174.768V182.064H524.498ZM526.178 171.192C526.178 173.856 527.666 175.8 530.21 175.8C532.73 175.8 534.194 173.856 534.194 171.192C534.194 168.504 532.73 166.584 530.21 166.584C527.666 166.584 526.178 168.504 526.178 171.192ZM537.697 171.192C537.697 167.64 540.193 165.072 543.601 165.072C547.009 165.072 549.505 167.64 549.505 171.192C549.505 174.72 547.009 177.288 543.601 177.288C540.193 177.288 537.697 174.72 537.697 171.192ZM539.377 171.168C539.377 173.904 541.105 175.8 543.601 175.8C546.073 175.8 547.825 173.904 547.825 171.168C547.825 168.48 546.073 166.56 543.601 166.56C541.105 166.56 539.377 168.48 539.377 171.168ZM553.882 177H552.226V159.504H553.882V177ZM560.74 177.288C558.268 177.288 556.804 175.896 556.804 173.856C556.804 171.72 558.436 170.376 561.148 170.16L564.988 169.848V169.464C564.988 167.184 563.62 166.464 561.916 166.464C559.9 166.464 558.7 167.376 558.7 168.936H557.188C557.188 166.584 559.108 165.072 561.964 165.072C564.652 165.072 566.62 166.416 566.62 169.488V177H565.228L565.012 174.96C564.292 176.424 562.708 177.288 560.74 177.288ZM561.124 175.944C563.572 175.944 564.988 174.24 564.988 171.72V171.096L561.556 171.36C559.372 171.552 558.484 172.512 558.484 173.808C558.484 175.224 559.54 175.944 561.124 175.944ZM572.396 177H570.764V166.776H568.436V165.384H570.764V161.712H572.396V165.384H574.724V166.776H572.396V177ZM577.696 162.192C577.024 162.192 576.472 161.64 576.472 160.968C576.472 160.296 577.024 159.72 577.696 159.72C578.368 159.72 578.944 160.296 578.944 160.968C578.944 161.64 578.368 162.192 577.696 162.192ZM576.88 177V165.384H578.536V177H576.88ZM581.174 171.192C581.174 167.64 583.67 165.072 587.078 165.072C590.486 165.072 592.982 167.64 592.982 171.192C592.982 174.72 590.486 177.288 587.078 177.288C583.67 177.288 581.174 174.72 581.174 171.192ZM582.854 171.168C582.854 173.904 584.582 175.8 587.078 175.8C589.55 175.8 591.302 173.904 591.302 171.168C591.302 168.48 589.55 166.56 587.078 166.56C584.582 166.56 582.854 168.48 582.854 171.168ZM597.286 177H595.63V165.384H597.07L597.31 167.4C598.078 165.912 599.614 165.072 601.294 165.072C604.486 165.072 605.806 166.968 605.806 169.896V177H604.15V170.256C604.15 167.544 602.926 166.584 601.006 166.584C598.63 166.584 597.286 168.312 597.286 170.928V177ZM615.763 182.064V165.384H617.203L617.371 167.736C618.187 165.936 619.819 165.072 621.763 165.072C625.123 165.072 627.139 167.64 627.139 171.144C627.139 174.648 625.195 177.288 621.763 177.288C619.795 177.288 618.235 176.448 617.419 174.768V182.064H615.763ZM617.443 171.192C617.443 173.856 618.931 175.8 621.475 175.8C623.995 175.8 625.459 173.856 625.459 171.192C625.459 168.504 623.995 166.584 621.475 166.584C618.931 166.584 617.443 168.504 617.443 171.192ZM628.963 171.192C628.963 167.64 631.459 165.072 634.867 165.072C638.275 165.072 640.771 167.64 640.771 171.192C640.771 174.72 638.275 177.288 634.867 177.288C631.459 177.288 628.963 174.72 628.963 171.192ZM630.643 171.168C630.643 173.904 632.371 175.8 634.867 175.8C637.339 175.8 639.091 173.904 639.091 171.168C639.091 168.48 637.339 166.56 634.867 166.56C632.371 166.56 630.643 168.48 630.643 171.168ZM645.147 177H643.491V159.504H645.147V177ZM647.493 182.064V180.696H648.765C649.773 180.696 650.781 180.624 651.357 179.064L651.861 177.696L647.157 165.384H648.909L652.653 175.512L656.325 165.384H658.029L652.701 179.664C652.029 181.488 650.901 182.232 649.245 182.232C648.549 182.232 648.021 182.184 647.493 182.064ZM661.622 177H659.966V165.384H661.406L661.646 167.4C662.414 165.912 663.95 165.072 665.63 165.072C668.822 165.072 670.142 166.968 670.142 169.896V177H668.486V170.256C668.486 167.544 667.262 166.584 665.342 166.584C662.966 166.584 661.622 168.312 661.622 170.928V177ZM672.627 171.192C672.627 167.64 675.123 165.072 678.531 165.072C681.939 165.072 684.435 167.64 684.435 171.192C684.435 174.72 681.939 177.288 678.531 177.288C675.123 177.288 672.627 174.72 672.627 171.192ZM674.307 171.168C674.307 173.904 676.035 175.8 678.531 175.8C681.003 175.8 682.755 173.904 682.755 171.168C682.755 168.48 681.003 166.56 678.531 166.56C676.035 166.56 674.307 168.48 674.307 171.168ZM688.739 177H687.083V165.384H688.523L688.715 167.04C689.291 165.816 690.587 165.072 692.219 165.072C694.043 165.072 695.411 166.032 695.963 167.544C696.491 166.032 697.907 165.072 699.779 165.072C702.299 165.072 703.955 166.704 703.955 169.392V177H702.347V169.728C702.347 167.736 701.243 166.56 699.467 166.56C697.523 166.56 696.371 168.024 696.371 169.824V177H694.739V169.704C694.739 167.736 693.611 166.584 691.859 166.584C689.915 166.584 688.739 168.024 688.739 169.8V177ZM708.103 162.192C707.431 162.192 706.879 161.64 706.879 160.968C706.879 160.296 707.431 159.72 708.103 159.72C708.775 159.72 709.351 160.296 709.351 160.968C709.351 161.64 708.775 162.192 708.103 162.192ZM707.287 177V165.384H708.943V177H707.287ZM715.732 177.288C713.26 177.288 711.796 175.896 711.796 173.856C711.796 171.72 713.428 170.376 716.14 170.16L719.98 169.848V169.464C719.98 167.184 718.612 166.464 716.908 166.464C714.892 166.464 713.692 167.376 713.692 168.936H712.18C712.18 166.584 714.1 165.072 716.956 165.072C719.644 165.072 721.612 166.416 721.612 169.488V177H720.22L720.004 174.96C719.284 176.424 717.7 177.288 715.732 177.288ZM716.116 175.944C718.564 175.944 719.98 174.24 719.98 171.72V171.096L716.548 171.36C714.364 171.552 713.476 172.512 713.476 173.808C713.476 175.224 714.532 175.944 716.116 175.944ZM726.663 177H725.007V159.504H726.663V177ZM736.841 182.064V165.384H738.281L738.449 167.736C739.265 165.936 740.897 165.072 742.841 165.072C746.201 165.072 748.217 167.64 748.217 171.144C748.217 174.648 746.273 177.288 742.841 177.288C740.873 177.288 739.313 176.448 738.497 174.768V182.064H736.841ZM738.521 171.192C738.521 173.856 740.009 175.8 742.553 175.8C745.073 175.8 746.537 173.856 746.537 171.192C746.537 168.504 745.073 166.584 742.553 166.584C740.009 166.584 738.521 168.504 738.521 171.192ZM755.225 180.768H753.713C751.697 178.008 750.377 173.928 750.377 169.8C750.377 165.84 751.649 161.712 753.713 158.856H755.225C753.377 161.448 752.081 165.48 752.081 169.8C752.081 174.024 753.329 178.128 755.225 180.768ZM757.407 177H755.463L759.615 171.192L755.487 165.384H757.431L760.719 170.04L763.983 165.384H765.903L761.775 171.216L765.879 177H763.911L760.647 172.344L757.407 177ZM767.657 180.768H766.145C768.041 178.128 769.313 174.024 769.313 169.8C769.313 165.48 767.993 161.448 766.145 158.856H767.657C769.745 161.712 770.993 165.84 770.993 169.8C770.993 173.928 769.673 178.008 767.657 180.768ZM779.807 171.192C779.807 167.64 782.303 165.072 785.711 165.072C789.119 165.072 791.615 167.64 791.615 171.192C791.615 174.72 789.119 177.288 785.711 177.288C782.303 177.288 779.807 174.72 779.807 171.192ZM781.487 171.168C781.487 173.904 783.215 175.8 785.711 175.8C788.183 175.8 789.935 173.904 789.935 171.168C789.935 168.48 788.183 166.56 785.711 166.56C783.215 166.56 781.487 168.48 781.487 171.168ZM796.988 177L792.236 165.384H794.012L797.012 172.872C797.324 173.712 797.636 174.504 797.852 175.272C798.068 174.48 798.38 173.712 798.716 172.872L801.764 165.384H803.468L798.644 177H796.988ZM809.776 177.288C806.368 177.288 804.088 174.84 804.088 171.192C804.088 167.568 806.344 165.072 809.656 165.072C812.8 165.072 814.936 167.304 814.936 170.592V171.408H805.696C805.816 174.24 807.304 175.872 809.8 175.872C811.696 175.872 812.92 175.056 813.352 173.52H814.936C814.312 175.968 812.512 177.288 809.776 177.288ZM809.656 166.488C807.472 166.488 806.032 167.928 805.744 170.208H813.28C813.28 167.976 811.84 166.488 809.656 166.488ZM823.655 165.24V166.728H822.743C820.607 166.728 819.239 168.168 819.239 170.376V177H817.583V165.384H819.143L819.263 167.184C819.719 165.936 820.943 165.12 822.575 165.12C822.935 165.12 823.247 165.144 823.655 165.24ZM161.407 201.44H154.375V209H152.647V191.816H162.775V193.4H154.375V199.88H161.407V201.44ZM175.998 209H164.67V207.632L170.166 202.832C173.334 200.072 174.15 198.872 174.15 196.832C174.15 194.504 172.758 193.088 170.478 193.088C168.102 193.088 166.542 194.816 166.47 197.48H164.742C164.838 193.88 167.118 191.504 170.502 191.504C173.742 191.504 175.902 193.592 175.902 196.736C175.902 199.232 174.774 200.888 171.342 203.888L167.334 207.392H175.998V209ZM183.185 199.784H181.817V198.584L187.121 193.352H178.889V191.816H189.305V193.208L184.169 198.32C187.385 198.488 189.689 200.528 189.689 203.648C189.689 207.056 187.193 209.288 183.713 209.288C180.329 209.288 178.049 207.2 178.049 203.768H179.753C179.753 206.24 181.289 207.728 183.713 207.728C186.281 207.728 187.937 206.096 187.937 203.6C187.937 201.248 186.257 199.784 183.185 199.784ZM201.802 209H200.17V198.776H197.842V197.384H200.17V193.712H201.802V197.384H204.13V198.776H201.802V209ZM207.943 208.976H206.287V191.504H207.943V199.4C208.687 198.008 210.103 197.072 212.047 197.072C215.095 197.072 216.463 198.968 216.463 201.896V209H214.807V202.256C214.807 199.544 213.535 198.584 211.735 198.584C209.239 198.584 207.943 200.432 207.943 202.664V208.976ZM223.099 209.288C220.627 209.288 219.163 207.896 219.163 205.856C219.163 203.72 220.795 202.376 223.507 202.16L227.347 201.848V201.464C227.347 199.184 225.979 198.464 224.275 198.464C222.259 198.464 221.059 199.376 221.059 200.936H219.547C219.547 198.584 221.467 197.072 224.323 197.072C227.011 197.072 228.979 198.416 228.979 201.488V209H227.587L227.371 206.96C226.651 208.424 225.067 209.288 223.099 209.288ZM223.483 207.944C225.931 207.944 227.347 206.24 227.347 203.72V203.096L223.915 203.36C221.731 203.552 220.843 204.512 220.843 205.808C220.843 207.224 221.899 207.944 223.483 207.944ZM234.755 209H233.123V198.776H230.795V197.384H233.123V193.712H234.755V197.384H237.083V198.776H234.755V209ZM245.896 214.064V197.384H247.336L247.504 199.736C248.32 197.936 249.952 197.072 251.896 197.072C255.256 197.072 257.272 199.64 257.272 203.144C257.272 206.648 255.328 209.288 251.896 209.288C249.928 209.288 248.368 208.448 247.552 206.768V214.064H245.896ZM247.576 203.192C247.576 205.856 249.064 207.8 251.608 207.8C254.128 207.8 255.592 205.856 255.592 203.192C255.592 200.504 254.128 198.584 251.608 198.584C249.064 198.584 247.576 200.504 247.576 203.192ZM263.248 209.288C260.776 209.288 259.312 207.896 259.312 205.856C259.312 203.72 260.944 202.376 263.656 202.16L267.496 201.848V201.464C267.496 199.184 266.128 198.464 264.424 198.464C262.408 198.464 261.208 199.376 261.208 200.936H259.696C259.696 198.584 261.616 197.072 264.472 197.072C267.16 197.072 269.128 198.416 269.128 201.488V209H267.736L267.52 206.96C266.8 208.424 265.216 209.288 263.248 209.288ZM263.632 207.944C266.08 207.944 267.496 206.24 267.496 203.72V203.096L264.064 203.36C261.88 203.552 260.992 204.512 260.992 205.808C260.992 207.224 262.048 207.944 263.632 207.944ZM271.467 205.736H273.051C273.051 207.08 274.059 207.92 275.691 207.92C277.491 207.92 278.547 207.152 278.547 205.904C278.547 204.944 278.067 204.392 276.699 204.056L274.707 203.552C272.691 203.048 271.707 201.992 271.707 200.408C271.707 198.368 273.411 197.072 275.907 197.072C278.355 197.072 279.939 198.416 280.011 200.576H278.403C278.355 199.232 277.419 198.44 275.859 198.44C274.227 198.44 273.315 199.136 273.315 200.384C273.315 201.272 273.939 201.896 275.211 202.208L277.203 202.712C279.219 203.216 280.131 204.152 280.131 205.832C280.131 207.92 278.355 209.288 275.715 209.288C273.099 209.288 271.467 207.896 271.467 205.736ZM281.873 205.736H283.457C283.457 207.08 284.465 207.92 286.097 207.92C287.897 207.92 288.953 207.152 288.953 205.904C288.953 204.944 288.473 204.392 287.105 204.056L285.113 203.552C283.097 203.048 282.113 201.992 282.113 200.408C282.113 198.368 283.817 197.072 286.313 197.072C288.761 197.072 290.345 198.416 290.417 200.576H288.809C288.761 199.232 287.825 198.44 286.265 198.44C284.633 198.44 283.721 199.136 283.721 200.384C283.721 201.272 284.345 201.896 285.617 202.208L287.609 202.712C289.625 203.216 290.537 204.152 290.537 205.832C290.537 207.92 288.761 209.288 286.121 209.288C283.505 209.288 281.873 207.896 281.873 205.736ZM298.135 209.288C294.727 209.288 292.447 206.84 292.447 203.192C292.447 199.568 294.703 197.072 298.015 197.072C301.159 197.072 303.295 199.304 303.295 202.592V203.408H294.055C294.175 206.24 295.663 207.872 298.159 207.872C300.055 207.872 301.279 207.056 301.711 205.52H303.295C302.671 207.968 300.871 209.288 298.135 209.288ZM298.015 198.488C295.831 198.488 294.391 199.928 294.103 202.208H301.639C301.639 199.976 300.199 198.488 298.015 198.488ZM304.959 205.736H306.543C306.543 207.08 307.551 207.92 309.183 207.92C310.983 207.92 312.039 207.152 312.039 205.904C312.039 204.944 311.559 204.392 310.191 204.056L308.199 203.552C306.183 203.048 305.199 201.992 305.199 200.408C305.199 198.368 306.903 197.072 309.399 197.072C311.847 197.072 313.431 198.416 313.503 200.576H311.895C311.847 199.232 310.911 198.44 309.351 198.44C307.719 198.44 306.807 199.136 306.807 200.384C306.807 201.272 307.431 201.896 308.703 202.208L310.695 202.712C312.711 203.216 313.623 204.152 313.623 205.832C313.623 207.92 311.847 209.288 309.207 209.288C306.591 209.288 304.959 207.896 304.959 205.736ZM325.669 209H324.037V198.776H321.709V197.384H324.037V193.712H325.669V197.384H327.997V198.776H325.669V209ZM331.81 208.976H330.154V191.504H331.81V199.4C332.554 198.008 333.97 197.072 335.914 197.072C338.962 197.072 340.33 198.968 340.33 201.896V209H338.674V202.256C338.674 199.544 337.402 198.584 335.602 198.584C333.106 198.584 331.81 200.432 331.81 202.664V208.976ZM349.702 197.24V198.728H348.79C346.654 198.728 345.286 200.168 345.286 202.376V209H343.63V197.384H345.19L345.31 199.184C345.766 197.936 346.99 197.12 348.622 197.12C348.982 197.12 349.294 197.144 349.702 197.24ZM350.642 203.192C350.642 199.64 353.138 197.072 356.546 197.072C359.954 197.072 362.45 199.64 362.45 203.192C362.45 206.72 359.954 209.288 356.546 209.288C353.138 209.288 350.642 206.72 350.642 203.192ZM352.322 203.168C352.322 205.904 354.05 207.8 356.546 207.8C359.018 207.8 360.77 205.904 360.77 203.168C360.77 200.48 359.018 198.56 356.546 198.56C354.05 198.56 352.322 200.48 352.322 203.168ZM372.978 197.384H374.634V209H373.194L372.978 207.032C372.33 208.376 370.722 209.288 368.898 209.288C366.162 209.288 364.674 207.416 364.674 204.584V197.36H366.354V204.056C366.354 206.816 367.578 207.8 369.426 207.8C371.658 207.8 372.978 206.312 372.978 203.552V197.384ZM377.291 202.856C377.291 199.688 379.331 197.072 382.739 197.072C384.755 197.072 386.291 198.008 387.035 199.712L387.203 197.384H388.643V208.64C388.643 212.096 386.435 214.352 383.027 214.352C380.051 214.352 377.963 212.672 377.507 209.864H379.163C379.523 211.736 380.963 212.84 383.051 212.84C385.427 212.84 387.011 211.232 387.011 208.808V206.048C386.219 207.68 384.611 208.64 382.619 208.64C379.307 208.64 377.291 206.024 377.291 202.856ZM378.947 202.832C378.947 205.208 380.411 207.152 382.859 207.152C385.379 207.152 386.867 205.328 386.867 202.832C386.867 200.36 385.427 198.536 382.883 198.536C380.387 198.536 378.947 200.48 378.947 202.832ZM393.755 208.976H392.099V191.504H393.755V199.4C394.499 198.008 395.915 197.072 397.859 197.072C400.907 197.072 402.275 198.968 402.275 201.896V209H400.619V202.256C400.619 199.544 399.347 198.584 397.547 198.584C395.051 198.584 393.755 200.432 393.755 202.664V208.976ZM414.896 209H413.264V198.776H410.936V197.384H413.264V193.712H414.896V197.384H417.224V198.776H414.896V209ZM421.036 208.976H419.38V191.504H421.036V199.4C421.78 198.008 423.196 197.072 425.14 197.072C428.188 197.072 429.556 198.968 429.556 201.896V209H427.9V202.256C427.9 199.544 426.628 198.584 424.828 198.584C422.332 198.584 421.036 200.432 421.036 202.664V208.976ZM437.729 209.288C434.321 209.288 432.041 206.84 432.041 203.192C432.041 199.568 434.297 197.072 437.609 197.072C440.753 197.072 442.889 199.304 442.889 202.592V203.408H433.649C433.769 206.24 435.257 207.872 437.753 207.872C439.649 207.872 440.873 207.056 441.305 205.52H442.889C442.265 207.968 440.465 209.288 437.729 209.288ZM437.609 198.488C435.425 198.488 433.985 199.928 433.697 202.208H441.233C441.233 199.976 439.793 198.488 437.609 198.488ZM444.553 205.736H446.137C446.137 207.08 447.145 207.92 448.777 207.92C450.577 207.92 451.633 207.152 451.633 205.904C451.633 204.944 451.153 204.392 449.785 204.056L447.793 203.552C445.777 203.048 444.793 201.992 444.793 200.408C444.793 198.368 446.497 197.072 448.993 197.072C451.441 197.072 453.025 198.416 453.097 200.576H451.489C451.441 199.232 450.505 198.44 448.945 198.44C447.313 198.44 446.401 199.136 446.401 200.384C446.401 201.272 447.025 201.896 448.297 202.208L450.289 202.712C452.305 203.216 453.217 204.152 453.217 205.832C453.217 207.92 451.441 209.288 448.801 209.288C446.185 209.288 444.553 207.896 444.553 205.736ZM460.815 209.288C457.407 209.288 455.127 206.84 455.127 203.192C455.127 199.568 457.383 197.072 460.695 197.072C463.839 197.072 465.975 199.304 465.975 202.592V203.408H456.735C456.855 206.24 458.343 207.872 460.839 207.872C462.735 207.872 463.959 207.056 464.391 205.52H465.975C465.351 207.968 463.551 209.288 460.815 209.288ZM460.695 198.488C458.511 198.488 457.071 199.928 456.783 202.208H464.319C464.319 199.976 462.879 198.488 460.695 198.488ZM475.279 214.064V197.384H476.719L476.887 199.736C477.703 197.936 479.335 197.072 481.279 197.072C484.639 197.072 486.655 199.64 486.655 203.144C486.655 206.648 484.711 209.288 481.279 209.288C479.311 209.288 477.751 208.448 476.935 206.768V214.064H475.279ZM476.959 203.192C476.959 205.856 478.447 207.8 480.991 207.8C483.511 207.8 484.975 205.856 484.975 203.192C484.975 200.504 483.511 198.584 480.991 198.584C478.447 198.584 476.959 200.504 476.959 203.192ZM488.478 203.192C488.478 199.64 490.974 197.072 494.382 197.072C497.79 197.072 500.286 199.64 500.286 203.192C500.286 206.72 497.79 209.288 494.382 209.288C490.974 209.288 488.478 206.72 488.478 203.192ZM490.158 203.168C490.158 205.904 491.886 207.8 494.382 207.8C496.854 207.8 498.606 205.904 498.606 203.168C498.606 200.48 496.854 198.56 494.382 198.56C491.886 198.56 490.158 200.48 490.158 203.168ZM503.751 194.192C503.079 194.192 502.527 193.64 502.527 192.968C502.527 192.296 503.079 191.72 503.751 191.72C504.423 191.72 504.999 192.296 504.999 192.968C504.999 193.64 504.423 194.192 503.751 194.192ZM502.935 209V197.384H504.591V209H502.935ZM509.7 209H508.044V197.384H509.484L509.724 199.4C510.492 197.912 512.028 197.072 513.708 197.072C516.9 197.072 518.22 198.968 518.22 201.896V209H516.564V202.256C516.564 199.544 515.34 198.584 513.42 198.584C511.044 198.584 509.7 200.312 509.7 202.928V209ZM524.185 209H522.553V198.776H520.225V197.384H522.553V193.712H524.185V197.384H526.513V198.776H524.185V209ZM527.685 205.736H529.269C529.269 207.08 530.277 207.92 531.909 207.92C533.709 207.92 534.765 207.152 534.765 205.904C534.765 204.944 534.285 204.392 532.917 204.056L530.925 203.552C528.909 203.048 527.925 201.992 527.925 200.408C527.925 198.368 529.629 197.072 532.125 197.072C534.573 197.072 536.157 198.416 536.229 200.576H534.621C534.573 199.232 533.637 198.44 532.077 198.44C530.445 198.44 529.533 199.136 529.533 200.384C529.533 201.272 530.157 201.896 531.429 202.208L533.421 202.712C535.437 203.216 536.349 204.152 536.349 205.832C536.349 207.92 534.573 209.288 531.933 209.288C529.317 209.288 527.685 207.896 527.685 205.736ZM540.304 209.264C539.488 209.264 538.792 208.592 538.792 207.8C538.792 206.984 539.488 206.288 540.304 206.288C541.12 206.288 541.816 206.984 541.816 207.8C541.816 208.592 541.12 209.264 540.304 209.264ZM562.482 209H552.186V191.816H562.458V193.4H553.914V199.592H561.666V201.152H553.914V207.416H562.482V209ZM568.73 209L563.978 197.384H565.754L568.754 204.872C569.066 205.712 569.378 206.504 569.594 207.272C569.81 206.48 570.122 205.712 570.458 204.872L573.506 197.384H575.21L570.386 209H568.73ZM579.982 209.288C577.51 209.288 576.046 207.896 576.046 205.856C576.046 203.72 577.678 202.376 580.39 202.16L584.23 201.848V201.464C584.23 199.184 582.862 198.464 581.158 198.464C579.142 198.464 577.942 199.376 577.942 200.936H576.43C576.43 198.584 578.35 197.072 581.206 197.072C583.894 197.072 585.862 198.416 585.862 201.488V209H584.47L584.254 206.96C583.534 208.424 581.95 209.288 579.982 209.288ZM580.366 207.944C582.814 207.944 584.23 206.24 584.23 203.72V203.096L580.798 203.36C578.614 203.552 577.726 204.512 577.726 205.808C577.726 207.224 578.782 207.944 580.366 207.944ZM590.913 209H589.257V191.504H590.913V209ZM602.595 197.384H604.251V209H602.811L602.595 207.032C601.947 208.376 600.339 209.288 598.515 209.288C595.779 209.288 594.291 207.416 594.291 204.584V197.36H595.971V204.056C595.971 206.816 597.195 207.8 599.043 207.8C601.275 207.8 602.595 206.312 602.595 203.552V197.384ZM611.037 209.288C608.565 209.288 607.101 207.896 607.101 205.856C607.101 203.72 608.733 202.376 611.445 202.16L615.285 201.848V201.464C615.285 199.184 613.917 198.464 612.213 198.464C610.197 198.464 608.997 199.376 608.997 200.936H607.485C607.485 198.584 609.405 197.072 612.261 197.072C614.949 197.072 616.917 198.416 616.917 201.488V209H615.525L615.309 206.96C614.589 208.424 613.005 209.288 611.037 209.288ZM611.421 207.944C613.869 207.944 615.285 206.24 615.285 203.72V203.096L611.853 203.36C609.669 203.552 608.781 204.512 608.781 205.808C608.781 207.224 609.837 207.944 611.421 207.944ZM622.693 209H621.061V198.776H618.733V197.384H621.061V193.712H622.693V197.384H625.021V198.776H622.693V209ZM631.932 209.288C628.524 209.288 626.244 206.84 626.244 203.192C626.244 199.568 628.5 197.072 631.812 197.072C634.956 197.072 637.092 199.304 637.092 202.592V203.408H627.852C627.972 206.24 629.46 207.872 631.956 207.872C633.852 207.872 635.076 207.056 635.508 205.52H637.092C636.468 207.968 634.668 209.288 631.932 209.288ZM631.812 198.488C629.628 198.488 628.188 199.928 627.9 202.208H635.436C635.436 199.976 633.996 198.488 631.812 198.488ZM646.396 214.064V197.384H647.836L648.004 199.736C648.82 197.936 650.452 197.072 652.396 197.072C655.756 197.072 657.772 199.64 657.772 203.144C657.772 206.648 655.828 209.288 652.396 209.288C650.428 209.288 648.868 208.448 648.052 206.768V214.064H646.396ZM648.076 203.192C648.076 205.856 649.564 207.8 652.108 207.8C654.628 207.8 656.092 205.856 656.092 203.192C656.092 200.504 654.628 198.584 652.108 198.584C649.564 198.584 648.076 200.504 648.076 203.192ZM664.78 212.768H663.268C661.252 210.008 659.932 205.928 659.932 201.8C659.932 197.84 661.204 193.712 663.268 190.856H664.78C662.932 193.448 661.636 197.48 661.636 201.8C661.636 206.024 662.884 210.128 664.78 212.768ZM666.961 209H665.017L669.169 203.192L665.041 197.384H666.985L670.273 202.04L673.537 197.384H675.457L671.329 203.216L675.433 209H673.465L670.201 204.344L666.961 209ZM677.211 212.768H675.699C677.595 210.128 678.867 206.024 678.867 201.8C678.867 197.48 677.547 193.448 675.699 190.856H677.211C679.299 193.712 680.547 197.84 680.547 201.8C680.547 205.928 679.227 210.008 677.211 212.768ZM693.513 209.288C691.041 209.288 689.577 207.896 689.577 205.856C689.577 203.72 691.209 202.376 693.921 202.16L697.761 201.848V201.464C697.761 199.184 696.393 198.464 694.689 198.464C692.673 198.464 691.473 199.376 691.473 200.936H689.961C689.961 198.584 691.881 197.072 694.737 197.072C697.425 197.072 699.393 198.416 699.393 201.488V209H698.001L697.785 206.96C697.065 208.424 695.481 209.288 693.513 209.288ZM693.897 207.944C696.345 207.944 697.761 206.24 697.761 203.72V203.096L694.329 203.36C692.145 203.552 691.257 204.512 691.257 205.808C691.257 207.224 692.313 207.944 693.897 207.944ZM705.169 209H703.537V198.776H701.209V197.384H703.537V193.712H705.169V197.384H707.497V198.776H705.169V209ZM716.766 209H714.822L718.974 203.192L714.846 197.384H716.79L720.078 202.04L723.342 197.384H725.262L721.134 203.216L725.238 209H723.27L720.006 204.344L716.766 209ZM727.424 198.68H739.424V200.168H727.424V198.68ZM727.424 203.624H739.424V205.112H727.424V203.624ZM741.564 191.816H753.252V193.4L746.484 209H744.708L751.5 193.4H741.564V191.816Z" fill="#F0CE7B"/>
<path d="M711.889 118H705.994V117.288L708.854 114.79C710.503 113.354 710.927 112.729 710.927 111.668C710.927 110.456 710.203 109.719 709.016 109.719C707.78 109.719 706.968 110.619 706.931 112.005H706.031C706.081 110.131 707.268 108.895 709.029 108.895C710.715 108.895 711.839 109.982 711.839 111.618C711.839 112.917 711.252 113.778 709.466 115.34L707.38 117.163H711.889V118ZM715.629 113.204H714.918V112.579L717.678 109.857H713.394V109.057H718.814V109.782L716.142 112.442C717.815 112.529 719.014 113.591 719.014 115.215C719.014 116.988 717.715 118.15 715.904 118.15C714.143 118.15 712.957 117.063 712.957 115.277H713.843C713.843 116.564 714.643 117.338 715.904 117.338C717.241 117.338 718.102 116.489 718.102 115.19C718.102 113.966 717.228 113.204 715.629 113.204Z" fill="#F0CE7B"/>
<rect x="334.333" y="248.5" width="173" height="47" fill="#172012"/>
<rect x="334.333" y="248.5" width="173" height="47" stroke="#F0CE7B"/>
<rect x="569.667" y="248.792" width="46.4167" height="46.3333" transform="rotate(90 569.667 248.792)" fill="#172012"/>
<rect x="569.667" y="248.792" width="46.4167" height="46.3333" transform="rotate(90 569.667 248.792)" stroke="#F0CE7B"/>
<path d="M530.833 270.042L530.833 273.958L554.333 273.958L554.333 277.875L558.25 277.875L558.25 273.958L562.167 273.958L562.167 270.042L558.25 270.042L558.25 266.125L554.333 266.125L554.333 270.042L530.833 270.042ZM550.417 262.208L554.333 262.208L554.333 266.125L550.417 266.125L550.417 262.208ZM550.417 262.208L546.5 262.208L546.5 258.292L550.417 258.292L550.417 262.208ZM550.417 281.792L554.333 281.792L554.333 277.875L550.417 277.875L550.417 281.792ZM550.417 281.792L546.5 281.792L546.5 285.708L550.417 285.708L550.417 281.792Z" fill="#F0CE7B"/>
</svg>
