<svg width="352" height="34" viewBox="0 0 352 34" fill="none" xmlns="http://www.w3.org/2000/svg">
<path d="M33.672 29.2V34H19.272V29.2H14.472V24.4H9.672V34H0.0720001V0.399998H28.872V5.2H33.672V19.6H24.072V24.4H28.872V29.2H33.672ZM19.272 14.8H24.072V5.2H9.672V19.6H19.272V14.8ZM73.422 5.2V29.2H68.622V34H44.622V29.2H39.822V5.2H44.622V0.399998H68.622V5.2H73.422ZM49.422 29.2H63.822V5.2H49.422V29.2ZM113.172 5.2V29.2H108.372V34H84.372V29.2H79.572V5.2H84.372V0.399998H108.372V5.2H113.172ZM89.172 29.2H103.572V5.2H89.172V29.2ZM152.922 0.399998V34H143.322V19.6H138.522V24.4H133.722V19.6H128.922V34H119.322V0.399998H128.922V5.2H133.722V10H138.522V5.2H143.322V0.399998H152.922ZM232.422 24.4V29.2H227.622V34H208.422V29.2H203.622V24.4H198.822V10H203.622V5.2H208.422V0.399998H227.622V5.2H232.422V10H222.822V5.2H213.222V10H208.422V24.4H213.222V29.2H222.822V24.4H232.422ZM272.172 5.2V29.2H267.372V34H243.372V29.2H238.572V5.2H243.372V0.399998H267.372V5.2H272.172ZM248.172 29.2H262.572V5.2H248.172V29.2ZM311.922 10V24.4H307.122V29.2H302.322V34H278.322V0.399998H302.322V5.2H307.122V10H311.922ZM297.522 24.4H302.322V10H297.522V5.2H287.922V29.2H297.522V24.4ZM351.672 29.2V34H318.072V0.399998H351.672V5.2H327.672V14.8H346.872V19.6H327.672V29.2H351.672Z" fill="#1F2B17"/>
</svg>
