<svg width="74" height="55" viewBox="0 0 74 55" fill="none" xmlns="http://www.w3.org/2000/svg">
<path d="M1 50V5C1 2.79086 2.79086 1 5 1H68.9544C71.1812 1 72.9794 2.81864 72.9541 5.04537L72.4436 50.0454C72.4188 52.2367 70.6353 54 68.4439 54H15.644C13.5676 54 11.8364 52.4111 11.6587 50.3423L11.3716 47V50C11.3716 52.2091 9.58075 54 7.37161 54H5C2.79086 54 1 52.2091 1 50Z" fill="#B7813A" stroke="black" stroke-width="2"/>
<path d="M32.4535 0.5H4.68131C2.43534 0.5 0.416507 2.19421 0.523784 4.54756C0.684935 8.08277 1.69397 12.279 4.38173 15.5587C7.08771 18.8606 11.4455 21.1721 18.163 20.9998C24.7638 20.8306 29.1862 18.4821 32.0507 15.2862C34.903 12.104 36.1716 8.12602 36.5623 4.74491C36.8434 2.3124 34.773 0.5 32.4535 0.5Z" fill="#E2C65B" stroke="black"/>
<rect x="4" y="2" width="29" height="2" rx="1" fill="#FFF6A1"/>
<path d="M6 11C8.33333 13.8333 15.6 17.8 26 11" stroke="#CFAB4D"/>
<path d="M68.4535 0.5H40.6813C38.4353 0.5 36.4165 2.19421 36.5238 4.54756C36.6849 8.08277 37.694 12.279 40.3817 15.5587C43.0877 18.8606 47.4455 21.1721 54.163 20.9998C60.7638 20.8306 65.1862 18.4821 68.0507 15.2862C70.903 12.104 72.1716 8.12602 72.5623 4.74491C72.8434 2.3124 70.773 0.5 68.4535 0.5Z" fill="#E2C65B" stroke="black"/>
<rect x="40" y="2" width="29" height="2" rx="1" fill="#FFF6A1"/>
<path d="M42 11C44.3333 13.8333 51.6 17.8 62 11" stroke="#CFAB4D"/>
<path d="M48 30.5H67" stroke="#A66D2A"/>
<path d="M9 45.0952H2.5V54L72 53V41L43.2002 48.1787C43.042 48.2182 42.8795 48.2381 42.7165 48.2381H18.457C17.8508 48.2381 17.4856 47.5664 17.8151 47.0576C18.1271 46.5759 17.817 45.935 17.2457 45.8805L9 45.0952Z" fill="#A97039"/>
<path d="M1 50V5C1 2.79086 2.79086 1 5 1H68.9544C71.1812 1 72.9794 2.81864 72.9541 5.04537L72.4436 50.0454C72.4188 52.2367 70.6353 54 68.4439 54H15.644C13.5676 54 11.8364 52.4111 11.6587 50.3423L11.3716 47V50C11.3716 52.2091 9.58075 54 7.37161 54H5C2.79086 54 1 52.2091 1 50Z" stroke="black" stroke-width="2"/>
</svg>
