<svg width="469" height="34" viewBox="0 0 469 34" fill="none" xmlns="http://www.w3.org/2000/svg">
<path d="M34.1486 19.6V29.2H29.3486V34H5.34856V29.2H0.548563V24.4H10.1486V29.2H24.5486V19.6H5.34856V14.8H0.548563V5.2H5.34856V0.399998H24.5486V5.2H29.3486V10H19.7486V5.2H10.1486V14.8H29.3486V19.6H34.1486ZM73.8986 29.2V34H40.2986V0.399998H73.8986V5.2H49.8986V14.8H69.0986V19.6H49.8986V29.2H73.8986ZM113.649 29.2V34H80.0486V0.399998H89.6486V29.2H113.649ZM153.399 29.2V34H119.799V0.399998H153.399V5.2H129.399V14.8H148.599V19.6H129.399V29.2H153.399ZM193.149 24.4V29.2H188.349V34H169.149V29.2H164.349V24.4H159.549V10H164.349V5.2H169.149V0.399998H188.349V5.2H193.149V10H183.549V5.2H173.949V10H169.149V24.4H173.949V29.2H183.549V24.4H193.149ZM230.499 0.399998V5.2H220.899V34H211.299V5.2H201.699V0.399998H230.499ZM309.999 0.399998V5.2H300.399V34H290.799V5.2H281.199V0.399998H309.999ZM352.149 5.2V29.2H347.349V34H323.349V29.2H318.549V5.2H323.349V0.399998H347.349V5.2H352.149ZM328.149 29.2H342.549V5.2H328.149V29.2ZM391.899 5.2V19.6H387.099V24.4H367.899V34H358.299V0.399998H387.099V5.2H391.899ZM367.899 19.6H382.299V5.2H367.899V19.6ZM428.686 0.399998V5.2H419.086V29.2H428.686V34H399.886V29.2H409.486V5.2H399.886V0.399998H428.686ZM468.445 24.4V29.2H463.645V34H444.445V29.2H439.645V24.4H434.845V10H439.645V5.2H444.445V0.399998H463.645V5.2H468.445V10H458.845V5.2H449.245V10H444.445V24.4H449.245V29.2H458.845V24.4H468.445Z" fill="#1F2B17"/>
</svg>
