<svg width="445" height="122" viewBox="0 0 445 122" fill="none" xmlns="http://www.w3.org/2000/svg">
<rect x="0.5" width="444" height="122" rx="24" fill="#1F2B17"/>
<path d="M101.367 65.6V75.2H96.5673V80H72.5673V75.2H67.7673V70.4H77.3673V75.2H91.7673V65.6H72.5673V60.8H67.7673V51.2H72.5673V46.4H91.7673V51.2H96.5673V56H86.9673V51.2H77.3673V60.8H96.5673V65.6H101.367ZM141.117 51.2V75.2H136.317V80H112.317V75.2H107.517V51.2H112.317V46.4H136.317V51.2H141.117ZM117.117 75.2H131.517V51.2H117.117V75.2ZM180.867 75.2V80H147.267V46.4H156.867V75.2H180.867ZM218.217 46.4V51.2H208.617V75.2H218.217V80H189.417V75.2H199.017V51.2H189.417V46.4H218.217ZM260.367 56V70.4H255.567V75.2H250.767V80H226.767V46.4H250.767V51.2H255.567V56H260.367ZM245.967 70.4H250.767V56H245.967V51.2H236.367V75.2H245.967V70.4ZM295.327 46.4V51.2H285.727V75.2H295.327V80H266.527V75.2H276.127V51.2H266.527V46.4H295.327ZM335.077 46.4V51.2H325.477V80H315.877V51.2H306.277V46.4H335.077ZM374.827 46.4V60.8H370.027V65.6H365.227V80H355.627V65.6H350.779V60.8H346.027V46.4H355.627V60.8H365.227V46.4H374.827Z" fill="#819EA2"/>
</svg>
