<svg width="357" height="87" viewBox="0 0 357 87" fill="none" xmlns="http://www.w3.org/2000/svg">
<rect y="0.587891" width="357" height="86" rx="16.8443" fill="#1F2B17"/>
<path d="M72.8386 46.9879V53.3879H69.6386V56.5879H53.6386V53.3879H50.4386V50.1879H56.8386V53.3879H66.4386V46.9879H53.6386V43.7879H50.4386V37.3879H53.6386V34.1879H66.4386V37.3879H69.6386V40.5879H63.2386V37.3879H56.8386V43.7879H69.6386V46.9879H72.8386ZM94.5511 34.1879V37.3879H88.1511V56.5879H81.7511V37.3879H75.3511V34.1879H94.5511ZM121.057 40.5879V56.5879H114.657V50.1879H105.057V56.5879H98.6574V40.5879H101.857V37.3879H105.057V34.1879H114.657V37.3879H117.857V40.5879H121.057ZM105.057 46.9879H114.657V40.5879H111.457V37.3879H108.257V40.5879H105.057V46.9879ZM147.557 53.3879V56.5879H137.957V53.3879H134.757V50.1879H131.557V56.5879H125.157V34.1879H144.357V37.3879H147.557V46.9879H141.157V50.1879H144.357V53.3879H147.557ZM137.957 43.7879H141.157V37.3879H131.557V46.9879H137.957V43.7879ZM172.457 34.1879V37.3879H166.057V56.5879H159.657V37.3879H153.257V34.1879H172.457ZM227.057 43.7879V56.5879H211.057V53.3239H207.857V50.1879H204.657V40.5879H207.857V37.3879H211.057V34.1879H227.057V37.3879H214.257V40.5879H211.057V50.1879H214.257V53.3879H220.657V46.9879H217.457V43.7879H227.057ZM253.557 40.5879V56.5879H247.157V50.1879H237.557V56.5879H231.157V40.5879H234.357V37.3879H237.557V34.1879H247.157V37.3879H250.357V40.5879H253.557ZM237.557 46.9879H247.157V40.5879H243.957V37.3879H240.757V40.5879H237.557V46.9879ZM280.057 34.1879V56.5879H273.657V46.9879H270.457V50.1879H267.257V46.9879H264.057V56.5879H257.657V34.1879H264.057V37.3879H267.257V40.5879H270.457V37.3879H273.657V34.1879H280.057ZM306.557 53.3879V56.5879H284.157V34.1879H306.557V37.3879H290.557V43.7879H303.357V46.9879H290.557V53.3879H306.557Z" fill="#819EA2"/>
</svg>
