<svg width="461" height="782" viewBox="0 0 461 782" fill="none" xmlns="http://www.w3.org/2000/svg">
<path d="M420.374 634.071V502.571V486.571L179.374 482.071C169.774 480.871 169.374 495.237 170.374 502.571L198.374 624.571C210.374 638.971 274.04 637.237 304.374 634.571L275.874 543.071L306.874 634.071C331.274 652.071 392.707 641.571 420.374 634.071Z" fill="#88B9B6" stroke="black" stroke-width="4"/>
<path d="M318 607.5L339 622" stroke="black"/>
<path d="M323 620C327.333 622.833 336.4 629 338 631" stroke="black"/>
<path d="M260.231 521.833C261.831 525.915 267.784 535.834 278.798 542.852" stroke="black" stroke-width="2"/>
<path d="M249 530.071C257.833 537.904 282.3 550.271 309.5 537.071" stroke="black" stroke-width="4"/>
<path d="M418.5 521.5L411.5 526.276V634.5L418.5 632.5V526.74V521.5Z" fill="#C3E2D2"/>
<path d="M181 517.5C183 512.3 184.833 491.333 186 481L209 531L187 539C184.166 534 179 522.7 181 517.5Z" fill="#88B9B6" stroke="#88B9B6" stroke-width="2"/>
<path d="M378 539C379.667 543 385.4 551.4 395 553" stroke="black"/>
<path d="M366.5 527C370.5 531 382.1 539 396.5 539" stroke="black"/>
<path d="M212 596C215.167 600.667 224 610.5 234 612.5" stroke="black"/>
<path d="M214.5 614C214.833 615.833 217.1 619.7 223.5 620.5" stroke="black"/>
<path d="M411 526L411 637" stroke="black"/>
<path d="M185.243 99.8785C174.538 103.843 71.5727 120.909 20.0974 129.162C19.1786 129.309 18.305 129.562 17.4983 130.026C-5.27296 143.127 1.86702 210.129 8.78277 244.628C9.08264 246.124 9.73173 247.516 10.6882 248.704C53.211 301.546 125.271 315.089 164.694 315.582C170.434 315.654 175.243 320.209 175.243 325.949V336.34C175.243 338.629 176.027 340.883 177.543 342.598C227.977 399.622 340.801 364.043 396.489 336.536C399.748 334.927 401.808 331.649 401.894 328.016C402.534 300.916 403.225 242.547 401.743 184.378C400.586 138.96 392.036 113.993 384.492 102.138C381.241 97.0294 379.852 89.4915 383.116 84.39C401.052 56.3492 421.899 12.2177 396.243 4.37842C368.979 -3.95222 353.007 43.2201 347.563 71.7475C347.053 74.4188 344.521 76.3785 341.802 76.3785C338.465 76.3785 336.11 73.4646 336.446 70.1454C339.384 41.135 339.586 -4.93316 320.243 2.87861C300.794 10.7331 304.602 49.8014 309.675 72.0111C310.182 74.2296 308.519 76.3785 306.243 76.3785C300.743 75.8785 198.743 94.8785 185.243 99.8785Z" fill="#A28342" stroke="black" stroke-width="4"/>
<path d="M316.243 264.878C315.91 269.878 319.143 280.478 334.743 282.878" stroke="black" stroke-width="4"/>
<path d="M232.743 305.378C255.91 302.378 305.943 292.378 320.743 276.378" stroke="black" stroke-width="4"/>
<path d="M247.015 326.364C260.552 326.306 289.586 324.331 297.429 316.895" stroke="black" stroke-width="4"/>
<path d="M206.02 119.342C217.456 116.703 242.967 113.008 253.523 119.342C245.254 111.776 224.176 101.185 206.02 119.342Z" fill="black"/>
<path d="M279.708 110.581C291.365 109.216 325.872 110.914 335.667 118.371C328.28 109.942 301.383 92.2725 279.708 110.581Z" fill="black"/>
<ellipse cx="232.33" cy="138.337" rx="18.1655" ry="14.0497" transform="rotate(-2.31719 232.33 138.337)" fill="#FFFBDC"/>
<ellipse cx="240.335" cy="137.944" rx="7.46573" ry="8.91285" transform="rotate(-2.31719 240.335 137.944)" fill="#100A00"/>
<path d="M249.782 130.625C243.357 128.768 221.24 130.016 210.985 130.872L216.513 125.797L222.974 122.008L248.159 123.194L249.782 130.625Z" fill="#A28342"/>
<path d="M222.939 121.127C218.631 123.653 210.04 129.322 210.14 131.788C222.397 129.528 248.132 126.899 253.025 134.462" stroke="black" stroke-width="1.76252"/>
<ellipse cx="308.74" cy="137.112" rx="21.5909" ry="15.4221" transform="rotate(-2.31719 308.74 137.112)" fill="#FFFBDC"/>
<ellipse cx="317.884" cy="135.3" rx="7.46573" ry="8.91285" transform="rotate(-2.31719 317.884 135.3)" fill="#100A00"/>
<path d="M326.735 127.852C320.389 125.737 298.24 126.089 287.959 126.53L293.687 121.683L300.297 118.158L325.413 120.361L326.735 127.852Z" fill="#A28342"/>
<path d="M300.297 117.277C295.891 119.627 287.078 124.944 287.078 127.411C299.416 125.649 325.237 124.062 329.819 131.817" stroke="black" stroke-width="1.76252"/>
<path d="M122.743 223.878C122.743 169.078 112.077 129.545 106.743 117.378C55.2432 122.378 30.1421 123.65 16.7432 132.878C5.31401 140.75 5.2035 152.632 4.74316 161.378C4.74316 170.212 3.24316 179.778 3.24316 213.378C3.24316 225.811 6.8842 242.857 16.2432 255.378C32.1779 276.698 59.2534 291.549 73.7432 296.378C113.343 296.378 122.91 248.045 122.743 223.878Z" fill="#010101" stroke="black"/>
<path d="M361.742 82.8784C364.742 70.2118 373.242 43.5784 383.242 38.3784" stroke="black" stroke-width="4"/>
<g filter="url(#filter0_f_60_2314)">
<ellipse cx="152.744" cy="125.878" rx="36" ry="16" transform="rotate(-7.86604 152.744 125.878)" fill="#B57941"/>
</g>
<g filter="url(#filter1_f_60_2314)">
<ellipse cx="344.133" cy="262.875" rx="29.3364" ry="20.8904" transform="rotate(52.7275 344.133 262.875)" fill="#B57941"/>
</g>
<path d="M401.571 346L178.071 361.5C171.571 361.951 149.071 405.5 147.071 446C145.471 478.4 171.404 508.833 184.571 520L187.571 483L189.571 485C210.771 502.2 317.071 499.5 367.571 496C367.071 515 398.571 522 406.571 523C414.571 524 457.571 519 457.571 450.5C457.571 395.7 420.237 358 401.571 346Z" fill="#A5A7A6"/>
<path d="M402 326C316.8 377.6 215.167 358.5 175 342.5V356.5C281.8 408.1 370.833 368.667 402 342.5V326Z" fill="#9DA3A3" stroke="black" stroke-width="4"/>
<path d="M191 349V364" stroke="black" stroke-width="4"/>
<path d="M205 353V368" stroke="black" stroke-width="4"/>
<path d="M219 356V374" stroke="black" stroke-width="4"/>
<path d="M233 355V376" stroke="black" stroke-width="4"/>
<path d="M247 360V380" stroke="black" stroke-width="4"/>
<path d="M261 359V380" stroke="black" stroke-width="4"/>
<path d="M275 360V380" stroke="black" stroke-width="4"/>
<path d="M289 359V380" stroke="black" stroke-width="4"/>
<path d="M303 359V380" stroke="black" stroke-width="4"/>
<path d="M317 357L317 378" stroke="black" stroke-width="4"/>
<path d="M345 349V372" stroke="black" stroke-width="4"/>
<path d="M331 354L331 374" stroke="black" stroke-width="4"/>
<path d="M359 347V368" stroke="black" stroke-width="4"/>
<path d="M373 342L373 360" stroke="black" stroke-width="4"/>
<path d="M387 335L387 353" stroke="black" stroke-width="4"/>
<path d="M406.201 454H414.201" stroke="black" stroke-width="4"/>
<path d="M401.201 344C420.201 353.167 458.201 388.8 458.201 458C458.201 544.274 367.178 519.132 369.183 499.653C369.194 499.551 369.2 499.449 369.197 499.346C369.151 497.388 369.177 495.069 369.304 492.5M394.201 385C389.034 388.833 378.101 399.6 375.701 412C373.48 423.477 380.225 437.267 384.677 444.014C385.243 444.872 385.11 446.014 384.387 446.744C373.584 457.65 369.988 478.683 369.304 492.5M369.304 492.5C323.77 496.667 224.501 500.3 191.701 481.5C184.201 477.167 169.901 462 172.701 436C175.501 410 176.868 394.5 177.201 390M177.201 358.5C156.201 383.333 125.901 447.9 172.701 507.5L181.589 517.129C182.774 518.412 184.919 517.667 185.053 515.926L187.701 481.5" stroke="black" stroke-width="4"/>
<path d="M405.701 438.5C407.701 439.833 413.401 440.3 420.201 431.5" stroke="black" stroke-width="4"/>
<path d="M187 481.5C187.213 481.676 187.431 481.853 187.652 482.031C207.848 497.455 315.588 495.466 367.5 492.5C276.788 526.963 210.299 500.196 187.652 482.031C187.424 481.856 187.206 481.679 187 481.5Z" fill="#A5A7A6"/>
<path d="M187 481.5C209 499.667 275.9 527.3 367.5 492.5C315 495.5 205.4 497.5 187 481.5Z" stroke="black" stroke-width="4"/>
<path d="M218 492L218 497" stroke="black" stroke-width="4"/>
<path d="M229.5 492.5L230.5 503.5M251.5 495L250.5 506.5M267 495V508.5M289 496V508.5M308 495V506.5M328.5 495V503.5" stroke="black" stroke-width="4"/>
<path d="M159.5 439.5C163.167 437.333 170.9 435.1 172.5 443.5" stroke="black" stroke-width="2"/>
<path d="M368.5 517L369.5 504C378.3 516.8 407.5 518.5 421.5 517L402.5 530L388.67 527.872C384.938 527.298 381.386 525.887 378.278 523.743L368.5 517Z" fill="#637373" stroke="black" stroke-width="4"/>
<path d="M218.094 736C187.294 738 168.927 723.5 163.594 716L278.094 708V729.5L218.094 736Z" fill="#D9D9D9" stroke="black" stroke-width="4"/>
<path d="M154.094 691.859C154.094 654.259 190.094 648.859 208.094 650.859L295.594 656.359L310.094 666.359V714.859L276.094 722.359L232.594 728.359C206.427 731.859 154.094 729.459 154.094 691.859Z" fill="#90433B" stroke="black" stroke-width="4"/>
<path d="M212.094 672C218.927 675.333 232.894 683.7 234.094 690.5" stroke="black" stroke-width="4"/>
<path d="M236.594 723C230.594 693.8 195.094 666.167 178.094 656L159.594 668.5C154.427 677.667 148.194 700 164.594 716C180.994 732 220.427 730 238.094 727L236.594 723Z" fill="#E0D4BC"/>
<path d="M234.094 672C240.927 675.333 254.894 683.7 256.094 690.5" stroke="black" stroke-width="4"/>
<path d="M154.094 691.859C154.094 654.259 190.094 648.859 208.094 650.859L295.594 656.359L310.094 666.359V714.859L276.094 722.359L232.594 728.359C206.427 731.859 154.094 729.459 154.094 691.859Z" stroke="black" stroke-width="4"/>
<path d="M203.304 668.617C200.857 656.894 196.722 636.36 195.467 627.584C195.244 626.029 196.831 625.035 198.257 625.696C219.435 635.518 270.484 633.636 296.197 631.186C297.266 631.084 298.213 631.84 298.363 632.904L304.307 674.969C304.464 676.082 303.673 677.108 302.552 677.2C280.797 678.991 229.762 673.443 204.976 670.183C204.135 670.072 203.478 669.447 203.304 668.617Z" fill="#A9D5BC" stroke="black" stroke-width="4"/>
<path d="M178.594 656C196.927 668 234.494 699.1 238.094 727.5" stroke="black" stroke-width="4"/>
<path d="M191.094 652.5L202.094 664.5" stroke="black" stroke-width="4"/>
<path d="M401.094 731.5C346.294 777.9 292.26 766.833 272.094 755.5L276.094 767.5C336.494 797.1 383.26 765.167 401.094 745V731.5Z" fill="#F9FFF1" stroke="black" stroke-width="4"/>
<path d="M268.313 757.5C260.313 711.1 293.646 693.5 311.313 690.5L313.312 679L401.312 677.5V737.5C374.312 760 354.312 775 314.812 777C283.212 778.6 270.646 764.667 268.313 757.5Z" fill="#90433B" stroke="black" stroke-width="4"/>
<path d="M310.594 692C325.094 691.5 355.294 692.3 360.094 699.5" stroke="black" stroke-width="4"/>
<path d="M368.594 761C368.594 727.4 302.927 709.167 280.093 709C265.093 730.5 267.289 732.5 270.593 755.5C274.111 779.987 320.094 783 368.594 761Z" fill="#E0D4BC"/>
<path d="M279.094 708.5C307.427 712.167 366.394 727.8 369.594 761" stroke="black" stroke-width="4"/>
<path d="M291.594 700C313.427 702.167 359.094 710.9 367.094 728.5" stroke="black" stroke-width="4"/>
<path d="M268.313 757.5C260.313 711.1 293.646 693.5 311.313 690.5L313.312 679L401.312 677.5V737.5C374.312 760 354.312 775 314.812 777C283.212 778.6 270.646 764.667 268.313 757.5Z" stroke="black" stroke-width="4"/>
<path d="M307.594 679.5C302.487 676.217 296.16 648.287 292.936 631.134C292.61 629.398 294.573 628.069 296.15 628.862C324.106 642.929 388.408 636.631 421.086 631.03C422.508 630.786 423.718 632.074 423.383 633.477L413.751 673.84C413.649 674.268 413.451 674.634 413.07 674.854C402.282 681.108 314.465 683.917 307.594 679.5Z" fill="#A1C6B4" stroke="black" stroke-width="4"/>
<path d="M181 517.5C183 512.3 184.833 491.333 186 481L209 531L187 539C184.166 534 179 522.7 181 517.5Z" fill="#88B9B6" stroke="#88B9B6" stroke-width="2"/>
<defs>
<filter id="filter0_f_60_2314" x="103.214" y="95.4764" width="99.06" height="60.8041" filterUnits="userSpaceOnUse" color-interpolation-filters="sRGB">
<feFlood flood-opacity="0" result="BackgroundImageFix"/>
<feBlend mode="normal" in="SourceGraphic" in2="BackgroundImageFix" result="shape"/>
<feGaussianBlur stdDeviation="6.9" result="effect1_foregroundBlur_60_2314"/>
</filter>
<filter id="filter1_f_60_2314" x="306.001" y="222.517" width="76.2621" height="80.7152" filterUnits="userSpaceOnUse" color-interpolation-filters="sRGB">
<feFlood flood-opacity="0" result="BackgroundImageFix"/>
<feBlend mode="normal" in="SourceGraphic" in2="BackgroundImageFix" result="shape"/>
<feGaussianBlur stdDeviation="6.9" result="effect1_foregroundBlur_60_2314"/>
</filter>
</defs>
</svg>
