<svg width="462" height="779" viewBox="0 0 462 779" fill="none" xmlns="http://www.w3.org/2000/svg">
<path d="M421.604 630.39L419.309 498.91L419.03 482.913L177.988 482.62C168.368 481.587 168.219 495.959 169.347 503.273L199.472 624.766C211.721 638.955 275.348 636.11 305.63 632.915L275.538 541.926L308.121 632.371C332.832 649.943 394.072 638.372 421.604 630.39Z" fill="#88B9B6" stroke="black" stroke-width="4"/>
<path d="M318.781 605.61L340.031 619.742" stroke="black"/>
<path d="M323.998 618.021C328.38 620.778 337.553 626.786 339.188 628.758" stroke="black"/>
<path d="M259.526 520.964C261.197 525.018 267.322 534.831 278.457 541.656" stroke="black" stroke-width="2"/>
<path d="M248.441 529.397C257.41 537.075 282.089 549.013 309.054 535.34" stroke="black" stroke-width="4"/>
<path d="M417.767 517.87L410.851 522.767L412.74 630.974L419.704 628.853L417.858 523.109L417.767 517.87Z" fill="#C3E2D2"/>
<path d="M180.232 518.015C182.141 512.781 183.608 491.785 184.594 481.433L208.464 531.024L186.607 539.407C183.686 534.457 178.323 523.249 180.232 518.015Z" fill="#88B9B6" stroke="#88B9B6" stroke-width="2"/>
<path d="M377.578 536.073C379.314 540.044 385.193 548.342 394.82 549.774" stroke="black"/>
<path d="M365.869 524.276C369.938 528.205 381.676 536.002 396.074 535.75" stroke="black"/>
<path d="M212.598 595.962C215.845 600.573 224.849 610.25 234.882 612.075" stroke="black"/>
<path d="M215.411 613.916C215.776 615.743 218.11 619.569 224.523 620.257" stroke="black"/>
<path d="M410.346 522.5L412.283 633.483" stroke="black"/>
<path d="M189.857 99.4738C178.959 102.873 75.2414 114.526 23.4048 120.074C22.4795 120.173 21.5939 120.38 20.764 120.801C-2.66168 132.692 0.961864 199.976 6.0626 234.79C6.28377 236.299 6.85915 237.723 7.75213 238.96C47.4511 293.955 118.704 311.251 158.046 313.807C163.775 314.179 168.339 318.978 168.039 324.711L167.495 335.088C167.375 337.374 168.04 339.665 169.464 341.457C216.844 401.043 331.376 371.418 388.428 346.863C391.766 345.426 393.995 342.261 394.271 338.637C396.328 311.608 400.073 253.355 401.638 195.189C402.859 149.772 395.628 124.391 388.714 112.158C385.735 106.886 384.743 99.286 388.269 94.3623C407.648 67.2986 430.776 24.3186 405.566 15.1474C378.775 5.4013 360.356 51.673 353.426 79.8764C352.778 82.5174 350.146 84.3419 347.431 84.1996C344.099 84.025 341.899 80.9918 342.409 77.6947C346.861 48.8779 349.474 2.88341 329.748 9.67211C309.915 16.498 311.673 55.712 315.577 78.1568C315.967 80.3988 314.193 82.4577 311.921 82.3386C306.454 81.5514 203.6 95.1871 189.857 99.4738Z" fill="#A28342" stroke="black" stroke-width="4"/>
<path d="M312.042 271.103C311.447 276.079 314.122 286.834 329.575 290.047" stroke="black" stroke-width="4"/>
<path d="M226.537 307.178C249.829 305.395 300.317 298.027 315.934 282.823" stroke="black" stroke-width="4"/>
<path d="M239.69 328.881C253.212 329.532 282.31 329.079 290.531 322.064" stroke="black" stroke-width="4"/>
<path d="M209.586 119.998C221.144 117.961 246.814 115.606 257.024 122.484C249.162 114.496 228.668 102.816 209.586 119.998Z" fill="black"/>
<path d="M283.632 115.106C295.344 114.353 329.715 117.854 339.107 125.813C332.171 117.009 306.235 97.9566 283.632 115.106Z" fill="black"/>
<ellipse cx="234.867" cy="140.344" rx="18.1655" ry="14.0497" transform="rotate(0.682815 234.867 140.344)" fill="#FFFBDC"/>
<ellipse cx="242.88" cy="140.37" rx="7.46573" ry="8.91285" transform="rotate(0.682815 242.88 140.37)" fill="#100A00"/>
<path d="M252.699 133.556C246.38 131.365 224.228 131.454 213.942 131.772L219.728 126.993L226.379 123.547L251.467 126.05L252.699 133.556Z" fill="#A28342"/>
<path d="M226.389 122.666C221.955 124.964 213.08 130.175 213.05 132.643C225.408 131.027 251.246 129.749 255.736 137.558" stroke="black" stroke-width="1.76252"/>
<ellipse cx="311.236" cy="143.12" rx="21.5909" ry="15.4221" transform="rotate(0.682815 311.236 143.12)" fill="#FFFBDC"/>
<ellipse cx="320.462" cy="141.789" rx="7.46573" ry="8.91285" transform="rotate(0.682815 320.462 141.789)" fill="#100A00"/>
<path d="M329.69 134.814C323.464 132.37 301.327 131.563 291.036 131.465L297.01 126.924L303.795 123.75L328.762 127.264L329.69 134.814Z" fill="#A28342"/>
<path d="M303.841 122.87C299.318 124.986 290.239 129.834 290.11 132.298C302.523 131.184 328.392 130.951 332.562 138.936" stroke="black" stroke-width="1.76252"/>
<path d="M120.953 220.033C123.821 165.308 115.238 125.27 110.549 112.841C58.8575 115.139 33.7243 115.095 19.8607 123.61C8.03526 130.872 7.30304 142.732 6.38559 151.443C5.92329 160.264 3.92467 169.739 2.16618 203.293C1.51552 215.708 4.25945 232.921 12.9503 245.916C27.7474 268.04 54.0086 284.287 68.2257 289.869C107.771 291.941 119.855 244.175 120.953 220.033Z" fill="#010101" stroke="black"/>
<path d="M367.005 91.7344C370.664 79.2421 380.546 53.0901 390.805 48.4206" stroke="black" stroke-width="4"/>
<g filter="url(#filter0_f_60_2405)">
<ellipse cx="156.041" cy="123.737" rx="36" ry="16" transform="rotate(-4.86604 156.041 123.737)" fill="#B57941"/>
</g>
<g filter="url(#filter1_f_60_2405)">
<ellipse cx="339.999" cy="270.562" rx="29.3364" ry="20.8904" transform="rotate(55.7275 339.999 270.562)" fill="#B57941"/>
</g>
<path d="M398.768 341.109L175.945 364.399C169.465 365.077 148.499 409.385 147.913 449.93C147.445 482.366 174.425 511.876 187.973 522.576L189.68 485.494L191.748 487.423C213.536 503.872 319.677 497.464 370.024 492.204C370.187 511.21 401.912 517.106 409.942 517.826C417.972 518.547 460.772 512.049 458.381 443.591C456.469 388.824 417.842 352.45 398.768 341.109Z" fill="#A5A7A6"/>
<path d="M398.499 321.106C315.152 375.648 212.914 360.107 172.214 345.518L172.702 359.51C281.238 407.351 368.841 364.835 399.075 337.596L398.499 321.106Z" fill="#9DA3A3" stroke="black" stroke-width="4"/>
<path d="M188.431 351.456L188.954 366.447" stroke="black" stroke-width="4"/>
<path d="M202.562 354.965L203.085 369.956" stroke="black" stroke-width="4"/>
<path d="M216.658 357.475L217.286 375.464" stroke="black" stroke-width="4"/>
<path d="M230.614 355.986L231.347 376.974" stroke="black" stroke-width="4"/>
<path d="M244.78 360.495L245.478 380.482" stroke="black" stroke-width="4"/>
<path d="M258.737 359.007L259.47 379.994" stroke="black" stroke-width="4"/>
<path d="M272.764 359.518L273.462 379.505" stroke="black" stroke-width="4"/>
<path d="M286.721 358.03L287.454 379.017" stroke="black" stroke-width="4"/>
<path d="M300.711 357.541L301.444 378.528" stroke="black" stroke-width="4"/>
<path d="M314.633 355.054L315.366 376.041" stroke="black" stroke-width="4"/>
<path d="M342.336 346.082L343.139 369.068" stroke="black" stroke-width="4"/>
<path d="M328.52 351.567L329.218 371.555" stroke="black" stroke-width="4"/>
<path d="M356.258 343.594L356.991 364.581" stroke="black" stroke-width="4"/>
<path d="M370.076 338.108L370.704 356.097" stroke="black" stroke-width="4"/>
<path d="M383.822 330.624L384.45 348.613" stroke="black" stroke-width="4"/>
<path d="M407.166 448.881L415.161 448.602" stroke="black" stroke-width="4"/>
<path d="M398.329 339.123C417.637 347.621 456.858 381.906 459.273 451.064C462.284 537.286 370.439 515.336 371.763 495.798C371.77 495.696 371.772 495.594 371.766 495.492C371.651 493.536 371.597 491.217 371.634 488.646M392.764 380.342C387.735 384.354 377.184 395.495 375.218 407.971C373.398 419.519 380.621 433.065 385.306 439.652C385.901 440.49 385.808 441.636 385.111 442.391C374.695 453.667 371.836 474.814 371.634 488.646M371.634 488.646C326.273 494.399 227.192 501.494 193.755 483.851C186.109 479.782 171.288 465.123 173.179 439.041C175.07 412.959 175.895 397.421 176.071 392.912M174.972 361.432C154.851 386.983 126.823 452.567 175.674 510.498L184.893 519.811C186.122 521.052 188.24 520.232 188.313 518.487L189.758 483.99" stroke="black" stroke-width="4"/>
<path d="M406.123 433.408C408.169 434.671 413.881 434.939 420.37 425.907" stroke="black" stroke-width="4"/>
<path d="M189.057 484.015C189.276 484.183 189.499 484.352 189.727 484.522C210.448 499.232 318.054 493.485 369.831 488.709C280.376 526.316 212.994 501.887 189.727 484.522C189.492 484.356 189.269 484.187 189.057 484.015Z" fill="#A5A7A6"/>
<path d="M189.057 484.015C211.677 501.402 279.501 526.684 369.831 488.709C317.467 493.539 208.004 499.363 189.057 484.015Z" stroke="black" stroke-width="4"/>
<path d="M218 490.515L218 495.515" stroke="black" stroke-width="4"/>
<path d="M229.5 491.015L230.5 502.015M251.5 493.515L250.5 505.015M267 493.515V507.015M289 494.515V507.015M308 493.515V505.015M328.5 493.515V502.015" stroke="black" stroke-width="4"/>
<path d="M159.5 438.015C163.167 435.848 170.9 433.615 172.5 442.015" stroke="black" stroke-width="2"/>
<path d="M368.5 515.515L369.5 502.515C378.3 515.315 407.5 517.015 421.5 515.515L402.5 528.515L388.67 526.387C384.938 525.813 381.386 524.402 378.278 522.258L368.5 515.515Z" fill="#637373" stroke="black" stroke-width="4"/>
<path d="M216.152 733.994C185.301 734.918 167.451 719.786 162.383 712.105L277.092 708.105L276.342 729.592L216.152 733.994Z" fill="#D9D9D9" stroke="black" stroke-width="4"/>
<path d="M153.73 687.647C155.043 650.069 191.209 645.929 209.128 648.556L296.383 657.107L310.525 667.607L308.833 716.077L274.592 722.386L230.909 726.864C204.636 729.449 152.418 725.224 153.73 687.647Z" fill="#90433B" stroke="black" stroke-width="4"/>
<path d="M212.389 669.824C219.102 673.394 232.768 682.243 233.73 689.08" stroke="black" stroke-width="4"/>
<path d="M235.093 721.648C230.116 692.256 195.602 663.401 178.967 652.647L160.042 664.494C154.559 673.475 147.55 695.577 163.381 712.139C179.213 728.702 218.692 728.079 236.453 725.698L235.093 721.648Z" fill="#E0D4BC"/>
<path d="M234.375 670.592C241.088 674.162 254.754 683.011 255.716 689.848" stroke="black" stroke-width="4"/>
<path d="M153.73 687.647C155.043 650.069 191.209 645.929 209.128 648.556L296.383 657.107L310.525 667.607L308.833 716.077L274.592 722.386L230.909 726.864C204.636 729.449 152.418 725.224 153.73 687.647Z" stroke="black" stroke-width="4"/>
<path d="M203.723 666.136C201.686 654.335 198.271 633.669 197.322 624.854C197.154 623.292 198.775 622.355 200.176 623.065C220.999 633.62 272.082 633.521 297.865 631.97C298.937 631.906 299.857 632.694 299.97 633.762L304.442 676.009C304.56 677.127 303.734 678.124 302.611 678.178C280.806 679.208 229.996 671.882 205.338 667.759C204.502 667.62 203.867 666.972 203.723 666.136Z" fill="#A9D5BC" stroke="black" stroke-width="4"/>
<path d="M179.468 652.665C197.371 665.297 233.83 697.689 236.436 726.198" stroke="black" stroke-width="4"/>
<path d="M192.082 649.603L202.657 661.98" stroke="black" stroke-width="4"/>
<path d="M399.526 732.881C342.373 776.35 288.993 762.47 269.447 750.097L272.814 762.29C331.582 795.01 379.955 765.568 398.82 746.363L399.526 732.881Z" fill="#F9FFF1" stroke="black" stroke-width="4"/>
<path d="M265.566 751.897C260.005 705.141 294.214 689.31 312.013 687.239L314.612 675.859L402.57 678.967L399.43 738.885C371.289 759.941 350.532 773.873 310.981 773.803C279.341 773.747 267.521 759.175 265.566 751.897Z" fill="#90433B" stroke="black" stroke-width="4"/>
<path d="M311.216 688.699C325.723 688.959 355.839 691.338 360.256 698.779" stroke="black" stroke-width="4"/>
<path d="M365.526 760.64C367.284 727.086 302.661 705.441 279.868 704.08C263.763 724.765 265.852 726.877 267.947 750.019C270.179 774.657 315.941 780.072 365.526 760.64Z" fill="#E0D4BC"/>
<path d="M278.896 703.528C306.999 708.672 365.067 727.37 366.525 760.692" stroke="black" stroke-width="4"/>
<path d="M291.824 695.694C313.514 699 358.661 710.112 365.729 728.106" stroke="black" stroke-width="4"/>
<path d="M265.566 751.897C260.005 705.141 294.214 689.31 312.013 687.239L314.612 675.859L402.57 678.967L399.43 738.885C371.289 759.941 350.532 773.873 310.981 773.803C279.341 773.747 267.521 759.175 265.566 751.897Z" stroke="black" stroke-width="4"/>
<path d="M308.875 676.059C303.947 672.513 299.09 644.291 296.769 626.992C296.534 625.242 298.563 624.017 300.097 624.892C327.278 640.403 391.822 637.479 424.748 633.595C426.181 633.426 427.322 634.775 426.914 636.16L415.183 675.963C415.059 676.385 414.842 676.74 414.45 676.94C403.349 682.62 315.506 680.83 308.875 676.059Z" fill="#A1C6B4" stroke="black" stroke-width="4"/>
<path d="M181 516.015C183 510.815 184.833 489.848 186 479.515L209 529.515L187 537.515C184.166 532.515 179 521.215 181 516.015Z" fill="#88B9B6" stroke="#88B9B6" stroke-width="2"/>
<defs>
<filter id="filter0_f_60_2405" x="106.345" y="93.7015" width="99.393" height="60.0702" filterUnits="userSpaceOnUse" color-interpolation-filters="sRGB">
<feFlood flood-opacity="0" result="BackgroundImageFix"/>
<feBlend mode="normal" in="SourceGraphic" in2="BackgroundImageFix" result="shape"/>
<feGaussianBlur stdDeviation="6.9" result="effect1_foregroundBlur_60_2405"/>
</filter>
<filter id="filter1_f_60_2405" x="302.305" y="229.81" width="75.3871" height="81.5048" filterUnits="userSpaceOnUse" color-interpolation-filters="sRGB">
<feFlood flood-opacity="0" result="BackgroundImageFix"/>
<feBlend mode="normal" in="SourceGraphic" in2="BackgroundImageFix" result="shape"/>
<feGaussianBlur stdDeviation="6.9" result="effect1_foregroundBlur_60_2405"/>
</filter>
</defs>
</svg>
