<svg width="183" height="55" viewBox="0 0 183 55" fill="none" xmlns="http://www.w3.org/2000/svg">
<path d="M1 50V5C1 2.79086 2.79086 1 5 1H177.884C180.138 1 181.947 2.86113 181.883 5.11402L180.599 50.114C180.538 52.2779 178.766 54 176.601 54H29.1525C28.8211 54 28.5346 53.7688 28.4647 53.4448L28.408 53.1824C28.2372 52.3915 27.0731 52.5158 27.0731 53.3249C27.0731 53.6978 26.7708 54 26.398 54H5C2.79086 54 1 52.2091 1 50Z" fill="#B7813A" stroke="black" stroke-width="2"/>
<path d="M32.4535 0.5H4.68131C2.43534 0.5 0.416507 2.19421 0.523784 4.54756C0.684935 8.08277 1.69397 12.279 4.38173 15.5587C7.08771 18.8606 11.4455 21.1721 18.163 20.9998C24.7638 20.8306 29.1862 18.4821 32.0507 15.2862C34.903 12.104 36.1716 8.12602 36.5623 4.74491C36.8434 2.3124 34.773 0.5 32.4535 0.5Z" fill="#E2C65B" stroke="black"/>
<rect x="4" y="2" width="29" height="2" rx="1" fill="#FFF6A1"/>
<path d="M6 11C8.33333 13.8333 15.6 17.8 26 11" stroke="#CFAB4D"/>
<path d="M68.4535 0.5H40.6813C38.4353 0.5 36.4165 2.19421 36.5238 4.54756C36.6849 8.08277 37.694 12.279 40.3817 15.5587C43.0877 18.8606 47.4455 21.1721 54.163 20.9998C60.7638 20.8306 65.1862 18.4821 68.0507 15.2862C70.903 12.104 72.1716 8.12602 72.5623 4.74491C72.8434 2.3124 70.773 0.5 68.4535 0.5Z" fill="#E2C65B" stroke="black"/>
<rect x="40" y="2" width="29" height="2" rx="1" fill="#FFF6A1"/>
<path d="M42 11C44.3333 13.8333 51.6 17.8 62 11" stroke="#CFAB4D"/>
<path d="M104.454 0.5H76.6813C74.4353 0.5 72.4165 2.19421 72.5238 4.54756C72.6849 8.08277 73.694 12.279 76.3817 15.5587C79.0877 18.8606 83.4455 21.1721 90.163 20.9998C96.7638 20.8306 101.186 18.4821 104.051 15.2862C106.903 12.104 108.172 8.12602 108.562 4.74491C108.843 2.3124 106.773 0.5 104.454 0.5Z" fill="#E2C65B" stroke="black"/>
<rect x="76" y="2" width="29" height="2" rx="1" fill="#FFF6A1"/>
<path d="M78 11C80.3333 13.8333 87.6 17.8 98 11" stroke="#CFAB4D"/>
<path d="M141.454 0.5H113.681C111.435 0.5 109.417 2.19421 109.524 4.54756C109.685 8.08277 110.694 12.279 113.382 15.5587C116.088 18.8606 120.445 21.1721 127.163 20.9998C133.764 20.8306 138.186 18.4821 141.051 15.2862C143.903 12.104 145.172 8.12602 145.562 4.74491C145.843 2.3124 143.773 0.5 141.454 0.5Z" fill="#E2C65B" stroke="black"/>
<rect x="113" y="2" width="29" height="2" rx="1" fill="#FFF6A1"/>
<path d="M115 11C117.333 13.8333 124.6 17.8 135 11" stroke="#CFAB4D"/>
<path d="M177.454 0.5H149.681C147.435 0.5 145.417 2.19421 145.524 4.54756C145.685 8.08277 146.694 12.279 149.382 15.5587C152.088 18.8606 156.445 21.1721 163.163 20.9998C169.764 20.8306 174.186 18.4821 177.051 15.2862C179.903 12.104 181.172 8.12602 181.562 4.74491C181.843 2.3124 179.773 0.5 177.454 0.5Z" fill="#E2C65B" stroke="black"/>
<rect x="149" y="2" width="29" height="2" rx="1" fill="#FFF6A1"/>
<path d="M151 11C153.333 13.8333 160.6 17.8 171 11" stroke="#CFAB4D"/>
<path d="M7 28H26.5M57.5 39H67M84.5 28H101M157 30.5H176" stroke="#A66D2A"/>
<path d="M15 35H40M73 38.5H130.5" stroke="#A66D2A" stroke-opacity="0.5"/>
<path d="M43.4346 48.2381L1 45.0952V54H179V43L152.15 48.2016C152.025 48.2259 151.898 48.2381 151.77 48.2381H126.051L101.416 50.8413C101.316 50.8518 101.215 50.8549 101.115 50.8503L43.4346 48.2381Z" fill="#A97039"/>
<path d="M1 50V5C1 2.79086 2.79086 1 5 1H177.884C180.138 1 181.947 2.86113 181.883 5.11402L180.599 50.114C180.538 52.2779 178.766 54 176.601 54H29.1525C28.8211 54 28.5346 53.7688 28.4647 53.4448L28.408 53.1824C28.2372 52.3915 27.0731 52.5158 27.0731 53.3249C27.0731 53.6978 26.7708 54 26.398 54H5C2.79086 54 1 52.2091 1 50Z" stroke="black" stroke-width="2"/>
</svg>
