<svg width="462" height="207" viewBox="0 0 462 207" fill="none" xmlns="http://www.w3.org/2000/svg">
<g filter="url(#filter0_d_139_946)">
<path d="M135.243 11.5H308.757C309.553 11.5 310.316 11.1839 310.879 10.6213L311.621 9.87868C312.184 9.31607 312.947 9 313.743 9H321.054C321.67 9 322.27 9.18933 322.775 9.5423L325.262 11.2834C326.304 12.0125 326.772 13.319 326.432 14.5441L324.759 20.5659C324.591 21.1732 324.235 21.7119 323.743 22.1056L323.126 22.5993C322.414 23.1686 322 24.0305 322 24.9419V33.1396C322 33.7019 322.158 34.2528 322.456 34.7296L324.044 37.2704C324.342 37.7472 324.5 38.2981 324.5 38.8604V53.4804C324.5 53.8242 324.441 54.1655 324.325 54.4894L322.643 59.1988C322.258 60.2766 322.6 61.4799 323.494 62.1948C324.13 62.7037 324.5 63.4742 324.5 64.2889V69V81.7574C324.5 82.553 324.184 83.3161 323.621 83.8787L320.121 87.3787C318.95 88.5503 318.95 90.4497 320.121 91.6213L326.121 97.6213C326.684 98.1839 327 98.947 327 99.7426V111.757C327 112.553 326.684 113.316 326.121 113.879L322.379 117.621C321.816 118.184 321.5 118.947 321.5 119.743V123.5C321.5 125.157 322.843 126.5 324.5 126.5H449.5C451.157 126.5 452.5 127.843 452.5 129.5V169V184C452.5 185.657 451.157 187 449.5 187H406.221C406.074 187 405.927 187.011 405.781 187.032L392.719 188.968C392.573 188.989 392.426 189 392.279 189H377.235C377.079 189 376.922 188.988 376.767 188.963L339.964 183.152C339.337 183.053 338.759 182.759 338.31 182.31L336.621 180.621C335.45 179.45 333.55 179.45 332.379 180.621L328.879 184.121C328.316 184.684 327.553 185 326.757 185H198C196.343 185 195 183.657 195 182V125.025C195 124.459 195.459 124 196.025 124C196.938 124 197.396 122.896 196.75 122.25L195.513 121.013C195.184 120.684 195 120.239 195 119.775V73C195 71.3431 193.657 70 192 70H164.642C164.219 70 163.8 70.0894 163.414 70.2625L151.13 75.7692C150.126 76.2195 148.955 76.0834 148.081 75.4147L141.807 70.6169C141.284 70.2168 140.643 70 139.984 70H105.243C104.447 70 103.684 69.6839 103.121 69.1213L100.621 66.6213C99.4497 65.4497 97.5503 65.4497 96.3787 66.6213C95.8161 67.1839 95.053 67.5 94.2574 67.5H43.7426C42.947 67.5 42.1839 67.8161 41.6213 68.3787L38.3787 71.6213C37.8161 72.1839 37.053 72.5 36.2574 72.5H12C10.3431 72.5 9 71.1569 9 69.5V14.5C9 12.8431 10.3431 11.5 12 11.5H18.5H67.7033C68.2254 11.5 68.7384 11.6362 69.1917 11.8953L70.9534 12.9019C71.625 13.2857 72.419 13.3953 73.1694 13.2076L79.1265 11.7184C79.6925 11.5769 80.2896 11.6287 80.8228 11.8657L83.3923 13.0077C83.9132 13.2392 84.5 12.8579 84.5 12.2878C84.5 11.8527 84.8527 11.5 85.2878 11.5H126.123C126.997 11.5 127.827 11.8819 128.396 12.5454C129.531 13.8695 131.553 13.9471 132.786 12.714L133.121 12.3787C133.684 11.8161 134.447 11.5 135.243 11.5Z" fill="#844653"/>
<path d="M135.243 11.5H308.757C309.553 11.5 310.316 11.1839 310.879 10.6213L311.621 9.87868C312.184 9.31607 312.947 9 313.743 9H321.054C321.67 9 322.27 9.18933 322.775 9.5423L325.262 11.2834C326.304 12.0125 326.772 13.319 326.432 14.5441L324.759 20.5659C324.591 21.1732 324.235 21.7119 323.743 22.1056L323.126 22.5993C322.414 23.1686 322 24.0305 322 24.9419V33.1396C322 33.7019 322.158 34.2528 322.456 34.7296L324.044 37.2704C324.342 37.7472 324.5 38.2981 324.5 38.8604V53.4804C324.5 53.8242 324.441 54.1655 324.325 54.4894L322.643 59.1988C322.258 60.2766 322.6 61.4799 323.494 62.1948C324.13 62.7037 324.5 63.4742 324.5 64.2889V69V81.7574C324.5 82.553 324.184 83.3161 323.621 83.8787L320.121 87.3787C318.95 88.5503 318.95 90.4497 320.121 91.6213L326.121 97.6213C326.684 98.1839 327 98.947 327 99.7426V111.757C327 112.553 326.684 113.316 326.121 113.879L322.379 117.621C321.816 118.184 321.5 118.947 321.5 119.743V123.5C321.5 125.157 322.843 126.5 324.5 126.5H449.5C451.157 126.5 452.5 127.843 452.5 129.5V169V184C452.5 185.657 451.157 187 449.5 187H406.221C406.074 187 405.927 187.011 405.781 187.032L392.719 188.968C392.573 188.989 392.426 189 392.279 189H377.235C377.079 189 376.922 188.988 376.767 188.963L339.964 183.152C339.337 183.053 338.759 182.759 338.31 182.31L336.621 180.621C335.45 179.45 333.55 179.45 332.379 180.621L328.879 184.121C328.316 184.684 327.553 185 326.757 185H198C196.343 185 195 183.657 195 182V125.025C195 124.459 195.459 124 196.025 124C196.938 124 197.396 122.896 196.75 122.25L195.513 121.013C195.184 120.684 195 120.239 195 119.775V73C195 71.3431 193.657 70 192 70H164.642C164.219 70 163.8 70.0894 163.414 70.2625L151.13 75.7692C150.126 76.2195 148.955 76.0834 148.081 75.4147L141.807 70.6169C141.284 70.2168 140.643 70 139.984 70H105.243C104.447 70 103.684 69.6839 103.121 69.1213L100.621 66.6213C99.4497 65.4497 97.5503 65.4497 96.3787 66.6213C95.8161 67.1839 95.053 67.5 94.2574 67.5H43.7426C42.947 67.5 42.1839 67.8161 41.6213 68.3787L38.3787 71.6213C37.8161 72.1839 37.053 72.5 36.2574 72.5H12C10.3431 72.5 9 71.1569 9 69.5V14.5C9 12.8431 10.3431 11.5 12 11.5H18.5H67.7033C68.2254 11.5 68.7384 11.6362 69.1917 11.8953L70.9534 12.9019C71.625 13.2857 72.419 13.3953 73.1694 13.2076L79.1265 11.7184C79.6925 11.5769 80.2896 11.6287 80.8228 11.8657L83.3923 13.0077C83.9132 13.2392 84.5 12.8579 84.5 12.2878C84.5 11.8527 84.8527 11.5 85.2878 11.5H126.123C126.997 11.5 127.827 11.8819 128.396 12.5454C129.531 13.8695 131.553 13.9471 132.786 12.714L133.121 12.3787C133.684 11.8161 134.447 11.5 135.243 11.5Z" stroke="black" stroke-width="2"/>
</g>
<path d="M248.959 140.952L296.671 138.566C297.429 138.529 298.094 139.064 298.219 139.812C298.368 140.705 297.695 141.524 296.79 141.551L249.039 142.969C248.47 142.986 248 142.529 248 141.96C248 141.422 248.422 140.979 248.959 140.952Z" fill="#62323E"/>
<path d="M256.5 93.0001L243.937 71.2604C243.656 70.7748 243.952 70.1591 244.507 70.075C244.808 70.0292 245.11 70.1599 245.282 70.4116L262.5 95.5001L271.547 110.162C271.95 110.815 271.809 111.665 271.216 112.152C270.514 112.731 269.464 112.574 268.962 111.815L256.5 93.0001Z" fill="#62323E"/>
<path d="M91.7678 48.3798L44.5 68L89.9637 46.1175C94.1011 44.1261 97.9012 41.4994 101.226 38.3327L109.963 30.0114C117.925 22.4291 128.436 18.102 139.428 17.882L183.5 17L139.218 20.6106C129.026 21.4415 119.443 25.7958 112.114 32.9252L105.579 39.2814C101.592 43.16 96.9053 46.2473 91.7678 48.3798Z" fill="#62323E"/>
<path d="M406.692 151.724L457.5 153.677L406.794 155.063C403.561 155.151 400.366 155.779 397.34 156.922L378.779 163.932C370.624 167.012 361.515 166.26 353.975 161.883L318.306 141.178L356.11 159.093C363.319 162.509 371.617 162.805 379.051 159.911L395.057 153.679C398.76 152.237 402.721 151.572 406.692 151.724Z" fill="#62323E" fill-opacity="0.5"/>
<path d="M202.776 35.5644L247.5 17L203.614 38.1233C198.449 40.6091 193.82 44.0801 189.986 48.3411L184.182 54.7921C175.507 64.4351 163.018 69.7587 150.054 69.3404L108.5 68L149.931 67.3318C162.966 67.1215 175.238 61.1413 183.435 51.0038L185.43 48.5363C190.041 42.8346 196.003 38.3755 202.776 35.5644Z" fill="#62323E"/>
<path d="M140.335 18.5H312.043C316.361 18.5 318.833 23.423 316.253 26.8861C315.263 28.2163 313.702 29 312.043 29H19.3417C17.7723 29 16.5 27.7277 16.5 26.1583C16.5 25.4158 16.7906 24.7027 17.3097 24.1718L20.348 21.064C22.8888 18.465 26.3699 17 30.0045 17H73.4048C74.8387 17 76.212 17.578 77.2144 18.6033L78.3355 19.75C79.8103 21.2586 82.2376 21.2586 83.7124 19.75C85.1873 18.2414 87.6146 18.2414 89.0894 19.75C90.5643 21.2586 92.9916 21.2586 94.4664 19.75L94.5486 19.666C95.2776 18.9203 96.2763 18.5 97.3192 18.5H129.253C130.296 18.5 131.294 18.9203 132.023 19.666C133.543 21.2207 136.045 21.2207 137.565 19.666C138.294 18.9203 139.292 18.5 140.335 18.5Z" fill="#B34840"/>
<path d="M140.496 12H310.571C315.916 12 319.289 17.748 316.682 22.4139C315.445 24.6281 313.107 26 310.571 26H20.4304C18.2597 26 16.5 24.2403 16.5 22.0697C16.5 21.1624 16.8139 20.283 17.3884 19.5808L19.6528 16.8132C22.3939 13.463 26.5352 11.5753 30.862 11.7038L72.6967 12.9464C73.8753 12.9814 75.0206 13.3458 76.0028 13.9982L77.905 15.2617C79.6505 16.421 81.999 16.0036 83.238 14.3138L83.7125 13.6667C85.0445 11.85 87.7574 11.85 89.0894 13.6667C90.4215 15.4833 93.1344 15.4833 94.4664 13.6667L94.6291 13.4449C95.295 12.5366 96.3539 12 97.4802 12H129.092C130.218 12 131.277 12.5366 131.943 13.4449C133.355 15.3714 136.232 15.3714 137.645 13.4449C138.311 12.5366 139.37 12 140.496 12Z" fill="#FF8676"/>
<path d="M279.616 69.2947L322.127 55.1243C322.366 55.0447 322.626 55.0632 322.852 55.1758C323.234 55.3672 323.442 55.7912 323.358 56.2108L322.769 59.1542C322.595 60.0265 322.716 60.9319 323.114 61.7275L324.078 63.6554C324.355 64.2108 324.5 64.8233 324.5 65.4443V79.9256C324.5 80.6294 324.314 81.3207 323.962 81.9298L320.408 88.0685C319.563 89.5275 319.724 91.3596 320.81 92.6491L326.06 98.8833C326.667 99.6045 327 100.517 327 101.46V109.556C327 110.177 326.855 110.789 326.578 111.345L325.259 113.983C325.087 114.326 324.867 114.642 324.605 114.923L319.076 120.847C318.384 121.588 318 122.563 318 123.577V126.562C318 127.491 317.676 128.392 317.084 129.109L309.291 138.543C308.776 139.166 308.084 139.619 307.306 139.841L299.343 142.116C297.112 142.754 295.495 140.005 297.136 138.364C297.375 138.125 297.666 137.942 297.987 137.831L306.827 134.756C308.172 134.288 309.167 133.14 309.439 131.741L312.191 117.587C312.389 116.569 312.975 115.668 313.824 115.073L320.794 110.194C321.863 109.446 322.5 108.223 322.5 106.917V102.671C322.5 101.317 321.815 100.055 320.68 99.317L313.105 94.3934C312.706 94.134 312.257 93.9605 311.788 93.884L310.882 93.7367C307.213 93.1393 307.213 87.8607 310.882 87.2633C311.901 87.0975 312.782 86.4622 313.26 85.5483L317.543 77.3718C317.843 76.7992 318 76.1623 318 75.5158V69.0913C318 66.499 315.572 64.5914 313.053 65.205L279.66 73.3394C279.223 73.4457 278.772 73.4777 278.324 73.4341L238 69.5H278.351C278.781 69.5 279.208 69.4307 279.616 69.2947Z" fill="#62323E"/>
<path d="M196 77.5V75L230 69.5L259 70L227.5 75L196 77.5Z" fill="#62323E"/>
<path d="M275.744 108.533L320 83.5L277.585 111.321C274.881 113.094 272.492 115.308 270.518 117.87L258.409 133.586C253.088 140.492 244.942 144.638 236.228 144.876L195 146L236.578 141.38C244.507 140.499 251.723 136.391 256.527 130.022L266.871 116.31C269.265 113.137 272.285 110.49 275.744 108.533Z" fill="#62323E"/>
<path d="M199.066 95.7498L203.971 77.1108C203.99 77.0372 204 76.9615 204 76.8854C204 76.3964 203.604 76 203.115 76H196.523C195.409 76 194.51 76.9093 194.523 78.0227L194.994 119.481C194.998 119.821 195.089 120.155 195.257 120.451L196.242 122.174C196.69 122.957 196.558 123.942 195.92 124.58L195.586 124.914C195.211 125.289 195 125.798 195 126.328V144.865C195 145.768 195.732 146.5 196.635 146.5C197.426 146.5 198.103 145.935 198.244 145.157L198.92 141.44C198.973 141.15 199.089 140.876 199.26 140.636L203.651 134.489C203.879 134.17 204.195 133.925 204.56 133.784L214.394 130.002C215.673 129.51 216.09 127.908 215.213 126.855L215.1 126.72C214.72 126.264 214.157 126 213.563 126H203.649C202.937 126 202.28 125.622 201.921 125.008L199.272 120.467C199.094 120.161 199 119.813 199 119.459V96.2588C199 96.087 199.022 95.9159 199.066 95.7498Z" fill="#62323E"/>
<path d="M325.379 13.0149L325.21 12.3418C325.076 11.8048 324.725 11.3474 324.241 11.0786L320.953 9.25169C320.656 9.08662 320.322 9 319.982 9H315.01C314.675 9 314.346 9.08397 314.052 9.24421L309.154 11.9158C309.052 11.9718 308.954 12.0368 308.863 12.1098L305.609 14.7129C304.728 15.4175 304.604 16.7105 305.334 17.5699L311.64 24.9883C312.161 25.6014 312.999 25.8424 313.766 25.6002L321.534 23.1472C321.84 23.0505 322.119 22.8814 322.346 22.6543L323.108 21.8917C323.365 21.6354 323.546 21.3142 323.634 20.9626L325.379 13.9851C325.458 13.6666 325.458 13.3334 325.379 13.0149Z" fill="#FF8676"/>
<path d="M397.946 171.914L445.493 167.592C448.987 167.274 452 170.025 452 173.534C452 176.829 449.329 179.5 446.034 179.5H405.5L394.5 181H378.746C378.249 181 377.753 180.963 377.262 180.889L339.326 175.199C338.465 175.07 337.668 174.668 337.052 174.052C335.596 172.596 333.281 172.458 331.662 173.73L329.463 175.457C328.191 176.457 326.621 177 325.003 177H200.575C197.432 177 194.82 174.575 194.588 171.44C194.293 167.461 197.889 164.307 201.795 165.118L219.375 168.767C220.123 168.922 220.885 168.991 221.648 168.972L301.053 167.059C302.661 167.02 304.235 166.594 305.643 165.818L314.412 160.98C316.711 159.711 319.417 159.398 321.945 160.107L345.656 166.763C346.217 166.921 346.792 167.029 347.373 167.086L396.055 171.906C396.684 171.969 397.317 171.971 397.946 171.914Z" fill="#62323E" fill-opacity="0.5"/>
<path d="M446.96 132C448.675 132.857 449.3 134.787 449.457 136.366C449.563 137.432 449.193 138.655 448.164 138.953C447.626 139.109 447.093 139.032 446.658 138.872C446.174 138.695 445.883 138.232 445.742 137.736C445.335 136.314 443.652 135.569 442.183 135.397C441.675 135.337 441.102 135.214 440.46 135C438.401 134.314 439.139 133.088 440.021 132.332C440.3 132.094 440.628 131.922 440.976 131.807C442.352 131.355 444.86 130.95 446.96 132Z" fill="#B34840"/>
<path d="M389.953 131H432.953C440.153 133.8 434.62 136.5 430.953 137.5H387.953C382.353 135.9 386.953 132.5 389.953 131Z" fill="#B34840"/>
<path d="M327.76 131H376.523C384.688 133.585 378.413 136.077 374.255 137H325.492C319.142 135.523 324.358 132.385 327.76 131Z" fill="#B34840"/>
<path d="M389.953 130H432.953C440.153 132.8 434.62 135.5 430.953 136.5H387.953C382.353 134.9 386.953 131.5 389.953 130Z" fill="#FF8676"/>
<path d="M327.76 130H376.523C384.688 132.585 378.413 135.077 374.255 136H325.492C319.142 134.523 324.358 131.385 327.76 130Z" fill="#FF8676"/>
<path d="M446.96 131C448.697 131.869 449.317 133.838 449.463 135.428C449.558 136.455 449.205 137.619 448.224 137.935C447.672 138.112 447.123 138.039 446.676 137.879C446.186 137.703 445.919 137.211 445.845 136.695C445.656 135.369 444.135 134.489 442.797 134.435C442.1 134.408 441.309 134.283 440.46 134C438.401 133.314 439.139 132.088 440.021 131.332C440.3 131.094 440.628 130.922 440.976 130.807C442.352 130.355 444.86 129.95 446.96 131Z" fill="#FF8676"/>
<path d="M397.946 179.914L445.493 175.592C448.987 175.274 452 178.025 452 181.534C452 184.829 449.329 187.5 446.034 187.5H405.5L394.5 189H378.746C378.249 189 377.753 188.963 377.262 188.889L339.326 183.199C338.465 183.07 337.668 182.668 337.052 182.052C335.596 180.596 333.281 180.458 331.662 181.73L329.463 183.457C328.191 184.457 326.621 185 325.003 185H200.575C197.432 185 194.82 182.575 194.588 179.44C194.293 175.461 197.889 172.307 201.795 173.118L219.375 176.767C220.123 176.922 220.885 176.991 221.648 176.972L301.053 175.059C302.661 175.02 304.235 174.594 305.643 173.818L314.412 168.98C316.711 167.711 319.417 167.398 321.945 168.107L345.656 174.763C346.217 174.921 346.792 175.029 347.373 175.086L396.055 179.906C396.684 179.969 397.317 179.971 397.946 179.914Z" fill="#683F4F"/>
<g filter="url(#filter1_d_139_946)">
<path d="M135.243 11.5H308.757C309.553 11.5 310.316 11.1839 310.879 10.6213L311.621 9.87868C312.184 9.31607 312.947 9 313.743 9H321.054C321.67 9 322.27 9.18933 322.775 9.5423L325.262 11.2834C326.304 12.0125 326.772 13.319 326.432 14.5441L324.759 20.5659C324.591 21.1732 324.235 21.7119 323.743 22.1056L323.126 22.5993C322.414 23.1686 322 24.0305 322 24.9419V33.1396C322 33.7019 322.158 34.2528 322.456 34.7296L324.044 37.2704C324.342 37.7472 324.5 38.2981 324.5 38.8604V53.4804C324.5 53.8242 324.441 54.1655 324.325 54.4894L322.643 59.1988C322.258 60.2766 322.6 61.4799 323.494 62.1948C324.13 62.7037 324.5 63.4742 324.5 64.2889V69V81.7574C324.5 82.553 324.184 83.3161 323.621 83.8787L320.121 87.3787C318.95 88.5503 318.95 90.4497 320.121 91.6213L326.121 97.6213C326.684 98.1839 327 98.947 327 99.7426V111.757C327 112.553 326.684 113.316 326.121 113.879L322.379 117.621C321.816 118.184 321.5 118.947 321.5 119.743V123.5C321.5 125.157 322.843 126.5 324.5 126.5H449.5C451.157 126.5 452.5 127.843 452.5 129.5V169V184C452.5 185.657 451.157 187 449.5 187H406.221C406.074 187 405.927 187.011 405.781 187.032L392.719 188.968C392.573 188.989 392.426 189 392.279 189H377.235C377.079 189 376.922 188.988 376.767 188.963L339.964 183.152C339.337 183.053 338.759 182.759 338.31 182.31L336.621 180.621C335.45 179.45 333.55 179.45 332.379 180.621L328.879 184.121C328.316 184.684 327.553 185 326.757 185H198C196.343 185 195 183.657 195 182V125.025C195 124.459 195.459 124 196.025 124C196.938 124 197.396 122.896 196.75 122.25L195.513 121.013C195.184 120.684 195 120.239 195 119.775V73C195 71.3431 193.657 70 192 70H164.642C164.219 70 163.8 70.0894 163.414 70.2625L151.13 75.7692C150.126 76.2195 148.955 76.0834 148.081 75.4147L141.807 70.6169C141.284 70.2168 140.643 70 139.984 70H105.243C104.447 70 103.684 69.6839 103.121 69.1213L100.621 66.6213C99.4497 65.4497 97.5503 65.4497 96.3787 66.6213C95.8161 67.1839 95.053 67.5 94.2574 67.5H43.7426C42.947 67.5 42.1839 67.8161 41.6213 68.3787L38.3787 71.6213C37.8161 72.1839 37.053 72.5 36.2574 72.5H12C10.3431 72.5 9 71.1569 9 69.5V14.5C9 12.8431 10.3431 11.5 12 11.5H18.5H67.7033C68.2254 11.5 68.7384 11.6362 69.1917 11.8953L70.9534 12.9019C71.625 13.2857 72.419 13.3953 73.1694 13.2076L79.1265 11.7184C79.6925 11.5769 80.2896 11.6287 80.8228 11.8657L83.3923 13.0077C83.9132 13.2392 84.5 12.8579 84.5 12.2878C84.5 11.8527 84.8527 11.5 85.2878 11.5H126.123C126.997 11.5 127.827 11.8819 128.396 12.5454C129.531 13.8695 131.553 13.9471 132.786 12.714L133.121 12.3787C133.684 11.8161 134.447 11.5 135.243 11.5Z" stroke="black" stroke-width="2" shape-rendering="crispEdges"/>
</g>
<defs>
<filter id="filter0_d_139_946" x="0" y="0" width="461.5" height="198" filterUnits="userSpaceOnUse" color-interpolation-filters="sRGB">
<feFlood flood-opacity="0" result="BackgroundImageFix"/>
<feColorMatrix in="SourceAlpha" type="matrix" values="0 0 0 0 0 0 0 0 0 0 0 0 0 0 0 0 0 0 127 0" result="hardAlpha"/>
<feOffset/>
<feGaussianBlur stdDeviation="4"/>
<feComposite in2="hardAlpha" operator="out"/>
<feColorMatrix type="matrix" values="0 0 0 0 0 0 0 0 0 0 0 0 0 0 0 0 0 0 1 0"/>
<feBlend mode="normal" in2="BackgroundImageFix" result="effect1_dropShadow_139_946"/>
<feBlend mode="normal" in="SourceGraphic" in2="effect1_dropShadow_139_946" result="shape"/>
</filter>
<filter id="filter1_d_139_946" x="0" y="0" width="461.5" height="198" filterUnits="userSpaceOnUse" color-interpolation-filters="sRGB">
<feFlood flood-opacity="0" result="BackgroundImageFix"/>
<feColorMatrix in="SourceAlpha" type="matrix" values="0 0 0 0 0 0 0 0 0 0 0 0 0 0 0 0 0 0 127 0" result="hardAlpha"/>
<feOffset/>
<feGaussianBlur stdDeviation="4"/>
<feComposite in2="hardAlpha" operator="out"/>
<feColorMatrix type="matrix" values="0 0 0 0 0 0 0 0 0 0 0 0 0 0 0 0 0 0 1 0"/>
<feBlend mode="normal" in2="BackgroundImageFix" result="effect1_dropShadow_139_946"/>
<feBlend mode="normal" in="SourceGraphic" in2="effect1_dropShadow_139_946" result="shape"/>
</filter>
</defs>
</svg>
