<svg width="16" height="16" viewBox="0 0 16 16" fill="none" xmlns="http://www.w3.org/2000/svg">
<mask id="mask0_94_1058" style="mask-type:alpha" maskUnits="userSpaceOnUse" x="0" y="0" width="16" height="16">
<rect width="16" height="16" fill="#D9D9D9"/>
</mask>
<g mask="url(#mask0_94_1058)">
<mask id="path-2-inside-1_94_1058" fill="white">
<path d="M-16.3999 7.93333C-16.3999 3.55808 -12.8531 0 -8.47781 0H39.8113C44.1866 0 47.7334 3.55808 47.7334 7.93333V7.93333C47.7334 12.3086 44.1866 15.8667 39.8113 15.8667H-8.4778C-12.8531 15.8667 -16.3999 12.3086 -16.3999 7.93333V7.93333Z"/>
</mask>
<path d="M-16.3999 7.93333C-16.3999 3.55808 -12.8531 0 -8.47781 0H39.8113C44.1866 0 47.7334 3.55808 47.7334 7.93333V7.93333C47.7334 12.3086 44.1866 15.8667 39.8113 15.8667H-8.4778C-12.8531 15.8667 -16.3999 12.3086 -16.3999 7.93333V7.93333Z" fill="#9F640D"/>
<path d="M-16.3999 7.9221C-16.3999 0.785419 -10.6145 -5 -3.47781 -5H34.8113C41.948 -5 47.7334 0.785419 47.7334 7.9221C47.7334 6.30827 44.1866 5 39.8113 5H-8.47781C-12.8531 5 -16.3999 6.30827 -16.3999 7.9221ZM47.7334 15.8667H-16.3999H47.7334ZM-16.3999 15.8667V0V15.8667ZM47.7334 0V15.8667V0Z" fill="#CECF12" mask="url(#path-2-inside-1_94_1058)"/>
</g>
</svg>
