<svg width="183" height="68" viewBox="0 0 183 68" fill="none" xmlns="http://www.w3.org/2000/svg">
<path d="M1 56V11C1 8.79086 2.79086 7 5 7H177.884C180.138 7 181.947 8.86113 181.883 11.114L180.599 56.114C180.538 58.2779 178.766 60 176.601 60H29.1525C28.8211 60 28.5346 59.7688 28.4647 59.4448L28.408 59.1824C28.2372 58.3915 27.0731 58.5158 27.0731 59.3249C27.0731 59.6978 26.7708 60 26.398 60H5C2.79086 60 1 58.2091 1 56Z" fill="#B7813A" stroke="black" stroke-width="2"/>
<path d="M32.4535 6.5H4.68131C2.43534 6.5 0.416507 8.19421 0.523784 10.5476C0.684935 14.0828 1.69397 18.279 4.38173 21.5587C7.08771 24.8606 11.4455 27.1721 18.163 26.9998C24.7638 26.8306 29.1862 24.4821 32.0507 21.2862C34.903 18.104 36.1716 14.126 36.5623 10.7449C36.8434 8.3124 34.773 6.5 32.4535 6.5Z" fill="#E2C65B" stroke="black"/>
<rect x="4" y="8" width="29" height="2" rx="1" fill="#FFF6A1"/>
<path d="M6 17C8.33333 19.8333 15.6 23.8 26 17" stroke="#CFAB4D"/>
<path d="M68.4535 6.5H40.6813C38.4353 6.5 36.4165 8.19421 36.5238 10.5476C36.6849 14.0828 37.694 18.279 40.3817 21.5587C43.0877 24.8606 47.4455 27.1721 54.163 26.9998C60.7638 26.8306 65.1862 24.4821 68.0507 21.2862C70.903 18.104 72.1716 14.126 72.5623 10.7449C72.8434 8.3124 70.773 6.5 68.4535 6.5Z" fill="#E2C65B" stroke="black"/>
<rect x="40" y="8" width="29" height="2" rx="1" fill="#FFF6A1"/>
<path d="M42 17C44.3333 19.8333 51.6 23.8 62 17" stroke="#CFAB4D"/>
<path d="M104.454 6.5H76.6813C74.4353 6.5 72.4165 8.19421 72.5238 10.5476C72.6849 14.0828 73.694 18.279 76.3817 21.5587C79.0877 24.8606 83.4455 27.1721 90.163 26.9998C96.7638 26.8306 101.186 24.4821 104.051 21.2862C106.903 18.104 108.172 14.126 108.562 10.7449C108.843 8.3124 106.773 6.5 104.454 6.5Z" fill="#E2C65B" stroke="black"/>
<rect x="76" y="8" width="29" height="2" rx="1" fill="#FFF6A1"/>
<path d="M78 17C80.3333 19.8333 87.6 23.8 98 17" stroke="#CFAB4D"/>
<path d="M141.454 6.5H113.681C111.435 6.5 109.417 8.19421 109.524 10.5476C109.685 14.0828 110.694 18.279 113.382 21.5587C116.088 24.8606 120.445 27.1721 127.163 26.9998C133.764 26.8306 138.186 24.4821 141.051 21.2862C143.903 18.104 145.172 14.126 145.562 10.7449C145.843 8.3124 143.773 6.5 141.454 6.5Z" fill="#E2C65B" stroke="black"/>
<rect x="113" y="8" width="29" height="2" rx="1" fill="#FFF6A1"/>
<path d="M115 17C117.333 19.8333 124.6 23.8 135 17" stroke="#CFAB4D"/>
<path d="M177.454 6.5H149.681C147.435 6.5 145.417 8.19421 145.524 10.5476C145.685 14.0828 146.694 18.279 149.382 21.5587C152.088 24.8606 156.445 27.1721 163.163 26.9998C169.764 26.8306 174.186 24.4821 177.051 21.2862C179.903 18.104 181.172 14.126 181.562 10.7449C181.843 8.3124 179.773 6.5 177.454 6.5Z" fill="#E2C65B" stroke="black"/>
<rect x="149" y="8" width="29" height="2" rx="1" fill="#FFF6A1"/>
<path d="M151 17C153.333 19.8333 160.6 23.8 171 17" stroke="#CFAB4D"/>
<path d="M7 34H26.5M57.5 45H67M84.5 34H101M157 36.5H176" stroke="#A66D2A"/>
<path d="M15 41H40M73 44.5H130.5" stroke="#A66D2A" stroke-opacity="0.5"/>
<path d="M43.4346 54.2381L1 51.0952V60H179V49L152.15 54.2016C152.025 54.2259 151.898 54.2381 151.77 54.2381H126.051L101.416 56.8413C101.316 56.8518 101.215 56.8549 101.115 56.8503L43.4346 54.2381Z" fill="#A97039"/>
<path d="M1 56V11C1 8.79086 2.79086 7 5 7H177.884C180.138 7 181.947 8.86113 181.883 11.114L180.599 56.114C180.538 58.2779 178.766 60 176.601 60H29.1525C28.8211 60 28.5346 59.7688 28.4647 59.4448L28.408 59.1824C28.2372 58.3915 27.0731 58.5158 27.0731 59.3249C27.0731 59.6978 26.7708 60 26.398 60H5C2.79086 60 1 58.2091 1 56Z" stroke="black" stroke-width="2"/>
<path d="M139 60.5V7.5C139.5 5.33333 141.4 1 145 1C149.5 1 152 6 151 6C150.2 6 151.333 42.3333 152 60.5C151 65.5 148.5 67 145 67C142.2 67 139.833 62.6667 139 60.5Z" fill="#956E33" stroke="black"/>
</svg>
