<svg width="242" height="55" viewBox="0 0 242 55" fill="none" xmlns="http://www.w3.org/2000/svg">
<path d="M1 50V5C1 2.79086 2.79086 1 5 1H236.346C238.615 1 240.429 2.88416 240.343 5.15084L238.645 50.1508C238.564 52.2998 236.799 54 234.648 54H38.1956C37.7839 54 37.422 53.7271 37.3089 53.3312L37.1868 52.9038C36.9129 51.945 35.5 52.1429 35.5 53.1401C35.5 53.615 35.115 54 34.6401 54H5C2.79086 54 1 52.2091 1 50Z" fill="#B7813A" stroke="black" stroke-width="2"/>
<path d="M32.4535 0.5H4.68131C2.43534 0.5 0.416507 2.19421 0.523784 4.54756C0.684935 8.08277 1.69397 12.279 4.38173 15.5587C7.08771 18.8606 11.4455 21.1721 18.163 20.9998C24.7638 20.8306 29.1862 18.4821 32.0507 15.2862C34.903 12.104 36.1716 8.12602 36.5623 4.74491C36.8434 2.3124 34.773 0.5 32.4535 0.5Z" fill="#E2C65B" stroke="black"/>
<rect x="4" y="2" width="29" height="2" rx="1" fill="#FFF6A1"/>
<path d="M6 11C8.33333 13.8333 15.6 17.8 26 11" stroke="#CFAB4D"/>
<path d="M66.4535 0.5H38.6813C36.4353 0.5 34.4165 2.19421 34.5238 4.54756C34.6849 8.08277 35.694 12.279 38.3817 15.5587C41.0877 18.8606 45.4455 21.1721 52.163 20.9998C58.7638 20.8306 63.1862 18.4821 66.0507 15.2862C68.903 12.104 70.1716 8.12602 70.5623 4.74491C70.8434 2.3124 68.773 0.5 66.4535 0.5Z" fill="#E2C65B" stroke="black"/>
<rect x="38" y="2" width="29" height="2" rx="1" fill="#FFF6A1"/>
<path d="M40 11C42.3333 13.8333 49.6 17.8 60 11" stroke="#CFAB4D"/>
<path d="M100.454 0.5H72.6813C70.4353 0.5 68.4165 2.19421 68.5238 4.54756C68.6849 8.08277 69.694 12.279 72.3817 15.5587C75.0877 18.8606 79.4455 21.1721 86.163 20.9998C92.7638 20.8306 97.1862 18.4821 100.051 15.2862C102.903 12.104 104.172 8.12602 104.562 4.74491C104.843 2.3124 102.773 0.5 100.454 0.5Z" fill="#E2C65B" stroke="black"/>
<rect x="72" y="2" width="29" height="2" rx="1" fill="#FFF6A1"/>
<path d="M74 11C76.3333 13.8333 83.6 17.8 94 11" stroke="#CFAB4D"/>
<path d="M134.454 0.5H106.681C104.435 0.5 102.417 2.19421 102.524 4.54756C102.685 8.08277 103.694 12.279 106.382 15.5587C109.088 18.8606 113.445 21.1721 120.163 20.9998C126.764 20.8306 131.186 18.4821 134.051 15.2862C136.903 12.104 138.172 8.12602 138.562 4.74491C138.843 2.3124 136.773 0.5 134.454 0.5Z" fill="#E2C65B" stroke="black"/>
<rect x="106" y="2" width="29" height="2" rx="1" fill="#FFF6A1"/>
<path d="M108 11C110.333 13.8333 117.6 17.8 128 11" stroke="#CFAB4D"/>
<path d="M168.454 0.5H140.681C138.435 0.5 136.417 2.19421 136.524 4.54756C136.685 8.08277 137.694 12.279 140.382 15.5587C143.088 18.8606 147.445 21.1721 154.163 20.9998C160.764 20.8306 165.186 18.4821 168.051 15.2862C170.903 12.104 172.172 8.12602 172.562 4.74491C172.843 2.3124 170.773 0.5 168.454 0.5Z" fill="#E2C65B" stroke="black"/>
<rect x="140" y="2" width="29" height="2" rx="1" fill="#FFF6A1"/>
<path d="M142 11C144.333 13.8333 151.6 17.8 162 11" stroke="#CFAB4D"/>
<path d="M202.454 0.5H174.681C172.435 0.5 170.417 2.19421 170.524 4.54756C170.685 8.08277 171.694 12.279 174.382 15.5587C177.088 18.8606 181.445 21.1721 188.163 20.9998C194.764 20.8306 199.186 18.4821 202.051 15.2862C204.903 12.104 206.172 8.12602 206.562 4.74491C206.843 2.3124 204.773 0.5 202.454 0.5Z" fill="#E2C65B" stroke="black"/>
<rect x="174" y="2" width="29" height="2" rx="1" fill="#FFF6A1"/>
<path d="M176 11C178.333 13.8333 185.6 17.8 196 11" stroke="#CFAB4D"/>
<path d="M236.454 0.5H208.681C206.435 0.5 204.417 2.19421 204.524 4.54756C204.685 8.08277 205.694 12.279 208.382 15.5587C211.088 18.8606 215.445 21.1721 222.163 20.9998C228.764 20.8306 233.186 18.4821 236.051 15.2862C238.903 12.104 240.172 8.12602 240.562 4.74491C240.843 2.3124 238.773 0.5 236.454 0.5Z" fill="#E2C65B" stroke="black"/>
<rect x="208" y="2" width="29" height="2" rx="1" fill="#FFF6A1"/>
<path d="M210 11C212.333 13.8333 219.6 17.8 230 11" stroke="#CFAB4D"/>
<path d="M7 28H26.5M57.5 39H67M84.5 28H101M157 30.5H176M195 46.5H218M202 35.5L223 39" stroke="#A66D2A"/>
<path d="M15 35H40M73 38.5H130.5M148.5 48.5H187.5" stroke="#A66D2A" stroke-opacity="0.5"/>
<path d="M57.5 48L1 45V53.5H238V43L202 48H167.5L134.5 50.5L57.5 48Z" fill="#A97039"/>
<path d="M1 50V5C1 2.79086 2.79086 1 5 1H236.346C238.615 1 240.429 2.88416 240.343 5.15084L238.645 50.1508C238.564 52.2998 236.799 54 234.648 54H38.1956C37.7839 54 37.422 53.7271 37.3089 53.3312L37.1868 52.9038C36.9129 51.945 35.5 52.1429 35.5 53.1401C35.5 53.615 35.115 54 34.6401 54H5C2.79086 54 1 52.2091 1 50Z" stroke="black" stroke-width="2"/>
</svg>
