<svg width="481" height="56" viewBox="0 0 481 56" fill="none" xmlns="http://www.w3.org/2000/svg">
<path d="M1 50V5C1 2.79086 2.79086 1 5 1H236.346C238.615 1 240.429 2.88416 240.343 5.15084L238.645 50.1508C238.564 52.2998 236.799 54 234.648 54H38.1956C37.7839 54 37.422 53.7271 37.3089 53.3312L37.1868 52.9038C36.9129 51.945 35.5 52.1429 35.5 53.1401C35.5 53.615 35.115 54 34.6401 54H5C2.79086 54 1 52.2091 1 50Z" fill="#B7813A" stroke="black" stroke-width="2"/>
<path d="M32.4535 0.5H4.68131C2.43534 0.5 0.416507 2.19421 0.523784 4.54756C0.684935 8.08277 1.69397 12.279 4.38173 15.5587C7.08771 18.8606 11.4455 21.1721 18.163 20.9998C24.7638 20.8306 29.1862 18.4821 32.0507 15.2862C34.903 12.104 36.1716 8.12602 36.5623 4.74491C36.8434 2.3124 34.773 0.5 32.4535 0.5Z" fill="#E2C65B" stroke="black"/>
<rect x="4" y="2" width="29" height="2" rx="1" fill="#FFF6A1"/>
<path d="M6 11C8.33333 13.8333 15.6 17.8 26 11" stroke="#CFAB4D"/>
<path d="M66.4535 0.5H38.6813C36.4353 0.5 34.4165 2.19421 34.5238 4.54756C34.6849 8.08277 35.694 12.279 38.3817 15.5587C41.0877 18.8606 45.4455 21.1721 52.163 20.9998C58.7638 20.8306 63.1862 18.4821 66.0507 15.2862C68.903 12.104 70.1716 8.12602 70.5623 4.74491C70.8434 2.3124 68.773 0.5 66.4535 0.5Z" fill="#E2C65B" stroke="black"/>
<rect x="38" y="2" width="29" height="2" rx="1" fill="#FFF6A1"/>
<path d="M40 11C42.3333 13.8333 49.6 17.8 60 11" stroke="#CFAB4D"/>
<path d="M100.454 0.5H72.6813C70.4353 0.5 68.4165 2.19421 68.5238 4.54756C68.6849 8.08277 69.694 12.279 72.3817 15.5587C75.0877 18.8606 79.4455 21.1721 86.163 20.9998C92.7638 20.8306 97.1862 18.4821 100.051 15.2862C102.903 12.104 104.172 8.12602 104.562 4.74491C104.843 2.3124 102.773 0.5 100.454 0.5Z" fill="#E2C65B" stroke="black"/>
<rect x="72" y="2" width="29" height="2" rx="1" fill="#FFF6A1"/>
<path d="M74 11C76.3333 13.8333 83.6 17.8 94 11" stroke="#CFAB4D"/>
<path d="M134.454 0.5H106.681C104.435 0.5 102.417 2.19421 102.524 4.54756C102.685 8.08277 103.694 12.279 106.382 15.5587C109.088 18.8606 113.445 21.1721 120.163 20.9998C126.764 20.8306 131.186 18.4821 134.051 15.2862C136.903 12.104 138.172 8.12602 138.562 4.74491C138.843 2.3124 136.773 0.5 134.454 0.5Z" fill="#E2C65B" stroke="black"/>
<rect x="106" y="2" width="29" height="2" rx="1" fill="#FFF6A1"/>
<path d="M108 11C110.333 13.8333 117.6 17.8 128 11" stroke="#CFAB4D"/>
<path d="M168.454 0.5H140.681C138.435 0.5 136.417 2.19421 136.524 4.54756C136.685 8.08277 137.694 12.279 140.382 15.5587C143.088 18.8606 147.445 21.1721 154.163 20.9998C160.764 20.8306 165.186 18.4821 168.051 15.2862C170.903 12.104 172.172 8.12602 172.562 4.74491C172.843 2.3124 170.773 0.5 168.454 0.5Z" fill="#E2C65B" stroke="black"/>
<rect x="140" y="2" width="29" height="2" rx="1" fill="#FFF6A1"/>
<path d="M142 11C144.333 13.8333 151.6 17.8 162 11" stroke="#CFAB4D"/>
<path d="M202.454 0.5H174.681C172.435 0.5 170.417 2.19421 170.524 4.54756C170.685 8.08277 171.694 12.279 174.382 15.5587C177.088 18.8606 181.445 21.1721 188.163 20.9998C194.764 20.8306 199.186 18.4821 202.051 15.2862C204.903 12.104 206.172 8.12602 206.562 4.74491C206.843 2.3124 204.773 0.5 202.454 0.5Z" fill="#E2C65B" stroke="black"/>
<rect x="174" y="2" width="29" height="2" rx="1" fill="#FFF6A1"/>
<path d="M176 11C178.333 13.8333 185.6 17.8 196 11" stroke="#CFAB4D"/>
<path d="M236.454 0.5H208.681C206.435 0.5 204.417 2.19421 204.524 4.54756C204.685 8.08277 205.694 12.279 208.382 15.5587C211.088 18.8606 215.445 21.1721 222.163 20.9998C228.764 20.8306 233.186 18.4821 236.051 15.2862C238.903 12.104 240.172 8.12602 240.562 4.74491C240.843 2.3124 238.773 0.5 236.454 0.5Z" fill="#E2C65B" stroke="black"/>
<rect x="208" y="2" width="29" height="2" rx="1" fill="#FFF6A1"/>
<path d="M210 11C212.333 13.8333 219.6 17.8 230 11" stroke="#CFAB4D"/>
<path d="M7 28H26.5M57.5 39H67M84.5 28H101M157 30.5H176M195 46.5H218M202 35.5L223 39" stroke="#A66D2A"/>
<path d="M15 35H40M73 38.5H130.5M148.5 48.5H187.5" stroke="#A66D2A" stroke-opacity="0.5"/>
<path d="M57.5 48L1 45V53.5H238V43L202 48H167.5L134.5 50.5L57.5 48Z" fill="#A97039"/>
<path d="M1 50V5C1 2.79086 2.79086 1 5 1H236.346C238.615 1 240.429 2.88416 240.343 5.15084L238.645 50.1508C238.564 52.2998 236.799 54 234.648 54H38.1956C37.7839 54 37.422 53.7271 37.3089 53.3312L37.1868 52.9038C36.9129 51.945 35.5 52.1429 35.5 53.1401C35.5 53.615 35.115 54 34.6401 54H5C2.79086 54 1 52.2091 1 50Z" stroke="black" stroke-width="2"/>
<path d="M479.5 51V6C479.5 3.79086 477.709 2 475.5 2H244.154C241.885 2 240.071 3.88416 240.157 6.15084L241.855 51.1508C241.936 53.2998 243.701 55 245.852 55H442.304C442.716 55 443.078 54.7271 443.191 54.3312L443.313 53.9038C443.587 52.945 445 53.1429 445 54.1401C445 54.615 445.385 55 445.86 55H475.5C477.709 55 479.5 53.2091 479.5 51Z" fill="#B7813A" stroke="black" stroke-width="2"/>
<path d="M448.046 1.5H475.819C478.065 1.5 480.083 3.19421 479.976 5.54756C479.815 9.08277 478.806 13.279 476.118 16.5587C473.412 19.8606 469.055 22.1721 462.337 21.9998C455.736 21.8306 451.314 19.4821 448.449 16.2862C445.597 13.104 444.328 9.12602 443.938 5.74491C443.657 3.3124 445.727 1.5 448.046 1.5Z" fill="#E2C65B" stroke="black"/>
<rect width="29" height="2" rx="1" transform="matrix(-1 0 0 1 476.5 3)" fill="#FFF6A1"/>
<path d="M474.5 12C472.167 14.8333 464.9 18.8 454.5 12" stroke="#CFAB4D"/>
<path d="M414.046 1.5H441.819C444.065 1.5 446.083 3.19421 445.976 5.54756C445.815 9.08277 444.806 13.279 442.118 16.5587C439.412 19.8606 435.055 22.1721 428.337 21.9998C421.736 21.8306 417.314 19.4821 414.449 16.2862C411.597 13.104 410.328 9.12602 409.938 5.74491C409.657 3.3124 411.727 1.5 414.046 1.5Z" fill="#E2C65B" stroke="black"/>
<rect width="29" height="2" rx="1" transform="matrix(-1 0 0 1 442.5 3)" fill="#FFF6A1"/>
<path d="M440.5 12C438.167 14.8333 430.9 18.8 420.5 12" stroke="#CFAB4D"/>
<path d="M380.046 1.5H407.819C410.065 1.5 412.083 3.19421 411.976 5.54756C411.815 9.08277 410.806 13.279 408.118 16.5587C405.412 19.8606 401.055 22.1721 394.337 21.9998C387.736 21.8306 383.314 19.4821 380.449 16.2862C377.597 13.104 376.328 9.12602 375.938 5.74491C375.657 3.3124 377.727 1.5 380.046 1.5Z" fill="#E2C65B" stroke="black"/>
<rect width="29" height="2" rx="1" transform="matrix(-1 0 0 1 408.5 3)" fill="#FFF6A1"/>
<path d="M406.5 12C404.167 14.8333 396.9 18.8 386.5 12" stroke="#CFAB4D"/>
<path d="M346.046 1.5H373.819C376.065 1.5 378.083 3.19421 377.976 5.54756C377.815 9.08277 376.806 13.279 374.118 16.5587C371.412 19.8606 367.055 22.1721 360.337 21.9998C353.736 21.8306 349.314 19.4821 346.449 16.2862C343.597 13.104 342.328 9.12602 341.938 5.74491C341.657 3.3124 343.727 1.5 346.046 1.5Z" fill="#E2C65B" stroke="black"/>
<rect width="29" height="2" rx="1" transform="matrix(-1 0 0 1 374.5 3)" fill="#FFF6A1"/>
<path d="M372.5 12C370.167 14.8333 362.9 18.8 352.5 12" stroke="#CFAB4D"/>
<path d="M312.046 1.5H339.819C342.065 1.5 344.083 3.19421 343.976 5.54756C343.815 9.08277 342.806 13.279 340.118 16.5587C337.412 19.8606 333.055 22.1721 326.337 21.9998C319.736 21.8306 315.314 19.4821 312.449 16.2862C309.597 13.104 308.328 9.12602 307.938 5.74491C307.657 3.3124 309.727 1.5 312.046 1.5Z" fill="#E2C65B" stroke="black"/>
<rect width="29" height="2" rx="1" transform="matrix(-1 0 0 1 340.5 3)" fill="#FFF6A1"/>
<path d="M338.5 12C336.167 14.8333 328.9 18.8 318.5 12" stroke="#CFAB4D"/>
<path d="M278.046 1.5H305.819C308.065 1.5 310.083 3.19421 309.976 5.54756C309.815 9.08277 308.806 13.279 306.118 16.5587C303.412 19.8606 299.055 22.1721 292.337 21.9998C285.736 21.8306 281.314 19.4821 278.449 16.2862C275.597 13.104 274.328 9.12602 273.938 5.74491C273.657 3.3124 275.727 1.5 278.046 1.5Z" fill="#E2C65B" stroke="black"/>
<rect width="29" height="2" rx="1" transform="matrix(-1 0 0 1 306.5 3)" fill="#FFF6A1"/>
<path d="M304.5 12C302.167 14.8333 294.9 18.8 284.5 12" stroke="#CFAB4D"/>
<path d="M244.046 1.5H271.819C274.065 1.5 276.083 3.19421 275.976 5.54756C275.815 9.08277 274.806 13.279 272.118 16.5587C269.412 19.8606 265.055 22.1721 258.337 21.9998C251.736 21.8306 247.314 19.4821 244.449 16.2862C241.597 13.104 240.328 9.12602 239.938 5.74491C239.657 3.3124 241.727 1.5 244.046 1.5Z" fill="#E2C65B" stroke="black"/>
<rect width="29" height="2" rx="1" transform="matrix(-1 0 0 1 272.5 3)" fill="#FFF6A1"/>
<path d="M270.5 12C268.167 14.8333 260.9 18.8 250.5 12" stroke="#CFAB4D"/>
<path d="M473.5 29H454M423 40H413.5M396 29H379.5M323.5 31.5H304.5M285.5 47.5H262.5M278.5 36.5L257.5 40" stroke="#A66D2A"/>
<path d="M465.5 36H440.5M407.5 39.5H350M332 49.5H293" stroke="#A66D2A" stroke-opacity="0.5"/>
<path d="M423 49L479.5 46V54.5H242.5V44L278.5 49H313L346 51.5L423 49Z" fill="#A97039"/>
<path d="M479.5 51V6C479.5 3.79086 477.709 2 475.5 2H244.154C241.885 2 240.071 3.88416 240.157 6.15084L241.855 51.1508C241.936 53.2998 243.701 55 245.852 55H442.304C442.716 55 443.078 54.7271 443.191 54.3312L443.313 53.9038C443.587 52.945 445 53.1429 445 54.1401C445 54.615 445.385 55 445.86 55H475.5C477.709 55 479.5 53.2091 479.5 51Z" stroke="black" stroke-width="2"/>
</svg>
