<svg width="470" height="778" viewBox="0 0 470 778" fill="none" xmlns="http://www.w3.org/2000/svg">
<path d="M237.011 711.559C289.591 745.519 335.058 729.887 351.219 717.827L349.108 728.649C300.217 761.016 256.206 738.66 238.526 723.229L237.011 711.559Z" fill="#F9FFF1" stroke="black" stroke-width="3.48685"/>
<path d="M354.713 719.131C356.42 678.122 325.63 666.649 310.021 666.039L307.001 656.322L230.761 664.903L237.495 716.77C263.361 733.19 282.334 743.912 316.704 741.207C344.201 739.043 353.5 725.588 354.713 719.131Z" fill="#90433B" stroke="black" stroke-width="3.48685"/>
<path d="M310.81 667.255C298.22 668.45 272.203 672.531 268.862 679.294" stroke="black" stroke-width="3.48685"/>
<path d="M268.417 733.412C264.646 704.367 319.365 681.234 339.085 678.527C354.465 695.429 352.791 697.405 352.516 717.658C352.224 739.221 312.812 746.987 268.417 733.412Z" fill="#E0D4BC"/>
<path d="M339.895 677.983C315.813 684.333 266.594 704.465 267.554 733.525" stroke="black" stroke-width="3.48685"/>
<path d="M328.135 672.038C309.504 676.362 271.007 689.037 266.067 705.149" stroke="black" stroke-width="3.48685"/>
<path d="M354.713 719.131C356.42 678.122 325.63 666.649 310.021 666.039L307.001 656.322L230.761 664.903L237.495 716.77C263.361 733.19 282.334 743.912 316.704 741.207C344.201 739.043 353.5 725.588 354.713 719.131Z" stroke="black" stroke-width="3.48685"/>
<path d="M59.4268 721.888C110.993 761.058 159.125 748.513 176.745 737.344L173.716 748.341C120.735 777.881 77.0941 751.356 60.0713 734.046L59.4268 721.888Z" fill="#F9FFF1" stroke="black" stroke-width="3.60731"/>
<path d="M180.245 738.964C185.234 696.796 154.375 682.537 138.322 680.679L135.972 670.418L56.6509 673.268L59.5152 727.302C84.9045 746.276 103.632 758.83 139.3 758.745C167.834 758.677 178.486 745.53 180.245 738.964Z" fill="#90433B" stroke="black" stroke-width="3.60731"/>
<path d="M139.041 681.996C125.959 682.238 98.8 684.4 94.821 691.113" stroke="black" stroke-width="3.60731"/>
<path d="M90.1032 746.903C88.4992 716.644 146.766 697.089 167.321 695.849C181.856 714.495 179.974 716.401 178.096 737.272C176.097 759.492 134.831 764.4 90.1032 746.903Z" fill="#E0D4BC"/>
<path d="M168.195 695.351C142.854 700.006 90.4974 716.9 89.2006 746.951" stroke="black" stroke-width="3.60731"/>
<path d="M156.535 688.293C136.976 691.286 96.2674 701.331 89.9031 717.563" stroke="black" stroke-width="3.60731"/>
<path d="M180.245 738.964C185.234 696.796 154.375 682.537 138.322 680.679L135.972 670.418L56.6509 673.268L59.5152 727.302C84.9045 746.276 103.632 758.83 139.3 758.745C167.834 758.677 178.486 745.53 180.245 738.964Z" stroke="black" stroke-width="3.60731"/>
<path d="M49.8275 632.071V500.571V484.571L290.827 480.071C300.427 478.871 300.827 493.237 299.827 500.571L314 614C302 628.4 258.333 630.667 228 628L181 543L142.5 632.071C118.1 650.071 77.4942 639.571 49.8275 632.071Z" fill="#88B9B6" stroke="black" stroke-width="4"/>
<path d="M152.201 605.5L131.201 620" stroke="black"/>
<path d="M147.201 618C142.868 620.833 133.801 627 132.201 629" stroke="black"/>
<path d="M209.97 519.833C208.371 523.915 202.418 533.834 191.404 540.852" stroke="black" stroke-width="2"/>
<path d="M221.201 528.071C212.368 535.904 187.901 548.271 160.701 535.071" stroke="black" stroke-width="4"/>
<path d="M51.7012 519.5L58.7012 524.276V632.5L51.7012 630.5V524.74V519.5Z" fill="#C3E2D2"/>
<path d="M289.202 515.5C287.202 510.3 285.368 489.333 284.202 479L261.202 529L283.202 537C286.035 532 291.202 520.7 289.202 515.5Z" fill="#88B9B6" stroke="#88B9B6" stroke-width="2"/>
<path d="M92.2012 537C90.5345 541 84.8012 549.4 75.2012 551" stroke="black"/>
<path d="M103.701 525C99.7012 529 88.1012 537 73.7012 537" stroke="black"/>
<path d="M258.201 594C255.035 598.667 246.201 608.5 236.201 610.5" stroke="black"/>
<path d="M255.701 612C255.368 613.833 253.101 617.7 246.701 618.5" stroke="black"/>
<path d="M59.2012 524L59.2012 635" stroke="black"/>
<path d="M280.369 96.9628C291.266 100.365 394.98 112.047 446.815 117.608C447.74 117.708 448.626 117.915 449.456 118.337C472.878 130.234 469.236 197.517 464.126 232.329C463.904 233.839 463.328 235.262 462.435 236.499C422.721 291.483 351.464 308.759 312.12 311.304C306.391 311.675 301.826 316.473 302.125 322.206L302.666 332.583C302.785 334.869 302.12 337.16 300.695 338.952C253.298 398.525 138.775 368.868 81.7297 344.297C78.3921 342.86 76.1641 339.694 75.8893 336.071C73.8394 309.041 70.1101 250.787 68.5617 192.62C67.3527 147.202 74.5909 121.824 81.5078 109.593C84.4887 104.322 85.4826 96.7216 81.9583 91.797C62.5868 64.728 39.4703 21.7416 64.683 12.5773C91.4762 2.83858 109.883 49.1154 116.804 77.3207C117.453 79.9618 120.083 81.787 122.799 81.6455C126.131 81.4718 128.331 78.4391 127.823 75.142C123.378 46.3239 120.778 0.328721 140.502 7.12283C160.334 13.9541 158.565 53.1677 154.655 75.6114C154.264 77.8533 156.037 79.9127 158.309 79.7942C163.776 79.0085 266.627 92.6724 280.369 96.9628Z" fill="#A28342" stroke="black" stroke-width="4"/>
<path d="M158.136 268.559C158.729 273.535 156.052 284.289 140.598 287.498" stroke="black" stroke-width="4"/>
<path d="M243.633 304.657C220.341 302.867 169.855 295.486 154.242 280.278" stroke="black" stroke-width="4"/>
<path d="M230.471 326.357C216.95 327.004 187.852 326.543 179.633 319.525" stroke="black" stroke-width="4"/>
<path d="M260.633 117.481C249.075 115.441 223.406 113.08 213.194 119.955C221.058 111.969 241.556 100.295 260.633 117.481Z" fill="black"/>
<path d="M186.59 112.569C174.878 111.813 140.506 115.305 131.112 123.262C138.05 114.459 163.991 95.4137 186.59 112.569Z" fill="black"/>
<ellipse cx="18.1655" cy="14.0497" rx="18.1655" ry="14.0497" transform="matrix(-0.999932 0.0116429 0.0116429 0.999932 253.35 123.56)" fill="#FFFBDC"/>
<ellipse cx="7.46573" cy="8.91285" rx="7.46573" ry="8.91285" transform="matrix(-0.999932 0.0116429 0.0116429 0.999932 234.697 128.846)" fill="#100A00"/>
<path d="M217.518 131.028C223.838 128.839 245.989 128.934 256.275 129.254L250.491 124.475L243.841 121.027L218.752 123.522L217.518 131.028Z" fill="#A28342"/>
<path d="M243.831 120.145C248.264 122.444 257.138 127.658 257.167 130.125C244.809 128.507 218.972 127.221 214.48 135.029" stroke="black" stroke-width="1.76252"/>
<ellipse cx="21.5909" cy="15.4221" rx="21.5909" ry="15.4221" transform="matrix(-0.999932 0.0116429 0.0116429 0.999932 180.387 124.904)" fill="#FFFBDC"/>
<ellipse cx="7.46573" cy="8.91285" rx="7.46573" ry="8.91285" transform="matrix(-0.999932 0.0116429 0.0116429 0.999932 157.111 130.243)" fill="#100A00"/>
<path d="M140.526 132.264C146.752 129.822 168.89 129.021 179.18 128.926L173.207 124.383L166.423 121.207L141.456 124.715L140.526 132.264Z" fill="#A28342"/>
<path d="M166.377 120.327C170.9 122.445 179.977 127.296 180.106 129.76C167.693 128.642 141.824 128.402 137.652 136.385" stroke="black" stroke-width="1.76252"/>
<path d="M349.24 217.541C346.387 162.815 354.981 122.78 359.674 110.352C411.364 112.664 436.497 112.627 450.358 121.145C462.182 128.411 462.911 140.272 463.826 148.982C464.286 157.803 466.282 167.279 468.031 200.833C468.678 213.249 465.93 230.461 457.235 243.453C442.432 265.574 416.167 281.814 401.948 287.391C362.402 289.453 350.332 241.683 349.24 217.541Z" fill="#010101" stroke="black"/>
<path d="M103.223 89.1748C99.5676 76.6815 89.6926 50.5268 79.4354 45.8544" stroke="black" stroke-width="4"/>
<g filter="url(#filter0_f_60_2588)">
<ellipse cx="36" cy="16" rx="36" ry="16" transform="matrix(-0.996372 -0.0850995 -0.0850995 0.996372 351.41 108.357)" fill="#B57941"/>
</g>
<g filter="url(#filter1_f_60_2588)">
<ellipse cx="29.3364" cy="20.8904" rx="29.3364" ry="20.8904" transform="matrix(-0.563356 0.826214 0.826214 0.563356 129.447 232.003)" fill="#B57941"/>
</g>
<path d="M68.6304 344L300.13 359.5C306.63 359.951 329.13 403.5 331.13 444C332.73 476.4 306.797 506.833 293.63 518L282.63 481L280.63 483C259.43 500.2 153.13 497.5 102.63 494C103.13 513 71.6304 520 63.6304 521C55.6304 522 2.5 519 2.5 450.5C2.5 395.7 49.9637 356 68.6304 344Z" fill="#A5A7A6"/>
<path d="M68.2012 324C153.401 375.6 255.035 356.5 295.201 340.5V354.5C188.401 406.1 99.3678 366.667 68.2012 340.5V324Z" fill="#9DA3A3" stroke="black" stroke-width="4"/>
<path d="M279.201 347V362" stroke="black" stroke-width="4"/>
<path d="M265.201 351V366" stroke="black" stroke-width="4"/>
<path d="M251.201 354V372" stroke="black" stroke-width="4"/>
<path d="M237.201 353V374" stroke="black" stroke-width="4"/>
<path d="M223.201 358V378" stroke="black" stroke-width="4"/>
<path d="M209.201 357V378" stroke="black" stroke-width="4"/>
<path d="M195.201 358V378" stroke="black" stroke-width="4"/>
<path d="M181.201 357V378" stroke="black" stroke-width="4"/>
<path d="M167.201 357V378" stroke="black" stroke-width="4"/>
<path d="M153.201 355L153.201 376" stroke="black" stroke-width="4"/>
<path d="M125.201 347V370" stroke="black" stroke-width="4"/>
<path d="M139.201 352L139.201 372" stroke="black" stroke-width="4"/>
<path d="M111.201 345V366" stroke="black" stroke-width="4"/>
<path d="M97.2012 340L97.2012 358" stroke="black" stroke-width="4"/>
<path d="M83.2012 333L83.2012 351" stroke="black" stroke-width="4"/>
<path d="M64 452H56" stroke="black" stroke-width="4"/>
<path d="M69 342C50 351.167 2.5 388.8 2.5 458C2.5 544.275 102.976 517.142 101.017 497.652C101.007 497.55 101.001 497.449 101.004 497.346C101.05 495.388 101.024 493.069 100.897 490.5M76 383C81.1667 386.833 92.1 397.6 94.5 410C96.7214 421.477 89.9762 435.267 85.5238 442.014C84.9578 442.872 85.0908 444.014 85.814 444.744C96.6174 455.65 100.213 476.683 100.897 490.5M100.897 490.5C146.431 494.667 245.7 498.3 278.5 479.5C286 475.167 300.3 460 297.5 434C294.7 408 293.333 392.5 293 388M301 356.5C322 381.333 352.3 445.9 305.5 505.5L295.924 515.874C294.864 517.023 292.954 516.565 292.53 515.06L282.5 479.5" stroke="black" stroke-width="4"/>
<path d="M64.5 436.5C62.5 437.833 56.8 438.3 50 429.5" stroke="black" stroke-width="4"/>
<path d="M283.201 479.5C282.988 479.676 282.771 479.853 282.549 480.031C262.354 495.455 154.613 493.466 102.701 490.5C193.413 524.963 259.902 498.196 282.549 480.031C282.778 479.856 282.995 479.679 283.201 479.5Z" fill="#A5A7A6"/>
<path d="M283.201 479.5C261.201 497.667 194.301 525.3 102.701 490.5C155.201 493.5 264.801 495.5 283.201 479.5Z" stroke="black" stroke-width="4"/>
<path d="M252.201 490L252.201 495" stroke="black" stroke-width="4"/>
<path d="M240.701 490.5L239.701 501.5M218.701 493L219.701 504.5M203.201 493V506.5M181.201 494V506.5M162.201 493V504.5M141.701 493V501.5" stroke="black" stroke-width="4"/>
<path d="M310.701 437.5C307.035 435.333 299.301 433.1 297.701 441.5" stroke="black" stroke-width="2"/>
<path d="M101.701 515L100.701 502C91.9012 514.8 62.7012 516.5 48.7012 515L67.7012 528L81.5315 525.872C85.2628 525.298 88.8156 523.887 91.9234 521.743L101.701 515Z" fill="#637373" stroke="black" stroke-width="4"/>
<path d="M313.271 657.613C315.404 645.9 315.526 625.394 315.511 616.606C315.508 615.035 313.768 614.056 312.377 614.787C292.733 625.122 255.307 629.697 230.254 627.746C228.895 627.64 227.804 628.872 228.1 630.203L234.191 657.61C234.376 658.442 235.061 659.066 235.908 659.158C256.358 661.396 287.354 662.227 311.601 659.181C312.443 659.075 313.119 658.448 313.271 657.613Z" fill="#A9D5BC" stroke="black" stroke-width="4"/>
<path d="M133.5 672.5C138.586 669.23 144.469 648.942 147.629 633.133C147.975 631.402 146.02 630.101 144.462 630.932C118.979 644.53 80.0351 634.823 48.9695 629.026C47.5895 628.769 46.3897 629.982 46.6528 631.361L54.3632 671.783C54.4516 672.246 54.6746 672.658 55.0796 672.9C65.1732 678.915 126.648 676.905 133.5 672.5Z" fill="#A1C6B4" stroke="black" stroke-width="4"/>
<path d="M289.202 515.5C287.202 510.3 285.368 489.333 284.202 479L261.202 529L283.202 537C286.035 532 291.202 520.7 289.202 515.5Z" fill="#88B9B6" stroke="#88B9B6" stroke-width="2"/>
<defs>
<filter id="filter0_f_60_2588" x="264.483" y="91.1988" width="99.391" height="60.0731" filterUnits="userSpaceOnUse" color-interpolation-filters="sRGB">
<feFlood flood-opacity="0" result="BackgroundImageFix"/>
<feBlend mode="normal" in="SourceGraphic" in2="BackgroundImageFix" result="shape"/>
<feGaussianBlur stdDeviation="6.9" result="effect1_foregroundBlur_60_2588"/>
</filter>
<filter id="filter1_f_60_2588" x="92.4832" y="227.26" width="75.393" height="81.5004" filterUnits="userSpaceOnUse" color-interpolation-filters="sRGB">
<feFlood flood-opacity="0" result="BackgroundImageFix"/>
<feBlend mode="normal" in="SourceGraphic" in2="BackgroundImageFix" result="shape"/>
<feGaussianBlur stdDeviation="6.9" result="effect1_foregroundBlur_60_2588"/>
</filter>
</defs>
</svg>
