<svg width="461" height="782" viewBox="0 0 461 782" fill="none" xmlns="http://www.w3.org/2000/svg">
<path d="M39.8275 634.071V502.571V486.571L280.827 482.071C290.427 480.871 290.827 495.237 289.827 502.571L261.827 624.571C249.827 638.971 186.161 637.237 155.827 634.571L184.327 543.071L153.327 634.071C128.928 652.071 67.4942 641.571 39.8275 634.071Z" fill="#88B9B6" stroke="black" stroke-width="4"/>
<path d="M142.201 607.5L121.201 622" stroke="black"/>
<path d="M137.201 620C132.868 622.833 123.801 629 122.201 631" stroke="black"/>
<path d="M199.97 521.833C198.371 525.915 192.418 535.834 181.404 542.852" stroke="black" stroke-width="2"/>
<path d="M211.201 530.071C202.368 537.904 177.901 550.271 150.701 537.071" stroke="black" stroke-width="4"/>
<path d="M41.7012 521.5L48.7012 526.276V634.5L41.7012 632.5V526.74V521.5Z" fill="#C3E2D2"/>
<path d="M279.202 517.5C277.202 512.3 275.368 491.333 274.202 481L251.202 531L273.202 539C276.035 534 281.202 522.7 279.202 517.5Z" fill="#88B9B6" stroke="#88B9B6" stroke-width="2"/>
<path d="M82.2012 539C80.5345 543 74.8012 551.4 65.2012 553" stroke="black"/>
<path d="M93.7012 527C89.7012 531 78.1012 539 63.7012 539" stroke="black"/>
<path d="M248.201 596C245.035 600.667 236.201 610.5 226.201 612.5" stroke="black"/>
<path d="M245.701 614C245.368 615.833 243.101 619.7 236.701 620.5" stroke="black"/>
<path d="M49.2012 526L49.2012 637" stroke="black"/>
<path d="M274.958 99.8785C285.663 103.843 388.629 120.909 440.104 129.162C441.023 129.309 441.896 129.562 442.703 130.026C465.474 143.127 458.334 210.129 451.418 244.628C451.119 246.124 450.469 247.516 449.513 248.704C406.99 301.546 334.93 315.089 295.507 315.582C289.767 315.654 284.958 320.209 284.958 325.949V336.34C284.958 338.629 284.175 340.883 282.658 342.598C232.224 399.622 119.401 364.043 63.7117 336.536C60.4534 334.927 58.3932 331.649 58.3074 328.016C57.6676 300.916 56.9761 242.547 58.4582 184.378C59.6153 138.96 68.165 113.993 75.7092 102.138C78.9606 97.0294 80.3488 89.4915 77.0857 84.39C59.1497 56.3492 38.3025 12.2177 63.9582 4.37842C91.222 -3.95222 107.194 43.2201 112.638 71.7475C113.148 74.4188 115.68 76.3785 118.4 76.3785C121.736 76.3785 124.091 73.4646 123.755 70.1454C120.817 41.135 120.615 -4.93316 139.958 2.87861C159.407 10.7331 155.599 49.8014 150.526 72.0111C150.019 74.2296 151.683 76.3785 153.958 76.3785C159.458 75.8785 261.458 94.8785 274.958 99.8785Z" fill="#A28342" stroke="black" stroke-width="4"/>
<path d="M143.958 264.878C144.291 269.878 141.058 280.478 125.458 282.878" stroke="black" stroke-width="4"/>
<path d="M227.457 305.378C204.29 302.378 154.257 292.378 139.457 276.378" stroke="black" stroke-width="4"/>
<path d="M213.185 326.364C199.649 326.306 170.614 324.331 162.771 316.895" stroke="black" stroke-width="4"/>
<path d="M254.182 119.341C242.746 116.702 217.234 113.007 206.678 119.341C214.947 111.776 236.025 101.184 254.182 119.341Z" fill="black"/>
<path d="M180.493 110.581C168.836 109.215 134.33 110.914 124.534 118.37C131.921 109.941 158.818 92.272 180.493 110.581Z" fill="black"/>
<ellipse cx="18.1655" cy="14.0497" rx="18.1655" ry="14.0497" transform="matrix(-0.999182 -0.0404315 -0.0404315 0.999182 246.59 125.033)" fill="#FFFBDC"/>
<ellipse cx="7.46573" cy="8.91285" rx="7.46573" ry="8.91285" transform="matrix(-0.999182 -0.0404315 -0.0404315 0.999182 227.686 129.34)" fill="#100A00"/>
<path d="M210.419 130.625C216.844 128.768 238.961 130.016 249.216 130.872L243.689 125.797L237.227 122.008L212.043 123.194L210.419 130.625Z" fill="#A28342"/>
<path d="M237.263 121.127C241.57 123.653 250.161 129.322 250.061 131.788C237.805 129.528 212.069 126.899 207.177 134.462" stroke="black" stroke-width="1.76252"/>
<ellipse cx="21.5909" cy="15.4221" rx="21.5909" ry="15.4221" transform="matrix(-0.999182 -0.0404315 -0.0404315 0.999182 173.658 122.576)" fill="#FFFBDC"/>
<ellipse cx="7.46573" cy="8.91285" rx="7.46573" ry="8.91285" transform="matrix(-0.999182 -0.0404315 -0.0404315 0.999182 150.137 126.696)" fill="#100A00"/>
<path d="M133.467 127.852C139.812 125.737 161.961 126.089 172.242 126.53L166.514 121.683L159.905 118.158L134.789 120.361L133.467 127.852Z" fill="#A28342"/>
<path d="M159.904 117.276C164.31 119.626 173.123 124.943 173.123 127.411C160.785 125.648 134.964 124.062 130.382 131.817" stroke="black" stroke-width="1.76252"/>
<path d="M337.457 223.878C337.457 169.078 348.124 129.545 353.457 117.378C404.957 122.378 430.058 123.65 443.457 132.878C454.886 140.75 454.997 152.632 455.457 161.378C455.457 170.212 456.957 179.778 456.957 213.378C456.957 225.811 453.316 242.857 443.957 255.378C428.022 276.698 400.947 291.549 386.457 296.378C346.857 296.378 337.29 248.045 337.457 223.878Z" fill="#010101" stroke="black"/>
<path d="M98.457 82.8784C95.457 70.2118 86.957 43.5784 76.957 38.3784" stroke="black" stroke-width="4"/>
<g filter="url(#filter0_f_60_2497)">
<ellipse cx="36" cy="16" rx="36" ry="16" transform="matrix(-0.990591 -0.136857 -0.136857 0.990591 345.309 114.956)" fill="#B57941"/>
</g>
<g filter="url(#filter1_f_60_2497)">
<ellipse cx="29.3364" cy="20.8904" rx="29.3364" ry="20.8904" transform="matrix(-0.605606 0.795764 0.795764 0.605606 117.211 226.878)" fill="#B57941"/>
</g>
<path d="M58.6304 346L282.13 361.5C288.63 361.951 311.13 405.5 313.13 446C314.73 478.4 288.797 508.833 275.63 520L272.63 483L270.63 485C249.43 502.2 143.13 499.5 92.6304 496C93.1304 515 61.6304 522 53.6304 523C45.6304 524 2.6304 519 2.6304 450.5C2.6304 395.7 39.9637 358 58.6304 346Z" fill="#A5A7A6"/>
<path d="M58.2012 326C143.401 377.6 245.035 358.5 285.201 342.5V356.5C178.401 408.1 89.3678 368.667 58.2012 342.5V326Z" fill="#9DA3A3" stroke="black" stroke-width="4"/>
<path d="M269.201 349V364" stroke="black" stroke-width="4"/>
<path d="M255.201 353V368" stroke="black" stroke-width="4"/>
<path d="M241.201 356V374" stroke="black" stroke-width="4"/>
<path d="M227.201 355V376" stroke="black" stroke-width="4"/>
<path d="M213.201 360V380" stroke="black" stroke-width="4"/>
<path d="M199.201 359V380" stroke="black" stroke-width="4"/>
<path d="M185.201 360V380" stroke="black" stroke-width="4"/>
<path d="M171.201 359V380" stroke="black" stroke-width="4"/>
<path d="M157.201 359V380" stroke="black" stroke-width="4"/>
<path d="M143.201 357L143.201 378" stroke="black" stroke-width="4"/>
<path d="M115.201 349V372" stroke="black" stroke-width="4"/>
<path d="M129.201 354L129.201 374" stroke="black" stroke-width="4"/>
<path d="M101.201 347V368" stroke="black" stroke-width="4"/>
<path d="M87.2012 342L87.2012 360" stroke="black" stroke-width="4"/>
<path d="M73.2012 335L73.2012 353" stroke="black" stroke-width="4"/>
<path d="M54 454H46" stroke="black" stroke-width="4"/>
<path d="M59 344C40 353.167 2.00003 388.8 2.00003 458C2.00003 544.274 93.0233 519.132 91.0177 499.653C91.0072 499.551 91.0014 499.449 91.0038 499.346C91.0504 497.388 91.0239 495.069 90.8968 492.5M66 385C71.1667 388.833 82.1 399.6 84.5 412C86.7214 423.477 79.9762 437.267 75.5238 444.014C74.9578 444.872 75.0908 446.014 75.814 446.744C86.6174 457.65 90.213 478.683 90.8968 492.5M90.8968 492.5C136.431 496.667 235.7 500.3 268.5 481.5C276 477.167 290.3 462 287.5 436C284.7 410 283.333 394.5 283 390M283 358.5C304 383.333 334.3 447.9 287.5 507.5L278.612 517.129C277.427 518.412 275.282 517.667 275.148 515.926L272.5 481.5" stroke="black" stroke-width="4"/>
<path d="M54.5 438.5C52.5 439.833 46.8 440.3 40 431.5" stroke="black" stroke-width="4"/>
<path d="M273.201 481.5C272.988 481.676 272.771 481.853 272.549 482.031C252.354 497.455 144.613 495.466 92.7012 492.5C183.413 526.963 249.902 500.196 272.549 482.031C272.778 481.856 272.995 481.679 273.201 481.5Z" fill="#A5A7A6"/>
<path d="M273.201 481.5C251.201 499.667 184.301 527.3 92.7012 492.5C145.201 495.5 254.801 497.5 273.201 481.5Z" stroke="black" stroke-width="4"/>
<path d="M242.201 492L242.201 497" stroke="black" stroke-width="4"/>
<path d="M230.701 492.5L229.701 503.5M208.701 495L209.701 506.5M193.201 495V508.5M171.201 496V508.5M152.201 495V506.5M131.701 495V503.5" stroke="black" stroke-width="4"/>
<path d="M300.701 439.5C297.035 437.333 289.301 435.1 287.701 443.5" stroke="black" stroke-width="2"/>
<path d="M91.7012 517L90.7012 504C81.9012 516.8 52.7012 518.5 38.7012 517L57.7012 530L71.5315 527.872C75.2628 527.298 78.8156 525.887 81.9234 523.743L91.7012 517Z" fill="#637373" stroke="black" stroke-width="4"/>
<path d="M242.107 736C272.907 738 291.274 723.5 296.607 716L182.107 708V729.5L242.107 736Z" fill="#D9D9D9" stroke="black" stroke-width="4"/>
<path d="M306.107 691.859C306.107 654.259 270.107 648.859 252.107 650.859L164.607 656.359L150.107 666.359V714.859L184.107 722.359L227.607 728.359C253.774 731.859 306.107 729.459 306.107 691.859Z" fill="#90433B" stroke="black" stroke-width="4"/>
<path d="M248.107 672C241.274 675.333 227.307 683.7 226.107 690.5" stroke="black" stroke-width="4"/>
<path d="M223.607 723C229.607 693.8 265.107 666.167 282.107 656L300.607 668.5C305.774 677.667 312.007 700 295.607 716C279.207 732 239.774 730 222.107 727L223.607 723Z" fill="#E0D4BC"/>
<path d="M226.107 672C219.274 675.333 205.307 683.7 204.107 690.5" stroke="black" stroke-width="4"/>
<path d="M306.107 691.859C306.107 654.259 270.107 648.859 252.107 650.859L164.607 656.359L150.107 666.359V714.859L184.107 722.359L227.607 728.359C253.774 731.859 306.107 729.459 306.107 691.859Z" stroke="black" stroke-width="4"/>
<path d="M256.897 668.617C259.344 656.894 263.479 636.36 264.735 627.584C264.957 626.029 263.37 625.035 261.945 625.696C240.766 635.518 189.718 633.636 164.005 631.186C162.935 631.084 161.989 631.84 161.838 632.904L155.894 674.969C155.737 676.082 156.528 677.108 157.649 677.2C179.404 678.991 230.439 673.443 255.226 670.183C256.066 670.072 256.724 669.447 256.897 668.617Z" fill="#A9D5BC" stroke="black" stroke-width="4"/>
<path d="M281.607 656C263.274 668 225.707 699.1 222.107 727.5" stroke="black" stroke-width="4"/>
<path d="M269.107 652.5L258.107 664.5" stroke="black" stroke-width="4"/>
<path d="M59.1074 731.5C113.907 777.9 167.941 766.833 188.107 755.5L184.107 767.5C123.707 797.1 76.9408 765.167 59.1074 745V731.5Z" fill="#F9FFF1" stroke="black" stroke-width="4"/>
<path d="M191.888 757.5C199.888 711.1 166.555 693.5 148.888 690.5L146.889 679L58.8887 677.5V737.5C85.8887 760 105.889 775 145.389 777C176.989 778.6 189.555 764.667 191.888 757.5Z" fill="#90433B" stroke="black" stroke-width="4"/>
<path d="M149.607 692C135.107 691.5 104.907 692.3 100.107 699.5" stroke="black" stroke-width="4"/>
<path d="M91.6075 761C91.6075 727.4 157.274 709.167 180.108 709C195.108 730.5 192.912 732.5 189.608 755.5C186.09 779.987 140.108 783 91.6075 761Z" fill="#E0D4BC"/>
<path d="M181.107 708.5C152.774 712.167 93.8074 727.8 90.6074 761" stroke="black" stroke-width="4"/>
<path d="M168.607 700C146.774 702.167 101.107 710.9 93.1074 728.5" stroke="black" stroke-width="4"/>
<path d="M191.888 757.5C199.888 711.1 166.555 693.5 148.888 690.5L146.889 679L58.8887 677.5V737.5C85.8887 760 105.889 775 145.389 777C176.989 778.6 189.555 764.667 191.888 757.5Z" stroke="black" stroke-width="4"/>
<path d="M152.607 679.5C157.715 676.217 164.041 648.287 167.265 631.134C167.591 629.398 165.628 628.069 164.051 628.862C136.095 642.929 71.7928 636.631 39.1153 631.03C37.693 630.786 36.4829 632.074 36.8179 633.477L46.4499 673.84C46.5521 674.268 46.75 674.634 47.1307 674.854C57.9194 681.108 145.736 683.917 152.607 679.5Z" fill="#A1C6B4" stroke="black" stroke-width="4"/>
<path d="M279.202 517.5C277.202 512.3 275.368 491.333 274.202 481L251.202 531L273.202 539C276.035 534 281.202 522.7 279.202 517.5Z" fill="#88B9B6" stroke="#88B9B6" stroke-width="2"/>
<defs>
<filter id="filter0_f_60_2497" x="257.929" y="95.4769" width="99.059" height="60.8036" filterUnits="userSpaceOnUse" color-interpolation-filters="sRGB">
<feFlood flood-opacity="0" result="BackgroundImageFix"/>
<feBlend mode="normal" in="SourceGraphic" in2="BackgroundImageFix" result="shape"/>
<feGaussianBlur stdDeviation="6.9" result="effect1_foregroundBlur_60_2497"/>
</filter>
<filter id="filter1_f_60_2497" x="77.9383" y="222.517" width="76.2621" height="80.7152" filterUnits="userSpaceOnUse" color-interpolation-filters="sRGB">
<feFlood flood-opacity="0" result="BackgroundImageFix"/>
<feBlend mode="normal" in="SourceGraphic" in2="BackgroundImageFix" result="shape"/>
<feGaussianBlur stdDeviation="6.9" result="effect1_foregroundBlur_60_2497"/>
</filter>
</defs>
</svg>
