<svg width="482" height="154" viewBox="0 0 482 154" fill="none" xmlns="http://www.w3.org/2000/svg">
<rect x="1" y="1" width="480" height="152" fill="#1F2B17"/>
<rect x="1" y="1" width="480" height="152" stroke="#E2C65B" stroke-width="2"/>
<path d="M106.448 43.6V66H100.048V62.8H96.848V59.6H93.648V62.8H90.448V66H84.048V43.6H90.448V53.2H93.648V50H96.848V53.2H100.048V43.6H106.448ZM132.948 62.8V66H123.348V62.8H120.148V59.6H116.948V66H110.548V43.6H129.748V46.8H132.948V56.4H126.548V59.6H129.748V62.8H132.948ZM123.348 53.2H126.548V46.8H116.948V56.4H123.348V53.2ZM159.448 46.8V62.8H156.248V66H140.248V62.8H137.048V46.8H140.248V43.6H156.248V46.8H159.448ZM143.448 62.8H153.048V46.8H143.448V62.8ZM185.948 43.6V66H179.548V62.8H176.348V59.6H173.148V56.4H169.948V66H163.548V43.6H169.948V46.8H173.148V50H176.348V53.2H179.548V43.6H185.948ZM212.448 53.2V66H196.448V62.736H193.248V59.6H190.048V50H193.248V46.8H196.448V43.6H212.448V46.8H199.648V50H196.448V59.6H199.648V62.8H206.048V56.4H202.848V53.2H212.448ZM265.448 50V66H259.048V59.6H249.448V66H243.048V50H246.248V46.8H249.448V43.6H259.048V46.8H262.248V50H265.448ZM249.448 56.4H259.048V50H255.848V46.8H252.648V50H249.448V56.4ZM291.948 43.6V66H285.548V62.8H282.348V59.6H279.148V56.4H275.948V66H269.548V43.6H275.948V46.8H279.148V50H282.348V53.2H285.548V43.6H291.948ZM318.448 56.4V62.8H315.248V66H299.248V62.8H296.048V59.6H302.448V62.8H312.048V56.4H299.248V53.2H296.048V46.8H299.248V43.6H312.048V46.8H315.248V50H308.848V46.8H302.448V53.2H315.248V56.4H318.448ZM344.948 43.6V66H338.548V62.8H335.348V59.6H332.148V62.8H328.948V66H322.548V43.6H328.948V53.2H332.148V50H335.348V53.2H338.548V43.6H344.948ZM371.448 62.8V66H349.048V43.6H371.448V46.8H355.448V53.2H368.248V56.4H355.448V62.8H371.448ZM397.948 62.8V66H388.348V62.8H385.148V59.6H381.948V66H375.548V43.6H394.748V46.8H397.948V56.4H391.548V59.6H394.748V62.8H397.948ZM388.348 53.2H391.548V46.8H381.948V56.4H388.348V53.2Z" fill="#E2C65B"/>
<path d="M154.583 95.648V110.816H162.215V113H152.231V95.648H154.583ZM163.384 107.12C163.384 103.496 165.976 100.952 169.504 100.952C173.008 100.952 175.6 103.496 175.6 107.12C175.6 110.744 173.008 113.288 169.504 113.288C165.976 113.288 163.384 110.744 163.384 107.12ZM165.664 107.12C165.664 109.568 167.224 111.272 169.504 111.272C171.76 111.272 173.344 109.568 173.344 107.12C173.344 104.672 171.76 102.968 169.504 102.968C167.224 102.968 165.664 104.672 165.664 107.12ZM177.329 107.12C177.329 103.496 179.921 100.952 183.449 100.952C186.953 100.952 189.545 103.496 189.545 107.12C189.545 110.744 186.953 113.288 183.449 113.288C179.921 113.288 177.329 110.744 177.329 107.12ZM179.609 107.12C179.609 109.568 181.169 111.272 183.449 111.272C185.705 111.272 187.289 109.568 187.289 107.12C187.289 104.672 185.705 102.968 183.449 102.968C181.169 102.968 179.609 104.672 179.609 107.12ZM194.346 113H192.09V95.336H194.346V106.784L199.554 101.264H202.386L197.898 105.944L202.362 113H199.77L196.338 107.576L194.346 109.664V113ZM203.016 107.12C203.016 103.496 205.608 100.952 209.136 100.952C212.64 100.952 215.232 103.496 215.232 107.12C215.232 110.744 212.64 113.288 209.136 113.288C205.608 113.288 203.016 110.744 203.016 107.12ZM205.296 107.12C205.296 109.568 206.856 111.272 209.136 111.272C211.392 111.272 212.976 109.568 212.976 107.12C212.976 104.672 211.392 102.968 209.136 102.968C206.856 102.968 205.296 104.672 205.296 107.12ZM225.56 101.264H227.792V113H225.776L225.536 111.224C224.864 112.448 223.304 113.288 221.576 113.288C218.84 113.288 217.304 111.44 217.304 108.56V101.264H219.56V107.816C219.56 110.336 220.64 111.296 222.368 111.296C224.432 111.296 225.56 109.976 225.56 107.456V101.264ZM234.378 113H232.122V103.16H229.818V101.264H232.122V97.592H234.378V101.264H236.682V103.16H234.378V113ZM244.021 101.264H245.749V99.392C245.749 96.512 247.333 95.336 249.469 95.336C249.901 95.336 250.405 95.36 250.861 95.432V97.376H249.853C248.389 97.376 248.005 98.12 248.005 99.392V101.264H250.789V103.16H248.005V113H245.749V103.16H244.021V101.264ZM251.766 107.12C251.766 103.496 254.358 100.952 257.886 100.952C261.39 100.952 263.982 103.496 263.982 107.12C263.982 110.744 261.39 113.288 257.886 113.288C254.358 113.288 251.766 110.744 251.766 107.12ZM254.046 107.12C254.046 109.568 255.606 111.272 257.886 111.272C260.142 111.272 261.726 109.568 261.726 107.12C261.726 104.672 260.142 102.968 257.886 102.968C255.606 102.968 254.046 104.672 254.046 107.12ZM273.2 101.168V103.232H272.192C270.056 103.232 268.736 104.528 268.736 106.784V113H266.48V101.288H268.592L268.736 103.064C269.216 101.84 270.392 101.024 272 101.024C272.408 101.024 272.744 101.072 273.2 101.168ZM284.134 112.976H281.878V95.336H284.134V103.064C284.878 101.792 286.294 100.928 288.118 100.928C291.118 100.928 292.558 102.824 292.558 105.824V113H290.302V106.328C290.302 103.952 289.174 102.992 287.494 102.992C285.31 102.992 284.134 104.576 284.134 106.592V112.976ZM296.787 98.48C295.971 98.48 295.299 97.808 295.299 96.992C295.299 96.152 295.971 95.504 296.787 95.504C297.603 95.504 298.275 96.152 298.275 96.992C298.275 97.808 297.603 98.48 296.787 98.48ZM295.683 113V101.264H297.939V113H295.683ZM303.47 113H301.214V101.264H303.254L303.494 103.064C304.238 101.72 305.726 100.928 307.382 100.928C310.478 100.928 311.894 102.824 311.894 105.824V113H309.638V106.328C309.638 103.952 308.534 102.992 306.806 102.992C304.694 102.992 303.47 104.504 303.47 106.784V113ZM318.331 113H316.075V103.16H313.771V101.264H316.075V97.592H318.331V101.264H320.635V103.16H318.331V113ZM321.699 109.592H323.859C323.859 110.792 324.771 111.512 326.259 111.512C327.843 111.512 328.755 110.864 328.755 109.784C328.755 108.992 328.371 108.512 327.147 108.2L325.083 107.72C322.995 107.216 322.011 106.184 322.011 104.456C322.011 102.296 323.835 100.928 326.427 100.928C328.995 100.928 330.675 102.368 330.723 104.6H328.563C328.515 103.424 327.723 102.68 326.355 102.68C324.939 102.68 324.147 103.304 324.147 104.384C324.147 105.176 324.723 105.704 325.875 105.992L327.939 106.496C329.931 106.976 330.915 107.888 330.915 109.64C330.915 111.872 328.995 113.288 326.211 113.288C323.451 113.288 321.699 111.824 321.699 109.592Z" fill="#E2C65B"/>
</svg>
