<svg width="129" height="58" viewBox="0 0 129 58" fill="none" xmlns="http://www.w3.org/2000/svg">
<mask id="mask0_43_215" style="mask-type:alpha" maskUnits="userSpaceOnUse" x="0" y="0" width="129" height="58">
<rect width="129" height="58" fill="#D9D9D9"/>
</mask>
<g mask="url(#mask0_43_215)">
<path d="M5 51V6C5 3.79086 6.79086 2 9 2H181.884C184.138 2 185.947 3.86113 185.883 6.11402L184.599 51.114C184.538 53.2779 182.766 55 180.601 55H33.1525C32.8211 55 32.5346 54.7688 32.4647 54.4448L32.408 54.1824C32.2372 53.3915 31.0731 53.5158 31.0731 54.3249C31.0731 54.6978 30.7708 55 30.398 55H9C6.79086 55 5 53.2091 5 51Z" fill="#B7813A" stroke="black" stroke-width="2"/>
<path d="M36.4535 1.5H8.68131C6.43534 1.5 4.41651 3.19421 4.52378 5.54756C4.68494 9.08277 5.69397 13.279 8.38173 16.5587C11.0877 19.8606 15.4455 22.1721 22.163 21.9998C28.7638 21.8306 33.1862 19.4821 36.0507 16.2862C38.903 13.104 40.1716 9.12602 40.5623 5.74491C40.8434 3.3124 38.773 1.5 36.4535 1.5Z" fill="#E2C65B" stroke="black"/>
<rect x="8" y="3" width="29" height="2" rx="1" fill="#FFF6A1"/>
<path d="M10 12C12.3333 14.8333 19.6 18.8 30 12" stroke="#CFAB4D"/>
<path d="M65.6557 1.5H37.8835C35.6375 1.5 33.6187 3.19421 33.7259 5.54756C33.8871 9.08277 34.8961 13.279 37.5839 16.5587C40.2899 19.8606 44.6476 22.1721 51.3651 21.9998C57.9659 21.8306 62.3884 19.4821 65.2529 16.2862C68.1051 13.104 69.3738 9.12602 69.7645 5.74491C70.0455 3.3124 67.9751 1.5 65.6557 1.5Z" fill="#E2C65B" stroke="black"/>
<rect x="37.2021" y="3" width="29" height="2" rx="1" fill="#FFF6A1"/>
<path d="M39.2021 12C41.5355 14.8333 48.8021 18.8 59.2021 12" stroke="#CFAB4D"/>
<path d="M94.8578 1.5H67.0856C64.8396 1.5 62.8208 3.19421 62.9281 5.54756C63.0892 9.08277 64.0983 13.279 66.786 16.5587C69.492 19.8606 73.8498 22.1721 80.5673 21.9998C87.1681 21.8306 91.5905 19.4821 94.455 16.2862C97.3073 13.104 98.5759 9.12602 98.9666 5.74491C99.2477 3.3124 97.1773 1.5 94.8578 1.5Z" fill="#E2C65B" stroke="black"/>
<rect x="66.4043" y="3" width="29" height="2" rx="1" fill="#FFF6A1"/>
<path d="M68.4043 12C70.7376 14.8333 78.0043 18.8 88.4043 12" stroke="#CFAB4D"/>
<path d="M124.06 1.5H96.2878C94.0418 1.5 92.023 3.19421 92.1302 5.54756C92.2914 9.08277 93.3004 13.279 95.9882 16.5587C98.6942 19.8606 103.052 22.1721 109.769 21.9998C116.37 21.8306 120.793 19.4821 123.657 16.2862C126.509 13.104 127.778 9.12602 128.169 5.74491C128.45 3.3124 126.379 1.5 124.06 1.5Z" fill="#E2C65B" stroke="black"/>
<rect x="95.6064" y="3" width="29" height="2" rx="1" fill="#FFF6A1"/>
<path d="M97.6064 12C99.9398 14.8333 107.206 18.8 117.606 12" stroke="#CFAB4D"/>
<path d="M153.262 1.5H125.49C123.244 1.5 121.225 3.19421 121.332 5.54756C121.494 9.08277 122.503 13.279 125.19 16.5587C127.896 19.8606 132.254 22.1721 138.972 21.9998C145.572 21.8306 149.995 19.4821 152.859 16.2862C155.712 13.104 156.98 9.12602 157.371 5.74491C157.652 3.3124 155.582 1.5 153.262 1.5Z" fill="#E2C65B" stroke="black"/>
<rect x="124.809" y="3" width="29" height="2" rx="1" fill="#FFF6A1"/>
<path d="M126.809 12C129.142 14.8333 136.409 18.8 146.809 12" stroke="#CFAB4D"/>
<path d="M11 29H30.5M61.5 40H71M88.5 29H105M161 31.5H180" stroke="#A66D2A"/>
<path d="M19 36H44M77 39.5H134.5" stroke="#A66D2A" stroke-opacity="0.5"/>
<path d="M47.4346 49.2381L5 46.0952V55H183V44L156.15 49.2016C156.025 49.2259 155.898 49.2381 155.77 49.2381H130.051L105.416 51.8413C105.316 51.8518 105.215 51.8549 105.115 51.8503L47.4346 49.2381Z" fill="#A97039"/>
<path d="M5 51V6C5 3.79086 6.79086 2 9 2H181.884C184.138 2 185.947 3.86113 185.883 6.11402L184.599 51.114C184.538 53.2779 182.766 55 180.601 55H33.1525C32.8211 55 32.5346 54.7688 32.4647 54.4448L32.408 54.1824C32.2372 53.3915 31.0731 53.5158 31.0731 54.3249C31.0731 54.6978 30.7708 55 30.398 55H9C6.79086 55 5 53.2091 5 51Z" stroke="black" stroke-width="2"/>
</g>
</svg>
