<svg width="139" height="169" viewBox="0 0 139 169" fill="none" xmlns="http://www.w3.org/2000/svg">
<path d="M3.90702 9.30167L7.59375 107V156.367C7.59375 160.837 11.2566 164.439 15.726 164.366L120.726 162.63C125.092 162.558 128.594 158.998 128.594 154.631V109.04C128.594 107.701 128.258 106.384 127.617 105.209L126.571 103.291C125.93 102.116 125.594 100.799 125.594 99.46V16.0398C125.594 14.7098 125.987 13.4095 126.725 12.3028C127.901 10.5384 128.178 8.32316 127.473 6.32352L127.352 5.98038C126.298 2.99585 123.477 1 120.312 1H11.9013C7.36475 1 3.73595 4.76832 3.90702 9.30167Z" fill="#B67B37"/>
<path d="M36.0473 2H8.27506C6.02909 2 4.01026 3.69421 4.11753 6.04756C4.27869 9.58277 5.28772 13.779 7.97548 17.0587C10.6815 20.3606 15.0392 22.6721 21.7567 22.4998C28.3575 22.3306 32.78 19.9821 35.6445 16.7862C38.4967 13.604 39.7654 9.62602 40.1561 6.24491C40.4371 3.8124 38.3667 2 36.0473 2Z" fill="#E2C65B" stroke="black"/>
<rect x="7.59375" y="3.5" width="29" height="2" rx="1" fill="#FFF6A1"/>
<path d="M9.59375 12.5C11.9271 15.3333 19.1938 19.3 29.5938 12.5" stroke="#CFAB4D"/>
<path d="M65.2494 2H37.4772C35.2312 2 33.2124 3.69421 33.3197 6.04756C33.4808 9.58277 34.4899 13.779 37.1776 17.0587C39.8836 20.3606 44.2414 22.6721 50.9589 22.4998C57.5597 22.3306 61.9821 19.9821 64.8466 16.7862C67.6989 13.604 68.9675 9.62602 69.3582 6.24491C69.6393 3.8124 67.5689 2 65.2494 2Z" fill="#E2C65B" stroke="black"/>
<rect x="36.7959" y="3.5" width="29" height="2" rx="1" fill="#FFF6A1"/>
<path d="M38.7959 12.5C41.1292 15.3333 48.3959 19.3 58.7959 12.5" stroke="#CFAB4D"/>
<path d="M94.4516 2H66.6794C64.4334 2 62.4146 3.69421 62.5218 6.04756C62.683 9.58277 63.692 13.779 66.3798 17.0587C69.0858 20.3606 73.4435 22.6721 80.161 22.4998C86.7618 22.3306 91.1843 19.9821 94.0488 16.7862C96.901 13.604 98.1697 9.62602 98.5604 6.24491C98.8414 3.8124 96.771 2 94.4516 2Z" fill="#E2C65B" stroke="black"/>
<rect x="65.998" y="3.5" width="29" height="2" rx="1" fill="#FFF6A1"/>
<path d="M67.998 12.5C70.3314 15.3333 77.598 19.3 87.998 12.5" stroke="#CFAB4D"/>
<path d="M123.654 2H95.8815C93.6355 2 91.6167 3.69421 91.724 6.04756C91.8851 9.58277 92.8942 13.779 95.5819 17.0587C98.2879 20.3606 102.646 22.6721 109.363 22.4998C115.964 22.3306 120.386 19.9821 123.251 16.7862C126.103 13.604 127.372 9.62602 127.763 6.24491C128.044 3.8124 125.973 2 123.654 2Z" fill="#E2C65B" stroke="black"/>
<rect x="95.2002" y="3.5" width="29" height="2" rx="1" fill="#FFF6A1"/>
<path d="M97.2002 12.5C99.5335 15.3333 106.8 19.3 117.2 12.5" stroke="#CFAB4D"/>
<path d="M21.0938 29.5L49.5938 24.5M71.5938 33H87.0938M82.0938 42.5L107.594 37.5M15.5938 57.5L27.0938 54.5M46.5938 85.5H60.5938M87.0938 85.5L101.594 91M46.5938 107H66.0938M66.0938 140.5H94.5938M107.594 125.5H115.594M15.5938 113H32.5938M15.5938 125.5H32.5938" stroke="#AF742C"/>
<path d="M23.6107 33.4842L52.3127 29.8173M73.8928 39.3329L89.376 40.055M83.9389 49.3117L109.644 45.5051M16.8123 61.1976L28.4396 58.7365M46.4743 90.6113L60.4591 91.2635M86.9303 92.498L101.158 98.6675M45.4727 112.088L64.9516 112.996M63.391 146.46L91.8601 147.788M105.545 133.41L113.536 133.782M14.2269 116.637L31.2084 117.429M13.6446 129.124L30.6261 129.916" stroke="#BA8541"/>
<path d="M6.59375 105.5L2.91168 9.30601C2.7381 4.77104 6.36754 1 10.9058 1H119.312C122.477 1 125.298 2.99585 126.352 5.98038L126.473 6.32352C127.178 8.32316 126.901 10.5384 125.725 12.3028V12.3028C124.987 13.4095 124.594 14.7098 124.594 16.0398V99.46C124.594 100.799 124.93 102.116 125.571 103.291L126.617 105.209C127.258 106.384 127.594 107.701 127.594 109.04V154.566C127.594 158.958 124.052 162.529 119.66 162.566L6.5 163.5" stroke="black" stroke-width="2"/>
<path d="M126.313 65.5C122.77 65.1064 45.6645 47.8955 5.72482 38.9293C4.45096 38.6433 3.07446 38.5451 1.9744 39.2482C-0.572323 40.8759 2.53206 43.4379 3.81309 46C5.31309 49 123.813 74 126.313 73.5C128.813 73 130.813 66 126.313 65.5Z" fill="#B38746" stroke="black"/>
<path d="M126.779 43.7319C123.449 45.0029 47.0135 64.9813 7.39759 75.2842C6.13405 75.6128 4.86517 76.1553 4.20875 77.2838C2.68909 79.8965 6.62175 80.7541 8.93313 82.446C11.6396 84.4272 128.446 52.4338 130.44 50.8453C132.434 49.2568 131.009 42.1174 126.779 43.7319Z" fill="#B38746" stroke="black"/>
<path d="M126.655 98.7949C123.139 100.159 70.9294 140.837 32.6807 158.09C31.919 158.434 31.1809 158.854 30.6753 159.519C28.0432 162.984 33.492 165.305 36.0478 167.096C38.8238 169.041 128.206 107.556 130.315 105.908C132.425 104.26 131.093 97.0732 126.655 98.7949Z" fill="#B38746" stroke="black"/>
</svg>
