<svg width="482" height="192" viewBox="0 0 482 192" fill="none" xmlns="http://www.w3.org/2000/svg">
<rect x="1" y="1" width="480" height="190" fill="#1F2B17"/>
<rect x="1" y="1" width="480" height="190" stroke="#E2C65B" stroke-width="2"/>
<path d="M119.698 56.4V62.8H116.498V66H97.298V43.6H116.498V46.8H119.698V53.2H116.498V56.4H119.698ZM103.698 53.2H113.298V46.8H103.698V53.2ZM103.698 62.8H113.298V56.4H103.698V62.8ZM146.198 62.8V66H123.798V43.6H146.198V46.8H130.198V53.2H142.998V56.4H130.198V62.8H146.198ZM171.098 43.6V46.8H164.698V66H158.298V46.8H151.898V43.6H171.098ZM197.598 43.6V46.8H191.198V66H184.798V46.8H178.398V43.6H197.598ZM225.698 62.8V66H203.298V43.6H225.698V46.8H209.698V53.2H222.498V56.4H209.698V62.8H225.698ZM252.198 62.8V66H242.598V62.8H239.398V59.6H236.198V66H229.798V43.6H248.998V46.8H252.198V56.4H245.798V59.6H248.998V62.8H252.198ZM242.598 53.2H245.798V46.8H236.198V56.4H242.598V53.2ZM305.198 62.8V66H282.798V43.6H289.198V62.8H305.198ZM331.698 43.6V62.8H328.498V66H312.498V62.8H309.298V43.6H315.698V62.8H325.298V43.6H331.698ZM358.198 59.6V62.8H354.998V66H342.198V62.8H338.998V59.6H335.798V50H338.998V46.8H342.198V43.6H354.998V46.8H358.198V50H351.798V46.8H345.398V50H342.198V59.6H345.398V62.8H351.798V59.6H358.198ZM384.698 62.8V66H375.098V62.8H371.898V59.6H368.698V66H362.298V43.6H368.698V53.2H371.898V50H375.098V46.8H378.298V43.6H384.698V46.8H381.498V50H378.298V53.2H375.098V56.4H378.298V59.6H381.498V62.8H384.698ZM146.198 81.6V104H139.798V100.8H136.598V97.6H133.398V94.4H130.198V104H123.798V81.6H130.198V84.8H133.398V88H136.598V91.2H139.798V81.6H146.198ZM172.698 100.8V104H150.298V81.6H172.698V84.8H156.698V91.2H169.498V94.4H156.698V100.8H172.698ZM199.198 97.6V104H192.798V100.8H189.598V97.6H186.398V100.8H183.198V104H176.798V97.6H179.998V94.4H183.198V91.2H179.998V88H176.798V81.6H183.198V84.8H186.398V88H189.598V84.8H192.798V81.6H199.198V88H195.998V91.2H192.798V94.4H195.998V97.6H199.198ZM224.098 81.6V84.8H217.698V104H211.298V84.8H204.898V81.6H224.098ZM277.098 81.6V84.8H270.698V104H264.298V84.8H257.898V81.6H277.098ZM303.598 81.6V84.8H297.198V100.8H303.598V104H284.398V100.8H290.798V84.8H284.398V81.6H303.598ZM331.698 81.6V104H325.298V94.4H322.098V97.6H318.898V94.4H315.698V104H309.298V81.6H315.698V84.8H318.898V88H322.098V84.8H325.298V81.6H331.698ZM358.198 100.8V104H335.798V81.6H358.198V84.8H342.198V91.2H354.998V94.4H342.198V100.8H358.198Z" fill="#E2C65B"/>
<path d="M205.12 143.944L199.24 133.648H201.88L205.744 140.584C205.984 140.992 206.128 141.328 206.32 141.736C206.536 141.304 206.584 141.16 206.896 140.584L210.736 133.648H213.304L207.472 143.944V151H205.12V143.944ZM212.052 145.12C212.052 141.496 214.644 138.952 218.172 138.952C221.676 138.952 224.268 141.496 224.268 145.12C224.268 148.744 221.676 151.288 218.172 151.288C214.644 151.288 212.052 148.744 212.052 145.12ZM214.332 145.12C214.332 147.568 215.892 149.272 218.172 149.272C220.428 149.272 222.012 147.568 222.012 145.12C222.012 142.672 220.428 140.968 218.172 140.968C215.892 140.968 214.332 142.672 214.332 145.12ZM234.596 139.264H236.828V151H234.812L234.572 149.224C233.9 150.448 232.34 151.288 230.612 151.288C227.876 151.288 226.34 149.44 226.34 146.56V139.264H228.596V145.816C228.596 148.336 229.676 149.296 231.404 149.296C233.468 149.296 234.596 147.976 234.596 145.456V139.264ZM248.967 151H246.711V133.336H248.967V151ZM251.52 145.12C251.52 141.496 254.112 138.952 257.64 138.952C261.144 138.952 263.736 141.496 263.736 145.12C263.736 148.744 261.144 151.288 257.64 151.288C254.112 151.288 251.52 148.744 251.52 145.12ZM253.8 145.12C253.8 147.568 255.36 149.272 257.64 149.272C259.896 149.272 261.48 147.568 261.48 145.12C261.48 142.672 259.896 140.968 257.64 140.968C255.36 140.968 253.8 142.672 253.8 145.12ZM265.274 147.592H267.434C267.434 148.792 268.346 149.512 269.834 149.512C271.418 149.512 272.33 148.864 272.33 147.784C272.33 146.992 271.946 146.512 270.722 146.2L268.658 145.72C266.57 145.216 265.586 144.184 265.586 142.456C265.586 140.296 267.41 138.928 270.002 138.928C272.57 138.928 274.25 140.368 274.298 142.6H272.138C272.09 141.424 271.298 140.68 269.93 140.68C268.514 140.68 267.722 141.304 267.722 142.384C267.722 143.176 268.298 143.704 269.45 143.992L271.514 144.496C273.506 144.976 274.49 145.888 274.49 147.64C274.49 149.872 272.57 151.288 269.786 151.288C267.026 151.288 265.274 149.824 265.274 147.592ZM280.303 151H278.047V141.16H275.743V139.264H278.047V135.592H280.303V139.264H282.607V141.16H280.303V151Z" fill="#E2C65B"/>
</svg>
