<svg width="183" height="68" viewBox="0 0 183 68" fill="none" xmlns="http://www.w3.org/2000/svg">
<path d="M182 56V11C182 8.79086 180.209 7 178 7H5.11571C2.86189 7 1.05309 8.86113 1.11732 11.114L2.40067 56.114C2.46237 58.2779 4.23431 60 6.39905 60H153.847C154.179 60 154.465 59.7688 154.535 59.4448L154.592 59.1824C154.763 58.3915 155.927 58.5158 155.927 59.3249C155.927 59.6978 156.229 60 156.602 60H178C180.209 60 182 58.2091 182 56Z" fill="#B7813A" stroke="black" stroke-width="2"/>
<path d="M150.546 6.5H178.319C180.565 6.5 182.583 8.19421 182.476 10.5476C182.315 14.0828 181.306 18.279 178.618 21.5587C175.912 24.8606 171.555 27.1721 164.837 26.9998C158.236 26.8306 153.814 24.4821 150.949 21.2862C148.097 18.104 146.828 14.126 146.438 10.7449C146.157 8.3124 148.227 6.5 150.546 6.5Z" fill="#E2C65B" stroke="black"/>
<rect width="29" height="2" rx="1" transform="matrix(-1 0 0 1 179 8)" fill="#FFF6A1"/>
<path d="M177 17C174.667 19.8333 167.4 23.8 157 17" stroke="#CFAB4D"/>
<path d="M114.546 6.5H142.319C144.565 6.5 146.583 8.19421 146.476 10.5476C146.315 14.0828 145.306 18.279 142.618 21.5587C139.912 24.8606 135.555 27.1721 128.837 26.9998C122.236 26.8306 117.814 24.4821 114.949 21.2862C112.097 18.104 110.828 14.126 110.438 10.7449C110.157 8.3124 112.227 6.5 114.546 6.5Z" fill="#E2C65B" stroke="black"/>
<rect width="29" height="2" rx="1" transform="matrix(-1 0 0 1 143 8)" fill="#FFF6A1"/>
<path d="M141 17C138.667 19.8333 131.4 23.8 121 17" stroke="#CFAB4D"/>
<path d="M78.5465 6.5H106.319C108.565 6.5 110.583 8.19421 110.476 10.5476C110.315 14.0828 109.306 18.279 106.618 21.5587C103.912 24.8606 99.5545 27.1721 92.837 26.9998C86.2362 26.8306 81.8138 24.4821 78.9493 21.2862C76.097 18.104 74.8284 14.126 74.4377 10.7449C74.1566 8.3124 76.227 6.5 78.5465 6.5Z" fill="#E2C65B" stroke="black"/>
<rect width="29" height="2" rx="1" transform="matrix(-1 0 0 1 107 8)" fill="#FFF6A1"/>
<path d="M105 17C102.667 19.8333 95.4 23.8 85 17" stroke="#CFAB4D"/>
<path d="M41.5465 6.5H69.3187C71.5647 6.5 73.5835 8.19421 73.4762 10.5476C73.3151 14.0828 72.306 18.279 69.6183 21.5587C66.9123 24.8606 62.5545 27.1721 55.837 26.9998C49.2362 26.8306 44.8138 24.4821 41.9493 21.2862C39.097 18.104 37.8284 14.126 37.4377 10.7449C37.1566 8.3124 39.227 6.5 41.5465 6.5Z" fill="#E2C65B" stroke="black"/>
<rect width="29" height="2" rx="1" transform="matrix(-1 0 0 1 70 8)" fill="#FFF6A1"/>
<path d="M68 17C65.6667 19.8333 58.4 23.8 48 17" stroke="#CFAB4D"/>
<path d="M5.54648 6.5H33.3187C35.5647 6.5 37.5835 8.19421 37.4762 10.5476C37.3151 14.0828 36.306 18.279 33.6183 21.5587C30.9123 24.8606 26.5545 27.1721 19.837 26.9998C13.2362 26.8306 8.81377 24.4821 5.94927 21.2862C3.09704 18.104 1.82835 14.126 1.43769 10.7449C1.15662 8.3124 3.22703 6.5 5.54648 6.5Z" fill="#E2C65B" stroke="black"/>
<rect width="29" height="2" rx="1" transform="matrix(-1 0 0 1 34 8)" fill="#FFF6A1"/>
<path d="M32 17C29.6667 19.8333 22.4 23.8 12 17" stroke="#CFAB4D"/>
<path d="M176 34H156.5M125.5 45H116M98.5 34H82M26 36.5H7" stroke="#A66D2A"/>
<path d="M168 41H143M110 44.5H52.5" stroke="#A66D2A" stroke-opacity="0.5"/>
<path d="M139.565 54.2381L182 51.0952V60H4V49L30.8495 54.2016C30.9749 54.2259 31.1022 54.2381 31.2299 54.2381H56.9494L81.5842 56.8413C81.684 56.8518 81.7845 56.8549 81.8848 56.8503L139.565 54.2381Z" fill="#A97039"/>
<path d="M182 56V11C182 8.79086 180.209 7 178 7H5.11571C2.86189 7 1.05309 8.86113 1.11732 11.114L2.40067 56.114C2.46237 58.2779 4.23431 60 6.39905 60H153.847C154.179 60 154.465 59.7688 154.535 59.4448L154.592 59.1824C154.763 58.3915 155.927 58.5158 155.927 59.3249C155.927 59.6978 156.229 60 156.602 60H178C180.209 60 182 58.2091 182 56Z" stroke="black" stroke-width="2"/>
<path d="M44 60.5V7.5C43.5 5.33333 41.6 1 38 1C33.5 1 31 6 32 6C32.8 6 31.6667 42.3333 31 60.5C32 65.5 34.5 67 38 67C40.8 67 43.1667 62.6667 44 60.5Z" fill="#956E33" stroke="black"/>
</svg>
