<svg width="125" height="163" viewBox="0 0 125 163" fill="none" xmlns="http://www.w3.org/2000/svg">
<path d="M113 1H10.2285C5.72201 1 2.1048 4.72053 2.2317 9.22527L2.79052 29.0635C2.90859 33.255 6.24308 36.6441 10.4321 36.8303L25.5 37.5H10C5.58172 37.5 2 41.0817 2 45.5V50.0918C2 54.272 5.21845 57.7476 9.38643 58.0682L21.5 59H10C5.58172 59 2 62.5817 2 67V99.2935C2 103.595 5.40216 107.127 9.70115 107.288L55.5 109H10C5.58172 109 2 112.582 2 117V154C2 158.418 5.58172 162 10 162H116C120.418 162 124 158.418 124 154V110.362C124 109.61 123.39 109 122.638 109C121.181 109 120.742 107.02 122.062 106.404L123.072 105.933C123.638 105.669 124 105.1 124 104.475V68.5889C124 64.5429 120.979 61.1338 116.963 60.647L91 57.5H113C117.418 57.5 121 53.9183 121 49.5V9C121 4.58172 117.418 1 113 1Z" fill="#B7813A" stroke="black" stroke-width="2"/>
<path d="M106.943 137.99L123.5 130.5V156.5L118.5 161.5H8.5L3 157.5V133L16.4865 142.096C21.2587 145.314 27.5653 145.073 32.0783 141.501C34.9029 139.264 38.5179 138.278 42.0867 138.771L63.0319 141.66C64.6735 141.886 66.3331 141.955 67.9878 141.866L97.6303 140.263C100.849 140.089 104.007 139.318 106.943 137.99Z" fill="#A97039"/>
<path d="M37.4699 1.43615H6.15138C3.61863 1.43615 1.342 3.3467 1.46297 6.00056C1.6447 9.98719 2.78259 14.7192 5.81355 18.4177C8.86506 22.1413 13.7793 24.7479 21.3546 24.5537C28.7983 24.3628 33.7854 21.7144 37.0157 18.1104C40.2321 14.5219 41.6628 10.036 42.1033 6.22311C42.4203 3.47999 40.0855 1.43615 37.4699 1.43615Z" fill="#E2C65B" stroke="black" stroke-width="1.12769"/>
<rect x="5.38281" y="3.12793" width="32.7031" height="2.25538" rx="1.12769" fill="#FFF6A1"/>
<path d="M7.63867 13.2773C10.27 16.4725 18.4645 20.9457 30.1925 13.2773" stroke="#CFAB4D" stroke-width="1.12769"/>
<path d="M77.1672 1.43615H45.8486C43.3159 1.43615 41.0393 3.3467 41.1602 6.00056C41.342 9.98719 42.4799 14.7192 45.5108 18.4177C48.5623 22.1413 53.4765 24.7479 61.0518 24.5537C68.4955 24.3628 73.4827 21.7144 76.7129 18.1104C79.9294 14.5219 81.3601 10.036 81.8006 6.22311C82.1176 3.47999 79.7828 1.43615 77.1672 1.43615Z" fill="#E2C65B" stroke="black" stroke-width="1.12769"/>
<rect x="45.0801" y="3.12793" width="32.7031" height="2.25538" rx="1.12769" fill="#FFF6A1"/>
<path d="M47.3359 13.2773C49.9672 16.4725 58.1618 20.9457 69.8898 13.2773" stroke="#CFAB4D" stroke-width="1.12769"/>
<path d="M116.864 1.43615H85.5459C83.0132 1.43615 80.7365 3.3467 80.8575 6.00056C81.0392 9.98719 82.1771 14.7192 85.2081 18.4177C88.2596 22.1413 93.1738 24.7479 100.749 24.5537C108.193 24.3628 113.18 21.7144 116.41 18.1104C119.627 14.5219 121.057 10.036 121.498 6.22311C121.815 3.47999 119.48 1.43615 116.864 1.43615Z" fill="#E2C65B" stroke="black" stroke-width="1.12769"/>
<rect x="84.7773" y="3.12793" width="32.7031" height="2.25538" rx="1.12769" fill="#FFF6A1"/>
<path d="M87.0332 13.2773C89.6645 16.4725 97.8591 20.9457 109.587 13.2773" stroke="#CFAB4D" stroke-width="1.12769"/>
<path d="M22.1484 37L50.6484 32M72.6484 40.5H88.1484M83.1484 50L108.648 45M16.6484 65L28.1484 62M47.6484 93H61.6484M88.1484 93L102.648 98.5M47.6484 114.5H67.1484M67.1484 148H95.6484M108.648 133H116.648M16.6484 120.5H33.6484M16.6484 133H33.6484" stroke="#AF742C"/>
<path d="M24.6654 40.9842L53.3674 37.3173M74.9475 46.8329L90.4307 47.555M84.9936 56.8117L110.699 53.0051M17.867 68.6976L29.4943 66.2365M47.529 98.1113L61.5138 98.7635M87.985 99.998L102.213 106.167M46.5274 119.588L66.0063 120.496M64.4457 153.96L92.9147 155.288M106.599 140.91L114.591 141.282M15.2816 124.137L32.2631 124.929M14.6993 136.624L31.6808 137.416" stroke="#BA8541"/>
<path d="M113 1H10.2285C5.72201 1 2.1048 4.72053 2.2317 9.22527L2.79052 29.0635C2.90859 33.255 6.24308 36.6441 10.4321 36.8303L25.5 37.5H10C5.58172 37.5 2 41.0817 2 45.5V50.0918C2 54.272 5.21845 57.7476 9.38643 58.0682L21.5 59H10C5.58172 59 2 62.5817 2 67V99.2935C2 103.595 5.40216 107.127 9.70115 107.288L55.5 109H10C5.58172 109 2 112.582 2 117V154C2 158.418 5.58172 162 10 162H116C120.418 162 124 158.418 124 154V110.362C124 109.61 123.39 109 122.638 109C121.181 109 120.742 107.02 122.062 106.404L123.072 105.933C123.638 105.669 124 105.1 124 104.475V68.5889C124 64.5429 120.979 61.1338 116.963 60.647L91 57.5H113C117.418 57.5 121 53.9183 121 49.5V9C121 4.58172 117.418 1 113 1Z" stroke="black" stroke-width="2"/>
</svg>
