<svg width="405" height="122" viewBox="0 0 405 122" fill="none" xmlns="http://www.w3.org/2000/svg">
<rect x="0.5" width="404" height="122" rx="24" fill="#1F2B17"/>
<path d="M101.242 75.2V80H67.6423V70.4H72.4423V65.6H77.2423V60.8H82.0423V56H86.8423V51.2H67.6423V46.4H101.242V56H96.4423V60.8H91.6423V65.6H86.8423V70.4H82.0423V75.2H101.242ZM140.992 75.2V80H126.592V75.2H121.792V70.4H116.992V80H107.392V46.4H116.992V60.8H121.792V56H126.592V51.2H131.392V46.4H140.992V51.2H136.192V56H131.392V60.8H126.592V65.6H131.392V70.4H136.192V75.2H140.992ZM220.492 46.4V80H210.892V65.6H206.092V70.4H201.292V65.6H196.492V80H186.892V46.4H196.492V51.2H201.292V56H206.092V51.2H210.892V46.4H220.492ZM260.242 56V80H250.642V70.4H236.242V80H226.642V56H231.442V51.2H236.242V46.4H250.642V51.2H255.442V56H260.242ZM236.242 65.6H250.642V56H245.842V51.2H241.042V56H236.242V65.6ZM295.202 46.4V51.2H285.602V80H276.002V51.2H266.402V46.4H295.202ZM337.352 46.4V80H327.752V65.6H313.352V80H303.752V46.4H313.352V60.8H327.752V46.4H337.352Z" fill="#819EA2"/>
</svg>
